<svg width="580" height="450" viewBox="0 0 580 450" fill="none" xmlns="http://www.w3.org/2000/svg">
<path d="M572.274 328.795L222.44 134.256C209.252 126.663 189.282 125.871 177.877 132.473L7.17658 224.89C3.67581 226.783 1.49609 230.458 1.49609 234.442C1.49609 238.426 3.56573 241.903 6.93438 243.84L353.444 443.199C366.632 450.792 386.602 451.585 398.007 444.982L572.164 349.99C576.061 347.877 578.483 343.784 578.483 339.36C578.483 334.936 576.105 330.908 572.252 328.773L572.274 328.795Z" fill="#C7DAFF"/>
<path d="M378.609 450C369.758 450 360.445 447.865 353.179 443.683L6.66983 244.324C3.14705 242.299 0.945312 238.514 0.945312 234.442C0.945312 230.37 3.23512 226.409 6.91202 224.406L177.613 131.989C189.15 125.32 209.384 126.113 222.704 133.772L572.516 328.289C576.523 330.512 579.033 334.76 579.033 339.36C579.033 343.96 576.501 348.252 572.428 350.475L398.271 445.466C393.031 448.503 385.963 450 378.587 450H378.609ZM197.296 128.556C190.119 128.556 183.249 130.008 178.163 132.958L7.44044 225.374C4.11581 227.179 2.04618 230.656 2.04618 234.442C2.04618 238.228 4.02774 241.529 7.22026 243.378L353.73 442.737C366.764 450.22 386.492 451.035 397.742 444.52L571.922 349.528C575.643 347.503 577.955 343.608 577.955 339.382C577.955 335.156 575.687 331.327 572.01 329.28L222.176 134.74C215.064 130.647 205.927 128.556 197.296 128.556Z" fill="#3B80F9"/>
<path d="M571.019 328.091L222.462 134.256C209.252 126.663 189.304 125.871 177.899 132.473L7.17638 224.89C7.17638 224.89 7.15437 224.89 7.13235 224.89C5.28289 225.88 5.32693 228.565 7.13235 229.6L353.245 428.233C365.619 435.364 384.312 436.112 395.012 429.906L570.667 332.515C572.384 331.568 572.494 329.214 571.019 328.069V328.091Z" fill="url(#paint0_linear_2325_590)"/>
<path d="M571.019 328.091L222.462 134.256C209.252 126.663 189.304 125.871 177.899 132.473L7.17638 224.89C7.17638 224.89 7.15437 224.89 7.13235 224.89C5.28289 225.88 5.32693 228.565 7.13235 229.6L353.245 428.233C365.619 435.364 384.312 436.112 395.012 429.906L570.667 332.515C572.384 331.568 572.494 329.214 571.019 328.069V328.091Z" fill="#83AFFA"/>
<path d="M376.848 434.682C368.547 434.682 359.807 432.679 353.003 428.739L6.89014 230.106C5.85532 229.512 5.21682 228.389 5.23883 227.179C5.23883 225.99 5.87734 224.978 6.89014 224.428L177.635 131.989C189.172 125.298 209.406 126.113 222.726 133.772L571.592 327.783V327.849C572.318 328.509 572.715 329.478 572.626 330.468C572.538 331.546 571.922 332.515 570.975 333.043L395.321 430.434C390.389 433.295 383.783 434.682 376.87 434.682H376.848ZM197.318 128.556C190.141 128.556 183.271 130.008 178.163 132.958L7.44057 225.374C6.73601 225.748 6.3397 226.431 6.31768 227.201C6.31768 228.015 6.714 228.742 7.41855 229.16L353.532 427.793C365.729 434.814 384.224 435.562 394.748 429.465L570.425 332.075C571.063 331.723 571.46 331.106 571.526 330.38C571.592 329.654 571.283 328.971 570.711 328.531L222.198 134.74C215.086 130.647 205.971 128.556 197.318 128.556Z" fill="#3B80F9"/>
<path d="M231.247 212.741C255.686 226.673 253.881 184.811 273.784 196.146C293.688 207.481 290.98 300.095 321.738 317.637C352.519 335.178 347.983 233.782 372.422 247.714C396.862 261.645 396.862 324.328 420.398 337.753C443.935 351.179 444.837 280.507 481.937 301.68L148.88 111.829C195.028 138.13 206.808 198.831 231.225 212.741H231.247Z" fill="white"/>
<path d="M426.079 340.086C424.163 340.086 422.16 339.492 420.068 338.281C408.201 331.503 402.146 312.244 396.311 293.625C390.366 274.719 384.224 255.153 372.114 248.242C369.78 246.921 367.711 246.657 365.773 247.471C359.124 250.245 355.205 264.947 351.065 280.485C346.442 297.762 341.686 315.634 332.351 319.529C329.07 320.894 325.393 320.454 321.43 318.187C304.124 308.327 297.299 275.247 291.266 246.063C286.555 223.217 282.085 201.626 273.454 196.718C264.515 191.612 260.332 197.665 255.51 204.664C250.248 212.279 244.281 220.928 230.939 213.291C220.502 207.349 212.422 193.109 203.065 176.646C189.986 153.624 175.169 127.521 148.594 112.379L149.232 111.279C149.232 111.279 149.276 111.301 149.298 111.323L482.245 301.108L481.606 302.208C475.243 298.577 469.717 297.498 464.675 298.885C455.472 301.416 449.637 311.716 444.023 321.642C439.245 330.072 434.731 338.039 428.567 339.734C427.752 339.954 426.915 340.064 426.079 340.064V340.086ZM368.019 245.777C369.516 245.777 371.101 246.239 372.731 247.163C385.28 254.316 391.489 274.125 397.522 293.273C403.291 311.672 409.257 330.666 420.706 337.203C423.415 338.744 425.88 339.184 428.236 338.545C433.895 336.983 438.276 329.236 442.922 321.048C448.404 311.342 454.635 300.359 464.345 297.674C467.207 296.882 470.223 296.838 473.394 297.542L161.826 119.928C181.223 135.643 193.751 157.696 204.144 176.008C213.413 192.316 221.405 206.402 231.555 212.191C243.885 219.234 249.015 211.794 254.453 203.937C259.209 197.048 264.141 189.939 274.071 195.596C283.208 200.79 287.501 221.655 292.499 245.799C298.466 274.719 305.247 307.512 322.047 317.087C325.723 319.177 328.916 319.596 331.866 318.363C340.607 314.709 345.297 297.146 349.833 280.155C354.06 264.286 358.067 249.32 365.289 246.305C366.169 245.931 367.072 245.755 368.019 245.755V245.777Z" fill="#3B80F9"/>
<path d="M437.902 201.318C413.463 187.386 405.008 244.148 385.082 232.791C365.179 221.435 374.228 83.3048 343.448 65.7635C312.689 48.2221 310.862 173.697 286.423 159.765C261.983 145.833 261.983 14.8562 238.447 1.43061C214.91 -11.973 214.007 148.958 176.908 127.829L509.943 317.659C463.795 291.358 462.297 215.25 437.858 201.34L437.902 201.318Z" fill="#C7DAFF"/>
<path d="M509.657 318.209C509.657 318.209 509.635 318.209 509.613 318.187L176.622 128.38L177.261 127.279C180.893 129.348 184.196 129.678 187.345 128.248C200.599 122.305 208.129 86.6502 214.778 55.1991C220.569 27.7536 225.589 4.07173 233.581 0.462218C235.254 -0.286095 237.016 -0.15404 238.777 0.858383C250.688 7.65922 256.457 42.4338 262.556 79.2551C268.501 115.174 274.665 152.304 286.731 159.193C288.668 160.293 290.474 160.491 292.213 159.765C299.875 156.551 305.115 136.853 310.686 115.966C316.873 92.7248 323.258 68.6907 334.046 64.1788C337.085 62.9023 340.343 63.2545 343.756 65.1913C361.084 75.0734 365.949 122.239 370.243 163.858C373.611 196.498 376.782 227.333 385.391 232.241C394.33 237.347 401.023 227.663 408.091 217.429C415.951 206.05 424.846 193.175 438.188 200.768C448.691 206.754 454.944 223.746 462.187 243.422C472.293 270.867 483.742 301.944 510.229 317.087H510.273L509.635 318.209H509.657ZM182.633 130.338L499.088 310.726C479.361 293.735 469.321 266.443 460.998 243.862C453.843 224.428 447.656 207.635 437.572 201.89C425.242 194.869 417.052 206.71 409.147 218.155C401.728 228.896 394.726 239.02 384.774 233.364C375.615 228.147 372.555 198.413 368.988 164.013C364.738 122.701 359.895 75.8877 343.139 66.3357C340.057 64.575 337.239 64.2669 334.531 65.3893C324.337 69.6591 318.018 93.385 311.919 116.319C306.282 137.513 300.954 157.52 292.72 160.953C290.628 161.834 288.404 161.614 286.114 160.315C273.521 153.14 267.312 115.702 261.301 79.4972C255.51 44.5907 249.522 8.49557 238.139 2.00286C236.707 1.18852 235.386 1.07848 234.087 1.65071C226.668 4.9741 221.493 29.5144 216.011 55.4852C209.296 87.2225 201.7 123.207 187.851 129.414C186.178 130.162 184.438 130.493 182.633 130.36V130.338Z" fill="#3B80F9"/>
<path d="M420.377 200.636C396.84 187.232 396.84 230.084 372.401 216.152C347.962 202.221 349.195 105.446 321.717 88.7851C289.946 69.5051 293.667 141.959 273.763 130.603C253.86 119.246 255.665 84.3613 231.226 70.4294C206.787 56.4976 195.029 138.13 148.881 111.829L481.916 301.658C444.816 280.507 443.914 214.061 420.377 200.636Z" fill="#83AFFA"/>
<path d="M481.607 302.208C481.607 302.208 481.585 302.208 481.563 302.208L148.572 112.379L149.211 111.279C175.433 126.223 190.119 105.974 203.087 88.1028C212.577 75.0294 220.789 63.7387 231.556 69.8792C244.59 77.3183 250.16 90.3918 255.577 103.069C260.332 114.228 264.846 124.792 274.093 130.074C276.119 131.241 277.902 131.505 279.554 130.889C284.265 129.172 287.436 120.654 290.782 111.631C294.812 100.78 299.391 88.499 307.824 85.5498C312.007 84.0972 316.653 84.9775 322.047 88.2569C336.402 96.9505 342.964 126.795 349.327 155.649C355.359 183.073 361.084 208.977 372.709 215.624C384.576 222.403 390.323 215.404 396.4 208.009C402.366 200.746 408.553 193.219 420.685 200.108C431.319 206.182 437.22 222.315 444.045 240.979C452.346 263.692 461.769 289.443 482.201 301.108H482.223L481.585 302.208H481.607ZM158.59 116.627L472.492 295.561C457.762 282.158 449.902 260.699 442.856 241.397C436.119 222.953 430.284 207.019 420.068 201.186C408.884 194.803 403.291 201.604 397.391 208.779C391.248 216.262 384.885 223.988 372.093 216.703C359.961 209.792 354.192 183.601 348.094 155.891C341.797 127.301 335.28 97.7429 321.409 89.3134C316.367 86.2541 312.051 85.3957 308.242 86.7163C300.36 89.4674 295.912 101.44 291.971 112.027C288.515 121.337 285.234 130.14 279.994 132.055C277.99 132.782 275.789 132.473 273.455 131.153C263.833 125.651 259.232 114.91 254.388 103.553C249.06 91.0961 243.577 78.1987 230.917 70.9797C221.119 65.3894 213.237 76.2619 204.1 88.8512C193.113 103.993 179.793 122.349 158.59 116.627Z" fill="#3B80F9"/>
<path d="M420.201 241.243C396.664 227.817 394.264 237.655 369.825 223.746C345.386 209.814 351.463 193.505 321.849 165.267C294.878 139.56 281.161 166.566 261.258 155.231C241.354 143.874 236.312 125.408 211.52 122.481C186.729 119.576 195.029 138.152 148.881 111.851L481.916 301.68C444.816 280.529 443.737 254.668 420.201 241.265V241.243Z" fill="white"/>
<path d="M481.607 302.208C481.607 302.208 481.563 302.208 481.541 302.186L148.572 112.379L149.211 111.279C179.419 128.512 185.914 126.399 194.104 123.736C198.31 122.371 203.065 120.83 211.63 121.843C227.13 123.67 235.056 131.527 243.445 139.824C248.663 144.997 254.057 150.345 261.609 154.659C269.668 159.237 276.691 157.388 284.133 155.407C294.525 152.656 306.283 149.53 322.311 164.805C336.513 178.341 342.677 189.389 347.631 198.259C353.158 208.163 357.539 215.998 370.155 223.195C382.375 230.172 389.134 231.141 395.651 232.087C402.102 233.011 408.774 234.002 420.531 240.693C431.077 246.701 437.308 255.373 443.891 264.551C452.236 276.193 461.703 289.377 482.201 301.086H482.246V301.108L481.607 302.208ZM169.929 123.097L467.428 292.678C455.913 283.522 449.065 273.992 442.856 265.299C436.075 255.835 430.218 247.669 419.914 241.793C408.355 235.212 402.102 234.288 395.475 233.341C388.848 232.373 381.978 231.383 369.539 224.296C356.592 216.923 352.167 208.955 346.53 198.875C341.356 189.609 335.5 179.133 321.453 165.729C305.952 150.939 295.032 153.844 284.463 156.639C276.757 158.686 269.492 160.623 260.971 155.781C253.265 151.379 247.805 145.987 242.542 140.749C234.308 132.583 226.536 124.88 211.476 123.119C203.175 122.151 198.772 123.582 194.5 124.968C188.71 126.839 183.47 128.534 169.951 123.119L169.929 123.097Z" fill="#3B80F9"/>
<path d="M183.272 168.877C206.809 182.28 206.809 154.989 231.248 168.921C255.687 182.852 251.152 267.566 281.932 285.107C312.69 302.648 309.982 219.41 329.886 230.766C349.789 242.101 347.984 275.709 372.423 289.641C396.862 303.573 408.62 259.907 454.768 286.208L121.733 96.3563C158.833 117.507 159.735 155.451 183.272 168.877Z" fill="#C7DAFF"/>
<path d="M382.331 293.096C379.116 293.096 375.747 292.26 372.115 290.191C359.08 282.774 353.51 270.031 348.094 257.728C343.338 246.855 338.824 236.599 329.577 231.339C327.75 230.304 326.12 230.084 324.601 230.678C319.471 232.681 316.036 243.466 312.403 254.889C307.868 269.15 303.156 283.897 294.063 287.44C290.386 288.893 286.203 288.298 281.623 285.701C265.11 276.281 258.747 248.44 252.604 221.523C247.254 198.083 242.212 175.964 230.939 169.537C218.918 162.67 213.171 165.949 207.072 169.405C201.106 172.794 194.941 176.294 182.963 169.471C172.373 163.44 166.472 152.81 159.647 140.529C151.346 125.585 141.923 108.637 121.425 96.9506L122.063 95.8501L455.098 285.679L454.46 286.78C428.039 271.726 413.353 279.671 400.363 286.692C394.132 290.059 388.473 293.118 382.331 293.118V293.096ZM326.296 229.05C327.551 229.05 328.85 229.424 330.193 230.194C339.815 235.675 344.417 246.129 349.261 257.178C354.589 269.305 360.071 281.828 372.731 289.047C382.727 294.747 390.609 290.477 399.768 285.525C410.183 279.891 422.733 273.112 442.02 279.627L133.909 104.016C146.877 114.844 154.165 127.984 160.77 139.868C167.507 151.996 173.32 162.472 183.602 168.326C194.941 174.775 200.533 171.606 206.456 168.26C212.599 164.783 218.918 161.173 231.578 168.392C243.335 175.105 248.443 197.489 253.859 221.214C259.936 247.868 266.233 275.445 282.262 284.579C286.533 287.022 290.254 287.55 293.601 286.252C302.143 282.928 306.943 267.83 311.193 254.492C315.09 242.277 318.458 231.713 324.139 229.49C324.843 229.226 325.57 229.072 326.318 229.072L326.296 229.05Z" fill="#3B80F9"/>
<path d="M186.002 146.097C205.289 163.286 210.904 148.65 250.623 174.511C274.204 189.873 265.066 221.324 286.027 225.924C306.988 230.502 317.071 214.304 336.975 225.638C356.879 236.995 353.642 249.166 378.082 263.098C402.521 277.03 408.598 259.863 454.768 286.186L121.733 96.3563C158.833 117.507 165.724 128.027 186.002 146.097Z" fill="#83AFFA"/>
<path d="M454.46 286.736C427.885 271.593 414.939 270.933 403.534 270.361C395.299 269.943 388.21 269.591 377.773 263.648C364.827 256.253 359.631 249.43 354.611 242.827C350.186 236.995 346.002 231.493 336.667 226.188C325.746 219.96 317.776 222.227 309.344 224.626C302.43 226.585 295.296 228.61 285.895 226.541C274.952 224.142 272.002 214.854 268.611 204.113C265.397 193.989 261.764 182.5 250.293 175.039C229.046 161.195 217.707 159.038 208.614 157.3C200.82 155.803 194.655 154.637 185.606 146.559C181.092 142.532 177.283 138.922 173.584 135.423C160.55 123.075 150.246 113.303 121.447 96.9065L122.086 95.806L455.121 285.635L454.482 286.736H454.46ZM322.62 220.884C327.045 220.884 331.801 221.963 337.284 225.088C346.839 230.546 351.088 236.137 355.602 242.079C360.556 248.572 365.664 255.307 378.39 262.57C388.54 268.358 395.519 268.71 403.578 269.106C411.504 269.503 420.839 269.965 435.525 275.973L147.406 111.719C159.119 119.994 166.429 126.927 174.421 134.498C178.098 137.998 181.929 141.607 186.421 145.613C195.205 153.448 200.908 154.527 208.812 156.045C218.015 157.806 229.487 160.007 250.953 173.983C262.821 181.708 266.52 193.417 269.8 203.739C273.081 214.105 275.921 223.063 286.159 225.308C295.23 227.289 302.232 225.308 308.991 223.415C313.505 222.139 317.886 220.906 322.62 220.906V220.884Z" fill="#3B80F9"/>
<path style="mix-blend-mode:screen" d="M509.568 406.334L510.383 406.576V301.878L509.568 301.658V406.334Z" fill="url(#paint1_linear_2325_590)"/>
<path style="mix-blend-mode:screen" d="M417.492 355.052L418.307 355.206V229.952L417.492 229.798V355.052Z" fill="url(#paint2_linear_2325_590)"/>
<path d="M94.0566 81.214L509.59 318.077V316.8L94.0566 79.9374V81.214Z" fill="white"/>
<path d="M417.91 225.198C416.633 225.198 415.599 226.871 415.599 228.918C415.599 230.965 416.633 232.615 417.91 232.615C419.187 232.615 420.221 230.965 420.221 228.918C420.221 226.871 419.187 225.198 417.91 225.198Z" fill="white"/>
<path style="mix-blend-mode:screen" d="M312.689 334.936L313.504 335.244V104.676L312.689 104.368V334.936Z" fill="url(#paint3_linear_2325_590)"/>
<path d="M313.085 99.7897C311.808 99.7897 310.773 101.44 310.773 103.509C310.773 105.578 311.808 107.229 313.085 107.229C314.362 107.229 315.396 105.556 315.396 103.509C315.396 101.462 314.362 99.7897 313.085 99.7897Z" fill="white"/>
<path style="mix-blend-mode:screen" d="M227.284 277.228L228.121 277.448V96.4663L227.284 96.2242V277.228Z" fill="url(#paint4_linear_2325_590)"/>
<path d="M227.702 91.6463C226.425 91.6463 225.391 93.319 225.391 95.3659C225.391 97.4127 226.425 99.0854 227.702 99.0854C228.979 99.0854 230.013 97.4347 230.013 95.3659C230.013 93.297 228.979 91.6463 227.702 91.6463Z" fill="white"/>
<path style="mix-blend-mode:screen" d="M141.24 249.056L142.055 249.298V93.231L141.24 92.9889V249.056Z" fill="url(#paint5_linear_2325_590)"/>
<path d="M141.658 88.4109C140.381 88.4109 139.347 90.0837 139.347 92.1305C139.347 94.1774 140.381 95.8501 141.658 95.8501C142.935 95.8501 143.969 94.1774 143.969 92.1305C143.969 90.0837 142.935 88.4109 141.658 88.4109Z" fill="white"/>
<path style="mix-blend-mode:screen" d="M93.6602 224.78L94.4746 225V44.0184L93.6602 43.7763V224.78Z" fill="url(#paint6_linear_2325_590)"/>
<path d="M94.0565 39.1984C92.7797 39.1984 91.7451 40.8711 91.7451 42.918C91.7451 44.9648 92.7797 46.6375 94.0565 46.6375C95.3333 46.6375 96.3679 44.9648 96.3679 42.918C96.3679 40.8711 95.3333 39.1984 94.0565 39.1984Z" fill="white"/>
<path d="M509.965 294.945C508.688 294.945 507.653 296.618 507.653 298.665C507.653 300.712 508.688 302.362 509.965 302.362C511.241 302.362 512.276 300.69 512.276 298.665C512.276 296.64 511.241 294.945 509.965 294.945Z" fill="white"/>
<defs>
<linearGradient id="paint0_linear_2325_590" x1="288.933" y1="195.75" x2="288.933" y2="418.527" gradientUnits="userSpaceOnUse">
<stop stop-color="#00BAE5"/>
<stop offset="1" stop-color="#1572B3"/>
</linearGradient>
<linearGradient id="paint1_linear_2325_590" x1="509.987" y1="304.035" x2="509.987" y2="346.469" gradientUnits="userSpaceOnUse">
<stop stop-color="white"/>
<stop offset="0.12" stop-color="#E7E7E7"/>
<stop offset="0.38" stop-color="#AAAAAA"/>
<stop offset="0.74" stop-color="#494949"/>
<stop offset="1"/>
</linearGradient>
<linearGradient id="paint2_linear_2325_590" x1="417.91" y1="355.206" x2="417.91" y2="229.798" gradientUnits="userSpaceOnUse">
<stop/>
<stop offset="0.09" stop-color="#060606"/>
<stop offset="0.22" stop-color="#181818"/>
<stop offset="0.36" stop-color="#363636"/>
<stop offset="0.53" stop-color="#606060"/>
<stop offset="0.71" stop-color="#959595"/>
<stop offset="0.89" stop-color="#D5D5D5"/>
<stop offset="1" stop-color="white"/>
</linearGradient>
<linearGradient id="paint3_linear_2325_590" x1="313.108" y1="335.244" x2="313.108" y2="104.368" gradientUnits="userSpaceOnUse">
<stop/>
<stop offset="0.09" stop-color="#060606"/>
<stop offset="0.22" stop-color="#181818"/>
<stop offset="0.36" stop-color="#363636"/>
<stop offset="0.53" stop-color="#606060"/>
<stop offset="0.71" stop-color="#959595"/>
<stop offset="0.89" stop-color="#D5D5D5"/>
<stop offset="1" stop-color="white"/>
</linearGradient>
<linearGradient id="paint4_linear_2325_590" x1="227.702" y1="277.448" x2="227.702" y2="96.2242" gradientUnits="userSpaceOnUse">
<stop/>
<stop offset="0.09" stop-color="#060606"/>
<stop offset="0.22" stop-color="#181818"/>
<stop offset="0.36" stop-color="#363636"/>
<stop offset="0.53" stop-color="#606060"/>
<stop offset="0.71" stop-color="#959595"/>
<stop offset="0.89" stop-color="#D5D5D5"/>
<stop offset="1" stop-color="white"/>
</linearGradient>
<linearGradient id="paint5_linear_2325_590" x1="141.658" y1="249.298" x2="141.658" y2="92.9889" gradientUnits="userSpaceOnUse">
<stop/>
<stop offset="0.09" stop-color="#060606"/>
<stop offset="0.22" stop-color="#181818"/>
<stop offset="0.36" stop-color="#363636"/>
<stop offset="0.53" stop-color="#606060"/>
<stop offset="0.71" stop-color="#959595"/>
<stop offset="0.89" stop-color="#D5D5D5"/>
<stop offset="1" stop-color="white"/>
</linearGradient>
<linearGradient id="paint6_linear_2325_590" x1="94.0784" y1="225" x2="94.0784" y2="43.7763" gradientUnits="userSpaceOnUse">
<stop/>
<stop offset="0.09" stop-color="#060606"/>
<stop offset="0.22" stop-color="#181818"/>
<stop offset="0.36" stop-color="#363636"/>
<stop offset="0.53" stop-color="#606060"/>
<stop offset="0.71" stop-color="#959595"/>
<stop offset="0.89" stop-color="#D5D5D5"/>
<stop offset="1" stop-color="white"/>
</linearGradient>
</defs>
</svg>
