<svg width="422" height="477" viewBox="0 0 422 477" fill="none" xmlns="http://www.w3.org/2000/svg">
<g clip-path="url(#clip0_2325_697)">
<path d="M1.38867 328.593L259.114 477L420.247 383.379L164.053 235.464L1.38867 328.593Z" fill="#3B80F9"/>
<path d="M164.4 224.325L1.38867 298.765L1.73508 317.453L259.461 465.86L420.594 372.24L420.247 353.552L164.4 224.325Z" fill="#C7DAFF"/>
<path d="M420.484 353.115L164.619 223.869C164.473 223.796 164.327 223.796 164.181 223.869L1.18819 298.31C1.00588 298.383 0.896484 298.565 0.896484 298.765L1.24289 317.453C1.24289 317.635 1.33405 317.781 1.49814 317.872L259.224 466.28C259.224 466.28 259.388 466.353 259.479 466.353C259.57 466.353 259.643 466.334 259.734 466.28L420.867 372.659C421.031 372.568 421.123 372.404 421.123 372.222L420.776 353.534C420.776 353.352 420.667 353.187 420.503 353.096L420.484 353.115ZM259.461 465.277L2.22741 317.161L1.89924 299.094L164.382 224.89L419.755 353.88L420.083 371.966L259.461 465.295V465.277Z" fill="#3B80F9"/>
<path d="M1.38867 298.765L259.114 447.173L420.247 353.552L164.053 205.637L1.38867 298.765Z" fill="#C7DAFF"/>
<path d="M146.97 234.954L376.764 367.317L383.419 363.179L147.024 226.695L146.97 234.954Z" fill="white"/>
<path d="M27.8066 302.94L146.97 234.954L147.025 226.695L21.3525 298.784L27.8066 302.94Z" fill="#D7E3FD"/>
<path d="M40.8604 310.197L258.603 435.595L363.145 374.61L146.55 249.558L40.8604 310.197Z" fill="white"/>
<path d="M327.247 339.623L367.685 362.741L368.105 362.996L368.597 362.121L327.739 338.766L327.247 339.623Z" fill="#3B80F9"/>
<path d="M146.715 234.535L116.432 251.91L116.924 252.766L146.952 235.537L289.434 317.799L289.871 318.055L290.364 317.198L147.207 234.553C147.061 234.462 146.861 234.462 146.715 234.553V234.535Z" fill="#3B80F9"/>
<path d="M67.6761 279.859L32.3418 300.154L32.8409 301.024L68.1752 280.728L67.6761 279.859Z" fill="#3B80F9"/>
<path d="M383.656 362.741L147.28 226.257C147.134 226.166 146.934 226.166 146.788 226.257L21.1156 298.364C20.9697 298.455 20.8604 298.62 20.8604 298.802C20.8604 298.984 20.9515 299.148 21.1156 299.239L258.859 436.142C258.859 436.142 259.023 436.215 259.114 436.215C259.205 436.215 259.278 436.197 259.369 436.142L383.693 363.616C383.838 363.525 383.948 363.361 383.948 363.179C383.948 362.996 383.857 362.832 383.693 362.741H383.656ZM259.096 435.121L22.3554 298.784L147.025 227.26L382.416 363.16L259.096 435.103V435.121Z" fill="#3B80F9"/>
<path d="M163.798 205.2L1.15173 298.328C1.00588 298.419 0.896484 298.583 0.896484 298.765C0.896484 298.948 0.987644 299.112 1.15173 299.203L258.877 447.61C258.877 447.61 259.041 447.683 259.132 447.683C259.224 447.683 259.297 447.665 259.388 447.61L394.832 368.922L395.27 368.666L394.777 367.809L259.169 446.608L2.3915 298.765L164.053 206.202L420.01 353.971L420.448 354.227L420.94 353.37L164.29 205.2C164.145 205.108 163.944 205.108 163.798 205.2Z" fill="#3B80F9"/>
<path d="M148.319 46.6371L164.053 205.637L420.247 353.552V185.181L164.053 37.2477L148.319 46.6371Z" fill="#D7E3FD"/>
<path d="M164.291 36.8283C164.126 36.7372 163.944 36.7372 163.78 36.8283L148.046 46.1995C147.882 46.2907 147.791 46.4912 147.809 46.6735L163.543 205.674C163.543 205.838 163.652 205.983 163.798 206.056L420.011 353.971C420.011 353.971 420.175 354.044 420.266 354.044C420.357 354.044 420.43 354.026 420.521 353.971C420.667 353.88 420.776 353.716 420.776 353.534V185.144C420.776 184.962 420.685 184.798 420.521 184.707L164.291 36.8283ZM419.755 352.695L164.528 205.327L148.866 46.8923L164.072 37.8311L419.774 185.454V352.695H419.755Z" fill="#3B80F9"/>
<path d="M148.319 215.008L404.532 362.942V194.552L148.319 46.6371V215.008Z" fill="white"/>
<path d="M159.514 208.554L393.337 343.561V201.006L159.514 65.9993V208.554Z" fill="#83AFFA"/>
<path d="M166.971 208.718L385.881 335.12V209.794L166.971 83.3925V208.718Z" fill="#3B80F9"/>
<path d="M363.874 183.431L363.382 184.288L392.845 201.298V342.704L160.006 208.281V66.8744L294.502 144.524L294.94 144.779L295.432 143.922L159.75 65.5982C159.605 65.5071 159.404 65.5071 159.258 65.5982C159.112 65.6894 159.003 65.8535 159.003 66.0358V208.591C159.003 208.773 159.094 208.937 159.258 209.028L393.082 344.035C393.082 344.035 393.246 344.108 393.337 344.108C393.428 344.108 393.501 344.09 393.592 344.035C393.738 343.944 393.847 343.78 393.847 343.598V201.061C393.847 200.879 393.756 200.714 393.592 200.623L363.874 183.467V183.431Z" fill="#3B80F9"/>
<path d="M404.531 362.942L420.247 353.552V185.181L404.531 194.552V362.942Z" fill="#C7DAFF"/>
<path d="M148.575 46.1995C148.429 46.1084 148.228 46.1084 148.082 46.1995C147.937 46.2907 147.827 46.4548 147.827 46.6371V215.027C147.827 215.209 147.918 215.373 148.082 215.464L166.187 225.911L166.679 225.054L148.812 214.735V47.494L404.021 194.844V362.085L226.899 259.822L226.461 259.567L225.969 260.424L404.258 363.361C404.258 363.361 404.422 363.434 404.513 363.434C404.605 363.434 404.678 363.416 404.769 363.361C404.915 363.27 405.024 363.106 405.024 362.923V194.534C405.024 194.352 404.933 194.187 404.769 194.096L148.575 46.1995Z" fill="#3B80F9"/>
<path d="M410.347 191.671L409.837 190.815L404.276 194.133C404.13 194.224 404.039 194.388 404.039 194.552V362.942C404.039 363.124 404.13 363.288 404.294 363.379C404.367 363.416 404.458 363.452 404.531 363.452C404.604 363.452 404.714 363.434 404.787 363.379L407.631 361.684L407.12 360.827L405.024 362.066V194.844L410.347 191.671Z" fill="#3B80F9"/>
<path d="M420.503 184.743C420.339 184.652 420.156 184.652 420.011 184.743L416.419 186.877L416.929 187.733L419.774 186.038V353.26L416.528 355.193L417.039 356.05L420.539 353.971C420.685 353.88 420.776 353.716 420.776 353.552V185.163C420.776 184.98 420.685 184.816 420.521 184.725L420.503 184.743Z" fill="#3B80F9"/>
<path d="M147.516 226.513H146.532V233.805H147.516V226.513Z" fill="#3B80F9"/>
<g opacity="0.5">
<path d="M100.151 309.322L117.709 304.745L112.895 301.974L100.151 309.322Z" fill="#3B80F9"/>
<path d="M87.3887 294.353L100.151 301.701L112.895 294.353L100.151 286.988L87.3887 294.353Z" fill="#C7DAFF"/>
<path d="M100.151 309.322L112.895 301.974V294.353L100.151 301.701V309.322Z" fill="white"/>
<path d="M87.3887 301.974L100.151 309.322V301.701L87.3887 294.353V301.974Z" fill="#C7DAFF"/>
<path d="M100.388 286.55C100.242 286.459 100.042 286.459 99.8958 286.55L87.1517 293.916C87.0059 294.007 86.8965 294.171 86.8965 294.353C86.8965 294.536 86.9876 294.7 87.1517 294.791L99.8958 302.157C99.8958 302.157 100.06 302.229 100.151 302.229C100.242 302.229 100.315 302.211 100.406 302.157L101.774 301.373L101.281 300.516L100.169 301.154L88.4097 294.372L100.169 287.589L111.929 294.372L110.762 295.046L111.254 295.903L113.169 294.791C113.314 294.7 113.424 294.536 113.424 294.353C113.424 294.171 113.333 294.007 113.169 293.916L100.425 286.55H100.388Z" fill="#3B80F9"/>
<path d="M112.64 293.916L107.936 296.632L108.428 297.489L112.384 295.192V301.664L100.625 308.446V301.974L102.794 300.716L102.302 299.859L99.8773 301.245C99.7315 301.336 99.6221 301.5 99.6221 301.682V309.303C99.6221 309.486 99.7132 309.65 99.8773 309.741C99.9502 309.777 100.041 309.814 100.133 309.814C100.224 309.814 100.297 309.796 100.388 309.741L113.132 302.375C113.278 302.284 113.387 302.12 113.387 301.938V294.317C113.387 294.134 113.296 293.97 113.132 293.879C112.986 293.788 112.785 293.788 112.64 293.879V293.916Z" fill="#3B80F9"/>
<path d="M87.644 293.916C87.4981 293.825 87.2976 293.825 87.1517 293.916C87.0059 294.007 86.8965 294.171 86.8965 294.353V301.974C86.8965 302.157 86.9876 302.321 87.1517 302.412L99.8958 309.777C99.8958 309.777 100.06 309.85 100.151 309.85C100.242 309.85 100.315 309.832 100.406 309.777C100.552 309.686 100.662 309.522 100.662 309.34V301.719C100.662 301.537 100.57 301.373 100.406 301.281L87.6622 293.916H87.644ZM99.6406 308.465L87.881 301.682V295.21L99.6406 301.992V308.465Z" fill="#3B80F9"/>
<path d="M123.434 322.686L141.009 318.109L136.178 315.32L123.434 322.686Z" fill="#3B80F9"/>
<path d="M110.689 307.699L123.434 315.065L136.178 307.699L123.434 300.333L110.689 307.699Z" fill="#C7DAFF"/>
<path d="M123.434 322.686L136.178 315.32V307.699L123.434 315.065V322.686Z" fill="white"/>
<path d="M110.689 315.32L123.434 322.686V315.065L110.689 307.699V315.32Z" fill="#C7DAFF"/>
<path d="M123.689 299.914C123.543 299.823 123.342 299.823 123.197 299.914L110.453 307.28C110.288 307.371 110.197 307.535 110.197 307.717C110.197 307.9 110.288 308.064 110.453 308.155L123.197 315.52C123.197 315.52 123.361 315.593 123.452 315.593C123.543 315.593 123.616 315.575 123.707 315.52L125.074 314.737L124.582 313.88L123.47 314.518L111.711 307.735L123.47 300.953L135.23 307.735L134.045 308.41L134.537 309.267L136.451 308.155C136.597 308.064 136.706 307.9 136.706 307.717C136.706 307.535 136.615 307.371 136.451 307.28L123.707 299.914H123.689Z" fill="#3B80F9"/>
<path d="M135.941 307.261L131.237 309.978L131.729 310.835L135.685 308.538V315.01L123.926 321.792V315.32L126.096 314.062L125.603 313.205L123.197 314.591C123.033 314.682 122.941 314.846 122.941 315.028V322.649C122.941 322.831 123.033 322.996 123.197 323.087C123.27 323.141 123.361 323.16 123.452 323.16C123.543 323.16 123.616 323.141 123.707 323.087L136.451 315.721C136.597 315.63 136.706 315.466 136.706 315.283V307.663C136.706 307.48 136.615 307.316 136.451 307.225C136.305 307.134 136.105 307.134 135.959 307.225L135.941 307.261Z" fill="#3B80F9"/>
<path d="M110.945 307.261C110.799 307.17 110.598 307.17 110.453 307.261C110.288 307.353 110.197 307.517 110.197 307.699V315.32C110.197 315.502 110.288 315.666 110.453 315.757L123.197 323.123C123.197 323.123 123.361 323.196 123.452 323.196C123.543 323.196 123.616 323.178 123.707 323.123C123.853 323.032 123.962 322.868 123.962 322.686V315.065C123.962 314.882 123.871 314.718 123.707 314.627L110.963 307.261H110.945ZM122.941 321.829L111.182 315.046V308.574L122.941 315.356V321.829Z" fill="#3B80F9"/>
<path d="M122.029 296.377L139.605 291.801L134.773 289.011L122.029 296.377Z" fill="#3B80F9"/>
<path d="M109.285 281.39L122.029 288.756L134.773 281.39L122.029 274.043L109.285 281.39Z" fill="#C7DAFF"/>
<path d="M122.029 296.377L134.773 289.011V281.39L122.029 288.756V296.377Z" fill="white"/>
<path d="M109.285 289.011L122.029 296.377V288.756L109.285 281.39V289.011Z" fill="#C7DAFF"/>
<path d="M122.266 273.605C122.12 273.514 121.92 273.514 121.774 273.605L109.03 280.971C108.884 281.062 108.774 281.226 108.774 281.409C108.774 281.591 108.866 281.755 109.03 281.846L121.774 289.212C121.774 289.212 121.938 289.285 122.029 289.285C122.12 289.285 122.193 289.267 122.284 289.212L123.652 288.428L123.159 287.571L122.047 288.209L110.288 281.427L122.047 274.645L133.807 281.427L132.622 282.101L133.114 282.958L135.028 281.846C135.174 281.755 135.284 281.591 135.284 281.409C135.284 281.226 135.192 281.062 135.028 280.971L122.284 273.605H122.266Z" fill="#3B80F9"/>
<path d="M134.518 280.971L129.814 283.688L130.306 284.545L134.281 282.247V288.72L122.521 295.502V289.03L124.691 287.772L124.199 286.915L121.774 288.3C121.628 288.391 121.519 288.556 121.519 288.738V296.359C121.519 296.541 121.61 296.705 121.774 296.796C121.847 296.833 121.938 296.869 122.029 296.869C122.12 296.869 122.193 296.851 122.284 296.796L135.028 289.431C135.174 289.34 135.284 289.175 135.284 288.993V281.372C135.284 281.19 135.192 281.026 135.028 280.935C134.882 280.843 134.682 280.843 134.536 280.935L134.518 280.971Z" fill="#3B80F9"/>
<path d="M109.522 280.971C109.376 280.88 109.176 280.88 109.03 280.971C108.884 281.062 108.774 281.226 108.774 281.409V289.03C108.774 289.212 108.866 289.376 109.03 289.467L121.774 296.833C121.774 296.833 121.938 296.906 122.029 296.906C122.12 296.906 122.193 296.887 122.284 296.833C122.43 296.742 122.539 296.578 122.539 296.395V288.774C122.539 288.592 122.448 288.428 122.284 288.337L109.54 280.971H109.522ZM121.537 295.52L109.777 288.738V282.266L121.537 289.048V295.52Z" fill="#3B80F9"/>
<path d="M165.458 271.053L178.202 269.212L173.389 266.44L165.458 271.053Z" fill="white"/>
<path d="M152.695 256.066L165.458 263.432L173.388 258.819L160.644 251.454L152.695 256.066Z" fill="#C7DAFF"/>
<path d="M165.458 271.053L173.389 266.44V258.819L165.458 263.432V271.053Z" fill="white"/>
<path d="M152.695 263.687L165.458 271.053V263.432L152.695 256.066V263.687Z" fill="#C7DAFF"/>
<path d="M160.881 251.016C160.736 250.925 160.535 250.925 160.389 251.016L152.458 255.629C152.313 255.72 152.203 255.884 152.203 256.066C152.203 256.249 152.294 256.413 152.458 256.504L165.202 263.87C165.202 263.87 165.367 263.943 165.458 263.943C165.549 263.943 165.622 263.924 165.713 263.87L167.08 263.086L166.588 262.229L165.476 262.867L153.716 256.085L160.663 252.055L172.422 258.838L171.255 259.512L171.748 260.369L173.662 259.257C173.808 259.166 173.917 259.002 173.917 258.819C173.917 258.637 173.826 258.473 173.662 258.382L160.918 251.016H160.881Z" fill="#3B80F9"/>
<path d="M173.133 258.382L168.43 261.098L168.922 261.955L172.878 259.658V266.13L165.932 270.16V263.687L168.101 262.429L167.609 261.572L165.203 262.958C165.057 263.049 164.947 263.213 164.947 263.396V271.016C164.947 271.199 165.038 271.363 165.203 271.454C165.275 271.491 165.367 271.527 165.458 271.527C165.549 271.527 165.622 271.509 165.713 271.454L173.644 266.841C173.79 266.75 173.899 266.586 173.899 266.404V258.783C173.899 258.601 173.808 258.437 173.644 258.345C173.48 258.254 173.297 258.254 173.152 258.345L173.133 258.382Z" fill="#3B80F9"/>
<path d="M152.951 255.629C152.805 255.538 152.604 255.538 152.458 255.629C152.313 255.72 152.203 255.884 152.203 256.066V263.687C152.203 263.87 152.294 264.034 152.458 264.125L165.202 271.491C165.202 271.491 165.367 271.563 165.458 271.563C165.549 271.563 165.622 271.545 165.713 271.491C165.859 271.399 165.968 271.235 165.968 271.053V263.432C165.968 263.25 165.877 263.086 165.713 262.994L152.969 255.629H152.951ZM164.947 270.178L153.188 263.396V256.923L164.947 263.706V270.178Z" fill="#3B80F9"/>
<path d="M188.74 284.399L201.503 282.576L196.671 279.786L188.74 284.399Z" fill="white"/>
<path d="M175.996 269.412L188.74 276.778L196.671 272.165L183.927 264.818L175.996 269.412Z" fill="#C7DAFF"/>
<path d="M188.74 284.399L196.671 279.786V272.165L188.74 276.778V284.399Z" fill="white"/>
<path d="M175.996 277.051L188.74 284.399V276.778L175.996 269.412V277.051Z" fill="#C7DAFF"/>
<path d="M184.182 264.38C184.036 264.289 183.836 264.289 183.69 264.38L175.759 268.993C175.613 269.084 175.504 269.248 175.504 269.43C175.504 269.613 175.595 269.777 175.759 269.868L188.503 277.234C188.503 277.234 188.667 277.307 188.758 277.307C188.85 277.307 188.923 277.288 189.014 277.234L190.381 276.45L189.889 275.593L188.777 276.231L177.017 269.449L183.964 265.419L195.723 272.202L194.538 272.876L195.03 273.733L196.945 272.621C197.09 272.53 197.2 272.366 197.2 272.183C197.2 272.001 197.109 271.837 196.945 271.746L184.201 264.38H184.182Z" fill="#3B80F9"/>
<path d="M196.434 271.746L191.73 274.462L192.223 275.319L196.179 273.022V279.494L189.233 283.524V277.051L191.402 275.793L190.91 274.936L188.503 276.322C188.357 276.413 188.248 276.577 188.248 276.76V284.38C188.248 284.563 188.339 284.727 188.503 284.818C188.576 284.854 188.667 284.891 188.759 284.891C188.85 284.891 188.923 284.873 189.014 284.818L196.945 280.205C197.09 280.114 197.182 279.95 197.182 279.768V272.147C197.182 271.965 197.09 271.8 196.926 271.709C196.781 271.618 196.58 271.618 196.434 271.709V271.746Z" fill="#3B80F9"/>
<path d="M176.251 268.993C176.087 268.902 175.905 268.902 175.759 268.993C175.613 269.084 175.504 269.248 175.504 269.43V277.051C175.504 277.234 175.595 277.398 175.759 277.489L188.503 284.854C188.503 284.854 188.667 284.927 188.758 284.927C188.85 284.927 188.923 284.909 189.014 284.854C189.16 284.763 189.269 284.599 189.269 284.417V276.796C189.269 276.614 189.178 276.45 189.014 276.358L176.27 268.993H176.251ZM188.248 283.542L176.488 276.76V270.287L188.248 277.069V283.542Z" fill="#3B80F9"/>
<path d="M211.001 297.398L223.763 295.557L218.932 292.785L211.001 297.398Z" fill="white"/>
<path d="M198.257 282.411L211.001 289.777L218.932 285.164L206.188 277.799L198.257 282.411Z" fill="#C7DAFF"/>
<path d="M211.001 297.398L218.932 292.785V285.164L211.001 289.777V297.398Z" fill="white"/>
<path d="M198.257 290.032L211.001 297.398V289.777L198.257 282.411V290.032Z" fill="#C7DAFF"/>
<path d="M206.425 277.379C206.279 277.288 206.078 277.288 205.933 277.379L198.002 281.992C197.856 282.083 197.765 282.247 197.765 282.43C197.765 282.612 197.856 282.776 198.02 282.867L210.764 290.233C210.764 290.233 210.928 290.306 211.019 290.306C211.11 290.306 211.183 290.288 211.274 290.233L212.642 289.449L212.15 288.592L211.037 289.23L199.278 282.448L206.224 278.419L217.984 285.201L216.817 285.875L217.309 286.732L219.224 285.62C219.369 285.529 219.479 285.365 219.479 285.183C219.479 285 219.388 284.836 219.224 284.745L206.479 277.379H206.425Z" fill="#3B80F9"/>
<path d="M218.676 284.727L213.972 287.443L214.464 288.3L218.421 286.003V292.475L211.474 296.505V290.032L213.644 288.774L213.152 287.917L210.727 289.303C210.581 289.394 210.472 289.558 210.472 289.741V297.362C210.472 297.544 210.563 297.708 210.727 297.799C210.8 297.836 210.891 297.872 210.982 297.872C211.073 297.872 211.146 297.854 211.237 297.799L219.168 293.186C219.314 293.095 219.424 292.931 219.424 292.749V285.128C219.424 284.946 219.332 284.782 219.168 284.69C219.022 284.599 218.822 284.599 218.676 284.69V284.727Z" fill="#3B80F9"/>
<path d="M198.494 281.974C198.348 281.883 198.147 281.883 198.001 281.974C197.855 282.065 197.746 282.229 197.746 282.411V290.032C197.746 290.215 197.837 290.379 198.001 290.47L210.745 297.836C210.745 297.836 210.909 297.908 211.001 297.908C211.092 297.908 211.165 297.89 211.256 297.836C211.42 297.744 211.511 297.58 211.511 297.398V289.777C211.511 289.595 211.42 289.431 211.256 289.34L198.512 281.974H198.494ZM210.508 296.541L198.749 289.759V283.287L210.508 290.069V296.541Z" fill="#3B80F9"/>
<path d="M234.302 310.744L247.046 308.921L242.233 306.149L234.302 310.744Z" fill="white"/>
<path d="M221.539 295.757L234.301 303.123L242.232 298.51L229.488 291.163L221.539 295.757Z" fill="#C7DAFF"/>
<path d="M234.302 310.744L242.233 306.149V298.51L234.302 303.123V310.744Z" fill="white"/>
<path d="M221.539 303.396L234.301 310.744V303.123L221.539 295.757V303.396Z" fill="#C7DAFF"/>
<path d="M229.725 290.725C229.561 290.634 229.379 290.634 229.233 290.725L221.302 295.338C221.156 295.429 221.047 295.593 221.047 295.775C221.047 295.958 221.138 296.122 221.302 296.213L234.046 303.579C234.046 303.579 234.21 303.652 234.301 303.652C234.393 303.652 234.466 303.633 234.557 303.579L235.924 302.795L235.432 301.938L234.32 302.576L222.56 295.794L229.506 291.764L241.266 298.547L240.099 299.221L240.591 300.078L242.506 298.966C242.652 298.875 242.761 298.711 242.761 298.528C242.761 298.346 242.67 298.182 242.506 298.091L229.762 290.725H229.725Z" fill="#3B80F9"/>
<path d="M241.977 298.091L237.273 300.807L237.765 301.664L241.722 299.367V305.839L234.775 309.869V303.396L236.945 302.138L236.453 301.281L234.028 302.685C233.882 302.776 233.772 302.94 233.772 303.123V310.744C233.772 310.926 233.864 311.09 234.028 311.181C234.101 311.218 234.192 311.254 234.283 311.254C234.374 311.254 234.447 311.236 234.538 311.181L242.469 306.569C242.615 306.477 242.724 306.313 242.724 306.131V298.51C242.724 298.328 242.633 298.164 242.469 298.073C242.323 297.981 242.123 297.981 241.977 298.073V298.091Z" fill="#3B80F9"/>
<path d="M221.794 295.338C221.649 295.247 221.448 295.247 221.302 295.338C221.156 295.429 221.047 295.593 221.047 295.775V303.396C221.047 303.579 221.138 303.743 221.302 303.834L234.046 311.2C234.046 311.2 234.21 311.272 234.301 311.272C234.393 311.272 234.466 311.254 234.557 311.2C234.703 311.108 234.812 310.944 234.812 310.762V303.141C234.812 302.959 234.721 302.795 234.557 302.703L221.813 295.338H221.794ZM233.791 309.887L222.031 303.105V296.632L233.791 303.415V309.887Z" fill="#3B80F9"/>
<path d="M256.763 323.962L269.525 322.139L264.712 319.349L256.763 323.962Z" fill="white"/>
<path d="M244.019 308.975L256.763 316.341L264.712 311.728L251.949 304.363L244.019 308.975Z" fill="#C7DAFF"/>
<path d="M256.763 323.962L264.712 319.349V311.728L256.763 316.341V323.962Z" fill="white"/>
<path d="M244.019 316.596L256.763 323.962V316.341L244.019 308.975V316.596Z" fill="#C7DAFF"/>
<path d="M252.205 303.943C252.059 303.852 251.859 303.852 251.713 303.943L243.782 308.556C243.636 308.647 243.545 308.811 243.545 308.993C243.545 309.176 243.636 309.34 243.8 309.431L256.544 316.797C256.544 316.797 256.708 316.87 256.799 316.87C256.891 316.87 256.964 316.851 257.055 316.797L258.422 316.013L257.93 315.156L256.818 315.794L245.058 309.012L252.005 304.982L263.764 311.765L262.597 312.439L263.089 313.296L265.004 312.184C265.15 312.093 265.259 311.929 265.259 311.746C265.259 311.564 265.168 311.4 265.004 311.309L252.26 303.943H252.205Z" fill="#3B80F9"/>
<path d="M264.456 311.309L259.752 314.025L260.245 314.882L264.201 312.585V319.057L257.255 323.087V316.614L259.424 315.356L258.932 314.499L256.507 315.885C256.361 315.976 256.252 316.14 256.252 316.323V323.944C256.252 324.126 256.343 324.29 256.507 324.381C256.58 324.418 256.671 324.454 256.762 324.454C256.854 324.454 256.927 324.436 257.018 324.381L264.949 319.768C265.113 319.677 265.204 319.513 265.204 319.331V311.71C265.204 311.528 265.113 311.364 264.949 311.272C264.803 311.181 264.602 311.181 264.456 311.272V311.309Z" fill="#3B80F9"/>
<path d="M244.274 308.556C244.128 308.465 243.927 308.465 243.782 308.556C243.636 308.647 243.526 308.811 243.526 308.993V316.614C243.526 316.797 243.618 316.961 243.782 317.052L256.526 324.418C256.526 324.418 256.69 324.491 256.781 324.491C256.872 324.491 256.945 324.472 257.036 324.418C257.182 324.326 257.291 324.162 257.291 323.98V316.359C257.291 316.177 257.2 316.013 257.036 315.922L244.292 308.556H244.274ZM256.27 323.105L244.511 316.323V309.85L256.27 316.633V323.105Z" fill="#3B80F9"/>
<path d="M280.063 337.326L292.826 335.484L287.994 332.713L280.063 337.326Z" fill="white"/>
<path d="M267.319 322.339L280.063 329.687L287.994 325.092L275.25 317.727L267.319 322.339Z" fill="#C7DAFF"/>
<path d="M280.063 337.326L287.994 332.713V325.092L280.063 329.687V337.326Z" fill="white"/>
<path d="M267.319 329.96L280.063 337.326V329.687L267.319 322.339V329.96Z" fill="#C7DAFF"/>
<path d="M275.506 317.289C275.36 317.198 275.159 317.198 275.013 317.289L267.082 321.902C266.918 321.993 266.827 322.157 266.827 322.339C266.827 322.522 266.918 322.686 267.082 322.777L279.826 330.142C279.826 330.142 279.991 330.215 280.082 330.215C280.173 330.215 280.246 330.197 280.337 330.142L281.704 329.358L281.212 328.502L280.1 329.14L268.34 322.357L275.287 318.328L287.046 325.11L285.861 325.785L286.353 326.642L288.268 325.53C288.414 325.439 288.523 325.274 288.523 325.092C288.523 324.91 288.432 324.746 288.268 324.655L275.524 317.289H275.506Z" fill="#3B80F9"/>
<path d="M287.757 324.655L283.054 327.371L283.546 328.228L287.502 325.931V332.403L280.556 336.432V329.96L282.725 328.702L282.233 327.845L279.827 329.231C279.681 329.322 279.571 329.486 279.571 329.668V337.289C279.571 337.472 279.662 337.636 279.827 337.727C279.899 337.763 279.991 337.8 280.082 337.8C280.173 337.8 280.264 337.782 280.337 337.727L288.268 333.114C288.414 333.023 288.523 332.859 288.523 332.677V325.056C288.523 324.873 288.432 324.709 288.268 324.618C288.104 324.527 287.921 324.527 287.776 324.618L287.757 324.655Z" fill="#3B80F9"/>
<path d="M267.556 321.902C267.41 321.81 267.21 321.81 267.064 321.902C266.9 321.993 266.809 322.157 266.809 322.339V329.96C266.809 330.142 266.9 330.306 267.064 330.398L279.808 337.763C279.808 337.763 279.972 337.836 280.063 337.836C280.154 337.836 280.227 337.818 280.318 337.763C280.464 337.672 280.574 337.508 280.574 337.326V329.705C280.574 329.523 280.482 329.358 280.318 329.267L267.574 321.902H267.556ZM279.571 336.451L267.811 329.668V323.196L279.571 329.978V336.451Z" fill="#3B80F9"/>
<path d="M303.874 350.763L316.636 348.921L311.823 346.15L303.874 350.763Z" fill="white"/>
<path d="M291.13 335.776L303.874 343.142L311.823 338.529L299.061 331.163L291.13 335.776Z" fill="#C7DAFF"/>
<path d="M303.874 350.763L311.823 346.15V338.529L303.874 343.142V350.763Z" fill="white"/>
<path d="M291.13 343.397L303.874 350.763V343.142L291.13 335.776V343.397Z" fill="#C7DAFF"/>
<path d="M299.316 330.726C299.152 330.635 298.97 330.635 298.824 330.726L290.893 335.338C290.747 335.43 290.638 335.594 290.638 335.776C290.638 335.958 290.729 336.122 290.893 336.214L303.637 343.579C303.637 343.579 303.801 343.652 303.892 343.652C303.983 343.652 304.056 343.634 304.148 343.579L305.515 342.795L305.023 341.938L303.91 342.577L292.151 335.794L299.097 331.765L310.857 338.547L309.69 339.222L310.182 340.079L312.097 338.967C312.242 338.875 312.352 338.711 312.352 338.529C312.352 338.347 312.261 338.183 312.097 338.091L299.353 330.726H299.316Z" fill="#3B80F9"/>
<path d="M311.568 338.091L306.864 340.808L307.357 341.665L311.331 339.368V345.84L304.385 349.869V343.397L306.554 342.139L306.062 341.282L303.656 342.668C303.51 342.759 303.4 342.923 303.4 343.105V350.726C303.4 350.908 303.492 351.073 303.656 351.164C303.729 351.2 303.82 351.237 303.911 351.237C304.002 351.237 304.075 351.218 304.166 351.164L312.097 346.551C312.243 346.46 312.352 346.296 312.352 346.113V338.493C312.352 338.31 312.261 338.146 312.097 338.055C311.951 337.964 311.751 337.964 311.605 338.055L311.568 338.091Z" fill="#3B80F9"/>
<path d="M291.385 335.338C291.239 335.247 291.039 335.247 290.893 335.338C290.747 335.43 290.638 335.594 290.638 335.776V343.397C290.638 343.579 290.729 343.743 290.893 343.835L303.637 351.2C303.637 351.2 303.801 351.273 303.892 351.273C303.983 351.273 304.056 351.255 304.148 351.2C304.293 351.109 304.403 350.945 304.403 350.763V343.142C304.403 342.959 304.312 342.795 304.148 342.704L291.403 335.338H291.385ZM303.382 349.888L291.622 343.105V336.633L303.382 343.415V349.888Z" fill="#3B80F9"/>
<path d="M327.174 364.108L339.936 362.285L335.105 359.496L327.174 364.108Z" fill="#3B80F9"/>
<path d="M314.43 349.122L327.174 356.487L335.105 351.875L322.361 344.509L314.43 349.122Z" fill="#C7DAFF"/>
<path d="M327.174 364.108L335.105 359.496V351.875L327.174 356.487V364.108Z" fill="white"/>
<path d="M314.43 356.743L327.174 364.108V356.487L314.43 349.122V356.743Z" fill="#C7DAFF"/>
<path d="M335.36 351.455L322.616 344.09C322.452 343.999 322.269 343.999 322.124 344.09L314.193 348.702C314.047 348.794 313.938 348.958 313.938 349.14C313.938 349.322 314.029 349.486 314.193 349.578L326.937 356.943C326.937 356.943 327.101 357.016 327.192 357.016C327.283 357.016 327.356 356.998 327.447 356.943L328.815 356.159L328.322 355.302L327.21 355.94L315.451 349.158L322.397 345.129L334.157 351.911L332.99 352.586L333.482 353.443L335.396 352.331C335.542 352.239 335.652 352.075 335.652 351.893C335.652 351.711 335.56 351.547 335.396 351.455H335.36Z" fill="#3B80F9"/>
<path d="M335.36 351.455C335.214 351.364 335.013 351.364 334.867 351.455L330.145 354.172L330.638 355.029L334.594 352.732V359.204L327.666 363.233V356.761L329.835 355.503L329.343 354.646L326.918 356.032C326.773 356.123 326.663 356.287 326.663 356.469V364.09C326.663 364.272 326.754 364.437 326.918 364.528C326.991 364.564 327.082 364.601 327.174 364.601C327.265 364.601 327.338 364.582 327.429 364.528L335.36 359.915C335.506 359.824 335.615 359.66 335.615 359.477V351.857C335.615 351.674 335.524 351.51 335.36 351.419V351.455Z" fill="#3B80F9"/>
<path d="M327.429 356.05L314.685 348.684C314.539 348.593 314.339 348.593 314.193 348.684C314.047 348.775 313.938 348.939 313.938 349.122V356.743C313.938 356.925 314.029 357.089 314.193 357.18L326.937 364.546C326.937 364.546 327.101 364.619 327.192 364.619C327.283 364.619 327.356 364.601 327.447 364.546C327.593 364.455 327.703 364.291 327.703 364.108V356.487C327.703 356.305 327.611 356.141 327.447 356.05H327.429ZM326.682 363.251L314.922 356.469V349.997L326.682 356.779V363.251Z" fill="#3B80F9"/>
<path d="M145.312 309.741L162.887 305.147L158.074 302.375L145.312 309.741Z" fill="#3B80F9"/>
<path d="M132.567 294.754L145.311 302.12L158.074 294.754L145.311 287.389L132.567 294.754Z" fill="#C7DAFF"/>
<path d="M145.312 309.741L158.074 302.375V294.754L145.312 302.12V309.741Z" fill="white"/>
<path d="M132.567 302.375L145.311 309.741V302.12L132.567 294.754V302.375Z" fill="#C7DAFF"/>
<path d="M145.567 286.969C145.421 286.878 145.22 286.878 145.075 286.969L132.33 294.335C132.185 294.426 132.075 294.59 132.075 294.773C132.075 294.955 132.166 295.119 132.33 295.21L145.075 302.576C145.075 302.576 145.239 302.649 145.33 302.649C145.421 302.649 145.494 302.631 145.585 302.576L146.952 301.792L146.46 300.935L145.348 301.573L133.588 294.791L145.348 288.009L157.108 294.791L155.941 295.465L156.433 296.322L158.347 295.21C158.493 295.119 158.603 294.955 158.603 294.773C158.603 294.59 158.511 294.426 158.347 294.335L145.603 286.969H145.567Z" fill="#3B80F9"/>
<path d="M157.818 294.317L153.115 297.033L153.607 297.89L157.563 295.593V302.065L145.804 308.848V302.375L147.973 301.117L147.481 300.26L145.056 301.646C144.91 301.737 144.801 301.901 144.801 302.084V309.704C144.801 309.887 144.892 310.051 145.056 310.142C145.129 310.197 145.22 310.215 145.311 310.215C145.402 310.215 145.475 310.197 145.567 310.142L158.311 302.776C158.456 302.685 158.566 302.521 158.566 302.339V294.718C158.566 294.536 158.475 294.372 158.311 294.28C158.165 294.189 157.964 294.189 157.818 294.28V294.317Z" fill="#3B80F9"/>
<path d="M132.823 294.317C132.677 294.226 132.476 294.226 132.33 294.317C132.185 294.408 132.075 294.572 132.075 294.754V302.375C132.075 302.558 132.166 302.722 132.33 302.813L145.075 310.179C145.075 310.179 145.239 310.251 145.33 310.251C145.421 310.251 145.494 310.233 145.585 310.179C145.749 310.087 145.84 309.923 145.84 309.741V302.12C145.84 301.938 145.749 301.774 145.585 301.682L132.841 294.317H132.823ZM144.819 308.884L133.06 302.102V295.63L144.819 302.412V308.884Z" fill="#3B80F9"/>
<path d="M143.908 283.432L161.484 278.838L156.652 276.067L143.908 283.432Z" fill="#3B80F9"/>
<path d="M131.164 268.446L143.908 275.811L156.652 268.446L143.908 261.08L131.164 268.446Z" fill="#C7DAFF"/>
<path d="M143.908 283.432L156.652 276.067V268.446L143.908 275.811V283.432Z" fill="white"/>
<path d="M131.164 276.067L143.908 283.432V275.811L131.164 268.446V276.067Z" fill="#C7DAFF"/>
<path d="M144.163 260.661C144.018 260.57 143.817 260.57 143.671 260.661L130.927 268.026C130.763 268.118 130.672 268.282 130.672 268.464C130.672 268.646 130.763 268.81 130.927 268.902L143.671 276.267C143.671 276.267 143.835 276.34 143.926 276.34C144.018 276.34 144.091 276.322 144.182 276.267L145.549 275.483L145.057 274.626L143.945 275.265L132.185 268.482L143.945 261.7L155.704 268.482L154.537 269.157L155.03 270.014L156.944 268.902C157.09 268.81 157.199 268.646 157.199 268.464C157.199 268.282 157.108 268.118 156.944 268.026L144.2 260.661H144.163Z" fill="#3B80F9"/>
<path d="M156.397 268.008L151.693 270.725L152.185 271.582L156.142 269.303V275.775L144.382 282.557V276.085L146.552 274.827L146.059 273.97L143.653 275.356C143.507 275.447 143.397 275.611 143.397 275.793V283.414C143.397 283.596 143.489 283.761 143.653 283.852C143.726 283.888 143.817 283.925 143.908 283.925C143.999 283.925 144.072 283.906 144.163 283.852L156.907 276.486C157.053 276.395 157.163 276.231 157.163 276.049V268.428C157.163 268.245 157.071 268.081 156.907 267.99C156.743 267.899 156.561 267.899 156.415 267.99L156.397 268.008Z" fill="#3B80F9"/>
<path d="M131.401 268.008C131.255 267.917 131.054 267.917 130.909 268.008C130.744 268.099 130.653 268.264 130.653 268.446V276.067C130.653 276.249 130.744 276.413 130.909 276.504L143.653 283.87C143.653 283.87 143.817 283.943 143.908 283.943C143.999 283.943 144.072 283.925 144.163 283.87C144.309 283.779 144.418 283.615 144.418 283.432V275.811C144.418 275.629 144.327 275.465 144.163 275.374L131.419 268.008H131.401ZM143.416 282.576L131.656 275.793V269.321L143.416 276.103V282.576Z" fill="#3B80F9"/>
<path d="M167.189 296.778L184.765 292.202L179.952 289.431L167.189 296.778Z" fill="#3B80F9"/>
<path d="M154.445 281.81L167.189 289.157L179.952 281.81L167.189 274.444L154.445 281.81Z" fill="#C7DAFF"/>
<path d="M167.189 296.778L179.952 289.431V281.81L167.189 289.157V296.778Z" fill="white"/>
<path d="M154.445 289.431L167.189 296.778V289.157L154.445 281.81V289.431Z" fill="#C7DAFF"/>
<path d="M167.445 274.007C167.299 273.915 167.098 273.915 166.952 274.007L154.208 281.372C154.063 281.463 153.953 281.627 153.953 281.81C153.953 281.992 154.044 282.156 154.208 282.247L166.952 289.613C166.952 289.613 167.117 289.686 167.208 289.686C167.299 289.686 167.372 289.668 167.463 289.613L168.83 288.829L168.338 287.972L167.226 288.61L155.466 281.828L167.226 275.046L178.985 281.828L177.819 282.503L178.311 283.359L180.225 282.247C180.371 282.156 180.48 281.992 180.48 281.81C180.48 281.627 180.389 281.463 180.225 281.372L167.481 274.007H167.445Z" fill="#3B80F9"/>
<path d="M179.697 281.372L174.993 284.089L175.485 284.946L179.441 282.667V289.139L167.682 295.921V289.449L169.851 288.191L169.359 287.334L166.953 288.738C166.807 288.829 166.697 288.993 166.697 289.175V296.796C166.697 296.979 166.788 297.143 166.953 297.234C167.025 297.27 167.117 297.307 167.208 297.307C167.299 297.307 167.372 297.289 167.463 297.234L180.207 289.868C180.353 289.777 180.462 289.613 180.462 289.431V281.81C180.462 281.627 180.371 281.463 180.207 281.372C180.061 281.281 179.861 281.281 179.715 281.372H179.697Z" fill="#3B80F9"/>
<path d="M154.701 281.372C154.555 281.281 154.354 281.281 154.208 281.372C154.063 281.463 153.953 281.627 153.953 281.81V289.431C153.953 289.613 154.044 289.777 154.208 289.868L166.952 297.234C166.952 297.234 167.117 297.307 167.208 297.307C167.299 297.307 167.372 297.289 167.463 297.234C167.609 297.143 167.718 296.979 167.718 296.796V289.175C167.718 288.993 167.627 288.829 167.463 288.738L154.719 281.372H154.701ZM166.697 295.921L154.938 289.139V282.667L166.697 289.449V295.921Z" fill="#3B80F9"/>
<path d="M167.573 322.722L185.149 318.146L180.317 315.375L167.573 322.722Z" fill="#3B80F9"/>
<path d="M154.829 307.735L167.573 315.101L180.317 307.735L167.573 300.388L154.829 307.735Z" fill="#C7DAFF"/>
<path d="M167.573 322.722L180.317 315.375V307.735L167.573 315.101V322.722Z" fill="white"/>
<path d="M154.829 315.375L167.573 322.722V315.101L154.829 307.735V315.375Z" fill="#C7DAFF"/>
<path d="M167.828 299.95C167.683 299.859 167.482 299.859 167.336 299.95L154.592 307.316C154.428 307.407 154.337 307.571 154.337 307.754C154.337 307.936 154.428 308.1 154.592 308.191L167.336 315.557C167.336 315.557 167.5 315.63 167.591 315.63C167.683 315.63 167.756 315.612 167.847 315.557L169.214 314.773L168.722 313.916L167.61 314.554L155.85 307.772L167.61 300.99L179.369 307.772L178.202 308.446L178.695 309.303L180.609 308.191C180.755 308.1 180.864 307.936 180.864 307.754C180.864 307.571 180.773 307.407 180.609 307.316L167.865 299.95H167.828Z" fill="#3B80F9"/>
<path d="M180.08 307.316L175.377 310.033L175.869 310.89L179.825 308.592V315.065L168.066 321.847V315.375L170.235 314.117L169.743 313.26L167.336 314.645C167.19 314.736 167.081 314.901 167.081 315.083V322.704C167.081 322.886 167.172 323.05 167.336 323.141C167.409 323.178 167.5 323.214 167.592 323.214C167.683 323.214 167.756 323.196 167.847 323.141L180.591 315.776C180.737 315.685 180.846 315.52 180.846 315.338V307.717C180.846 307.535 180.755 307.371 180.591 307.28C180.445 307.188 180.244 307.188 180.099 307.28L180.08 307.316Z" fill="#3B80F9"/>
<path d="M155.066 307.316C154.92 307.225 154.719 307.225 154.574 307.316C154.41 307.407 154.318 307.571 154.318 307.754V315.375C154.318 315.557 154.41 315.721 154.574 315.812L167.318 323.178C167.318 323.178 167.482 323.251 167.573 323.251C167.664 323.251 167.737 323.233 167.828 323.178C167.974 323.087 168.083 322.923 168.083 322.74V315.119C168.083 314.937 167.992 314.773 167.828 314.682L155.084 307.316H155.066ZM167.081 321.865L155.321 315.083V308.611L167.081 315.393V321.865Z" fill="#3B80F9"/>
<path d="M190.873 336.086L208.43 331.492L203.617 328.72L190.873 336.086Z" fill="#3B80F9"/>
<path d="M178.11 321.099L190.873 328.465L203.617 321.099L190.873 313.734L178.11 321.099Z" fill="#C7DAFF"/>
<path d="M190.873 336.086L203.617 328.72V321.099L190.873 328.465V336.086Z" fill="white"/>
<path d="M178.11 328.72L190.873 336.086V328.465L178.11 321.099V328.72Z" fill="#C7DAFF"/>
<path d="M191.11 313.314C190.964 313.223 190.763 313.223 190.617 313.314L177.873 320.68C177.728 320.771 177.618 320.935 177.618 321.118C177.618 321.3 177.709 321.464 177.873 321.555L190.617 328.921C190.617 328.921 190.782 328.994 190.873 328.994C190.964 328.994 191.037 328.976 191.128 328.921L192.495 328.137L192.003 327.28L190.891 327.918L179.131 321.136L190.891 314.354L202.651 321.136L201.465 321.81L201.958 322.667L203.872 321.555C204.018 321.464 204.127 321.3 204.127 321.118C204.127 320.935 204.036 320.771 203.872 320.68L191.128 313.314H191.11Z" fill="#3B80F9"/>
<path d="M203.362 320.662L198.658 323.378L199.15 324.235L203.125 321.938V328.41L191.365 335.193V328.72L193.535 327.462L193.043 326.605L190.636 327.991C190.49 328.082 190.381 328.246 190.381 328.429V336.05C190.381 336.232 190.472 336.396 190.636 336.487C190.709 336.524 190.8 336.56 190.891 336.56C190.983 336.56 191.055 336.542 191.147 336.487L203.891 329.121C204.037 329.03 204.146 328.866 204.146 328.684V321.063C204.146 320.881 204.055 320.717 203.891 320.625C203.745 320.534 203.544 320.534 203.398 320.625L203.362 320.662Z" fill="#3B80F9"/>
<path d="M178.366 320.662C178.22 320.571 178.019 320.571 177.873 320.662C177.728 320.753 177.618 320.917 177.618 321.099V328.72C177.618 328.903 177.709 329.067 177.873 329.158L190.617 336.524C190.617 336.524 190.782 336.596 190.873 336.596C190.964 336.596 191.037 336.578 191.128 336.524C191.274 336.432 191.383 336.268 191.383 336.086V328.465C191.383 328.283 191.292 328.119 191.128 328.028L178.384 320.662H178.366ZM190.362 335.229L178.603 328.447V321.975L190.362 328.757V335.229Z" fill="#3B80F9"/>
<path d="M189.451 309.777L207.027 305.201L202.195 302.412L189.451 309.777Z" fill="#3B80F9"/>
<path d="M176.707 294.791L189.451 302.157L202.195 294.791L189.451 287.425L176.707 294.791Z" fill="#C7DAFF"/>
<path d="M189.451 309.777L202.195 302.412V294.791L189.451 302.157V309.777Z" fill="white"/>
<path d="M176.707 302.412L189.451 309.777V302.157L176.707 294.791V302.412Z" fill="#C7DAFF"/>
<path d="M189.706 287.006C189.561 286.915 189.36 286.915 189.214 287.006L176.47 294.372C176.324 294.463 176.215 294.627 176.215 294.809C176.215 294.991 176.306 295.155 176.47 295.247L189.214 302.612C189.214 302.612 189.378 302.685 189.469 302.685C189.561 302.685 189.633 302.667 189.725 302.612L191.092 301.828L190.6 300.971L189.488 301.61L177.728 294.827L189.488 288.045L201.247 294.827L200.08 295.502L200.573 296.359L202.487 295.247C202.633 295.155 202.742 294.991 202.742 294.809C202.742 294.627 202.651 294.463 202.487 294.372L189.743 287.006H189.706Z" fill="#3B80F9"/>
<path d="M201.958 294.372L197.254 297.088L197.747 297.945L201.703 295.666V302.138L189.944 308.921V302.448L192.113 301.19L191.621 300.333L189.214 301.719C189.068 301.81 188.959 301.974 188.959 302.157V309.777C188.959 309.96 189.05 310.124 189.214 310.215C189.287 310.251 189.378 310.288 189.469 310.288C189.561 310.288 189.634 310.27 189.725 310.215L202.469 302.849C202.615 302.758 202.724 302.594 202.724 302.412V294.791C202.724 294.609 202.633 294.444 202.469 294.353C202.323 294.262 202.122 294.262 201.977 294.353L201.958 294.372Z" fill="#3B80F9"/>
<path d="M176.962 294.372C176.816 294.28 176.616 294.28 176.47 294.372C176.324 294.463 176.215 294.627 176.215 294.809V302.43C176.215 302.612 176.306 302.776 176.47 302.868L189.214 310.233C189.214 310.233 189.378 310.306 189.469 310.306C189.561 310.306 189.633 310.288 189.725 310.233C189.87 310.142 189.98 309.978 189.98 309.796V302.175C189.98 301.992 189.889 301.828 189.725 301.737L176.981 294.372H176.962ZM188.959 308.921L177.199 302.138V295.666L188.959 302.448V308.921Z" fill="#3B80F9"/>
<path d="M212.751 323.123L230.326 318.547L225.495 315.776L212.751 323.123Z" fill="#3B80F9"/>
<path d="M200.007 308.155L212.751 315.502L225.495 308.155L212.751 300.789L200.007 308.155Z" fill="#C7DAFF"/>
<path d="M212.751 323.123L225.495 315.776V308.155L212.751 315.502V323.123Z" fill="white"/>
<path d="M200.007 315.776L212.751 323.123V315.502L200.007 308.155V315.776Z" fill="#C7DAFF"/>
<path d="M212.988 300.352C212.842 300.26 212.641 300.26 212.495 300.352L199.751 307.717C199.605 307.808 199.496 307.972 199.496 308.155C199.496 308.337 199.587 308.501 199.751 308.592L212.495 315.958C212.495 315.958 212.659 316.031 212.751 316.031C212.842 316.031 212.915 316.013 213.006 315.958L214.373 315.174L213.881 314.317L212.769 314.955L201.009 308.173L212.769 301.391L224.528 308.173L223.362 308.848L223.854 309.704L225.768 308.592C225.914 308.501 226.023 308.337 226.023 308.155C226.023 307.972 225.932 307.808 225.768 307.717L213.024 300.352H212.988Z" fill="#3B80F9"/>
<path d="M225.24 307.717L220.536 310.434L221.028 311.291L225.003 308.993V315.466L213.243 322.248V315.776L215.413 314.518L214.921 313.661L212.514 315.046C212.368 315.138 212.259 315.302 212.259 315.484V323.105C212.259 323.287 212.35 323.451 212.514 323.543C212.587 323.579 212.678 323.615 212.769 323.615C212.86 323.615 212.933 323.597 213.025 323.543L225.769 316.177C225.914 316.086 226.024 315.922 226.024 315.739V308.118C226.024 307.936 225.933 307.772 225.769 307.681C225.623 307.59 225.422 307.59 225.276 307.681L225.24 307.717Z" fill="#3B80F9"/>
<path d="M200.244 307.717C200.098 307.626 199.897 307.626 199.751 307.717C199.605 307.808 199.496 307.972 199.496 308.155V315.776C199.496 315.958 199.587 316.122 199.751 316.213L212.495 323.579C212.495 323.579 212.659 323.652 212.751 323.652C212.842 323.652 212.915 323.634 213.006 323.579C213.152 323.488 213.261 323.324 213.261 323.141V315.52C213.261 315.338 213.17 315.174 213.006 315.083L200.262 307.717H200.244ZM212.258 322.266L200.499 315.484V309.012L212.258 315.794V322.266Z" fill="#3B80F9"/>
<path d="M213.353 349.286L230.91 344.71L226.097 341.938L213.353 349.286Z" fill="#3B80F9"/>
<path d="M200.59 334.318L213.352 341.665L226.096 334.318L213.352 326.952L200.59 334.318Z" fill="#C7DAFF"/>
<path d="M213.353 349.286L226.097 341.938V334.318L213.353 341.665V349.286Z" fill="white"/>
<path d="M200.59 341.938L213.352 349.286V341.665L200.59 334.318V341.938Z" fill="#C7DAFF"/>
<path d="M213.589 326.514C213.443 326.423 213.243 326.423 213.097 326.514L200.353 333.88C200.207 333.971 200.098 334.135 200.098 334.317C200.098 334.5 200.189 334.664 200.353 334.755L213.097 342.121C213.097 342.121 213.261 342.194 213.352 342.194C213.443 342.194 213.516 342.175 213.607 342.121L214.975 341.337L214.483 340.48L213.37 341.118L201.611 334.336L213.37 327.553L225.13 334.336L223.963 335.01L224.455 335.867L226.37 334.755C226.534 334.664 226.625 334.5 226.625 334.317C226.625 334.135 226.534 333.971 226.37 333.88L213.626 326.514H213.589Z" fill="#3B80F9"/>
<path d="M225.841 333.88L221.137 336.596L221.629 337.453L225.586 335.156V341.628L213.826 348.411V341.938L215.996 340.68L215.503 339.824L213.078 341.209C212.933 341.3 212.823 341.464 212.823 341.647V349.268C212.823 349.45 212.914 349.614 213.078 349.705C213.151 349.742 213.243 349.778 213.334 349.778C213.425 349.778 213.498 349.76 213.589 349.705L226.333 342.34C226.497 342.248 226.588 342.084 226.588 341.902V334.281C226.588 334.099 226.497 333.935 226.333 333.843C226.187 333.752 225.987 333.752 225.841 333.843V333.88Z" fill="#3B80F9"/>
<path d="M200.845 333.88C200.699 333.789 200.499 333.789 200.353 333.88C200.207 333.971 200.098 334.135 200.098 334.318V341.938C200.098 342.121 200.189 342.285 200.353 342.376L213.097 349.742C213.097 349.742 213.261 349.815 213.352 349.815C213.443 349.815 213.516 349.796 213.607 349.742C213.753 349.651 213.863 349.486 213.863 349.304V341.683C213.863 341.501 213.772 341.337 213.607 341.246L200.863 333.88H200.845ZM212.842 348.429L201.082 341.647V335.174L212.842 341.957V348.429Z" fill="#3B80F9"/>
<path d="M236.635 362.65L254.21 358.074L249.379 355.284L236.635 362.65Z" fill="#3B80F9"/>
<path d="M223.891 347.663L236.635 355.029L249.379 347.663L236.635 340.316L223.891 347.663Z" fill="#C7DAFF"/>
<path d="M236.635 362.65L249.379 355.284V347.663L236.635 355.029V362.65Z" fill="white"/>
<path d="M223.891 355.284L236.635 362.65V355.029L223.891 347.663V355.284Z" fill="#C7DAFF"/>
<path d="M249.634 347.244L236.89 339.878C236.744 339.787 236.544 339.787 236.398 339.878L223.654 347.244C223.508 347.335 223.398 347.499 223.398 347.681C223.398 347.864 223.49 348.028 223.654 348.119L236.398 355.485C236.398 355.485 236.562 355.558 236.653 355.558C236.744 355.558 236.817 355.539 236.908 355.485L238.276 354.701L237.783 353.844L236.671 354.482L224.912 347.7L236.671 340.917L248.431 347.7L247.264 348.374L247.756 349.231L249.671 348.119C249.816 348.028 249.926 347.864 249.926 347.681C249.926 347.499 249.835 347.335 249.671 347.244H249.634Z" fill="#3B80F9"/>
<path d="M249.634 347.244C249.489 347.153 249.288 347.153 249.142 347.244L244.438 349.96L244.931 350.817L248.905 348.538V355.011L237.146 361.793V355.321L239.315 354.063L238.823 353.206L236.416 354.591C236.271 354.682 236.161 354.847 236.161 355.029V362.65C236.161 362.832 236.252 362.996 236.416 363.087C236.489 363.124 236.58 363.16 236.672 363.16C236.763 363.16 236.836 363.142 236.927 363.087L249.671 355.722C249.817 355.631 249.926 355.466 249.926 355.284V347.663C249.926 347.481 249.835 347.317 249.671 347.226L249.634 347.244Z" fill="#3B80F9"/>
<path d="M236.89 354.591L224.146 347.226C224 347.134 223.8 347.134 223.654 347.226C223.508 347.317 223.398 347.481 223.398 347.663V355.284C223.398 355.466 223.49 355.631 223.654 355.722L236.398 363.087C236.398 363.087 236.562 363.16 236.653 363.16C236.744 363.16 236.817 363.142 236.908 363.087C237.054 362.996 237.163 362.832 237.163 362.65V355.029C237.163 354.847 237.072 354.682 236.908 354.591H236.89ZM236.143 361.793L224.383 355.011V348.538L236.143 355.321V361.793Z" fill="#3B80F9"/>
<path d="M235.231 336.341L252.789 331.765L247.976 328.994L235.231 336.341Z" fill="#3B80F9"/>
<path d="M222.469 321.355L235.231 328.72L247.975 321.355L235.231 314.007L222.469 321.355Z" fill="#C7DAFF"/>
<path d="M235.231 336.341L247.976 328.994V321.355L235.231 328.72V336.341Z" fill="white"/>
<path d="M222.469 328.994L235.231 336.341V328.72L222.469 321.355V328.994Z" fill="#C7DAFF"/>
<path d="M235.468 313.57C235.322 313.478 235.122 313.478 234.976 313.57L222.232 320.935C222.086 321.026 221.977 321.191 221.977 321.373C221.977 321.555 222.068 321.719 222.232 321.81L234.976 329.176C234.976 329.176 235.14 329.249 235.231 329.249C235.322 329.249 235.395 329.231 235.486 329.176L236.854 328.392L236.361 327.535L235.249 328.173L223.49 321.391L235.249 314.609L247.009 321.391L245.842 322.066L246.334 322.923L248.249 321.81C248.395 321.719 248.504 321.555 248.504 321.373C248.504 321.191 248.413 321.026 248.249 320.935L235.505 313.57H235.468Z" fill="#3B80F9"/>
<path d="M247.72 320.935L243.016 323.652L243.508 324.509L247.464 322.23V328.702L235.705 335.484V329.012L237.874 327.754L237.382 326.897L234.957 328.283C234.812 328.374 234.702 328.538 234.702 328.72V336.341C234.702 336.524 234.793 336.688 234.957 336.779C235.03 336.815 235.121 336.852 235.213 336.852C235.304 336.852 235.377 336.833 235.468 336.779L248.212 329.413C248.358 329.322 248.467 329.158 248.467 328.976V321.355C248.467 321.172 248.376 321.008 248.212 320.917C248.066 320.826 247.866 320.826 247.72 320.917V320.935Z" fill="#3B80F9"/>
<path d="M222.724 320.935C222.578 320.844 222.378 320.844 222.232 320.935C222.086 321.026 221.977 321.191 221.977 321.373V328.994C221.977 329.176 222.068 329.34 222.232 329.431L234.976 336.797C234.976 336.797 235.14 336.87 235.231 336.87C235.322 336.87 235.395 336.852 235.486 336.797C235.65 336.706 235.742 336.542 235.742 336.359V328.739C235.742 328.556 235.65 328.392 235.486 328.301L222.742 320.935H222.724ZM234.721 335.484L222.961 328.702V322.23L234.721 329.012V335.484Z" fill="#3B80F9"/>
<path d="M258.513 349.705L276.088 345.111L271.257 342.34L258.513 349.705Z" fill="#3B80F9"/>
<path d="M245.769 334.719L258.513 342.084L271.257 334.719L258.513 327.353L245.769 334.719Z" fill="#C7DAFF"/>
<path d="M258.513 349.705L271.257 342.34V334.719L258.513 342.084V349.705Z" fill="white"/>
<path d="M245.769 342.34L258.513 349.705V342.084L245.769 334.719V342.34Z" fill="#C7DAFF"/>
<path d="M258.768 326.934C258.622 326.842 258.422 326.842 258.276 326.934L245.532 334.299C245.386 334.39 245.276 334.555 245.276 334.737C245.276 334.919 245.368 335.083 245.532 335.174L258.276 342.54C258.276 342.54 258.44 342.613 258.531 342.613C258.622 342.613 258.695 342.595 258.786 342.54L260.154 341.756L259.661 340.899L258.549 341.537L246.79 334.755L258.549 327.973L270.309 334.755L269.142 335.43L269.634 336.287L271.548 335.174C271.694 335.083 271.804 334.919 271.804 334.737C271.804 334.555 271.713 334.39 271.548 334.299L258.804 326.934H258.768Z" fill="#3B80F9"/>
<path d="M271.02 334.281L266.316 336.998L266.808 337.854L270.765 335.557V342.03L259.005 348.812V342.34L261.175 341.082L260.682 340.225L258.276 341.628C258.13 341.72 258.021 341.884 258.021 342.066V349.687C258.021 349.869 258.112 350.033 258.276 350.125C258.349 350.179 258.44 350.197 258.531 350.197C258.622 350.197 258.695 350.179 258.786 350.125L271.53 342.759C271.676 342.668 271.786 342.504 271.786 342.321V334.7C271.786 334.518 271.694 334.354 271.53 334.263C271.384 334.172 271.184 334.172 271.038 334.263L271.02 334.281Z" fill="#3B80F9"/>
<path d="M246.024 334.281C245.878 334.19 245.677 334.19 245.532 334.281C245.386 334.372 245.276 334.536 245.276 334.719V342.34C245.276 342.522 245.368 342.686 245.532 342.777L258.276 350.143C258.276 350.143 258.44 350.216 258.531 350.216C258.622 350.216 258.695 350.197 258.786 350.143C258.932 350.052 259.041 349.887 259.041 349.705V342.084C259.041 341.902 258.95 341.738 258.786 341.647L246.042 334.281H246.024ZM258.02 348.83L246.261 342.048V335.575L258.02 342.358V348.83Z" fill="#3B80F9"/>
<path d="M260.464 376.087L278.021 371.51L273.208 368.721L260.464 376.087Z" fill="#3B80F9"/>
<path d="M247.701 361.1L260.463 368.466L273.208 361.1L260.463 353.753L247.701 361.1Z" fill="#C7DAFF"/>
<path d="M260.464 376.087L273.208 368.721V361.1L260.464 368.466V376.087Z" fill="white"/>
<path d="M247.701 368.721L260.463 376.087V368.466L247.701 361.1V368.721Z" fill="#C7DAFF"/>
<path d="M273.445 360.681L260.701 353.315C260.555 353.224 260.354 353.224 260.208 353.315L247.464 360.681C247.318 360.772 247.209 360.936 247.209 361.118C247.209 361.301 247.3 361.465 247.464 361.556L260.208 368.922C260.208 368.922 260.372 368.994 260.464 368.994C260.555 368.994 260.628 368.976 260.719 368.922L262.086 368.138L261.594 367.281L260.482 367.919L248.722 361.137L260.482 354.354L272.241 361.137L271.074 361.811L271.567 362.668L273.481 361.556C273.627 361.465 273.736 361.301 273.736 361.118C273.736 360.936 273.645 360.772 273.481 360.681H273.445Z" fill="#3B80F9"/>
<path d="M273.445 360.681C273.299 360.59 273.098 360.59 272.952 360.681L268.249 363.397L268.741 364.254L272.697 361.957V368.429L260.938 375.212V368.739L263.107 367.481L262.615 366.624L260.208 368.028C260.063 368.119 259.953 368.283 259.953 368.466V376.087C259.953 376.269 260.044 376.433 260.208 376.524C260.281 376.579 260.372 376.597 260.464 376.597C260.555 376.597 260.628 376.579 260.719 376.524L273.463 369.159C273.609 369.067 273.718 368.903 273.718 368.721V361.1C273.718 360.918 273.627 360.754 273.463 360.663L273.445 360.681Z" fill="#3B80F9"/>
<path d="M260.701 368.028L247.956 360.663C247.811 360.571 247.61 360.571 247.464 360.663C247.318 360.754 247.209 360.918 247.209 361.1V368.721C247.209 368.903 247.3 369.067 247.464 369.159L260.208 376.524C260.208 376.524 260.372 376.597 260.464 376.597C260.555 376.597 260.628 376.579 260.719 376.524C260.865 376.433 260.974 376.269 260.974 376.087V368.466C260.974 368.283 260.883 368.119 260.719 368.028H260.701ZM259.953 375.23L248.193 368.448V361.975L259.953 368.757V375.23Z" fill="#3B80F9"/>
<path d="M283.746 389.451L301.322 384.856L296.49 382.085L283.746 389.451Z" fill="#3B80F9"/>
<path d="M271.002 374.464L283.746 381.811L296.49 374.464L283.746 367.098L271.002 374.464Z" fill="#C7DAFF"/>
<path d="M283.746 389.451L296.49 382.085V374.464L283.746 381.811V389.451Z" fill="white"/>
<path d="M271.002 382.085L283.746 389.451V381.811L271.002 374.464V382.085Z" fill="#C7DAFF"/>
<path d="M296.745 374.026L284.001 366.661C283.855 366.57 283.655 366.57 283.509 366.661L270.765 374.026C270.619 374.118 270.51 374.282 270.51 374.464C270.51 374.646 270.601 374.81 270.765 374.902L283.509 382.267C283.509 382.267 283.673 382.34 283.764 382.34C283.855 382.34 283.928 382.322 284.02 382.267L285.387 381.483L284.895 380.626L283.783 381.265L272.023 374.482L283.783 367.7L295.542 374.482L294.375 375.157L294.868 376.014L296.782 374.902C296.946 374.81 297.037 374.646 297.037 374.464C297.037 374.282 296.946 374.118 296.782 374.026H296.745Z" fill="#3B80F9"/>
<path d="M296.745 374.026C296.599 373.935 296.399 373.935 296.253 374.026L291.549 376.743L292.041 377.6L295.998 375.303V381.775L284.238 388.557V382.085L286.408 380.827L285.915 379.97L283.491 381.356C283.345 381.447 283.235 381.611 283.235 381.793V389.414C283.235 389.596 283.327 389.761 283.491 389.852C283.564 389.888 283.655 389.925 283.746 389.925C283.837 389.925 283.91 389.906 284.001 389.852L296.745 382.486C296.909 382.395 297 382.231 297 382.049V374.428C297 374.245 296.909 374.081 296.745 373.99V374.026Z" fill="#3B80F9"/>
<path d="M284.001 381.392L271.257 374.026C271.111 373.935 270.911 373.935 270.765 374.026C270.619 374.118 270.51 374.282 270.51 374.464V382.085C270.51 382.267 270.601 382.431 270.765 382.523L283.509 389.888C283.509 389.888 283.673 389.961 283.764 389.961C283.855 389.961 283.928 389.943 284.02 389.888C284.165 389.797 284.275 389.633 284.275 389.451V381.83C284.275 381.647 284.184 381.483 284.02 381.392H284.001ZM283.254 388.576L271.494 381.793V375.321L283.254 382.103V388.576Z" fill="#3B80F9"/>
<path d="M282.343 363.142L299.9 358.548L295.087 355.776L282.343 363.142Z" fill="#3B80F9"/>
<path d="M269.599 348.155L282.343 355.521L295.087 348.155L282.343 340.79L269.599 348.155Z" fill="#C7DAFF"/>
<path d="M282.343 363.142L295.087 355.776V348.155L282.343 355.521V363.142Z" fill="white"/>
<path d="M269.599 355.776L282.343 363.142V355.521L269.599 348.155V355.776Z" fill="#C7DAFF"/>
<path d="M295.342 347.718L282.598 340.352C282.452 340.261 282.252 340.261 282.106 340.352L269.362 347.718C269.216 347.809 269.106 347.973 269.106 348.155C269.106 348.338 269.198 348.502 269.362 348.593L282.106 355.959C282.106 355.959 282.27 356.032 282.361 356.032C282.452 356.032 282.525 356.013 282.616 355.959L283.984 355.175L283.491 354.318L282.379 354.956L270.62 348.174L282.379 341.391L294.139 348.174L292.972 348.848L293.464 349.705L295.379 348.593C295.524 348.502 295.634 348.338 295.634 348.155C295.634 347.973 295.543 347.809 295.379 347.718H295.342Z" fill="#3B80F9"/>
<path d="M295.342 347.718C295.196 347.627 294.996 347.627 294.85 347.718L290.146 350.434L290.638 351.291L294.613 349.012V355.485L282.853 362.267V355.795L285.023 354.537L284.531 353.68L282.106 355.065C281.96 355.157 281.851 355.321 281.851 355.503V363.124C281.851 363.306 281.942 363.47 282.106 363.561C282.179 363.616 282.27 363.634 282.361 363.634C282.452 363.634 282.525 363.616 282.616 363.561L295.36 356.196C295.506 356.105 295.616 355.94 295.616 355.758V348.137C295.616 347.955 295.524 347.791 295.36 347.7L295.342 347.718Z" fill="#3B80F9"/>
<path d="M282.579 355.084L269.835 347.718C269.69 347.627 269.489 347.627 269.343 347.718C269.197 347.809 269.088 347.973 269.088 348.155V355.776C269.088 355.959 269.179 356.123 269.343 356.214L282.087 363.58C282.087 363.58 282.251 363.653 282.342 363.653C282.434 363.653 282.507 363.634 282.598 363.58C282.744 363.488 282.853 363.324 282.853 363.142V355.521C282.853 355.339 282.762 355.175 282.598 355.084H282.579ZM281.832 362.285L270.072 355.503V349.031L281.832 355.813V362.285Z" fill="#3B80F9"/>
<path d="M305.624 376.488L323.2 371.912L318.386 369.14L305.624 376.488Z" fill="#3B80F9"/>
<path d="M292.88 361.519L305.624 368.867L318.386 361.519L305.624 354.154L292.88 361.519Z" fill="#C7DAFF"/>
<path d="M305.624 376.488L318.386 369.14V361.519L305.624 368.867V376.488Z" fill="white"/>
<path d="M292.88 369.14L305.624 376.488V368.867L292.88 361.519V369.14Z" fill="#C7DAFF"/>
<path d="M318.623 361.082L305.879 353.716C305.733 353.625 305.533 353.625 305.387 353.716L292.643 361.082C292.497 361.173 292.388 361.337 292.388 361.519C292.388 361.702 292.479 361.866 292.643 361.957L305.387 369.323C305.387 369.323 305.551 369.396 305.642 369.396C305.733 369.396 305.806 369.377 305.897 369.323L307.265 368.539L306.773 367.682L305.66 368.32L293.901 361.538L305.66 354.755L317.42 361.538L316.253 362.212L316.745 363.069L318.66 361.957C318.806 361.866 318.915 361.702 318.915 361.519C318.915 361.337 318.824 361.173 318.66 361.082H318.623Z" fill="#3B80F9"/>
<path d="M318.623 361.082C318.478 360.991 318.277 360.991 318.131 361.082L313.427 363.798L313.92 364.655L317.876 362.358V368.83L306.116 375.613V369.14L308.286 367.882L307.794 367.025L305.387 368.429C305.241 368.52 305.132 368.685 305.132 368.867V376.488C305.132 376.67 305.223 376.834 305.387 376.925C305.46 376.962 305.551 376.998 305.642 376.998C305.733 376.998 305.806 376.98 305.898 376.925L318.642 369.56C318.788 369.469 318.897 369.304 318.897 369.122V361.501C318.897 361.319 318.806 361.155 318.642 361.064L318.623 361.082Z" fill="#3B80F9"/>
<path d="M305.879 368.448L293.135 361.082C292.989 360.991 292.789 360.991 292.643 361.082C292.497 361.173 292.388 361.337 292.388 361.519V369.14C292.388 369.323 292.479 369.487 292.643 369.578L305.387 376.944C305.387 376.944 305.551 377.016 305.642 377.016C305.733 377.016 305.806 376.998 305.897 376.944C306.043 376.852 306.153 376.688 306.153 376.506V368.885C306.153 368.703 306.062 368.539 305.897 368.448H305.879ZM305.132 375.631L293.372 368.849V362.376L305.132 369.159V375.631Z" fill="#3B80F9"/>
<path d="M237.729 388.521L255.304 383.945L250.473 381.173L237.729 388.521Z" fill="#3B80F9"/>
<path d="M224.984 373.534L237.728 380.9L250.473 373.534L237.728 366.187L224.984 373.534Z" fill="#C7DAFF"/>
<path d="M237.729 388.521L250.473 381.173V373.534L237.729 380.9V388.521Z" fill="white"/>
<path d="M224.984 381.173L237.728 388.521V380.9L224.984 373.534V381.173Z" fill="#C7DAFF"/>
<path d="M250.728 373.115L237.984 365.749C237.838 365.658 237.637 365.658 237.492 365.749L224.747 373.115C224.602 373.206 224.492 373.37 224.492 373.552C224.492 373.735 224.583 373.899 224.747 373.99L237.492 381.356C237.492 381.356 237.656 381.429 237.747 381.429C237.838 381.429 237.911 381.41 238.002 381.356L239.369 380.572L238.877 379.715L237.765 380.353L226.005 373.571L237.765 366.788L249.525 373.571L248.339 374.245L248.832 375.102L250.746 373.99C250.892 373.899 251.001 373.735 251.001 373.552C251.001 373.37 250.91 373.206 250.746 373.115H250.728Z" fill="#3B80F9"/>
<path d="M250.728 373.115C250.582 373.024 250.381 373.024 250.236 373.115L245.532 375.831L246.024 376.688L249.98 374.409V380.882L238.221 387.664V381.192L240.39 379.934L239.898 379.077L237.492 380.462C237.346 380.553 237.236 380.718 237.236 380.9V388.521C237.236 388.703 237.327 388.867 237.492 388.958C237.565 388.995 237.656 389.031 237.747 389.031C237.838 389.031 237.911 389.013 238.002 388.958L250.746 381.593C250.892 381.502 251.001 381.337 251.001 381.155V373.534C251.001 373.352 250.91 373.188 250.746 373.097L250.728 373.115Z" fill="#3B80F9"/>
<path d="M237.984 380.481L225.24 373.115C225.094 373.024 224.893 373.024 224.747 373.115C224.602 373.206 224.492 373.37 224.492 373.552V381.173C224.492 381.356 224.583 381.52 224.747 381.611L237.492 388.977C237.492 388.977 237.656 389.05 237.747 389.05C237.838 389.05 237.911 389.031 238.002 388.977C238.148 388.885 238.257 388.721 238.257 388.539V380.918C238.257 380.736 238.166 380.572 238.002 380.481H237.984ZM237.236 387.664L225.477 380.882V374.409L237.236 381.192V387.664Z" fill="#3B80F9"/>
<path d="M212.934 374.045L230.509 369.469L225.678 366.679L212.934 374.045Z" fill="#3B80F9"/>
<path d="M135.521 321.92L212.934 366.424L225.678 359.058L148.266 314.554L135.521 321.92Z" fill="#C7DAFF"/>
<path d="M212.934 374.045L225.678 366.679V359.058L212.934 366.424V374.045Z" fill="white"/>
<path d="M135.521 329.541L212.934 374.045V366.424L135.521 321.92V329.541Z" fill="#C7DAFF"/>
<path d="M225.933 358.639L148.521 314.135C148.375 314.044 148.174 314.044 148.029 314.135L135.285 321.5C135.139 321.592 135.029 321.756 135.029 321.938C135.029 322.12 135.12 322.284 135.285 322.376L212.697 366.88C212.697 366.88 212.861 366.953 212.952 366.953C213.043 366.953 213.116 366.934 213.207 366.88L214.575 366.096L214.083 365.239L212.97 365.877L136.561 321.956L148.32 315.174L224.73 359.113L223.563 359.787L224.055 360.644L225.97 359.532C226.116 359.441 226.225 359.277 226.225 359.095C226.225 358.912 226.134 358.748 225.97 358.657L225.933 358.639Z" fill="#3B80F9"/>
<path d="M225.933 358.639C225.787 358.548 225.587 358.548 225.441 358.639L220.737 361.355L221.229 362.212L225.185 359.915V366.387L213.426 373.17V366.697L215.596 365.439L215.103 364.582L212.697 365.968C212.551 366.059 212.441 366.223 212.441 366.406V374.026C212.441 374.209 212.533 374.373 212.697 374.464C212.77 374.501 212.861 374.537 212.952 374.537C213.043 374.537 213.116 374.519 213.207 374.464L225.951 367.098C226.097 367.007 226.206 366.843 226.206 366.661V359.04C226.206 358.858 226.115 358.693 225.951 358.602L225.933 358.639Z" fill="#3B80F9"/>
<path d="M213.171 365.986L135.758 321.482C135.612 321.391 135.412 321.391 135.266 321.482C135.12 321.573 135.011 321.738 135.011 321.92V329.541C135.011 329.723 135.102 329.887 135.266 329.978L212.678 374.482C212.678 374.482 212.843 374.555 212.934 374.555C213.025 374.555 213.098 374.537 213.189 374.482C213.335 374.391 213.444 374.227 213.444 374.045V366.424C213.444 366.241 213.353 366.077 213.189 365.986H213.171ZM212.441 373.188L136.032 329.249V322.777L212.441 366.715V373.188Z" fill="#3B80F9"/>
<path d="M261.029 401.885L278.587 397.29L273.773 394.519L261.029 401.885Z" fill="#3B80F9"/>
<path d="M248.267 386.898L261.029 394.264L273.773 386.898L261.029 379.533L248.267 386.898Z" fill="#C7DAFF"/>
<path d="M261.029 401.885L273.773 394.519V386.898L261.029 394.264V401.885Z" fill="white"/>
<path d="M248.267 394.519L261.029 401.885V394.264L248.267 386.898V394.519Z" fill="#C7DAFF"/>
<path d="M274.01 386.461L261.266 379.095C261.12 379.004 260.92 379.004 260.774 379.095L248.03 386.461C247.884 386.552 247.774 386.716 247.774 386.898C247.774 387.08 247.866 387.245 248.03 387.336L260.774 394.701C260.774 394.701 260.938 394.774 261.029 394.774C261.12 394.774 261.193 394.756 261.284 394.701L262.652 393.917L262.159 393.061L261.047 393.699L249.288 386.916L261.047 380.134L272.807 386.916L271.64 387.591L272.132 388.448L274.047 387.336C274.192 387.245 274.302 387.08 274.302 386.898C274.302 386.716 274.211 386.552 274.047 386.461H274.01Z" fill="#3B80F9"/>
<path d="M274.01 386.461C273.864 386.369 273.663 386.369 273.518 386.461L268.814 389.177L269.306 390.034L273.262 387.755V394.227L261.503 401.01V394.537L263.672 393.279L263.18 392.422L260.755 393.808C260.609 393.899 260.5 394.063 260.5 394.246V401.867C260.5 402.049 260.591 402.213 260.755 402.304C260.828 402.341 260.919 402.377 261.01 402.377C261.102 402.377 261.175 402.359 261.266 402.304L274.01 394.938C274.156 394.847 274.265 394.683 274.265 394.501V386.88C274.265 386.698 274.174 386.534 274.01 386.442V386.461Z" fill="#3B80F9"/>
<path d="M261.266 393.826L248.522 386.461C248.376 386.369 248.176 386.369 248.03 386.461C247.884 386.552 247.774 386.716 247.774 386.898V394.519C247.774 394.701 247.866 394.865 248.03 394.957L260.774 402.322C260.774 402.322 260.938 402.395 261.029 402.395C261.12 402.395 261.193 402.377 261.284 402.322C261.43 402.231 261.539 402.067 261.539 401.885V394.264C261.539 394.082 261.448 393.917 261.284 393.826H261.266ZM260.518 401.028L248.759 394.246V387.773L260.518 394.556V401.028Z" fill="#3B80F9"/>
</g>
<g opacity="0.5">
<path d="M212.733 381.21L127.718 331.911C124.928 330.288 121.519 330.234 118.675 331.765L110.069 336.396C107.426 337.818 107.371 341.592 109.96 343.105L194.282 391.857C197.017 393.425 200.353 393.48 203.125 391.967L212.642 386.752C214.829 385.567 214.866 382.45 212.714 381.192L212.733 381.21Z" fill="#3B80F9"/>
</g>
<path d="M193.114 9.51702L208.739 18.7059L224.345 9.73581L208.739 0.546951L193.114 9.51702Z" fill="white"/>
<path d="M208.739 19.2528L192.203 9.51703L208.758 0L225.294 9.73581L208.758 19.2528H208.739ZM194.063 9.51703L208.739 18.1589L223.416 9.71758L208.739 1.07568L194.063 9.51703Z" fill="#3B80F9"/>
<path d="M208.739 229.885L224.346 220.915V9.73581L208.739 18.7059V229.885Z" fill="#83AFFA"/>
<path d="M208.266 230.706V18.4506L224.802 8.93361V221.189L208.266 230.706ZM209.195 18.9794V229.083L223.872 220.642V10.538L209.195 18.9794Z" fill="#3B80F9"/>
<path d="M193.115 220.697L208.74 229.885V18.7059L193.115 9.51703V220.697Z" fill="#C7DAFF"/>
<path d="M209.195 230.706L192.641 220.97V8.69659L209.195 18.4506V230.706ZM193.589 220.441L208.265 229.083V18.9794L193.589 10.3375V220.423V220.441Z" fill="#3B80F9"/>
<path d="M274.757 94.2952L290.382 103.484L305.988 94.4957L290.382 85.3068L274.757 94.2952Z" fill="white"/>
<path d="M290.363 104.031L273.827 94.2952L290.363 84.7781L306.9 94.5139L290.345 104.031H290.363ZM275.705 94.2952L290.382 102.937L305.058 94.4957L290.382 85.8538L275.705 94.2952Z" fill="#3B80F9"/>
<path d="M290.381 272.913L305.987 263.924V94.4957L290.381 103.484V272.913Z" fill="#83AFFA"/>
<path d="M289.907 273.715V103.211L306.462 93.6935V264.198L289.907 273.715ZM290.837 103.757V272.11L305.514 263.669V95.3161L290.837 103.757Z" fill="#3B80F9"/>
<path d="M274.758 263.706L290.382 272.913V103.484L274.758 94.2952V263.706Z" fill="#C7DAFF"/>
<path d="M290.838 273.733L274.283 263.979V93.4747L290.838 103.211V273.715V273.733ZM275.231 263.45L289.908 272.092V103.757L275.231 95.1156V263.45Z" fill="#3B80F9"/>
<path d="M233.936 52.0519L249.56 61.2408L265.167 52.2525L249.56 43.0636L233.936 52.0519Z" fill="white"/>
<path d="M249.542 61.7695L233.006 52.0337L249.56 42.5167L266.097 52.2525L249.542 61.7695ZM234.884 52.0519L249.56 60.6938L264.237 52.2525L249.56 43.6106L234.884 52.0519Z" fill="#3B80F9"/>
<path d="M249.56 251.253L265.166 242.283V52.2525L249.56 61.2408V251.253Z" fill="#83AFFA"/>
<path d="M249.086 252.074V60.9673L265.64 51.4503V242.557L249.086 252.074ZM250.016 61.5143V250.451L264.692 242.01V53.0729L250.016 61.5143Z" fill="#3B80F9"/>
<path d="M233.937 242.064L249.561 251.253V61.2408L233.937 52.0519V242.064Z" fill="#C7DAFF"/>
<path d="M250.016 252.074L233.462 242.32V51.2315L250.016 60.9673V252.074ZM234.41 241.791L249.087 250.433V61.496L234.41 52.8541V241.791Z" fill="#3B80F9"/>
<path d="M315.577 132.564L331.202 141.753L346.808 132.783L331.202 123.594L315.577 132.564Z" fill="white"/>
<path d="M331.202 142.3L314.666 132.564L331.221 123.047L347.757 132.783L331.202 142.3ZM316.526 132.564L331.202 141.206L345.879 132.764L331.202 124.122L316.526 132.564Z" fill="#3B80F9"/>
<path d="M331.202 298.528L346.809 289.54V132.783L331.202 141.753V298.528Z" fill="#83AFFA"/>
<path d="M330.729 299.331V141.479L347.283 131.962V289.814L330.729 299.331ZM331.658 142.026V297.708L346.335 289.267V133.585L331.658 142.026Z" fill="#3B80F9"/>
<path d="M315.578 289.321L331.203 298.528V141.753L315.578 132.564V289.321Z" fill="#C7DAFF"/>
<path d="M331.658 299.331L315.104 289.595V131.743L331.658 141.479V299.331ZM316.052 289.066L330.728 297.708V142.026L316.052 133.384V289.066Z" fill="#3B80F9"/>
<path d="M181.958 314.354C179.952 317.161 168.812 314.39 168.812 305.675C168.812 298.875 176.233 278.2 180.773 280.461C184 282.065 188.138 296.085 188.138 296.085C188.084 297.781 187.755 299.458 187.172 301.063C185.604 305.292 182.468 313.643 181.958 314.372V314.354Z" fill="#C7DAFF"/>
<path d="M230.108 248.391C231.22 245.838 231.567 242.939 229.488 241.08C226.79 238.655 216.671 245.929 212.715 249.065C206.133 254.316 182.778 267.461 182.778 267.461C182.778 267.461 178.147 263.304 175.084 262.739C167.245 261.299 165.002 264.034 162.45 264.964C160.317 265.748 159.97 265.985 157.801 265.328C150.927 263.25 146.734 264.417 142.978 266.294C142.212 266.677 139.933 268.336 139.095 268.209C129.778 266.623 124.145 272.056 121.483 274.426C109.322 285.292 96.6327 310.197 73.0225 322.904L103.087 362.267C103.087 362.267 146.916 340.954 155.54 336.505C158.001 335.229 160.608 334.336 163.325 333.825C171.857 332.221 191.147 328.629 197.783 327.79C206.99 326.605 218.476 325.931 217.492 320.625C216.617 315.976 214.319 315.01 209.688 313.387C199.789 309.905 188.631 313.497 180.445 310.817C175.795 309.285 174.027 302.977 177.072 298.437C180.973 292.603 194.082 280.935 205.295 272.056C210.928 267.589 227.702 253.933 230.108 248.391Z" fill="white"/>
<path d="M102.941 362.85L102.704 362.54L72.3115 322.74L72.7856 322.485C88.3009 314.135 99.2947 300.206 108.137 289.011C112.896 282.995 116.998 277.781 121.155 274.061L121.446 273.806C124.199 271.326 129.942 266.167 139.15 267.735C139.624 267.789 141.137 266.841 141.811 266.422C142.194 266.185 142.541 265.966 142.741 265.875C146.351 264.07 150.69 262.703 157.91 264.891C159.77 265.456 160.134 265.328 161.848 264.69L162.268 264.526C162.796 264.344 163.325 264.052 163.872 263.76C165.969 262.648 168.831 261.135 175.139 262.283C177.91 262.794 181.776 266.003 182.797 266.896C185.495 265.365 206.316 253.55 212.387 248.719C214.702 246.878 226.462 237.78 229.762 240.752C231.694 242.484 231.95 245.273 230.509 248.591C227.993 254.371 210.764 268.3 205.55 272.439C194.757 280.989 181.338 292.858 177.436 298.711C175.978 300.899 175.613 303.688 176.452 306.149C177.163 308.228 178.676 309.777 180.572 310.397C184.328 311.619 188.74 311.509 193.426 311.382C198.859 311.236 204.474 311.09 209.834 312.968C214.538 314.627 217.036 315.703 217.948 320.571C218.13 321.573 217.948 322.467 217.346 323.269C215.176 326.204 207.957 327.061 200.956 327.9C199.898 328.028 198.859 328.155 197.838 328.283C191.183 329.14 171.548 332.786 163.398 334.317C160.718 334.828 158.147 335.703 155.722 336.961C147.19 341.355 103.689 362.522 103.251 362.723L102.905 362.887L102.941 362.85ZM73.7154 323.05L103.215 361.684C107.353 359.678 147.208 340.279 155.321 336.086C157.819 334.81 160.481 333.88 163.234 333.369C171.383 331.838 191.056 328.173 197.728 327.316C198.749 327.189 199.807 327.061 200.864 326.934C207.337 326.168 214.684 325.293 216.617 322.686C217.054 322.102 217.182 321.464 217.054 320.717C216.234 316.341 214.174 315.448 209.561 313.825C204.365 312.002 198.841 312.148 193.499 312.293C188.74 312.421 184.237 312.549 180.335 311.272C178.147 310.561 176.434 308.793 175.613 306.441C174.665 303.706 175.085 300.625 176.707 298.182C180.7 292.202 193.809 280.57 205.021 271.691C208.704 268.774 227.209 253.951 229.707 248.208C230.619 246.13 231.257 243.268 229.197 241.426C227.319 239.731 219.625 244.161 213.025 249.43C206.498 254.644 183.252 267.735 183.015 267.862L182.724 268.026L182.468 267.808C182.468 267.808 177.91 263.724 175.012 263.195C169.032 262.083 166.443 263.469 164.346 264.581C163.763 264.891 163.197 265.182 162.614 265.401L162.195 265.547C160.39 266.222 159.824 266.422 157.673 265.766C150.745 263.669 146.625 264.982 143.197 266.696C142.996 266.787 142.687 266.987 142.34 267.206C140.918 268.099 139.751 268.774 139.022 268.646C130.234 267.151 124.746 272.11 122.103 274.499L121.811 274.754C117.709 278.419 113.643 283.596 108.903 289.577C100.097 300.716 89.176 314.572 73.7518 323.032L73.7154 323.05Z" fill="#3B80F9"/>
<path d="M115.739 344.928C122.594 343.543 125.347 341.319 131.71 338.438C136.651 336.195 141.738 332.804 161.337 328.957C165.385 328.155 189.724 325.73 196.725 325.275C201.046 324.983 217.692 325.712 211.876 314.737C214.446 315.429 216.288 317.799 216.817 319.367C219.132 326.058 206.661 326.131 197.454 327.316C190.818 328.173 171.529 331.747 162.996 333.351C160.28 333.862 157.654 334.755 155.193 336.031C146.569 340.48 125.439 351.255 121.847 351.966C113.898 353.534 109.431 353.224 100.898 345.257C105.894 345.858 110.889 345.913 115.739 344.928Z" fill="#C7DAFF"/>
<path d="M23.7959 325.767L63.1038 303.396C68.7374 300.26 76.4495 300.789 84.9455 305.694C102.175 315.63 116.14 339.824 116.14 359.714C116.14 369.778 112.567 376.816 106.806 380.025L67.5888 402.341L23.7959 325.785V325.767Z" fill="#C7DAFF"/>
<path d="M67.4066 402.96L23.1396 325.584L23.5407 325.347L62.8486 302.977C68.8651 299.622 76.796 300.443 85.1644 305.274C102.485 315.283 116.578 339.696 116.578 359.696C116.578 369.614 113.169 376.98 107.006 380.408L67.3884 402.942L67.4066 402.96ZM24.4341 325.931L67.7712 401.684L106.569 379.605C112.439 376.342 115.666 369.268 115.666 359.696C115.666 339.988 101.774 315.94 84.7086 306.095C76.6319 301.427 69.0292 300.607 63.3227 303.797L24.4159 325.931H24.4341Z" fill="#3B80F9"/>
<path d="M46.166 328.155C63.3951 338.092 77.306 362.194 77.2331 381.976C77.1784 401.757 63.1763 409.743 45.9472 399.806C28.7181 389.87 14.8072 365.767 14.8802 345.986C14.9349 326.204 28.9369 318.219 46.166 328.155Z" fill="#83AFFA"/>
<path d="M59.9499 404.565C55.5743 404.565 50.7428 403.106 45.7291 400.207C28.4088 390.216 14.3703 365.877 14.425 345.968C14.4614 336.25 17.7796 328.994 23.8144 325.53C29.8673 322.047 37.9076 322.831 46.4036 327.736C63.7239 337.745 77.7624 362.066 77.7077 381.976C77.6713 391.693 74.3531 398.949 68.3183 402.413C65.8206 403.854 62.9946 404.565 59.9499 404.565ZM32.1828 324.326C29.2839 324.326 26.6221 325.001 24.2702 326.35C18.5454 329.65 15.373 336.615 15.3548 345.986C15.3001 365.585 29.1381 389.56 46.2031 399.405C54.4074 404.146 62.1013 404.929 67.8625 401.611C73.5873 398.311 76.7597 391.347 76.7779 381.994C76.8326 362.395 62.9946 338.42 45.9296 328.574C41.0617 325.767 36.3761 324.345 32.1828 324.345V324.326Z" fill="#3B80F9"/>
</g>
<defs>
<clipPath id="clip0_2325_697">
<rect width="420.208" height="477" fill="white" transform="translate(0.896484)"/>
</clipPath>
</defs>
</svg>
