<svg width="900" height="610" viewBox="0 0 900 610" fill="none" xmlns="http://www.w3.org/2000/svg">
<path d="M440.235 346.754C440.021 346.754 439.806 346.692 439.592 346.569L307.429 269.961C307.03 269.745 306.785 269.314 306.785 268.853C306.785 268.391 307.03 267.991 307.429 267.745L368.651 232.38C369.05 232.164 369.51 232.164 369.908 232.38L502.071 308.988C502.469 309.204 502.714 309.635 502.714 310.096C502.714 310.558 502.469 310.958 502.071 311.204L440.848 346.569C440.665 346.692 440.45 346.723 440.205 346.723L440.235 346.754ZM310.617 268.853L440.266 343.984L498.974 310.096L369.326 234.965L310.648 268.853H310.617Z" fill="#1263FF"/>
<path d="M369.295 -0.000366211V153.217L501.458 229.825V76.6082L369.295 -0.000366211ZM385.083 27.4236L485.7 85.7495V202.401L385.083 144.075V27.4236Z" fill="url(#paint0_linear_2489_10)"/>
<path d="M351.207 10.403V163.62L483.37 240.229V87.0115L351.207 10.403ZM366.995 37.8269L467.612 96.1528V212.805L366.995 154.479V37.8269Z" fill="url(#paint1_linear_2489_10)"/>
<path d="M351.207 10.403L369.295 -0.000244141L501.488 76.6083L483.37 87.0115L351.207 10.403Z" fill="url(#paint2_linear_2489_10)"/>
<path d="M501.488 76.6083L483.37 87.0115V240.229L501.488 229.825V76.6083Z" fill="url(#paint3_linear_2489_10)"/>
<path d="M385.083 144.075L366.995 154.479V37.8268L385.083 48.3224V144.075Z" fill="url(#paint4_linear_2489_10)"/>
<path d="M385.083 144.075L366.995 154.479L467.612 212.774V191.906L385.083 144.075Z" fill="url(#paint5_linear_2489_10)"/>
<path opacity="0.5" d="M376.683 148.908V43.4901L467.612 96.1527V200.739L376.683 148.908Z" fill="#7BAEFF"/>
<path d="M326.191 24.9612V178.178L458.354 254.787V101.57L326.191 24.9612ZM341.949 52.3851L442.566 110.711V227.363L341.949 169.037V52.3851Z" fill="url(#paint6_linear_2489_10)"/>
<path d="M308.073 35.3646V188.582L440.236 265.19V111.973L308.073 35.3646ZM323.862 62.7886L424.478 121.114V237.766L323.862 179.44V62.7886Z" fill="url(#paint7_linear_2489_10)"/>
<path d="M308.073 35.3644L326.192 24.9612L458.354 101.57L440.236 111.973L308.073 35.3644Z" fill="url(#paint8_linear_2489_10)"/>
<path d="M458.355 101.57L440.237 111.973V265.19L458.355 254.787V101.57Z" fill="url(#paint9_linear_2489_10)"/>
<path d="M341.949 169.037L323.861 179.44V62.7886L341.949 73.2842V169.037Z" fill="url(#paint10_linear_2489_10)"/>
<path d="M341.949 169.037L323.861 179.44L424.477 237.735V216.867L341.949 169.037Z" fill="url(#paint11_linear_2489_10)"/>
<path opacity="0.5" d="M333.549 173.869V68.4517L424.478 121.114V225.701L333.549 173.869Z" fill="#7BAEFF"/>
<path d="M440.236 111.973L308.073 35.3647L311.2 33.6411L443.363 110.25V263.467L440.236 265.19V111.973Z" fill="#A9CFFF"/>
<path d="M483.372 87.0114L351.209 10.4029L354.336 8.67932L486.499 85.2878V238.505L483.372 240.228V87.0114Z" fill="#A9CFFF"/>
<path d="M323.861 62.7886L326.988 64.6045V177.717L424.477 234.227V237.735L323.861 179.44V62.7886Z" fill="#A9CFFF"/>
<path opacity="0.5" d="M326.191 24.9615L351.208 10.4031L483.37 87.0116V240.229L458.354 254.787V101.57L326.191 24.9615Z" fill="#1263FF"/>
<path opacity="0.5" d="M483.37 87.0116L458.354 101.57L326.191 24.9615L351.208 10.4031L483.37 87.0116Z" fill="#1263FF"/>
<path d="M254.362 460.144C254.147 460.144 253.933 460.082 253.718 459.959L122.322 383.781C121.923 383.566 121.678 383.135 121.678 382.673C121.678 382.212 121.923 381.811 122.322 381.565L253.749 305.388C254.147 305.172 254.638 305.172 255.006 305.388L386.402 381.565C386.8 381.781 387.046 382.212 387.046 382.673C387.046 383.135 386.8 383.535 386.402 383.781L255.006 459.959C254.822 460.082 254.607 460.144 254.362 460.144ZM125.48 382.704L254.362 457.404L383.244 382.704L254.362 308.004L125.48 382.704Z" fill="#1263FF"/>
<path d="M254.362 373.132L386.556 296.523V237.674L254.362 314.282V373.132Z" fill="url(#paint12_linear_2489_10)"/>
<path d="M254.362 314.282L386.555 237.674L254.393 161.065L122.2 237.674L254.362 314.282Z" fill="url(#paint13_linear_2489_10)"/>
<path d="M254.362 296L355.009 237.674L254.393 179.348L153.746 237.674L254.362 296Z" fill="#1263FF"/>
<path d="M122.2 296.523L254.393 373.132V314.282L122.2 237.674V296.523Z" fill="url(#paint14_linear_2489_10)"/>
<path d="M254.362 278.517L386.556 201.909V143.06L254.362 219.668V278.517Z" fill="url(#paint15_linear_2489_10)"/>
<path d="M254.362 219.668L386.555 143.06L254.393 66.4513L122.2 143.06L254.362 219.668Z" fill="url(#paint16_linear_2489_10)"/>
<path d="M254.362 216.744L384.011 141.582L386.555 143.06L254.362 219.668L122.2 143.06L124.744 141.582L254.362 216.744Z" fill="#A9CFFF"/>
<path d="M254.362 311.358L384.011 236.197L386.555 237.674L254.362 314.282L122.2 237.674L124.744 236.197L254.362 311.358Z" fill="#A9CFFF"/>
<path d="M254.393 95.7527L347.008 149.462L254.362 203.14L161.747 149.462L254.393 95.7527Z" fill="#1263FF"/>
<path d="M254.393 95.7527L161.748 149.462L150.742 143.06L254.393 83.0103L358.014 143.06L347.008 149.462L254.393 95.7527Z" fill="#6C8AF4"/>
<path d="M122.2 201.909L254.393 278.517V219.668L122.2 143.06V201.909Z" fill="url(#paint17_linear_2489_10)"/>
<path d="M208.254 222.377C208.254 227.209 211.627 233.088 215.796 235.519C219.965 237.951 223.338 235.981 223.338 231.149C223.338 226.317 219.965 220.438 215.796 218.006C211.627 215.575 208.254 217.545 208.254 222.377Z" fill="#1263FF"/>
<path d="M180.755 206.403C180.755 211.235 184.127 217.114 188.297 219.545C192.466 221.977 195.838 220.007 195.838 215.175C195.838 210.343 192.466 204.464 188.297 202.032C184.127 199.601 180.755 201.571 180.755 206.403Z" fill="#1263FF"/>
<path d="M153.225 190.459C153.225 195.292 156.597 201.17 160.766 203.602C164.936 206.033 168.308 204.063 168.308 199.231C168.308 194.399 164.936 188.52 160.766 186.089C156.597 183.657 153.225 185.627 153.225 190.459Z" fill="#1263FF"/>
<path d="M212.087 217.021C211.719 217.822 211.504 218.837 211.504 220.007C211.504 224.839 214.876 230.718 219.046 233.149C220.395 233.95 221.682 234.227 222.786 234.134C221.652 236.658 218.954 237.366 215.796 235.519C211.627 233.088 208.254 227.209 208.254 222.377C208.254 219.114 209.818 217.206 212.087 217.021Z" fill="#A9CFFF"/>
<path d="M184.555 201.047C184.187 201.847 183.973 202.863 183.973 204.033C183.973 208.865 187.345 214.744 191.514 217.175C192.863 217.976 194.151 218.253 195.255 218.16C194.12 220.715 191.422 221.392 188.265 219.545C184.095 217.114 180.723 211.235 180.723 206.403C180.723 203.14 182.287 201.232 184.555 201.047Z" fill="#A9CFFF"/>
<path d="M157.057 185.104C156.689 185.904 156.474 186.92 156.474 188.089C156.474 192.921 159.847 198.8 164.016 201.232C165.365 202.032 166.652 202.309 167.756 202.217C166.622 204.741 163.924 205.448 160.766 203.602C156.597 201.17 153.225 195.291 153.225 190.459C153.225 187.197 154.788 185.288 157.057 185.104Z" fill="#A9CFFF"/>
<path d="M208.254 316.991C208.254 321.823 211.627 327.702 215.796 330.134C219.965 332.565 223.338 330.595 223.338 325.763C223.338 320.931 219.965 315.052 215.796 312.62C211.627 310.189 208.254 312.159 208.254 316.991Z" fill="#1263FF"/>
<path d="M180.755 301.017C180.755 305.849 184.127 311.728 188.297 314.159C192.466 316.591 195.838 314.621 195.838 309.789C195.838 304.956 192.466 299.078 188.297 296.646C184.127 294.214 180.755 296.184 180.755 301.017Z" fill="#1263FF"/>
<path d="M153.225 285.073C153.225 289.906 156.597 295.784 160.766 298.216C164.936 300.647 168.308 298.678 168.308 293.845C168.308 289.013 164.936 283.134 160.766 280.703C156.597 278.271 153.225 280.241 153.225 285.073Z" fill="#1263FF"/>
<path d="M212.087 311.635C211.719 312.436 211.504 313.451 211.504 314.621C211.504 319.453 214.876 325.332 219.046 327.763C220.395 328.564 221.682 328.841 222.786 328.748C221.652 331.303 218.954 331.98 215.796 330.133C211.627 327.702 208.254 321.823 208.254 316.991C208.254 313.728 209.818 311.82 212.087 311.635Z" fill="#A9CFFF"/>
<path d="M184.555 295.661C184.187 296.462 183.973 297.477 183.973 298.647C183.973 303.479 187.345 309.358 191.514 311.789C192.863 312.59 194.151 312.867 195.255 312.774C194.12 315.329 191.422 316.006 188.265 314.159C184.095 311.728 180.723 305.849 180.723 301.017C180.723 297.754 182.287 295.846 184.555 295.661Z" fill="#A9CFFF"/>
<path d="M157.057 279.718C156.689 280.518 156.474 281.533 156.474 282.703C156.474 287.535 159.847 293.414 164.016 295.846C165.365 296.646 166.652 296.923 167.756 296.831C166.622 299.385 163.924 300.062 160.766 298.216C156.597 295.784 153.225 289.905 153.225 285.073C153.225 281.811 154.788 279.902 157.057 279.718Z" fill="#A9CFFF"/>
<path d="M254.362 180.641L386.556 104.032V80.0245L254.362 156.633V180.641Z" fill="url(#paint18_linear_2489_10)"/>
<path d="M254.362 156.633L386.555 80.0246L254.393 3.41614L122.2 80.0246L254.362 156.633Z" fill="url(#paint19_linear_2489_10)"/>
<path d="M254.362 153.678L384.011 78.5471L386.555 80.0245L254.362 156.633L122.2 80.0245L124.744 78.5471L254.362 153.678Z" fill="#A9CFFF"/>
<path d="M122.2 104.032L254.393 180.641V156.633L122.2 80.0245V104.032Z" fill="url(#paint20_linear_2489_10)"/>
<path opacity="0.5" d="M386.555 201.909V237.674L254.361 314.282L254.392 278.517L386.555 201.909Z" fill="#1263FF"/>
<path opacity="0.5" d="M122.2 201.909V237.674L254.362 314.282L254.393 278.517L122.2 201.909Z" fill="#1263FF"/>
<path d="M292.377 333.735L348.541 301.201C353.507 298.308 357.554 290.583 357.554 283.935C357.554 277.286 353.538 274.208 348.541 277.102L292.377 309.635C287.411 312.528 283.364 320.254 283.364 326.902C283.364 333.55 287.38 336.628 292.377 333.735Z" fill="#1263FF"/>
<path d="M338.945 295.046C343.911 292.152 347.958 284.427 347.958 277.779C347.958 277.656 347.958 277.532 347.958 277.409L348.54 277.071C353.507 274.178 357.553 277.255 357.553 283.904C357.553 290.552 353.537 298.277 348.54 301.171L292.377 333.704C287.502 336.535 283.547 333.642 283.394 327.24L338.945 295.046Z" fill="url(#paint21_linear_2489_10)"/>
<path d="M133.42 522.224C133.205 522.224 132.99 522.163 132.776 522.04L0.643798 445.431C0.245256 445.216 0 444.785 0 444.323C0 443.862 0.245256 443.461 0.643798 443.215L61.8659 407.85C62.2645 407.635 62.7243 407.635 63.1229 407.85L195.285 484.459C195.684 484.674 195.929 485.105 195.929 485.567C195.929 486.029 195.684 486.429 195.285 486.675L134.063 522.04C133.879 522.163 133.665 522.194 133.45 522.194L133.42 522.224ZM3.80148 444.323L133.45 519.454L192.158 485.567L62.5097 410.436L3.80148 444.323Z" fill="#1263FF"/>
<path d="M62.4795 175.47V328.687L194.642 405.296V252.079L62.4795 175.47ZM78.2679 202.894L178.884 261.22V377.872L78.2679 319.546V202.894Z" fill="url(#paint22_linear_2489_10)"/>
<path d="M44.3921 185.873V339.09L176.555 415.699V262.482L44.3921 185.873ZM60.1498 213.297L160.766 271.623V388.275L60.1498 329.949V213.297Z" fill="url(#paint23_linear_2489_10)"/>
<path d="M44.3921 185.873L62.4798 175.47L194.642 252.079L176.555 262.482L44.3921 185.873Z" fill="url(#paint24_linear_2489_10)"/>
<path d="M194.642 252.078L176.555 262.482V415.699L194.642 405.296V252.078Z" fill="url(#paint25_linear_2489_10)"/>
<path d="M78.2677 319.546L60.1494 329.949V213.297L78.2371 223.793L78.2677 319.546Z" fill="url(#paint26_linear_2489_10)"/>
<path d="M78.2677 319.546L60.1494 329.949L160.766 388.244L160.797 367.376L78.2677 319.546Z" fill="url(#paint27_linear_2489_10)"/>
<path opacity="0.5" d="M69.8379 324.378V218.961L160.767 271.623V376.21L69.8379 324.378Z" fill="#7BAEFF"/>
<path d="M19.376 200.432V353.649L151.539 430.257V277.04L19.376 200.432ZM35.1337 227.856L135.75 286.181V402.833L35.1337 344.507V227.856Z" fill="url(#paint28_linear_2489_10)"/>
<path d="M1.25635 210.835V364.052L133.419 440.66V287.443L1.25635 210.835ZM17.0447 238.259L117.661 296.585V413.236L17.0447 354.91V238.259Z" fill="url(#paint29_linear_2489_10)"/>
<path d="M1.25635 210.835L19.3747 200.432L151.537 277.04L133.419 287.443L1.25635 210.835Z" fill="url(#paint30_linear_2489_10)"/>
<path d="M151.538 277.04L133.42 287.443V440.66L151.538 430.257V277.04Z" fill="url(#paint31_linear_2489_10)"/>
<path d="M35.1326 344.507L17.0449 354.91V238.259L35.1326 248.754V344.507Z" fill="url(#paint32_linear_2489_10)"/>
<path d="M35.1326 344.507L17.0449 354.91L117.661 413.206V392.338L35.1326 344.507Z" fill="url(#paint33_linear_2489_10)"/>
<path opacity="0.5" d="M26.7319 349.34V243.922L117.661 296.585V401.171L26.7319 349.34Z" fill="#7BAEFF"/>
<path d="M133.419 287.443L1.25684 210.835L4.38386 209.111L136.546 285.72V438.937L133.419 440.66V287.443Z" fill="#A9CFFF"/>
<path d="M176.555 262.482L44.3921 185.873L47.5191 184.15L179.682 260.758V413.975L176.555 415.699V262.482Z" fill="#A9CFFF"/>
<path d="M17.0454 238.259L20.1418 240.075V353.187L117.662 409.697V413.206L17.0454 354.91V238.259Z" fill="#A9CFFF"/>
<path opacity="0.5" d="M19.3755 200.432L44.3916 185.873L176.554 262.482V415.699L151.538 430.257V277.04L19.3755 200.432Z" fill="#1263FF"/>
<path opacity="0.5" d="M176.554 262.482L151.538 277.04L19.3755 200.432L44.3916 185.873L176.554 262.482Z" fill="#1263FF"/>
<path d="M341.643 360.328C341.643 355.218 344.739 349.309 348.54 347.093L391.583 322.162C393.392 321.116 395.047 321.116 396.273 321.916L443.792 349.494L391.399 393.415L343.972 365.899C342.562 365.037 341.643 363.098 341.643 360.328Z" fill="url(#paint34_linear_2489_10)"/>
<path d="M395.936 393.045L438.978 368.115C442.78 365.899 445.876 359.989 445.876 354.88C445.876 349.77 442.78 347.431 438.978 349.647L395.936 374.578C392.134 376.794 389.038 382.704 389.038 387.813C389.038 392.922 392.134 395.262 395.936 393.045Z" fill="url(#paint35_linear_2489_10)"/>
<path d="M433.704 438.168L503.878 397.509V366.268L433.704 406.927V438.168Z" fill="url(#paint36_linear_2489_10)"/>
<path d="M433.704 406.927L503.878 366.268L433.704 325.609L363.561 366.268L433.704 406.927Z" fill="url(#paint37_linear_2489_10)"/>
<path d="M363.561 397.509L433.704 438.168V406.927L363.561 366.268V397.509Z" fill="url(#paint38_linear_2489_10)"/>
<path d="M433.705 405.357L502.53 365.468L503.879 366.268L433.705 406.927L363.562 366.268L364.91 365.468L433.705 405.357Z" fill="#A9CFFF"/>
<path d="M447.226 412.467L487.938 388.614L522.243 416.191L525.156 439.983V461.682L685.768 558.79L719.613 578.888L714.463 594.432L690.918 603.819L658.33 594.093L575.955 542.323L503.88 502.157L483.707 486.613L482.42 453.588L479.814 433.489L447.226 412.467Z" fill="#1263FF"/>
<path d="M689.201 609.298C695.885 609.298 702.568 607.543 708.669 604.004C720.87 596.925 728.136 584.275 728.136 570.116V175.593C728.136 172.638 725.745 170.238 722.802 170.238C719.859 170.238 717.467 172.638 717.467 175.593V570.116C717.467 580.396 712.164 589.599 703.304 594.739C694.444 599.879 683.836 599.879 674.977 594.739L498.3 492.184C492.107 488.583 488.275 481.904 488.275 474.733V450.263C488.275 439.275 482.389 429.057 472.916 423.547L453.111 412.067C450.567 410.59 447.317 411.451 445.846 414.037C444.374 416.591 445.263 419.854 447.808 421.331L467.612 432.812C473.805 436.413 477.637 443.092 477.637 450.263V474.733C477.637 485.721 483.523 495.939 492.996 501.449L669.673 604.004C675.774 607.543 682.457 609.298 689.14 609.298H689.201Z" fill="#1263FF"/>
<path d="M485.976 390.553C487.448 387.998 490.697 387.136 493.242 388.583L513.046 400.063C522.519 405.542 528.405 415.791 528.405 426.779V451.249C528.405 458.42 532.238 465.099 538.43 468.7L722.771 575.687C726.419 577.811 730.343 579.042 734.329 579.412C733.961 582.951 734.084 586.552 733.808 590.123C728.167 589.661 722.587 587.937 717.437 584.952L533.096 477.965C523.623 472.486 517.737 462.237 517.737 451.249V426.779C517.737 419.608 513.905 412.929 507.712 409.328L487.907 397.847C485.363 396.37 484.505 393.107 485.945 390.553H485.976Z" fill="#1263FF"/>
<path d="M704.529 606.097L720.716 585.783L723.015 561.744V503.449L722.862 197.262L765.261 204.495V184.704C765.261 181.749 767.652 179.348 770.595 179.348C773.538 179.348 775.93 181.749 775.93 184.704V551.126C775.93 565.253 768.633 577.934 756.462 585.013C754.255 586.275 751.986 587.322 749.656 588.122L704.591 606.128L704.529 606.097Z" fill="url(#paint39_linear_2489_10)"/>
<path d="M689.201 609.298C695.885 609.298 702.568 607.543 708.669 604.004C720.87 596.925 728.136 584.275 728.136 570.116V175.593C728.136 172.638 725.745 170.238 722.802 170.238C719.859 170.238 717.467 172.638 717.467 175.593V570.116C717.467 580.396 712.164 589.599 703.304 594.739C694.444 599.879 683.836 599.879 674.977 594.739L498.3 492.184C492.107 488.583 488.275 481.904 488.275 474.733V450.263C488.275 439.275 482.389 429.057 472.916 423.547L453.111 412.067C450.567 410.59 447.317 411.451 445.846 414.037C444.374 416.591 445.263 419.854 447.808 421.331L467.612 432.812C473.805 436.413 477.637 443.092 477.637 450.263V474.733C477.637 485.721 483.523 495.939 492.996 501.449L669.673 604.004C675.774 607.543 682.457 609.298 689.14 609.298H689.201Z" fill="url(#paint40_linear_2489_10)"/>
<path opacity="0.2" d="M418.898 423.178L426.072 427.333V412.898L418.898 408.743V423.178Z" fill="#1263FF"/>
<path opacity="0.2" d="M406.972 416.284L414.145 420.439V405.973L406.972 401.848V416.284Z" fill="#1263FF"/>
<path opacity="0.2" d="M395.047 409.358L402.221 413.514V399.078L395.047 394.923V409.358Z" fill="#1263FF"/>
<path d="M383.121 402.433L390.294 406.588V392.153L383.121 387.998V402.433Z" fill="#1263FF"/>
<path d="M371.195 395.539L378.369 399.694V385.259L371.195 381.103V395.539Z" fill="#1263FF"/>
<path d="M741.748 210.589H738.683V295.6H741.748V210.589Z" fill="#5E93FC"/>
<path d="M754.224 210.589H748.859V471.778H754.224V210.589Z" fill="#5E93FC"/>
<path d="M765.967 202.863H762.38V319.915H765.967V202.863Z" fill="#5E93FC"/>
<path d="M766.61 327.671H761.735V542.015H766.61V327.671Z" fill="#5E93FC"/>
<path d="M752.631 478.672H750.423V523.271H752.631V478.672Z" fill="#5E93FC"/>
<path d="M741.288 307.665H739.142V349.401H741.288V307.665Z" fill="#5E93FC"/>
<path d="M742.115 360.235H738.344V489.014H742.115V360.235Z" fill="#5E93FC"/>
<path d="M886.818 42.7516L828.692 8.83334C820.016 3.6625 807.968 4.30885 794.601 12.0343C790.248 14.5582 786.017 17.6976 782.032 21.2988L758.61 7.7253C745.734 -1.35445 727.125 -0.954328 706.401 11.0494C680.189 26.2542 657.319 56.1404 645.24 87.8118C641.224 87.9349 636.779 89.2584 632.058 91.9977C614.951 101.909 601.063 126.039 601.063 145.861C601.063 146.292 601.094 146.692 601.125 147.092C596.25 147.43 590.855 149.154 585.183 152.447C563.294 165.128 545.543 195.999 545.543 221.361C545.543 233.919 549.897 242.783 556.979 247L557.163 247.123C557.163 247.123 557.162 247.123 557.193 247.123L614.553 280.549L627.091 220.038L794.663 122.9C816.092 110.496 834.21 83.6567 840.311 57.6486L886.879 42.6901L886.818 42.7516Z" fill="url(#paint41_linear_2489_10)"/>
<path d="M547.106 222.777C547.106 197.415 564.857 166.544 586.746 153.863C592.417 150.57 597.813 148.846 602.688 148.508C602.688 148.077 602.626 147.707 602.626 147.277C602.626 127.455 616.483 103.324 633.621 93.4136C638.342 90.6742 642.818 89.3508 646.803 89.2276C658.882 57.5562 681.752 27.67 707.964 12.4652C728.688 0.399942 747.328 -0.00018342 760.173 9.11035L783.595 22.6838C787.611 19.0827 791.811 15.9433 796.164 13.4194C809.5 5.6939 821.579 5.04754 830.255 10.2184L886.296 42.9055L886.787 42.7516L828.661 8.83334C819.985 3.6625 807.937 4.30885 794.57 12.0343C790.217 14.5582 785.986 17.6976 782.001 21.2988L758.579 7.7253C745.703 -1.35445 727.094 -0.954328 706.37 11.0494C680.158 26.2542 657.288 56.1404 645.209 87.8118C641.193 87.9349 636.748 89.2584 632.026 91.9977C614.92 101.909 601.032 126.039 601.032 145.861C601.032 146.292 601.063 146.692 601.093 147.092C596.219 147.43 590.823 149.154 585.152 152.447C563.263 165.128 545.512 195.999 545.512 221.361C545.512 232.78 549.13 241.09 555.077 245.676C550.08 240.875 547.076 233.088 547.076 222.746L547.106 222.777Z" fill="#1263FF"/>
<path d="M852.175 45.5833C844.664 49.9539 837.552 56.0789 831.206 63.3119C822.438 34.9954 795.643 26.1926 763.944 44.5676C737.732 59.7723 714.862 89.6586 702.783 121.33C698.767 121.453 694.322 122.777 689.601 125.516C672.494 135.427 658.606 159.557 658.606 179.379C658.606 179.81 658.637 180.21 658.668 180.61C653.793 180.949 648.398 182.672 642.726 185.966C620.837 198.646 603.086 229.518 603.086 254.879C603.086 280.241 620.837 290.521 642.726 277.84L852.175 156.418C878.601 141.121 900 103.878 900 73.2535C900 42.6285 878.571 30.2247 852.175 45.5217V45.5833Z" fill="url(#paint42_linear_2489_10)"/>
<path style="mix-blend-mode:lighten" opacity="0.7" d="M852.175 45.5833C844.664 49.9539 837.552 56.0789 831.206 63.3119C822.438 34.9954 795.643 26.1926 763.944 44.5676C737.732 59.7723 714.862 89.6586 702.783 121.33C698.767 121.453 694.322 122.777 689.601 125.516C672.494 135.427 658.606 159.557 658.606 179.379C658.606 179.81 658.637 180.21 658.668 180.61C653.793 180.949 648.398 182.672 642.726 185.966C620.837 198.646 603.086 229.518 603.086 254.879C603.086 280.241 620.837 290.521 642.726 277.84L852.175 156.418C878.601 141.121 900 103.878 900 73.2535C900 42.6285 878.571 30.2247 852.175 45.5217V45.5833Z" fill="url(#paint43_linear_2489_10)"/>
<path d="M852.175 45.5833C844.664 49.9539 837.552 56.0789 831.206 63.3119C822.438 34.9954 795.643 26.1926 763.944 44.5676C737.732 59.7723 714.862 89.6586 702.783 121.33C698.767 121.453 694.322 122.777 689.601 125.516C672.494 135.427 658.606 159.557 658.606 179.379C658.606 179.81 658.637 180.21 658.668 180.61C653.793 180.949 648.398 182.672 642.726 185.966C620.837 198.646 603.086 229.518 603.086 254.879C603.086 280.241 620.837 290.521 642.726 277.84L852.175 156.418C878.601 141.121 900 103.878 900 73.2535C900 42.6285 878.571 30.2247 852.175 45.5217V45.5833Z" fill="#1263FF"/>
<path style="mix-blend-mode:lighten" opacity="0.7" d="M833.75 66.5438C840.065 59.28 847.177 53.155 854.719 48.8152C870.937 39.4276 885.253 40.5049 893.899 49.8001C885.713 37.6425 870.109 35.2417 852.175 45.6142C845.031 49.7385 838.287 55.525 832.217 62.2963C832.769 63.6813 833.32 65.0664 833.78 66.5438H833.75Z" fill="url(#paint44_linear_2489_10)"/>
<defs>
<linearGradient id="paint0_linear_2489_10" x1="536.958" y1="84.1797" x2="320.254" y2="149.233" gradientUnits="userSpaceOnUse">
<stop stop-color="#6C8AF4"/>
<stop offset="1" stop-color="#174DF2"/>
</linearGradient>
<linearGradient id="paint1_linear_2489_10" x1="521.078" y1="108.218" x2="297.818" y2="144.685" gradientUnits="userSpaceOnUse">
<stop stop-color="#6C8AF4"/>
<stop offset="1" stop-color="#174DF2"/>
</linearGradient>
<linearGradient id="paint2_linear_2489_10" x1="492.689" y1="15.2045" x2="354.228" y2="73.8124" gradientUnits="userSpaceOnUse">
<stop stop-color="#7BAEFF"/>
<stop offset="1" stop-color="#5E93FC"/>
</linearGradient>
<linearGradient id="paint3_linear_2489_10" x1="530.766" y1="141.706" x2="409.488" y2="194.109" gradientUnits="userSpaceOnUse">
<stop stop-color="#3C73F8"/>
<stop offset="1" stop-color="#6C8AF4"/>
</linearGradient>
<linearGradient id="paint4_linear_2489_10" x1="402.22" y1="77.1006" x2="350.655" y2="104.754" gradientUnits="userSpaceOnUse">
<stop stop-color="#7BAEFF"/>
<stop offset="1" stop-color="#5E93FC"/>
</linearGradient>
<linearGradient id="paint5_linear_2489_10" x1="467.612" y1="178.425" x2="366.995" y2="178.425" gradientUnits="userSpaceOnUse">
<stop stop-color="#7BAEFF"/>
<stop offset="1" stop-color="#5E93FC"/>
</linearGradient>
<linearGradient id="paint6_linear_2489_10" x1="493.824" y1="109.141" x2="277.12" y2="174.195" gradientUnits="userSpaceOnUse">
<stop stop-color="#6C8AF4"/>
<stop offset="1" stop-color="#174DF2"/>
</linearGradient>
<linearGradient id="paint7_linear_2489_10" x1="477.975" y1="133.18" x2="254.714" y2="169.647" gradientUnits="userSpaceOnUse">
<stop stop-color="#6C8AF4"/>
<stop offset="1" stop-color="#174DF2"/>
</linearGradient>
<linearGradient id="paint8_linear_2489_10" x1="449.556" y1="40.1659" x2="311.094" y2="98.7738" gradientUnits="userSpaceOnUse">
<stop stop-color="#7BAEFF"/>
<stop offset="1" stop-color="#5E93FC"/>
</linearGradient>
<linearGradient id="paint9_linear_2489_10" x1="487.663" y1="166.667" x2="366.355" y2="219.071" gradientUnits="userSpaceOnUse">
<stop stop-color="#3C73F8"/>
<stop offset="1" stop-color="#6C8AF4"/>
</linearGradient>
<linearGradient id="paint10_linear_2489_10" x1="359.086" y1="102.062" x2="307.521" y2="129.716" gradientUnits="userSpaceOnUse">
<stop stop-color="#7BAEFF"/>
<stop offset="1" stop-color="#5E93FC"/>
</linearGradient>
<linearGradient id="paint11_linear_2489_10" x1="424.477" y1="203.386" x2="323.861" y2="203.386" gradientUnits="userSpaceOnUse">
<stop stop-color="#7BAEFF"/>
<stop offset="1" stop-color="#5E93FC"/>
</linearGradient>
<linearGradient id="paint12_linear_2489_10" x1="398.175" y1="251.617" x2="231.928" y2="365.775" gradientUnits="userSpaceOnUse">
<stop stop-color="#3C73F8"/>
<stop offset="1" stop-color="#6C8AF4"/>
</linearGradient>
<linearGradient id="paint13_linear_2489_10" x1="353.446" y1="194.953" x2="166.637" y2="274.902" gradientUnits="userSpaceOnUse">
<stop stop-color="#7BAEFF"/>
<stop offset="1" stop-color="#5E93FC"/>
</linearGradient>
<linearGradient id="paint14_linear_2489_10" x1="271.316" y1="280.272" x2="94.1852" y2="333.47" gradientUnits="userSpaceOnUse">
<stop stop-color="#6C8AF4"/>
<stop offset="1" stop-color="#174DF2"/>
</linearGradient>
<linearGradient id="paint15_linear_2489_10" x1="398.175" y1="157.003" x2="231.928" y2="271.161" gradientUnits="userSpaceOnUse">
<stop stop-color="#3C73F8"/>
<stop offset="1" stop-color="#6C8AF4"/>
</linearGradient>
<linearGradient id="paint16_linear_2489_10" x1="353.446" y1="100.339" x2="166.637" y2="180.288" gradientUnits="userSpaceOnUse">
<stop stop-color="#7BAEFF"/>
<stop offset="1" stop-color="#5E93FC"/>
</linearGradient>
<linearGradient id="paint17_linear_2489_10" x1="271.316" y1="185.658" x2="94.1852" y2="238.855" gradientUnits="userSpaceOnUse">
<stop stop-color="#6C8AF4"/>
<stop offset="1" stop-color="#174DF2"/>
</linearGradient>
<linearGradient id="paint18_linear_2489_10" x1="389.928" y1="82.2406" x2="241.323" y2="184.276" gradientUnits="userSpaceOnUse">
<stop stop-color="#3C73F8"/>
<stop offset="1" stop-color="#6C8AF4"/>
</linearGradient>
<linearGradient id="paint19_linear_2489_10" x1="353.446" y1="37.2729" x2="166.637" y2="117.222" gradientUnits="userSpaceOnUse">
<stop stop-color="#7BAEFF"/>
<stop offset="1" stop-color="#5E93FC"/>
</linearGradient>
<linearGradient id="paint20_linear_2489_10" x1="264.448" y1="107.264" x2="101.951" y2="156.062" gradientUnits="userSpaceOnUse">
<stop stop-color="#6C8AF4"/>
<stop offset="1" stop-color="#174DF2"/>
</linearGradient>
<linearGradient id="paint21_linear_2489_10" x1="359.424" y1="281.595" x2="279.235" y2="336.638" gradientUnits="userSpaceOnUse">
<stop stop-color="#6C8AF4"/>
<stop offset="1" stop-color="#174DF2"/>
</linearGradient>
<linearGradient id="paint22_linear_2489_10" x1="230.143" y1="259.65" x2="13.439" y2="324.703" gradientUnits="userSpaceOnUse">
<stop stop-color="#6C8AF4"/>
<stop offset="1" stop-color="#174DF2"/>
</linearGradient>
<linearGradient id="paint23_linear_2489_10" x1="214.263" y1="283.688" x2="-8.99736" y2="320.155" gradientUnits="userSpaceOnUse">
<stop stop-color="#6C8AF4"/>
<stop offset="1" stop-color="#174DF2"/>
</linearGradient>
<linearGradient id="paint24_linear_2489_10" x1="185.844" y1="190.675" x2="47.4131" y2="249.283" gradientUnits="userSpaceOnUse">
<stop stop-color="#7BAEFF"/>
<stop offset="1" stop-color="#5E93FC"/>
</linearGradient>
<linearGradient id="paint25_linear_2489_10" x1="223.95" y1="317.176" x2="102.673" y2="369.58" gradientUnits="userSpaceOnUse">
<stop stop-color="#3C73F8"/>
<stop offset="1" stop-color="#6C8AF4"/>
</linearGradient>
<linearGradient id="paint26_linear_2489_10" x1="95.3744" y1="252.571" x2="43.8403" y2="280.225" gradientUnits="userSpaceOnUse">
<stop stop-color="#7BAEFF"/>
<stop offset="1" stop-color="#5E93FC"/>
</linearGradient>
<linearGradient id="paint27_linear_2489_10" x1="160.797" y1="353.895" x2="60.1494" y2="353.895" gradientUnits="userSpaceOnUse">
<stop stop-color="#7BAEFF"/>
<stop offset="1" stop-color="#5E93FC"/>
</linearGradient>
<linearGradient id="paint28_linear_2489_10" x1="187.009" y1="284.612" x2="-29.6952" y2="349.665" gradientUnits="userSpaceOnUse">
<stop stop-color="#6C8AF4"/>
<stop offset="1" stop-color="#174DF2"/>
</linearGradient>
<linearGradient id="paint29_linear_2489_10" x1="171.127" y1="308.65" x2="-52.1025" y2="345.117" gradientUnits="userSpaceOnUse">
<stop stop-color="#6C8AF4"/>
<stop offset="1" stop-color="#174DF2"/>
</linearGradient>
<linearGradient id="paint30_linear_2489_10" x1="142.739" y1="215.636" x2="4.27743" y2="274.244" gradientUnits="userSpaceOnUse">
<stop stop-color="#7BAEFF"/>
<stop offset="1" stop-color="#5E93FC"/>
</linearGradient>
<linearGradient id="paint31_linear_2489_10" x1="180.816" y1="342.137" x2="59.538" y2="394.541" gradientUnits="userSpaceOnUse">
<stop stop-color="#3C73F8"/>
<stop offset="1" stop-color="#6C8AF4"/>
</linearGradient>
<linearGradient id="paint32_linear_2489_10" x1="52.2699" y1="277.532" x2="0.705161" y2="305.186" gradientUnits="userSpaceOnUse">
<stop stop-color="#7BAEFF"/>
<stop offset="1" stop-color="#5E93FC"/>
</linearGradient>
<linearGradient id="paint33_linear_2489_10" x1="117.661" y1="378.856" x2="17.0449" y2="378.856" gradientUnits="userSpaceOnUse">
<stop stop-color="#7BAEFF"/>
<stop offset="1" stop-color="#5E93FC"/>
</linearGradient>
<linearGradient id="paint34_linear_2489_10" x1="417.917" y1="337.551" x2="361.767" y2="375.541" gradientUnits="userSpaceOnUse">
<stop stop-color="#3C73F8"/>
<stop offset="0.31" stop-color="#366DF7"/>
<stop offset="0.69" stop-color="#275EF4"/>
<stop offset="1" stop-color="#174DF2"/>
</linearGradient>
<linearGradient id="paint35_linear_2489_10" x1="2533.72" y1="-874.271" x2="2507.07" y2="-818.344" gradientUnits="userSpaceOnUse">
<stop stop-color="#6C8AF4"/>
<stop offset="1" stop-color="#174DF2"/>
</linearGradient>
<linearGradient id="paint36_linear_2489_10" x1="510.071" y1="373.655" x2="421.799" y2="434.27" gradientUnits="userSpaceOnUse">
<stop stop-color="#3C73F8"/>
<stop offset="1" stop-color="#6C8AF4"/>
</linearGradient>
<linearGradient id="paint37_linear_2489_10" x1="486.312" y1="343.584" x2="387.137" y2="386.02" gradientUnits="userSpaceOnUse">
<stop stop-color="#7BAEFF"/>
<stop offset="1" stop-color="#5E93FC"/>
</linearGradient>
<linearGradient id="paint38_linear_2489_10" x1="442.718" y1="388.891" x2="348.661" y2="417.124" gradientUnits="userSpaceOnUse">
<stop stop-color="#6C8AF4"/>
<stop offset="1" stop-color="#174DF2"/>
</linearGradient>
<linearGradient id="paint39_linear_2489_10" x1="813.301" y1="392.707" x2="694.137" y2="392.707" gradientUnits="userSpaceOnUse">
<stop stop-color="#3C73F8"/>
<stop offset="1" stop-color="#6C8AF4"/>
</linearGradient>
<linearGradient id="paint40_linear_2489_10" x1="728.167" y1="389.783" x2="445.171" y2="389.783" gradientUnits="userSpaceOnUse">
<stop stop-color="#7BAEFF"/>
<stop offset="1" stop-color="#5E93FC"/>
</linearGradient>
<linearGradient id="paint41_linear_2489_10" x1="545.513" y1="140.998" x2="886.818" y2="140.998" gradientUnits="userSpaceOnUse">
<stop stop-color="#5E93FC"/>
<stop offset="1" stop-color="#7BAEFF"/>
</linearGradient>
<linearGradient id="paint42_linear_2489_10" x1="712.305" y1="156.062" x2="1009.83" y2="-15.032" gradientUnits="userSpaceOnUse">
<stop stop-color="#7042EA"/>
<stop offset="1" stop-color="#591ED4"/>
</linearGradient>
<linearGradient id="paint43_linear_2489_10" x1="1263.7" y1="157.308" x2="726.849" y2="67.6885" gradientUnits="userSpaceOnUse">
<stop stop-color="#591ED4"/>
<stop offset="0.12" stop-color="#5726D5"/>
<stop offset="0.32" stop-color="#543DD7"/>
<stop offset="0.56" stop-color="#4E63DC"/>
<stop offset="0.84" stop-color="#4697E2"/>
<stop offset="1" stop-color="#42B9E7"/>
</linearGradient>
<linearGradient id="paint44_linear_2489_10" x1="906.131" y1="92.5211" x2="845.881" y2="43.017" gradientUnits="userSpaceOnUse">
<stop stop-color="#591ED4"/>
<stop offset="0.12" stop-color="#5726D5"/>
<stop offset="0.32" stop-color="#543DD7"/>
<stop offset="0.56" stop-color="#4E63DC"/>
<stop offset="0.84" stop-color="#4697E2"/>
<stop offset="1" stop-color="#42B9E7"/>
</linearGradient>
</defs>
</svg>
