<svg width="572" height="420" viewBox="0 0 572 420" fill="none" xmlns="http://www.w3.org/2000/svg">
<g clip-path="url(#clip0_2325_1101)">
<path d="M7.52127 275.31L352.628 83.3152C365.655 75.8181 385.332 75.0309 396.588 81.5443L564.989 172.75C568.453 174.62 570.598 178.24 570.598 182.176C570.598 186.111 568.551 189.555 565.226 191.464L223.366 388.201C210.339 395.698 190.661 396.485 179.406 389.952L7.59998 296.228C3.76283 294.142 1.38184 290.108 1.38184 285.739C1.38184 281.371 3.72348 277.416 7.52127 275.29V275.31Z" fill="#C7DAFF"/>
<path d="M198.592 394.793C191.33 394.793 184.404 393.317 179.229 390.326L7.40335 296.601C3.42846 294.437 0.96875 290.265 0.96875 285.739C0.96875 281.213 3.40878 277.121 7.32463 274.936L352.431 82.961C365.537 75.4245 385.451 74.6374 396.805 81.2097L565.206 172.416C568.807 174.364 571.031 178.103 571.031 182.195C571.031 186.288 568.886 189.87 565.462 191.838L223.602 388.575C216.459 392.687 207.289 394.793 198.592 394.793ZM377.442 77.5693C368.902 77.5693 359.889 79.6355 352.845 83.6891L7.71819 275.664C4.05814 277.691 1.79521 281.568 1.79521 285.739C1.79521 289.911 4.0975 293.847 7.7969 295.873L179.622 389.618C190.76 396.072 210.3 395.285 223.169 387.866L565.029 191.129C568.217 189.299 570.184 185.875 570.184 182.195C570.184 178.516 568.118 174.934 564.793 173.144L396.391 81.9378C391.334 79.0058 384.545 77.5693 377.422 77.5693H377.442Z" fill="#3B80F9"/>
<path d="M8.76136 274.602L352.629 83.3152C365.655 75.818 385.333 75.0309 396.588 81.5639L564.99 172.77C564.99 172.77 565.01 172.77 565.029 172.79C566.859 173.773 566.8 176.41 565.029 177.453L223.582 373.482C211.382 380.507 192.925 381.255 182.377 375.135L9.0762 279.029C7.38392 278.104 7.26586 275.763 8.74168 274.641C8.74168 274.641 8.74168 274.641 8.76136 274.621V274.602Z" fill="url(#paint0_linear_2325_1101)"/>
<path d="M8.76136 274.602L352.629 83.3152C365.655 75.818 385.333 75.0309 396.588 81.5639L564.99 172.77C564.99 172.77 565.01 172.77 565.029 172.79C566.859 173.773 566.8 176.41 565.029 177.453L223.582 373.482C211.382 380.507 192.925 381.255 182.377 375.135L9.0762 279.029C7.38392 278.104 7.26586 275.763 8.74168 274.641C8.74168 274.641 8.74168 274.641 8.76136 274.621V274.602Z" fill="#83AFFA"/>
<path d="M200.323 379.68C193.515 379.68 187.001 378.303 182.161 375.489L8.85954 279.383C7.95436 278.891 7.36403 277.986 7.28532 276.943C7.20661 275.979 7.60016 275.054 8.30856 274.425V274.385L8.54469 274.208L352.431 82.961C365.537 75.4245 385.451 74.6177 396.805 81.2097L565.285 172.455C566.19 172.947 566.78 173.911 566.8 175.033C566.8 176.174 566.21 177.237 565.226 177.807L223.779 373.836C217.069 377.693 208.47 379.68 200.323 379.68ZM9.01696 274.936H8.99728C8.40695 275.409 8.09211 276.137 8.15114 276.884C8.21017 277.632 8.6234 278.281 9.29244 278.655L182.594 374.761C193.023 380.802 211.323 380.054 223.385 373.108L564.832 177.079C565.56 176.666 565.993 175.899 565.993 175.033C565.993 174.226 565.56 173.518 564.852 173.144L396.411 81.9181C385.274 75.4638 365.753 76.2509 352.864 83.6694L9.01696 274.936Z" fill="#3B80F9"/>
<path d="M87.3542 327.791L107.091 338.534C108.882 339.518 110.377 342.214 110.416 344.556C110.475 346.898 109.059 348.019 107.288 347.035L87.5509 336.291C85.7603 335.307 84.2844 332.612 84.2254 330.27C84.1664 327.928 85.5832 326.807 87.3738 327.791H87.3542Z" fill="#3B80F9"/>
<path d="M190.189 301.934C186.47 301.934 182.751 301.009 179.425 299.14L125.666 269.112L126.178 268.207L179.937 298.235C186.352 301.816 194.282 301.777 200.658 298.117L291.588 245.99L292.1 246.896L201.169 299.022C197.785 300.97 193.987 301.934 190.189 301.934Z" fill="#3B80F9"/>
<path d="M308.491 177.492L307.979 176.587L396.135 126.035C398.713 124.56 400.248 121.883 400.228 118.912C400.208 115.941 398.634 113.284 396.017 111.848L306.976 62.6733L307.487 61.7681L396.529 110.943C399.48 112.576 401.251 115.547 401.271 118.912C401.291 122.277 399.579 125.288 396.666 126.941L308.491 177.492Z" fill="#3B80F9"/>
<path d="M341.864 353.037L341.353 352.132L404.007 316.2C406.978 314.508 408.749 311.438 408.749 308.014C408.749 304.591 406.998 301.521 404.026 299.809L328.188 255.987L328.72 255.082L404.558 298.904C407.844 300.812 409.811 304.197 409.792 307.995C409.792 311.793 407.824 315.197 404.518 317.086L341.864 353.017V353.037Z" fill="#3B80F9"/>
<path d="M200.559 199.649L60.73 119.66C58.2112 118.223 56.7354 115.646 56.7551 112.753C56.7944 109.86 58.3293 107.302 60.8677 105.925L81.2538 94.8856L81.7457 95.8105L61.3597 106.85C59.1558 108.05 57.8177 110.254 57.798 112.773C57.7783 115.291 59.0574 117.535 61.2416 118.774L201.071 198.744L200.559 199.649Z" fill="#3B80F9"/>
<path d="M206.03 94.9053C205.636 94.3937 205.085 93.9215 204.357 93.5082L102.86 34.9081C99.6521 33.0584 94.3981 33.0584 91.1907 34.9081L31.2132 69.6786C30.6819 69.9934 30.249 70.3279 29.8948 70.6821L28.8125 70.7608V73.0435C28.8125 74.2635 29.6193 75.4835 31.2132 76.428L132.711 135.028C135.918 136.878 141.172 136.878 144.379 135.028L204.357 100.258C205.951 99.3328 206.758 98.1128 206.758 96.8928V94.5905L206.01 94.925L206.03 94.9053Z" fill="#3B80F9"/>
<path d="M144.379 132.726C141.172 134.576 135.918 134.576 132.711 132.726L31.2132 74.1061C28.0058 72.2564 28.0058 69.226 31.2132 67.3567L91.1907 32.6059C94.3982 30.7562 99.6521 30.7562 102.86 32.6059L204.357 91.206C207.564 93.0557 207.564 96.086 204.357 97.9554L144.379 132.726Z" fill="#C7DAFF"/>
<path d="M138.554 134.576C136.351 134.576 134.166 134.084 132.494 133.119L30.9767 74.5193C29.2647 73.5354 28.3398 72.1973 28.3398 70.7412C28.3398 69.285 29.2844 67.947 30.9767 66.9434L90.9542 32.1926C94.2994 30.2642 99.7501 30.2642 103.095 32.1926L204.593 90.7927C206.305 91.7766 207.249 93.1147 207.249 94.5708C207.249 96.027 206.305 97.3651 204.593 98.3489L144.615 133.119C142.943 134.084 140.739 134.576 138.535 134.576H138.554ZM97.0149 31.7007C94.9684 31.7007 92.9416 32.1336 91.4068 33.0191L31.4292 67.7699C30.0321 68.5766 29.2647 69.6392 29.2647 70.7412C29.2647 71.8431 30.0321 72.8861 31.4292 73.6928L132.927 132.293C135.957 134.044 141.073 134.044 144.123 132.293L204.101 97.5225C205.498 96.7157 206.265 95.6728 206.265 94.5708C206.265 93.4689 205.498 92.426 204.101 91.6192L102.603 33.0191C101.088 32.1336 99.0417 31.7007 97.0149 31.7007Z" fill="#3B80F9"/>
<path d="M134.147 62.4963L149.515 71.3709C150.125 71.7251 151.089 71.7251 151.699 71.3709C152.309 71.0167 152.309 70.4657 151.699 70.1115L136.331 61.2369C135.721 60.8827 134.757 60.8827 134.147 61.2369C133.537 61.5911 133.537 62.1421 134.147 62.4963Z" fill="#3B80F9"/>
<path d="M153.922 73.496L180.428 88.6282C181.038 88.9823 182.002 88.9823 182.612 88.6282C183.222 88.274 183.222 87.723 182.612 87.3688L156.107 72.2367C155.497 71.8825 154.532 71.8825 153.922 72.2367C153.312 72.5909 153.312 73.1418 153.922 73.496Z" fill="#3B80F9"/>
<path d="M102.506 50.0009L131.058 66.4908C131.668 66.845 132.632 66.845 133.242 66.4908C133.852 66.1366 133.852 65.5856 133.242 65.2314L104.67 48.7415C104.06 48.3873 103.096 48.3873 102.486 48.7415C101.876 49.0957 101.876 49.6467 102.486 50.0009H102.506Z" fill="#3B80F9"/>
<path d="M131.215 58.3836L99.9669 40.3392C99.3569 39.985 98.3927 39.985 97.7827 40.3392C97.1727 40.6934 97.1727 41.264 97.7827 41.5986L129.031 59.643C129.641 59.9972 130.605 59.9972 131.215 59.643C131.825 59.2888 131.825 58.7181 131.215 58.3836Z" fill="#3B80F9"/>
<path d="M91.2886 85.8339L106.657 94.7086C107.267 95.0628 108.231 95.0628 108.841 94.7086C109.451 94.3544 109.451 93.8034 108.841 93.4492L93.4728 84.5746C92.8628 84.24 91.8986 84.24 91.2886 84.5746C90.6786 84.9288 90.6786 85.4994 91.2886 85.8339Z" fill="#3B80F9"/>
<path d="M111.045 96.8141L137.551 111.946C138.161 112.3 139.125 112.3 139.735 111.946C140.345 111.592 140.345 111.041 139.735 110.687L113.23 95.5547C112.62 95.2005 111.655 95.2005 111.045 95.5547C110.435 95.9089 110.435 96.4599 111.045 96.8141Z" fill="#3B80F9"/>
<path d="M88.3371 81.7017L57.089 63.6572C56.479 63.3031 55.5148 63.3031 54.9048 63.6572C54.2948 64.0114 54.2948 64.5624 54.9048 64.9166L86.1529 82.961C86.7629 83.3152 87.7271 83.3152 88.3371 82.961C88.9471 82.6068 88.9471 82.0362 88.3371 81.7017Z" fill="#3B80F9"/>
<path d="M161.774 81.7606L138.299 68.1831C137.689 67.8289 136.725 67.8289 136.115 68.1831C135.505 68.5373 135.505 69.0882 136.115 69.4424L159.59 83.02C160.2 83.3742 161.164 83.3742 161.774 83.02C162.384 82.6658 162.384 82.0952 161.774 81.7606Z" fill="#3B80F9"/>
<path d="M123.698 68.1437L139.066 77.0184C139.676 77.3726 140.64 77.3726 141.25 77.0184C141.86 76.6642 141.86 76.1132 141.25 75.759L125.882 66.8844C125.272 66.5302 124.308 66.5302 123.698 66.8844C123.088 67.2386 123.088 67.7895 123.698 68.1437Z" fill="#3B80F9"/>
<path d="M143.474 79.1239L169.98 94.256C170.59 94.6102 171.554 94.6102 172.164 94.256C172.774 93.9018 172.774 93.3508 172.164 92.9966L145.658 77.8645C145.048 77.5103 144.084 77.5103 143.474 77.8645C142.864 78.2187 142.864 78.7697 143.474 79.1239Z" fill="#3B80F9"/>
<path d="M92.0366 55.6484L120.589 72.1383C121.199 72.4925 122.163 72.4925 122.773 72.1383C123.383 71.7841 123.383 71.2331 122.773 70.8789L94.2208 54.3891C93.6108 54.0349 92.6466 54.0349 92.0366 54.3891C91.4266 54.7433 91.4266 55.2942 92.0366 55.6484Z" fill="#3B80F9"/>
<path d="M120.746 64.0114L89.4981 45.967C88.8881 45.6128 87.9238 45.6128 87.3138 45.967C86.7235 46.3212 86.7235 46.8722 87.3138 47.2264L118.562 65.2708C119.172 65.625 120.136 65.625 120.746 65.2708C121.356 64.9166 121.356 64.3459 120.746 64.0114Z" fill="#3B80F9"/>
<path d="M151.325 87.4082L127.85 73.8306C127.24 73.4764 126.275 73.4764 125.665 73.8306C125.075 74.1848 125.075 74.7358 125.665 75.09L149.141 88.6675C149.751 89.0217 150.715 89.0217 151.325 88.6675C151.935 88.3133 151.935 87.7427 151.325 87.4082Z" fill="#3B80F9"/>
<path d="M67.695 84.2794L96.2472 100.769C96.8572 101.123 97.8215 101.123 98.4315 100.769C99.0415 100.415 99.0415 99.8641 98.4315 99.5099L69.8595 83.02C69.2495 82.6658 68.2853 82.6658 67.6753 83.02C67.0653 83.3742 67.0653 83.9252 67.6753 84.2794H67.695Z" fill="#3B80F9"/>
<path d="M126.965 116.039L103.489 102.462C102.879 102.107 101.915 102.107 101.305 102.462C100.695 102.816 100.695 103.367 101.305 103.721L124.781 117.299C125.391 117.653 126.355 117.653 126.965 117.299C127.575 116.944 127.575 116.374 126.965 116.039Z" fill="#3B80F9"/>
<path d="M113.229 73.7715L128.597 82.6462C129.207 83.0004 130.171 83.0004 130.781 82.6462C131.391 82.292 131.391 81.741 130.781 81.3868L115.413 72.5122C114.803 72.158 113.839 72.158 113.229 72.5122C112.619 72.8664 112.619 73.4173 113.229 73.7715Z" fill="#3B80F9"/>
<path d="M133.005 84.7714L159.511 99.9035C160.121 100.258 161.085 100.258 161.695 99.9035C162.305 99.5493 162.305 98.9983 161.695 98.6441L135.19 83.512C134.58 83.1578 133.615 83.1578 133.005 83.512C132.395 83.8662 132.395 84.4172 133.005 84.7714Z" fill="#3B80F9"/>
<path d="M100.242 72.1383L128.794 88.6282C129.404 88.9824 130.368 88.9824 130.978 88.6282C131.569 88.274 131.569 87.723 130.978 87.3688L102.406 70.8789C101.796 70.5247 100.832 70.5247 100.222 70.8789C99.6121 71.2331 99.6121 71.7841 100.222 72.1383H100.242Z" fill="#3B80F9"/>
<path d="M110.297 69.6589L79.049 51.6145C78.4389 51.2603 77.4747 51.2603 76.8647 51.6145C76.2547 51.9687 76.2547 52.5196 76.8647 52.8738L108.113 70.9183C108.723 71.2724 109.687 71.2724 110.297 70.9183C110.907 70.5641 110.907 69.9934 110.297 69.6589Z" fill="#3B80F9"/>
<path d="M394.167 64.2082C393.774 63.6965 393.223 63.2243 392.495 62.811L290.997 4.19129C287.79 2.34159 282.536 2.34159 279.328 4.19129L219.351 38.9617C218.82 39.2766 218.387 39.6111 218.032 39.9653L216.95 40.044V42.3266C216.95 43.5466 217.757 44.7666 219.351 45.7112L320.848 104.311C324.056 106.161 329.31 106.161 332.517 104.311L392.495 69.5605C394.089 68.6356 394.895 67.4156 394.895 66.1956V63.8933L394.148 64.2278L394.167 64.2082Z" fill="#3B80F9"/>
<path d="M332.517 102.009C329.31 103.859 324.056 103.859 320.848 102.009L219.351 43.4089C216.143 41.5592 216.143 38.5288 219.351 36.6594L279.328 1.9087C282.536 0.0589983 287.79 0.0589983 290.997 1.9087L392.495 60.5088C395.702 62.3585 395.702 65.3888 392.495 67.2582L332.517 102.029V102.009Z" fill="white"/>
<path d="M326.693 103.918C324.489 103.918 322.285 103.426 320.593 102.462L219.076 43.8615C217.364 42.8776 216.419 41.5198 216.399 40.044C216.399 38.5682 217.344 37.2104 219.076 36.2266L279.073 1.45612C282.438 -0.491966 287.908 -0.491966 291.273 1.45612L392.77 60.0562C394.502 61.0598 395.446 62.4175 395.446 63.8737C395.446 65.3495 394.502 66.7072 392.77 67.6911L332.793 102.462C331.12 103.426 328.897 103.918 326.693 103.918ZM285.153 1.04289C283.126 1.04289 281.08 1.4758 279.584 2.36129L219.607 37.112C218.229 37.9188 217.462 38.9617 217.462 40.044C217.462 41.1263 218.229 42.1692 219.607 42.9563L321.104 101.556C324.115 103.308 329.231 103.308 332.242 101.556L392.219 66.7859C393.616 65.9792 394.364 64.9559 394.364 63.8737C394.364 62.7914 393.597 61.7485 392.219 60.9614L290.742 2.36129C289.226 1.49548 287.2 1.04289 285.173 1.04289H285.153Z" fill="#3B80F9"/>
<path d="M322.286 31.7991L337.654 40.6737C338.264 41.0279 339.228 41.0279 339.838 40.6737C340.448 40.3195 340.448 39.7685 339.838 39.4143L324.47 30.5397C323.86 30.1855 322.896 30.1855 322.286 30.5397C321.676 30.8939 321.676 31.4449 322.286 31.7991Z" fill="#3B80F9"/>
<path d="M342.061 42.7989L368.567 57.931C369.177 58.2852 370.141 58.2852 370.751 57.931C371.361 57.5768 371.361 57.0258 370.751 56.6716L344.245 41.5395C343.635 41.1853 342.671 41.1853 342.061 41.5395C341.451 41.8937 341.451 42.4447 342.061 42.7989Z" fill="#3B80F9"/>
<path d="M290.644 19.3038L319.196 35.7936C319.806 36.1478 320.771 36.1478 321.381 35.7936C321.991 35.4394 321.991 34.8885 321.381 34.5343L292.809 18.0444C292.199 17.6902 291.235 17.6902 290.624 18.0444C290.014 18.3986 290.014 18.9496 290.624 19.3038H290.644Z" fill="#3B80F9"/>
<path d="M319.354 27.6668L288.106 9.62234C287.496 9.26814 286.531 9.26814 285.921 9.62234C285.311 9.97654 285.311 10.5472 285.921 10.8817L317.17 28.9261C317.78 29.2803 318.744 29.2803 319.354 28.9261C319.964 28.5719 319.964 28.0013 319.354 27.6668Z" fill="#3B80F9"/>
<path d="M279.427 55.1171L294.796 63.9917C295.406 64.3459 296.37 64.3459 296.98 63.9917C297.59 63.6375 297.59 63.0668 296.98 62.7323L281.611 53.8577C281.001 53.5232 280.037 53.5232 279.427 53.8577C278.817 54.2119 278.817 54.7629 279.427 55.1171Z" fill="#3B80F9"/>
<path d="M299.184 66.1169L325.69 81.2491C326.3 81.6033 327.264 81.6033 327.874 81.2491C328.464 80.8949 328.464 80.3242 327.874 79.9897L301.368 64.8576C300.758 64.5034 299.794 64.5034 299.184 64.8576C298.574 65.2118 298.574 65.7627 299.184 66.1169Z" fill="#3B80F9"/>
<path d="M276.476 51.0045L245.228 32.96C244.618 32.6058 243.653 32.6058 243.043 32.96C242.433 33.3142 242.433 33.8652 243.043 34.2194L274.292 52.2638C274.902 52.618 275.866 52.618 276.476 52.2638C277.086 51.9096 277.086 51.339 276.476 51.0045Z" fill="#3B80F9"/>
<path d="M349.913 51.0635L326.438 37.4859C325.828 37.1317 324.863 37.1317 324.253 37.4859C323.643 37.8401 323.643 38.3911 324.253 38.7453L347.729 52.3229C348.339 52.6771 349.303 52.6771 349.913 52.3229C350.523 51.9687 350.523 51.398 349.913 51.0635Z" fill="#3B80F9"/>
<path d="M311.836 37.4269L327.205 46.3015C327.815 46.6557 328.779 46.6557 329.389 46.3015C329.999 45.9473 329.999 45.3963 329.389 45.0421L314.021 36.1675C313.411 35.833 312.446 35.833 311.836 36.1675C311.226 36.5217 311.226 37.0924 311.836 37.4269Z" fill="#3B80F9"/>
<path d="M331.613 48.4267L358.119 63.5588C358.729 63.913 359.693 63.913 360.303 63.5588C360.913 63.2046 360.913 62.6536 360.303 62.2994L333.797 47.1673C333.187 46.8131 332.223 46.8131 331.613 47.1673C331.003 47.5215 331.003 48.0725 331.613 48.4267Z" fill="#3B80F9"/>
<path d="M280.175 24.9316L308.728 41.4215C309.338 41.7757 310.302 41.7757 310.912 41.4215C311.522 41.0673 311.522 40.5163 310.912 40.1621L282.36 23.6722C281.749 23.318 280.785 23.318 280.175 23.6722C279.565 24.0264 279.565 24.5774 280.175 24.9316Z" fill="#3B80F9"/>
<path d="M308.885 33.3142L277.637 15.2698C277.027 14.9156 276.063 14.9156 275.453 15.2698C274.843 15.624 274.843 16.175 275.453 16.5292L306.701 34.5736C307.311 34.9278 308.275 34.9278 308.885 34.5736C309.495 34.2194 309.495 33.6487 308.885 33.3142Z" fill="#3B80F9"/>
<path d="M339.464 56.6913L315.988 43.1137C315.378 42.7595 314.414 42.7595 313.804 43.1137C313.194 43.4679 313.194 44.0189 313.804 44.3731L337.28 57.9507C337.89 58.3049 338.854 58.3049 339.464 57.9507C340.074 57.5965 340.074 57.0258 339.464 56.6913Z" fill="#3B80F9"/>
<path d="M255.833 53.5822L284.386 70.0721C284.996 70.4263 285.96 70.4263 286.57 70.0721C287.18 69.7179 287.18 69.1669 286.57 68.8127L258.018 52.3228C257.408 51.9686 256.443 51.9686 255.833 52.3228C255.223 52.677 255.223 53.228 255.833 53.5822Z" fill="#3B80F9"/>
<path d="M315.103 85.342L291.628 71.7644C291.018 71.4102 290.054 71.4102 289.444 71.7644C288.834 72.1186 288.834 72.6893 289.444 73.0238L312.919 86.6014C313.529 86.9556 314.493 86.9556 315.103 86.6014C315.714 86.2472 315.714 85.6765 315.103 85.342Z" fill="#3B80F9"/>
<path d="M301.368 43.0743L316.736 51.949C317.346 52.3032 318.31 52.3032 318.92 51.949C319.51 51.5948 319.51 51.0438 318.92 50.6896L303.552 41.815C302.942 41.4608 301.978 41.4608 301.368 41.815C300.758 42.1692 300.758 42.7201 301.368 43.0743Z" fill="#3B80F9"/>
<path d="M321.144 54.0545L347.65 69.1866C348.26 69.5408 349.224 69.5408 349.834 69.1866C350.444 68.8324 350.444 68.2814 349.834 67.9273L323.328 52.7951C322.718 52.4409 321.754 52.4409 321.144 52.7951C320.534 53.1493 320.534 53.7003 321.144 54.0545Z" fill="#3B80F9"/>
<path d="M288.38 41.4411L316.933 57.931C317.543 58.2852 318.507 58.2852 319.117 57.931C319.707 57.5768 319.707 57.0258 319.117 56.6716L290.545 40.1817C289.935 39.8275 288.971 39.8275 288.361 40.1817C287.751 40.5359 287.751 41.0869 288.361 41.4411H288.38Z" fill="#3B80F9"/>
<path d="M298.436 38.9421L267.188 20.8977C266.578 20.5435 265.613 20.5435 265.003 20.8977C264.393 21.2519 264.393 21.8028 265.003 22.157L296.252 40.2015C296.862 40.5557 297.826 40.5557 298.436 40.2015C299.046 39.8473 299.046 39.2766 298.436 38.9421Z" fill="#3B80F9"/>
<path d="M193.475 263.444C193.081 262.933 192.53 262.461 191.802 262.047L90.3049 203.447C87.0974 201.598 81.8435 201.598 78.636 203.447L18.6585 238.218C18.1272 238.532 17.6943 238.867 17.3401 239.221L16.2578 239.3V241.583C16.2578 242.803 17.0646 244.023 18.6585 244.967L120.156 303.567C123.363 305.417 128.617 305.417 131.825 303.567L191.802 268.816C193.396 267.892 194.203 266.672 194.203 265.452V263.149L193.455 263.484L193.475 263.444Z" fill="#3B80F9"/>
<path d="M131.825 301.265C128.617 303.115 123.363 303.115 120.156 301.265L18.6585 242.665C15.4511 240.815 15.4511 237.785 18.6585 235.915L78.636 201.165C81.8435 199.315 87.0974 199.315 90.3049 201.165L191.802 259.765C195.01 261.614 195.01 264.645 191.802 266.514L131.825 301.285V301.265Z" fill="white"/>
<path d="M125.981 303.154C123.777 303.154 121.573 302.662 119.881 301.698L18.3832 243.098C16.6712 242.114 15.7267 240.756 15.707 239.28C15.707 237.804 16.6516 236.447 18.3832 235.443L78.3607 200.692C81.7256 198.744 87.196 198.744 90.5609 200.692L192.058 259.292C193.79 260.296 194.734 261.654 194.734 263.11C194.734 264.586 193.79 265.944 192.058 266.927L132.081 301.698C130.388 302.662 128.185 303.154 125.981 303.154ZM84.4608 200.299C82.434 200.299 80.3875 200.732 78.892 201.617L18.9145 236.368C17.5371 237.175 16.7696 238.218 16.7696 239.3C16.7696 240.382 17.5371 241.425 18.9145 242.212L120.412 300.812C123.423 302.564 128.539 302.564 131.569 300.812L191.547 266.042C192.924 265.235 193.691 264.212 193.691 263.13C193.691 262.047 192.924 261.004 191.547 260.217L90.0492 201.617C88.5341 200.751 86.5073 200.299 84.4805 200.299H84.4608Z" fill="#3B80F9"/>
<path d="M121.593 231.055L136.962 239.93C137.572 240.284 138.536 240.284 139.146 239.93C139.756 239.575 139.756 239.025 139.146 238.67L123.777 229.796C123.167 229.441 122.203 229.441 121.593 229.796C120.983 230.15 120.983 230.701 121.593 231.055Z" fill="#3B80F9"/>
<path d="M141.369 242.035L167.874 257.167C168.484 257.521 169.449 257.521 170.059 257.167C170.669 256.813 170.669 256.242 170.059 255.908L143.553 240.776C142.943 240.422 141.979 240.422 141.369 240.776C140.759 241.13 140.759 241.681 141.369 242.035Z" fill="#3B80F9"/>
<path d="M89.9313 218.54L118.484 235.03C119.094 235.384 120.058 235.384 120.668 235.03C121.278 234.676 121.278 234.125 120.668 233.771L92.0958 217.281C91.4858 216.926 90.5216 216.926 89.9116 217.281C89.3016 217.635 89.3016 218.186 89.9116 218.54H89.9313Z" fill="#3B80F9"/>
<path d="M118.642 226.923L87.3937 208.878C86.7837 208.524 85.8195 208.524 85.2095 208.878C84.5995 209.233 84.5995 209.783 85.2095 210.138L116.458 228.182C117.068 228.536 118.032 228.536 118.642 228.182C119.252 227.828 119.252 227.257 118.642 226.923Z" fill="#3B80F9"/>
<path d="M78.7153 254.373L94.0836 263.248C94.6936 263.602 95.6578 263.602 96.2678 263.248C96.8778 262.893 96.8778 262.342 96.2678 261.988L80.8995 253.114C80.2895 252.759 79.3253 252.759 78.7153 253.114C78.1053 253.468 78.1053 254.019 78.7153 254.373Z" fill="#3B80F9"/>
<path d="M98.4917 265.353L124.997 280.485C125.607 280.84 126.572 280.84 127.182 280.485C127.792 280.131 127.792 279.58 127.182 279.226L100.676 264.094C100.066 263.74 99.1017 263.74 98.4917 264.094C97.8817 264.448 97.8817 264.999 98.4917 265.353Z" fill="#3B80F9"/>
<path d="M75.7834 250.241L44.5353 232.196C43.9253 231.842 42.9611 231.842 42.3511 232.196C41.7411 232.551 41.7411 233.101 42.3511 233.456L73.5992 251.5C74.2092 251.854 75.1734 251.854 75.7834 251.5C76.3934 251.146 76.3934 250.575 75.7834 250.241Z" fill="#3B80F9"/>
<path d="M149.221 250.3L125.745 236.722C125.135 236.388 124.171 236.388 123.561 236.722C122.951 237.076 122.951 237.647 123.561 237.982L147.036 251.559C147.646 251.913 148.611 251.913 149.221 251.559C149.831 251.205 149.831 250.634 149.221 250.3Z" fill="#3B80F9"/>
<path d="M111.124 236.683L126.493 245.557C127.103 245.912 128.067 245.912 128.677 245.557C129.287 245.203 129.287 244.652 128.677 244.298L113.309 235.423C112.699 235.069 111.735 235.069 111.124 235.423C110.514 235.778 110.514 236.329 111.124 236.683Z" fill="#3B80F9"/>
<path d="M130.901 247.663L157.407 262.795C158.017 263.149 158.981 263.149 159.591 262.795C160.201 262.441 160.201 261.87 159.591 261.536L133.085 246.404C132.475 246.049 131.511 246.049 130.901 246.404C130.291 246.758 130.291 247.309 130.901 247.663Z" fill="#3B80F9"/>
<path d="M79.4829 224.187L108.035 240.677C108.645 241.032 109.609 241.032 110.219 240.677C110.829 240.323 110.829 239.772 110.219 239.418L81.6671 222.928C81.0571 222.574 80.0929 222.574 79.4829 222.928C78.8729 223.282 78.8729 223.833 79.4829 224.187Z" fill="#3B80F9"/>
<path d="M108.192 232.551L76.9444 214.506C76.3343 214.152 75.3701 214.152 74.7601 214.506C74.1698 214.86 74.1698 215.411 74.7601 215.765L106.008 233.81C106.618 234.164 107.582 234.164 108.192 233.81C108.802 233.456 108.802 232.885 108.192 232.551Z" fill="#3B80F9"/>
<path d="M138.752 255.947L115.276 242.37C114.666 242.015 113.702 242.015 113.092 242.37C112.482 242.724 112.482 243.295 113.092 243.629L136.568 257.207C137.178 257.561 138.142 257.561 138.752 257.207C139.362 256.852 139.362 256.282 138.752 255.947Z" fill="#3B80F9"/>
<path d="M55.1411 252.818L83.6934 269.308C84.3034 269.663 85.2676 269.663 85.8776 269.308C86.4876 268.954 86.4876 268.403 85.8776 268.049L57.3253 251.559C56.7153 251.205 55.7511 251.205 55.1411 251.559C54.5311 251.913 54.5311 252.464 55.1411 252.818Z" fill="#3B80F9"/>
<path d="M114.411 284.578L90.9357 271.001C90.3257 270.647 89.3615 270.647 88.7515 271.001C88.1414 271.355 88.1414 271.906 88.7515 272.26L112.227 285.838C112.837 286.172 113.801 286.172 114.411 285.838C115.021 285.484 115.021 284.913 114.411 284.578Z" fill="#3B80F9"/>
<path d="M100.675 242.311L116.044 251.185C116.654 251.539 117.618 251.539 118.228 251.185C118.838 250.831 118.838 250.28 118.228 249.926L102.86 241.051C102.249 240.697 101.285 240.697 100.675 241.051C100.065 241.405 100.065 241.956 100.675 242.311Z" fill="#3B80F9"/>
<path d="M120.452 253.31L146.957 268.443C147.567 268.797 148.532 268.797 149.142 268.443C149.752 268.088 149.752 267.518 149.142 267.183L122.636 252.051C122.026 251.697 121.062 251.697 120.452 252.051C119.842 252.405 119.842 252.956 120.452 253.31Z" fill="#3B80F9"/>
<path d="M87.6881 240.677L116.24 257.167C116.85 257.521 117.815 257.521 118.425 257.167C119.015 256.813 119.015 256.242 118.425 255.908L89.8527 239.418C89.2426 239.064 88.2785 239.064 87.6684 239.418C87.0584 239.772 87.0584 240.323 87.6684 240.677H87.6881Z" fill="#3B80F9"/>
<path d="M97.7434 238.198L66.4952 220.154C65.8852 219.799 64.921 219.799 64.311 220.154C63.701 220.508 63.701 221.059 64.311 221.413L95.5592 239.457C96.1692 239.812 97.1334 239.812 97.7434 239.457C98.3534 239.103 98.3534 238.533 97.7434 238.198Z" fill="#3B80F9"/>
<path d="M391.786 378.519C391.393 378.008 390.842 377.536 390.114 377.122L288.616 318.522C285.409 316.673 280.155 316.673 276.948 318.522L216.97 353.293C216.439 353.608 216.006 353.942 215.652 354.296L214.569 354.375V356.658C214.569 357.878 215.376 359.098 216.97 360.042L318.467 418.642C321.675 420.492 326.929 420.492 330.136 418.642L390.114 383.891C391.708 382.967 392.514 381.747 392.514 380.527V378.224L391.767 378.559L391.786 378.519Z" fill="#3B80F9"/>
<path d="M330.136 416.32C326.929 418.17 321.675 418.17 318.467 416.32L216.97 357.72C213.763 355.871 213.763 352.84 216.97 350.971L276.948 316.22C280.155 314.37 285.409 314.37 288.616 316.22L390.114 374.82C393.321 376.67 393.321 379.7 390.114 381.57L330.136 416.34V416.32Z" fill="#C7DAFF"/>
<path d="M324.312 418.229C322.108 418.229 319.904 417.737 318.212 416.773L216.695 358.173C214.983 357.189 214.038 355.831 214.019 354.355C214.019 352.88 214.963 351.522 216.675 350.538L276.653 315.787C280.017 313.839 285.488 313.839 288.853 315.787L390.35 374.387C392.082 375.391 393.026 376.749 393.026 378.205C393.026 379.661 392.082 381.038 390.35 382.022L330.373 416.793C328.7 417.757 326.476 418.249 324.273 418.249L324.312 418.229ZM282.772 315.354C280.746 315.354 278.699 315.787 277.204 316.653L217.226 351.404C215.849 352.21 215.081 353.234 215.081 354.336C215.081 355.418 215.849 356.461 217.226 357.248L318.723 415.848C321.734 417.599 326.85 417.599 329.881 415.848L389.858 381.078C391.255 380.271 392.003 379.248 392.003 378.165C392.003 377.083 391.236 376.04 389.858 375.233L288.361 316.633C286.846 315.767 284.819 315.335 282.792 315.335L282.772 315.354Z" fill="#3B80F9"/>
<path d="M319.905 346.11L335.273 354.985C335.883 355.339 336.847 355.339 337.457 354.985C338.067 354.631 338.067 354.08 337.457 353.726L322.089 344.851C321.479 344.497 320.515 344.497 319.905 344.851C319.295 345.205 319.295 345.756 319.905 346.11Z" fill="#3B80F9"/>
<path d="M339.68 357.11L366.186 372.242C366.796 372.597 367.76 372.597 368.37 372.242C368.98 371.888 368.98 371.337 368.37 370.983L341.864 355.851C341.254 355.497 340.29 355.497 339.68 355.851C339.07 356.205 339.07 356.756 339.68 357.11Z" fill="#3B80F9"/>
<path d="M288.263 333.615L316.816 350.105C317.426 350.459 318.39 350.459 319 350.105C319.61 349.751 319.61 349.2 319 348.846L290.428 332.356C289.818 332.002 288.854 332.002 288.244 332.356C287.634 332.71 287.634 333.261 288.244 333.615H288.263Z" fill="#3B80F9"/>
<path d="M316.953 341.998L285.705 323.953C285.095 323.599 284.131 323.599 283.521 323.953C282.911 324.308 282.911 324.859 283.521 325.213L314.769 343.257C315.379 343.611 316.343 343.611 316.953 343.257C317.563 342.903 317.563 342.332 316.953 341.998Z" fill="#3B80F9"/>
<path d="M277.027 369.448L292.395 378.323C293.005 378.677 293.969 378.677 294.579 378.323C295.189 377.969 295.189 377.418 294.579 377.063L279.211 368.189C278.601 367.835 277.637 367.835 277.027 368.189C276.417 368.543 276.417 369.094 277.027 369.448Z" fill="#3B80F9"/>
<path d="M296.803 380.428L323.309 395.56C323.919 395.915 324.883 395.915 325.493 395.56C326.103 395.206 326.103 394.655 325.493 394.301L298.987 379.169C298.377 378.815 297.413 378.815 296.803 379.169C296.193 379.523 296.193 380.074 296.803 380.428Z" fill="#3B80F9"/>
<path d="M274.095 365.316L242.847 347.271C242.237 346.917 241.273 346.917 240.663 347.271C240.053 347.626 240.053 348.177 240.663 348.531L271.911 366.575C272.521 366.929 273.485 366.929 274.095 366.575C274.705 366.221 274.705 365.65 274.095 365.316Z" fill="#3B80F9"/>
<path d="M347.532 365.375L324.057 351.797C323.447 351.443 322.483 351.443 321.873 351.797C321.263 352.151 321.263 352.702 321.873 353.057L345.348 366.634C345.958 366.988 346.922 366.988 347.532 366.634C348.142 366.28 348.142 365.709 347.532 365.375Z" fill="#3B80F9"/>
<path d="M309.456 351.758L324.824 360.633C325.434 360.987 326.398 360.987 327.008 360.633C327.618 360.278 327.618 359.727 327.008 359.373L311.64 350.499C311.03 350.144 310.066 350.144 309.456 350.499C308.846 350.853 308.846 351.404 309.456 351.758Z" fill="#3B80F9"/>
<path d="M329.212 362.738L355.718 377.87C356.328 378.224 357.292 378.224 357.902 377.87C358.512 377.516 358.512 376.945 357.902 376.611L331.397 361.479C330.787 361.124 329.822 361.124 329.212 361.479C328.602 361.833 328.602 362.384 329.212 362.738Z" fill="#3B80F9"/>
<path d="M277.795 339.243L306.347 355.733C306.957 356.087 307.921 356.087 308.531 355.733C309.141 355.379 309.141 354.828 308.531 354.473L279.959 337.984C279.349 337.629 278.385 337.629 277.775 337.984C277.165 338.338 277.165 338.889 277.775 339.243H277.795Z" fill="#3B80F9"/>
<path d="M306.504 347.626L275.256 329.581C274.646 329.227 273.682 329.227 273.072 329.581C272.462 329.935 272.462 330.486 273.072 330.841L304.32 348.885C304.93 349.239 305.894 349.239 306.504 348.885C307.114 348.531 307.114 347.96 306.504 347.626Z" fill="#3B80F9"/>
<path d="M337.063 371.003L313.588 357.425C312.978 357.071 312.014 357.071 311.404 357.425C310.794 357.779 310.794 358.33 311.404 358.684L334.879 372.262C335.489 372.616 336.453 372.616 337.063 372.262C337.673 371.908 337.673 371.337 337.063 371.003Z" fill="#3B80F9"/>
<path d="M253.453 367.894L282.005 384.384C282.615 384.738 283.579 384.738 284.189 384.384C284.799 384.029 284.799 383.478 284.189 383.124L255.617 366.634C255.007 366.28 254.043 366.28 253.433 366.634C252.823 366.988 252.823 367.539 253.433 367.894H253.453Z" fill="#3B80F9"/>
<path d="M312.723 399.653L289.247 386.076C288.637 385.722 287.673 385.722 287.063 386.076C286.453 386.43 286.453 386.981 287.063 387.335L310.538 400.913C311.148 401.247 312.113 401.247 312.723 400.913C313.333 400.558 313.333 399.988 312.723 399.653Z" fill="#3B80F9"/>
<path d="M298.987 357.386L314.355 366.26C314.965 366.615 315.929 366.615 316.539 366.26C317.149 365.906 317.149 365.355 316.539 365.001L301.171 356.126C300.561 355.772 299.597 355.772 298.987 356.126C298.377 356.481 298.377 357.032 298.987 357.386Z" fill="#3B80F9"/>
<path d="M318.763 368.386L345.269 383.518C345.879 383.872 346.843 383.872 347.453 383.518C348.044 383.164 348.044 382.613 347.453 382.258L320.947 367.126C320.337 366.772 319.373 366.772 318.763 367.126C318.153 367.48 318.153 368.031 318.763 368.386Z" fill="#3B80F9"/>
<path d="M286 355.752L314.552 372.242C315.162 372.597 316.126 372.597 316.736 372.242C317.326 371.888 317.326 371.337 316.736 370.983L288.164 354.493C287.554 354.159 286.59 354.159 285.98 354.493C285.37 354.847 285.37 355.418 285.98 355.752H286Z" fill="#3B80F9"/>
<path d="M296.055 353.253L264.807 335.209C264.197 334.855 263.233 334.855 262.623 335.209C262.013 335.563 262.013 336.114 262.623 336.468L293.871 354.513C294.481 354.867 295.445 354.867 296.055 354.513C296.665 354.159 296.665 353.588 296.055 353.253Z" fill="#3B80F9"/>
<path d="M394.876 169.739L394.915 219.878C394.954 233.613 385.371 247.368 366.382 257.836L366.186 151.498C366.186 151.498 394.915 183.474 394.856 169.739H394.876Z" fill="white"/>
<path d="M365.871 258.702V257.817L365.674 150.121L366.579 151.144C372.167 157.362 387.103 172.652 392.455 172.652C392.731 172.652 392.986 172.612 393.203 172.534C393.951 172.239 394.325 171.333 394.344 169.799V169.759H395.387V169.818L395.426 219.898C395.466 234.4 385.253 248.037 366.638 258.309L365.871 258.742V258.702ZM366.717 152.836L366.894 256.931C384.682 246.915 394.423 233.771 394.384 219.858L394.344 173.026C394.128 173.222 393.872 173.38 393.577 173.498C393.262 173.616 392.927 173.675 392.554 173.675C386.237 173.675 370.947 157.48 366.697 152.836H366.717Z" fill="#3B80F9"/>
<path d="M340.762 138.354C340.762 138.354 340.762 138.354 340.762 138.334C340.743 137.547 340.644 136.76 340.467 135.973C340.29 135.185 340.054 134.418 339.739 133.651C335.331 122.828 320.672 117.869 309.396 116C296.645 113.875 282.831 114.681 270.73 119.069C268.447 119.896 266.283 120.84 264.275 121.923L264.413 204.844C266.44 203.762 268.604 202.818 270.887 201.991C282.792 197.662 296.311 196.855 308.845 198.803C319.648 200.496 333.128 204.844 338.854 214.211C339.326 214.978 339.897 215.766 340.211 216.553C340.369 216.926 340.585 217.3 340.762 217.674V138.354Z" fill="white"/>
<path d="M341.274 219.799L340.153 217.635C339.995 217.34 339.838 217.045 339.72 216.749C339.503 216.198 339.129 215.628 338.775 215.077C338.637 214.88 338.519 214.683 338.401 214.486C332.203 204.353 317.169 200.633 308.747 199.315C295.642 197.269 282.261 198.39 271.045 202.483C268.782 203.31 266.617 204.254 264.649 205.297L263.882 205.71L263.744 121.608L264.02 121.47C266.027 120.408 268.231 119.443 270.553 118.597C282.221 114.367 296.035 113.265 309.495 115.508C317.051 116.767 335.154 121.018 340.231 133.474C340.546 134.261 340.802 135.067 340.979 135.874C341.156 136.642 341.254 137.429 341.274 138.216V138.373V219.819V219.799ZM295.917 197.269C300.227 197.269 304.575 197.603 308.904 198.272C317.504 199.61 332.872 203.428 339.287 213.936C339.405 214.132 339.523 214.329 339.661 214.506C339.857 214.821 340.074 215.136 340.251 215.451V138.314C340.212 137.567 340.113 136.799 339.956 136.051C339.798 135.284 339.562 134.536 339.267 133.828C334.387 121.864 316.697 117.712 309.318 116.492C296.035 114.288 282.399 115.37 270.907 119.542C268.723 120.329 266.676 121.234 264.787 122.218L264.925 203.959C266.735 203.054 268.664 202.208 270.69 201.48C278.365 198.685 287.042 197.269 295.937 197.269H295.917Z" fill="#3B80F9"/>
<path d="M366.383 257.817L327.696 237.155L327.539 184.576L366.225 205.238L366.383 257.817Z" fill="#83AFFA"/>
<path d="M366.874 258.643L327.204 237.45V237.155L327.047 183.75L366.717 204.943V205.238L366.874 258.643ZM328.188 236.86L365.891 257.01L365.753 205.553L328.05 185.403L328.188 236.86Z" fill="#3B80F9"/>
<path d="M264.256 205.868L225.569 185.206V130.03L264.256 150.692V205.868Z" fill="#83AFFA"/>
<path d="M264.787 206.734L225.058 185.501V129.145L264.787 150.377V206.734ZM226.081 184.891L263.724 205.002V151.006L226.081 130.896V184.891Z" fill="#3B80F9"/>
<path d="M366.697 130.05C403.435 153.86 405.344 184.478 366.244 205.238L327.499 184.537C345.071 175.21 345.169 160.078 327.715 150.731C310.242 141.404 281.847 141.404 264.255 150.731L225.529 130.03C264.629 109.27 327.499 104.626 366.697 130.03V130.05Z" fill="#C7DAFF"/>
<path d="M366.225 205.828L326.378 184.537L327.244 184.085C335.607 179.657 340.211 173.793 340.211 167.575C340.211 161.416 335.685 155.591 327.44 151.203C310.144 141.955 281.887 141.955 264.472 151.203L264.236 151.341L224.408 130.05L225.274 129.597C263.547 109.27 327.027 103.721 366.973 129.617C385.922 141.896 396.017 156.378 395.407 170.389C394.817 183.75 384.82 195.97 366.481 205.71L366.245 205.848L366.225 205.828ZM328.601 184.537L366.245 204.648C384.092 195.124 393.813 183.258 394.364 170.35C394.954 156.713 385.037 142.565 366.402 130.502C327.067 105.02 264.728 110.274 226.632 130.069L264.255 150.16C281.965 140.912 310.478 140.951 327.952 150.298C336.551 154.883 341.274 161.042 341.274 167.595C341.274 173.99 336.768 179.972 328.601 184.557V184.537Z" fill="#3B80F9"/>
<path d="M236.706 151.243V198.666L264.255 213.385V165.981L236.706 151.243Z" fill="#3B80F9"/>
<path d="M225.51 145.241L264.236 165.942C250.166 173.4 246.86 184.281 255.814 193.687L206.777 206.97C186.883 186.033 194.223 161.849 225.51 145.241Z" fill="#C7DAFF"/>
<path d="M206.619 207.56L206.403 207.344C197.705 198.193 193.947 188.099 195.56 178.181C197.607 165.568 207.879 154.017 225.274 144.788L225.51 144.651L265.337 165.942L264.471 166.394C256.974 170.369 252.37 175.505 251.504 180.857C250.815 185.068 252.429 189.378 256.187 193.313L256.797 193.943L206.619 207.54V207.56ZM225.51 145.831C208.567 154.883 198.571 166.119 196.584 178.339C195.029 187.843 198.61 197.544 206.934 206.379L254.849 193.392C251.287 189.378 249.792 185.009 250.481 180.68C251.386 175.131 255.754 170.035 263.133 165.922L225.51 145.811V145.831Z" fill="#3B80F9"/>
<path d="M195.836 186.013C195.836 186.111 195.915 186.229 195.934 186.328C196.033 187.036 196.17 187.764 196.328 188.492C196.328 188.571 196.367 188.669 196.387 188.748C196.544 189.496 196.761 190.244 196.977 190.991C197.017 191.149 197.076 191.286 197.115 191.444C197.351 192.192 197.627 192.92 197.922 193.667C197.961 193.786 198.02 193.884 198.059 194.002C198.394 194.789 198.748 195.596 199.161 196.383C199.161 196.403 199.161 196.442 199.201 196.462C199.614 197.268 200.067 198.056 200.539 198.843C200.637 199 200.716 199.138 200.814 199.295C200.952 199.512 201.109 199.748 201.247 199.964C201.424 200.24 201.582 200.496 201.759 200.751C201.916 200.988 202.093 201.204 202.251 201.44C202.428 201.696 202.625 201.952 202.821 202.227C202.999 202.463 203.176 202.68 203.333 202.916C203.53 203.172 203.746 203.428 203.943 203.683C204.12 203.9 204.317 204.136 204.514 204.372C204.691 204.589 204.888 204.825 205.084 205.041C205.635 205.671 206.186 206.301 206.777 206.911L206.934 244.318C206.344 243.688 205.793 243.058 205.242 242.448C205.183 242.37 205.104 242.291 205.025 242.212C204.907 242.075 204.789 241.917 204.671 241.76C204.474 241.543 204.297 241.307 204.1 241.091C203.884 240.835 203.687 240.579 203.49 240.304C203.313 240.067 203.136 239.851 202.959 239.615C202.762 239.359 202.585 239.103 202.408 238.828C202.231 238.592 202.074 238.375 201.916 238.139C201.739 237.883 201.562 237.608 201.385 237.352C201.247 237.135 201.09 236.899 200.952 236.663C200.913 236.584 200.854 236.525 200.814 236.447C200.755 236.368 200.736 236.289 200.677 236.211C200.185 235.423 199.732 234.617 199.319 233.83C199.319 233.81 199.299 233.771 199.279 233.751C198.886 232.964 198.512 232.157 198.177 231.37C198.158 231.291 198.118 231.212 198.079 231.153C198.079 231.114 198.059 231.075 198.04 231.035C197.745 230.288 197.469 229.56 197.233 228.812C197.174 228.674 197.135 228.517 197.095 228.359C196.859 227.611 196.662 226.864 196.505 226.116C196.505 226.096 196.505 226.077 196.485 226.037C196.485 225.978 196.485 225.919 196.466 225.84C196.308 225.132 196.19 224.404 196.092 223.676C196.092 223.578 196.052 223.459 196.052 223.361C195.974 222.613 195.915 221.866 195.875 221.118C195.875 221.039 195.875 220.98 195.875 220.901C195.875 220.646 195.659 220.37 195.659 220.114L195.324 182.786V182.707C195.324 183.042 195.541 183.376 195.541 183.711C195.56 184.458 195.718 185.206 195.816 185.954L195.836 186.013Z" fill="#C7DAFF"/>
<path d="M207.465 245.676L206.56 244.711C205.97 244.082 205.399 243.452 204.848 242.822C204.809 242.763 204.77 242.724 204.73 242.685L204.652 242.606C204.553 242.488 204.455 242.37 204.356 242.252L204.278 242.134C204.101 241.917 203.904 241.701 203.727 241.465L202.566 239.969C202.369 239.713 202.192 239.438 201.995 239.182C201.838 238.966 201.661 238.729 201.503 238.493C201.346 238.257 201.188 238.021 201.031 237.765L200.873 237.509C200.755 237.332 200.657 237.175 200.539 236.998L200.933 236.624L200.5 236.899C200.5 236.899 200.441 236.801 200.401 236.742C200.401 236.742 200.362 236.663 200.322 236.604C199.791 235.738 199.339 234.932 198.925 234.105C198.532 233.298 198.178 232.531 197.784 231.606C197.764 231.527 197.725 231.488 197.705 231.449C197.646 231.311 197.627 231.272 197.627 231.213C197.371 230.563 197.095 229.835 196.84 229.009C196.8 228.871 196.741 228.733 196.702 228.576C196.446 227.71 196.23 226.962 196.092 226.254C196.052 226.136 196.052 226.077 196.052 226.018C195.895 225.27 195.777 224.542 195.679 223.794V223.676C195.679 223.676 195.639 223.519 195.639 223.44C195.561 222.712 195.501 221.944 195.462 221.177C195.462 221.039 195.462 220.98 195.462 220.941C195.462 220.941 195.423 220.823 195.383 220.744C195.324 220.587 195.246 220.39 195.246 220.173L194.911 182.845C194.911 182.845 194.911 182.786 194.911 182.766H195.954C195.954 182.766 195.993 182.983 196.033 183.12C196.092 183.297 196.171 183.514 196.171 183.75C196.171 184.222 196.249 184.695 196.328 185.186C196.367 185.442 196.407 185.678 196.426 185.934C196.466 186.052 196.505 186.151 196.525 186.288C196.623 186.997 196.781 187.745 196.918 188.394L196.977 188.65C197.115 189.299 197.312 189.988 197.568 190.873L197.705 191.326C197.922 192.034 198.197 192.762 198.492 193.51C198.512 193.589 198.552 193.648 198.571 193.727L198.611 193.845C198.945 194.671 199.299 195.439 199.693 196.186C200.126 197.032 200.559 197.82 201.051 198.626L201.129 198.764C201.188 198.862 201.247 198.961 201.326 199.079C201.464 199.315 201.621 199.531 201.759 199.748C201.936 200.023 202.093 200.279 202.271 200.535L202.743 201.204C202.92 201.46 203.117 201.716 203.294 201.972L203.805 202.66C204.002 202.916 204.199 203.172 204.415 203.428L204.553 203.605C204.691 203.762 204.829 203.939 204.966 204.097C205.144 204.313 205.34 204.549 205.537 204.766C206.068 205.395 206.639 206.005 207.21 206.615L207.347 206.773L207.505 245.695L207.465 245.676ZM198.611 231.016C198.611 231.016 198.689 231.173 198.709 231.252C199.083 232.137 199.437 232.885 199.791 233.574L199.85 233.712C200.224 234.44 200.677 235.227 201.149 235.994L201.424 236.447C201.523 236.604 201.621 236.762 201.739 236.939L201.857 237.116C202.074 237.431 202.212 237.667 202.369 237.903C202.526 238.119 202.684 238.356 202.841 238.572C203.038 238.847 203.215 239.103 203.412 239.359L204.534 240.796C204.711 241.012 204.907 241.228 205.084 241.465L205.183 241.602C205.262 241.701 205.34 241.819 205.439 241.917C205.557 242.035 205.596 242.094 205.655 242.153C205.911 242.448 206.167 242.724 206.423 243.019L206.285 207.166C205.734 206.596 205.222 206.005 204.711 205.415C204.514 205.199 204.317 204.963 204.14 204.746C204.002 204.589 203.864 204.412 203.727 204.234L203.569 204.057C203.353 203.782 203.156 203.526 202.94 203.27L202.408 202.582C202.212 202.326 202.015 202.05 201.838 201.794L201.346 201.106C201.169 200.83 200.992 200.574 200.814 200.299C200.657 200.082 200.519 199.846 200.382 199.61C200.303 199.492 200.244 199.394 200.185 199.276L200.106 199.138C199.614 198.311 199.142 197.505 198.748 196.718L198.689 196.58C198.315 195.852 197.941 195.065 197.607 194.219L197.568 194.12C197.568 194.12 197.489 193.943 197.469 193.864C197.174 193.097 196.879 192.349 196.662 191.621L196.525 191.168C196.269 190.342 196.092 189.653 195.954 189.024L196.23 220.173C196.23 220.173 196.269 220.311 196.308 220.39C196.367 220.547 196.446 220.724 196.446 220.941C196.446 221.079 196.446 221.138 196.446 221.197C196.485 221.925 196.525 222.653 196.623 223.381L196.662 223.696C196.761 224.404 196.879 225.112 197.036 225.821L197.095 226.116C197.233 226.765 197.43 227.493 197.666 228.281C197.725 228.458 197.764 228.595 197.804 228.713C198.06 229.52 198.315 230.229 198.591 230.917L198.138 231.232L198.63 231.035L198.611 231.016Z" fill="#3B80F9"/>
<path d="M255.971 247.781L206.934 244.357L206.776 206.93L255.813 193.648L255.971 247.781Z" fill="#C7DAFF"/>
<path d="M256.482 248.332L206.403 244.829L206.245 206.537L256.325 192.959L256.482 248.332ZM207.445 243.865L255.439 247.21L255.302 194.317L207.308 207.324L207.445 243.865Z" fill="#3B80F9"/>
<path d="M214.608 226.411C235.348 242.547 266.183 252.09 292.689 252.327H293.259V273.362C293.259 273.362 291.016 273.342 289.895 273.303C262.72 272.457 232.003 266.101 211.479 248.608C209.846 247.23 208.35 245.813 206.953 244.337L206.815 219.524C209.118 221.964 211.735 224.247 214.627 226.411H214.608Z" fill="white"/>
<path d="M293.771 273.893H293.24C293.24 273.893 290.997 273.874 289.855 273.834C270.63 273.244 234.817 269.21 211.106 249.021C209.472 247.643 207.937 246.187 206.54 244.711L206.403 244.554L206.245 218.225L207.15 219.189C209.433 221.59 212.03 223.892 214.884 225.998C234.699 241.425 265.239 251.559 292.65 251.815L293.732 251.854V273.893H293.771ZM207.465 244.141C208.803 245.538 210.259 246.915 211.794 248.234C235.25 268.226 270.788 272.201 289.895 272.791C290.682 272.811 292 272.831 292.728 272.85V252.878H292.669C265.062 252.602 234.286 242.389 214.293 226.844C211.755 224.955 209.413 222.948 207.327 220.842L207.465 244.16V244.141Z" fill="#3B80F9"/>
<path d="M293.26 219.268V252.366C293.26 252.366 292.748 252.346 292.669 252.346C266.242 252.346 235.23 242.389 214.588 226.431C211.696 224.286 209.098 221.984 206.776 219.544L255.813 206.261C263.291 214.113 277.832 218.816 293.24 219.268H293.26Z" fill="white"/>
<path d="M293.791 252.897H293.241C293.241 252.897 292.749 252.858 292.67 252.858C265.475 252.858 234.699 242.645 214.274 226.824C211.381 224.679 208.725 222.338 206.403 219.898L205.793 219.268L255.971 205.691L256.187 205.907C263.291 213.365 277.498 218.284 293.26 218.757H293.772V252.917L293.791 252.897ZM207.78 219.799C209.906 221.964 212.306 224.05 214.904 225.978C235.172 241.661 265.692 251.795 292.67 251.795C292.67 251.795 292.709 251.795 292.729 251.795V219.74C277.065 219.189 262.917 214.25 255.656 206.812L207.761 219.78L207.78 219.799Z" fill="#3B80F9"/>
<path d="M366.225 241.819L366.402 257.817C346.449 268.384 322.875 272.792 300.029 273.342C297.766 273.402 295.956 273.402 293.24 273.362V257.364C295.956 257.364 365.241 242.33 366.225 241.799V241.819Z" fill="#C7DAFF"/>
<path d="M296.487 273.913C295.523 273.913 294.48 273.913 293.24 273.893H292.729V256.853H293.26C295.385 256.853 363.332 242.37 366.028 241.347L366.776 240.953V241.819L366.933 258.132L366.657 258.289C348.554 267.872 325.531 273.264 300.068 273.874C298.848 273.913 297.746 273.913 296.526 273.913H296.487ZM293.771 272.851C296.33 272.89 298.002 272.87 300.029 272.831C325.197 272.221 347.964 266.928 365.89 257.502L365.733 242.508C358.314 244.456 300.167 256.853 293.791 257.836V272.87L293.771 272.851Z" fill="#3B80F9"/>
<path d="M327.499 221.216L366.225 241.898C365.241 242.409 364.257 242.921 363.293 243.393C344.028 252.858 319.943 258.151 298.061 257.463C296.448 257.502 294.854 257.502 293.26 257.482V228.182C300.934 228.418 308.785 227.612 316.106 225.624C320.533 224.424 323.957 223.086 327.479 221.236L327.499 221.216Z" fill="#C7DAFF"/>
<path d="M301.878 258.053C300.599 258.053 299.32 258.033 298.041 257.994C296.625 258.033 295.05 258.033 293.26 258.014H292.748V227.651H293.279C301.131 227.907 308.982 227.021 315.987 225.112C320.336 223.932 323.701 222.633 327.263 220.764L327.499 220.626L367.346 241.898L366.48 242.35C365.496 242.862 364.512 243.373 363.529 243.846C345.248 252.819 322.501 258.014 301.898 258.014L301.878 258.053ZM298.041 256.951C319.47 257.64 343.772 252.405 363.056 242.94C363.745 242.606 364.434 242.252 365.103 241.917L327.479 221.826C323.957 223.676 320.572 224.955 316.243 226.136C309.297 228.025 301.544 228.91 293.771 228.733V256.99C295.346 256.99 296.743 256.99 298.022 256.971L298.041 256.951Z" fill="#3B80F9"/>
</g>
<defs>
<linearGradient id="paint0_linear_2325_1101" x1="287.043" y1="144.001" x2="287.043" y2="363.86" gradientUnits="userSpaceOnUse">
<stop stop-color="#00BAE5"/>
<stop offset="1" stop-color="#1572B3"/>
</linearGradient>
<clipPath id="clip0_2325_1101">
<rect width="570.062" height="420" fill="white" transform="translate(0.96875)"/>
</clipPath>
</defs>
</svg>
