<svg width="515" height="100" viewBox="0 0 515 100" fill="none" xmlns="http://www.w3.org/2000/svg">
<path d="M108.274 29.3855C111.809 30.5357 121.023 28.5375 125.318 29.3855C126.798 -13.4541 55.2904 -8.13206 67.8057 36.7448C72.3054 52.8767 89.8269 55.0503 101.641 62.3413C123 75.5003 96.1187 88.9516 86.3304 76.6894C83.876 73.6093 84.139 68.95 82.9702 67.3807C81.2853 65.1291 61.0854 67.137 56.8 66.3865C51.4335 86.1541 28.0878 84.2242 22.5362 65.4702C17.7444 49.2701 21.1532 14.7547 45.4729 21.071C52.203 22.8256 52.1932 29.5317 54.1801 30.8769C55.8943 32.0368 59.8485 31.0426 62.0107 31.335C59.9264 27.1241 65.9357 13.9165 65.4682 11.7526C64.1437 5.51424 49.7194 0.591828 43.9828 0.162945C-8.45504 -3.77499 -13.0132 82.0895 25.0198 97.1199C39.8435 102.978 58.5045 99.9077 68.3804 86.9144L69.7926 86.8949C81.4898 107.891 125.698 102.851 129.136 77.5472C133.772 43.412 108.391 47.4669 90.3236 33.7133C82.454 27.7187 85.6194 17.0454 96.5569 17.6497C106.55 18.1956 106.111 28.674 108.283 29.3855H108.274ZM143.823 0.14345H140.901V98.5918H143.823V0.14345ZM174.736 10.1247C157.838 12.7858 151.05 33.8596 162.338 46.4337C170.169 55.1478 186.813 55.5084 194.449 46.4337C193.212 45.5369 188.927 40.2733 188.148 40.2636C187.71 40.2636 183.697 43.8214 180.337 44.0553C166.253 45.0203 163.156 24.7848 174.766 19.8916C183.22 16.3241 186.278 22.7866 188.011 22.4844C189.248 22.27 192.949 17.2501 194.449 16.2168C189.92 10.8363 181.564 9.04279 174.736 10.115V10.1247ZM299.539 13.9067C298.614 12.3082 288.904 9.78359 286.517 9.81283C276.437 9.95904 267.175 18.4295 272.512 28.7714C276.018 35.5653 291.144 34.2495 289.965 41.5405C288.631 49.7575 275.804 41.0239 274.966 41.1701C274.372 41.2773 269.639 46.0048 269.541 46.5701C268.48 52.477 298.526 59.0272 299.715 41.6087C300.104 35.8773 299.296 33.265 294.494 30.1751C291.29 28.1086 275.629 24.9212 282.534 19.5504C287.423 15.749 293.471 21.4317 294.319 21.4317C295.02 21.4317 300.737 15.9732 299.549 13.9067H299.539ZM322.797 10.1442C306.454 12.4739 299.646 30.8281 308.587 44.3282C315.765 55.1673 333.988 56.0153 342.491 46.4434C340.981 45.4102 337.29 40.3903 336.043 40.1758C334.709 39.9419 332.381 43.5289 329.284 43.9773C315.327 45.9853 310.233 26.3346 321.375 20.4277C330.443 15.6223 333.745 22.5234 335.205 22.5331C335.683 22.5331 341.789 16.3046 341.536 15.2908C336.355 10.6414 329.664 9.1695 322.797 10.154V10.1442ZM488.35 10.1247C464.031 13.936 465.832 49.0362 486.402 52.5452C524.747 59.076 523.666 4.59799 488.35 10.1247ZM218.331 10.8655C212.584 10.0565 205.28 11.4601 199.339 10.8655V51.8044H209.078V36.2087C210.237 36.3549 211.883 35.8285 212.818 36.3744C213.549 36.8033 218.974 50.2351 220.756 51.3268C223.103 52.7499 229.473 51.2976 232.453 51.7947L221.749 34.7368C235.258 29.6195 232.541 12.8735 218.331 10.8655ZM264.594 10.8655H237.323V51.8044H265.568V44.0066H247.062V35.2339H263.62V27.4361H247.062V19.6382H264.594V10.8655ZM374.651 10.8655H347.867C347.76 10.8655 346.406 12.2204 346.406 12.3276V51.8044H375.625V44.0066H357.606C355.581 44.0066 356.146 36.8617 356.146 35.2339H373.677V27.4361H356.146V19.6382H374.651V10.8655ZM381.468 12.3276V51.8044H391.208V25.4866L407.765 51.3171L419.453 51.8044V10.8655H409.713V37.1834L393.156 11.3529C390.916 10.6219 382.179 10.0175 381.468 12.3276ZM427.244 51.8044H449.158C449.528 51.8044 455.109 49.4163 456.015 48.9192C468.852 41.7354 469.777 21.305 456.512 14.2284C454.788 13.3121 447.736 10.8655 446.236 10.8655H428.705C428.598 10.8655 427.244 12.2204 427.244 12.3276V51.8044ZM177.911 64.4955C177.405 63.9594 171.892 62.3998 170.636 62.4583C164.744 62.7117 161.15 67.8194 163.799 73.2681C165.776 77.3328 180.278 77.2353 175.068 85.2769C171.824 90.2968 164.422 83.8635 163.809 83.9805C160.877 84.5263 164.091 87.5772 165.503 88.1133C170.899 90.1506 178.223 89.1758 178.603 82.3624C179.051 74.2526 168.883 75.9779 166.166 71.8548C163.448 67.7316 168.113 63.8814 172.321 64.632C172.691 64.7002 181.642 68.4237 177.911 64.4858V64.4955ZM299.52 85.7837C299.091 86.466 295.458 86.8852 294.338 86.9437C275.999 87.9087 278.823 64.0764 292.312 64.4273C293.949 64.4663 301.828 68.7551 301.594 65.9381C301.458 64.3103 295.137 62.546 293.364 62.4583C275.327 61.5031 275.775 85.9397 287.696 88.6397C300.192 91.4664 303.289 87.1679 301.614 75.1884L292.848 75.2079C293.384 78.3075 299.179 76.6797 299.676 77.1378C299.987 77.4302 299.783 85.3743 299.529 85.774L299.52 85.7837ZM218.818 63.5013H198.365C199.115 66.9616 206.478 64.7879 207.13 65.4507C207.87 66.1915 206.536 83.113 207.13 86.4076C207.432 88.0939 208.172 89.1368 210.042 88.8542V65.4605C210.042 65.0219 217.717 65.7822 218.798 65.4605V63.5208L218.818 63.5013ZM248.884 63.6377C248.329 63.2966 245.621 63.2868 245.222 63.6182C244.968 67.3807 234.187 87.3433 235.385 88.8347C237.157 91.0571 238.813 82.8888 240.888 82.1772C242.076 81.7678 253.101 81.7873 253.724 82.1772C254.65 82.7523 255.322 89.5657 258.74 88.8347C257.162 85.6863 250.023 64.3493 248.874 63.6377H248.884ZM342.51 63.5013H326.927V88.8444H342.51C342.637 86.5538 342.841 87.1191 341.069 86.8949C333.774 85.9592 327.443 90.4917 328.836 79.5357C329.557 73.853 335.488 76.7674 340.104 76.1728C341.526 75.9876 343.124 75.432 341.546 74.2234H328.884V65.441H342.52V63.4915L342.51 63.5013ZM491.301 18.8584C506.388 16.7822 509.437 41.8037 494.866 43.9481C478.504 46.3654 475.708 21.0028 491.301 18.8584ZM436.984 43.0318V19.6382C462.122 15.5345 462.102 47.4571 436.984 43.0318ZM209.078 28.4108V18.6537C224.389 17.3768 224.739 30.4675 209.078 28.4108ZM251.932 80.062H241.219L246.098 66.4255C248.66 67.332 252.867 79.1068 251.932 80.062Z" fill="#00163A"/>
</svg>
