<svg width="787" height="568" viewBox="0 0 787 568" fill="none" xmlns="http://www.w3.org/2000/svg">
<path d="M410.396 323.251C410.196 323.251 409.996 323.194 409.796 323.079L286.591 251.663C286.22 251.462 285.991 251.061 285.991 250.63C285.991 250.2 286.22 249.827 286.591 249.597L343.664 216.629C344.035 216.429 344.464 216.429 344.836 216.629L468.04 288.045C468.412 288.246 468.641 288.648 468.641 289.078C468.641 289.509 468.412 289.882 468.04 290.111L410.968 323.079C410.796 323.194 410.596 323.223 410.368 323.223L410.396 323.251ZM289.564 250.63L410.425 320.669L465.154 289.078L344.293 219.04L289.592 250.63H289.564Z" fill="#1263FF"/>
<path d="M344.264 -0.000366211V142.832L467.468 214.248V71.4157L344.264 -0.000366211ZM358.982 25.5648L452.779 79.9374V188.683L358.982 134.31V25.5648Z" fill="url(#paint0_linear_2377_1164)"/>
<path d="M327.402 9.69775V152.53L450.607 223.946V81.1138L327.402 9.69775ZM342.121 35.2629L435.917 89.6355V198.381L342.121 144.008V35.2629Z" fill="url(#paint1_linear_2377_1164)"/>
<path d="M327.402 9.69788L344.264 -0.000244141L467.497 71.4158L450.607 81.114L327.402 9.69788Z" fill="url(#paint2_linear_2377_1164)"/>
<path d="M467.498 71.4158L450.607 81.1139V223.946L467.498 214.248V71.4158Z" fill="url(#paint3_linear_2377_1164)"/>
<path d="M358.982 134.31L342.12 144.008V35.2629L358.982 45.0471V134.31Z" fill="url(#paint4_linear_2377_1164)"/>
<path d="M358.982 134.31L342.12 144.008L435.917 198.352V178.899L358.982 134.31Z" fill="url(#paint5_linear_2377_1164)"/>
<path opacity="0.5" d="M351.151 138.815V40.5424L435.917 89.6355V187.133L351.151 138.815Z" fill="#7BAEFF"/>
<path d="M304.081 23.2694V166.102L427.286 237.518V94.6855L304.081 23.2694ZM318.771 48.8346L412.568 103.207V211.952L318.771 157.58V48.8346Z" fill="url(#paint6_linear_2377_1164)"/>
<path d="M287.191 32.9677V175.8L410.396 247.216V104.384L287.191 32.9677ZM301.91 58.5328L395.706 112.905V221.651L301.91 167.278V58.5328Z" fill="url(#paint7_linear_2377_1164)"/>
<path d="M287.191 32.9675L304.082 23.2694L427.286 94.6855L410.396 104.384L287.191 32.9675Z" fill="url(#paint8_linear_2377_1164)"/>
<path d="M427.288 94.6855L410.397 104.384V247.216L427.288 237.518V94.6855Z" fill="url(#paint9_linear_2377_1164)"/>
<path d="M318.771 157.58L301.909 167.278V58.5328L318.771 68.317V157.58Z" fill="url(#paint10_linear_2377_1164)"/>
<path d="M318.771 157.58L301.909 167.278L395.706 221.622V202.168L318.771 157.58Z" fill="url(#paint11_linear_2377_1164)"/>
<path opacity="0.5" d="M310.94 162.085V63.8121L395.706 112.905V210.403L310.94 162.085Z" fill="#7BAEFF"/>
<path d="M410.396 104.384L287.191 32.9676L290.106 31.3608L413.311 102.777V245.609L410.396 247.216V104.384Z" fill="#A9CFFF"/>
<path d="M450.608 81.1139L327.403 9.69785L330.318 8.09106L453.523 79.5071V222.339L450.608 223.946V81.1139Z" fill="#A9CFFF"/>
<path d="M301.909 58.5328L304.824 60.2257V165.671L395.706 218.351V221.622L301.909 167.278V58.5328Z" fill="#A9CFFF"/>
<path opacity="0.5" d="M304.082 23.2695L327.403 9.69788L450.607 81.114V223.946L427.287 237.518V94.6856L304.082 23.2695Z" fill="#1263FF"/>
<path opacity="0.5" d="M450.607 81.1139L427.287 94.6856L304.082 23.2695L327.403 9.69788L450.607 81.1139Z" fill="#1263FF"/>
<path d="M237.121 428.955C236.921 428.955 236.721 428.898 236.521 428.783L114.031 357.769C113.659 357.568 113.431 357.166 113.431 356.736C113.431 356.306 113.659 355.933 114.031 355.703L236.55 284.689C236.921 284.488 237.378 284.488 237.721 284.689L360.212 355.703C360.583 355.904 360.812 356.306 360.812 356.736C360.812 357.166 360.583 357.539 360.212 357.769L237.721 428.783C237.55 428.898 237.35 428.955 237.121 428.955ZM116.974 356.765L237.121 426.402L357.268 356.765L237.121 287.127L116.974 356.765Z" fill="#1263FF"/>
<path d="M237.122 347.841L360.355 276.425V221.564L237.122 292.981V347.841Z" fill="url(#paint12_linear_2377_1164)"/>
<path d="M237.122 292.981L360.355 221.564L237.15 150.148L113.917 221.564L237.122 292.981Z" fill="url(#paint13_linear_2377_1164)"/>
<path d="M237.121 275.937L330.946 221.565L237.15 167.192L143.324 221.565L237.121 275.937Z" fill="#1263FF"/>
<path d="M113.917 276.425L237.15 347.841V292.981L113.917 221.564V276.425Z" fill="url(#paint14_linear_2377_1164)"/>
<path d="M237.122 259.64L360.355 188.224V133.363L237.122 204.779V259.64Z" fill="url(#paint15_linear_2377_1164)"/>
<path d="M237.122 204.779L360.355 133.363L237.15 61.9473L113.917 133.363L237.122 204.779Z" fill="url(#paint16_linear_2377_1164)"/>
<path d="M237.122 202.054L357.983 131.986L360.355 133.363L237.122 204.779L113.917 133.363L116.289 131.986L237.122 202.054Z" fill="#A9CFFF"/>
<path d="M237.122 290.255L357.983 220.187L360.355 221.565L237.122 292.981L113.917 221.565L116.289 220.187L237.122 290.255Z" fill="#A9CFFF"/>
<path d="M237.15 89.2627L323.488 139.331L237.122 189.371L150.784 139.331L237.15 89.2627Z" fill="#1263FF"/>
<path d="M237.151 89.2627L150.784 139.331L140.524 133.363L237.151 77.3839L333.748 133.363L323.488 139.331L237.151 89.2627Z" fill="#6C8AF4"/>
<path d="M113.917 188.224L237.15 259.64V204.779L113.917 133.363V188.224Z" fill="url(#paint17_linear_2377_1164)"/>
<path d="M194.139 207.304C194.139 211.809 197.282 217.289 201.169 219.556C205.056 221.823 208.2 219.987 208.2 215.482C208.2 210.977 205.056 205.497 201.169 203.23C197.282 200.963 194.139 202.8 194.139 207.304Z" fill="#1263FF"/>
<path d="M168.504 192.413C168.504 196.918 171.648 202.398 175.534 204.665C179.421 206.932 182.565 205.095 182.565 200.59C182.565 196.086 179.421 190.605 175.534 188.339C171.648 186.072 168.504 187.908 168.504 192.413Z" fill="#1263FF"/>
<path d="M142.839 177.55C142.839 182.055 145.983 187.535 149.869 189.802C153.756 192.069 156.9 190.232 156.9 185.728C156.9 181.223 153.756 175.742 149.869 173.476C145.983 171.209 142.839 173.045 142.839 177.55Z" fill="#1263FF"/>
<path d="M197.711 202.312C197.368 203.058 197.168 204.005 197.168 205.095C197.168 209.6 200.312 215.08 204.199 217.347C205.456 218.093 206.656 218.351 207.685 218.265C206.628 220.618 204.113 221.278 201.169 219.556C197.282 217.289 194.139 211.809 194.139 207.304C194.139 204.263 195.596 202.484 197.711 202.312Z" fill="#A9CFFF"/>
<path d="M172.046 187.42C171.703 188.166 171.503 189.113 171.503 190.204C171.503 194.708 174.647 200.189 178.533 202.455C179.791 203.201 180.991 203.46 182.02 203.374C180.963 205.755 178.448 206.386 175.504 204.665C171.617 202.398 168.474 196.918 168.474 192.413C168.474 189.372 169.931 187.593 172.046 187.42Z" fill="#A9CFFF"/>
<path d="M146.411 172.557C146.068 173.304 145.868 174.25 145.868 175.341C145.868 179.845 149.012 185.326 152.899 187.592C154.156 188.338 155.357 188.597 156.385 188.511C155.328 190.863 152.813 191.523 149.869 189.802C145.983 187.535 142.839 182.055 142.839 177.55C142.839 174.509 144.296 172.73 146.411 172.557Z" fill="#A9CFFF"/>
<path d="M194.139 295.506C194.139 300.01 197.282 305.491 201.169 307.757C205.056 310.024 208.2 308.188 208.2 303.683C208.2 299.178 205.056 293.698 201.169 291.431C197.282 289.164 194.139 291.001 194.139 295.506Z" fill="#1263FF"/>
<path d="M168.504 280.614C168.504 285.119 171.648 290.599 175.534 292.866C179.421 295.132 182.565 293.296 182.565 288.791C182.565 284.287 179.421 278.806 175.534 276.54C171.648 274.273 168.504 276.109 168.504 280.614Z" fill="#1263FF"/>
<path d="M142.839 265.751C142.839 270.256 145.983 275.736 149.869 278.003C153.756 280.27 156.9 278.433 156.9 273.929C156.9 269.424 153.756 263.944 149.869 261.677C145.983 259.41 142.839 261.247 142.839 265.751Z" fill="#1263FF"/>
<path d="M197.711 290.513C197.368 291.259 197.168 292.206 197.168 293.296C197.168 297.801 200.312 303.281 204.199 305.548C205.456 306.294 206.656 306.552 207.685 306.466C206.628 308.848 204.113 309.479 201.169 307.757C197.282 305.491 194.139 300.01 194.139 295.506C194.139 292.464 195.596 290.685 197.711 290.513Z" fill="#A9CFFF"/>
<path d="M172.046 275.622C171.703 276.368 171.503 277.314 171.503 278.405C171.503 282.91 174.647 288.39 178.533 290.657C179.791 291.403 180.991 291.661 182.02 291.575C180.963 293.956 178.448 294.587 175.504 292.866C171.617 290.599 168.474 285.119 168.474 280.614C168.474 277.573 169.931 275.794 172.046 275.622Z" fill="#A9CFFF"/>
<path d="M146.411 260.759C146.068 261.505 145.868 262.451 145.868 263.542C145.868 268.046 149.012 273.527 152.899 275.794C154.156 276.54 155.357 276.798 156.385 276.712C155.328 279.093 152.813 279.724 149.869 278.003C145.983 275.736 142.839 270.256 142.839 265.751C142.839 262.71 144.296 260.931 146.411 260.759Z" fill="#A9CFFF"/>
<path d="M237.122 168.397L360.355 96.9809V74.6006L237.122 146.017V168.397Z" fill="url(#paint18_linear_2377_1164)"/>
<path d="M237.122 146.017L360.355 74.6006L237.15 3.18457L113.917 74.6006L237.122 146.017Z" fill="url(#paint19_linear_2377_1164)"/>
<path d="M237.122 143.262L357.983 73.2233L360.355 74.6005L237.122 146.017L113.917 74.6005L116.289 73.2233L237.122 143.262Z" fill="#A9CFFF"/>
<path d="M113.917 96.9809L237.15 168.397V146.017L113.917 74.6006V96.9809Z" fill="url(#paint20_linear_2377_1164)"/>
<path opacity="0.5" d="M360.354 188.224V221.565L237.121 292.981L237.15 259.64L360.354 188.224Z" fill="#1263FF"/>
<path opacity="0.5" d="M113.917 188.224V221.565L237.122 292.981L237.15 259.64L113.917 188.224Z" fill="#1263FF"/>
<path d="M272.56 311.114L324.917 280.786C329.546 278.089 333.319 270.887 333.319 264.69C333.319 258.492 329.575 255.623 324.917 258.32L272.56 288.648C267.93 291.345 264.157 298.547 264.157 304.745C264.157 310.942 267.901 313.812 272.56 311.114Z" fill="#1263FF"/>
<path d="M315.972 275.048C320.602 272.351 324.374 265.149 324.374 258.951C324.374 258.836 324.374 258.722 324.374 258.607L324.917 258.291C329.547 255.594 333.319 258.463 333.319 264.661C333.319 270.859 329.576 278.06 324.917 280.758L272.56 311.086C268.016 313.725 264.329 311.028 264.187 305.06L315.972 275.048Z" fill="url(#paint21_linear_2377_1164)"/>
<path d="M124.376 486.829C124.176 486.829 123.976 486.771 123.776 486.656L0.600162 415.24C0.228633 415.039 0 414.638 0 414.207C0 413.777 0.228633 413.404 0.600162 413.174L57.6727 380.207C58.0443 380.006 58.4729 380.006 58.8445 380.207L182.049 451.623C182.421 451.823 182.649 452.225 182.649 452.656C182.649 453.086 182.421 453.459 182.049 453.688L124.977 486.656C124.805 486.771 124.605 486.8 124.405 486.8L124.376 486.829ZM3.54382 414.207L124.405 484.246L179.134 452.656L58.2729 382.617L3.54382 414.207Z" fill="#1263FF"/>
<path d="M58.2441 163.577V306.409L181.449 377.825V234.993L58.2441 163.577ZM72.9624 189.142L166.759 243.515V352.26L72.9624 297.887V189.142Z" fill="url(#paint22_linear_2377_1164)"/>
<path d="M41.3828 173.275V316.107L164.588 387.523V244.691L41.3828 173.275ZM56.0725 198.84L149.869 253.213V361.958L56.0725 307.585V198.84Z" fill="url(#paint23_linear_2377_1164)"/>
<path d="M41.3828 173.275L58.2445 163.577L181.449 234.993L164.588 244.691L41.3828 173.275Z" fill="url(#paint24_linear_2377_1164)"/>
<path d="M181.449 234.993L164.587 244.691V387.523L181.449 377.825V234.993Z" fill="url(#paint25_linear_2377_1164)"/>
<path d="M72.9616 297.887L56.0713 307.585V198.84L72.933 208.624L72.9616 297.887Z" fill="url(#paint26_linear_2377_1164)"/>
<path d="M72.9616 297.887L56.0713 307.585L149.868 361.929L149.897 342.476L72.9616 297.887Z" fill="url(#paint27_linear_2377_1164)"/>
<path opacity="0.5" d="M65.1035 302.392V204.12L149.869 253.213V350.711L65.1035 302.392Z" fill="#7BAEFF"/>
<path d="M18.0625 186.847V329.679L141.267 401.095V258.263L18.0625 186.847ZM32.7522 212.412L126.549 266.784V375.53L32.7522 321.157V212.412Z" fill="url(#paint28_linear_2377_1164)"/>
<path d="M1.17188 196.545V339.377L124.377 410.793V267.961L1.17188 196.545ZM15.8901 222.11L109.687 276.482V385.228L15.8901 330.855V222.11Z" fill="url(#paint29_linear_2377_1164)"/>
<path d="M1.17188 196.545L18.0622 186.847L141.267 258.263L124.377 267.961L1.17188 196.545Z" fill="url(#paint30_linear_2377_1164)"/>
<path d="M141.267 258.263L124.377 267.961V410.793L141.267 401.095V258.263Z" fill="url(#paint31_linear_2377_1164)"/>
<path d="M32.7523 321.157L15.8906 330.855V222.11L32.7523 231.894V321.157Z" fill="url(#paint32_linear_2377_1164)"/>
<path d="M32.7523 321.157L15.8906 330.855L109.687 385.199V365.745L32.7523 321.157Z" fill="url(#paint33_linear_2377_1164)"/>
<path opacity="0.5" d="M24.9209 325.662V227.389L109.687 276.482V373.98L24.9209 325.662Z" fill="#7BAEFF"/>
<path d="M124.377 267.961L1.17188 196.545L4.08695 194.938L127.292 266.354V409.186L124.377 410.793V267.961Z" fill="#A9CFFF"/>
<path d="M164.589 244.691L41.3838 173.275L44.2989 171.668L167.504 243.084V385.916L164.589 387.523V244.691Z" fill="#A9CFFF"/>
<path d="M15.8906 222.11L18.7771 223.803V329.248L109.687 381.928V385.199L15.8906 330.855V222.11Z" fill="#A9CFFF"/>
<path opacity="0.5" d="M18.0625 186.847L41.3831 173.275L164.588 244.691V387.523L141.267 401.095V258.263L18.0625 186.847Z" fill="#1263FF"/>
<path opacity="0.5" d="M164.588 244.691L141.267 258.263L18.0625 186.847L41.3831 173.275L164.588 244.691Z" fill="#1263FF"/>
<path d="M318.486 335.905C318.486 331.142 321.373 325.633 324.917 323.567L365.042 300.326C366.728 299.351 368.271 299.351 369.414 300.097L413.712 325.805L364.87 366.75L320.658 341.098C319.344 340.295 318.486 338.487 318.486 335.905Z" fill="url(#paint34_linear_2377_1164)"/>
<path d="M369.1 366.405L409.225 343.164C412.769 341.098 415.656 335.589 415.656 330.826C415.656 326.063 412.769 323.883 409.225 325.949L369.1 349.19C365.556 351.255 362.67 356.764 362.67 361.527C362.67 366.29 365.556 368.471 369.1 366.405Z" fill="url(#paint35_linear_2377_1164)"/>
<path d="M404.309 408.469L469.726 370.566V341.443L404.309 379.346V408.469Z" fill="url(#paint36_linear_2377_1164)"/>
<path d="M404.309 379.346L469.727 341.443L404.309 303.54L338.92 341.443L404.309 379.346Z" fill="url(#paint37_linear_2377_1164)"/>
<path d="M338.92 370.566L404.309 408.469V379.346L338.92 341.443V370.566Z" fill="url(#paint38_linear_2377_1164)"/>
<path d="M404.309 377.882L468.469 340.697L469.727 341.443L404.309 379.346L338.92 341.443L340.177 340.697L404.309 377.882Z" fill="#A9CFFF"/>
<path d="M416.913 384.51L454.866 362.274L486.846 387.982L489.561 410.162V430.39L639.287 520.915L670.839 539.652L666.038 554.142L644.089 562.893L613.709 553.826L536.917 505.565L469.727 468.121L450.922 453.631L449.722 422.844L447.293 404.108L416.913 384.51Z" fill="#1263FF"/>
<path d="M642.488 568C648.718 568 654.949 566.365 660.636 563.065C672.01 556.466 678.783 544.673 678.783 531.474V163.692C678.783 160.937 676.554 158.699 673.811 158.699C671.067 158.699 668.838 160.937 668.838 163.692V531.474C668.838 541.058 663.894 549.637 655.634 554.428C647.375 559.22 637.487 559.22 629.227 554.428L464.526 458.824C458.753 455.467 455.18 449.241 455.18 442.556V419.745C455.18 409.502 449.693 399.976 440.862 394.84L422.4 384.137C420.028 382.76 416.998 383.564 415.627 385.974C414.255 388.355 415.084 391.397 417.456 392.774L435.918 403.476C441.691 406.833 445.263 413.06 445.263 419.745V442.556C445.263 452.799 450.75 462.325 459.581 467.461L624.283 563.065C629.97 566.365 636.201 568 642.431 568H642.488Z" fill="#1263FF"/>
<path d="M453.037 364.081C454.409 361.7 457.438 360.896 459.81 362.245L478.273 372.947C487.103 378.055 492.591 387.609 492.591 397.853V420.663C492.591 427.349 496.163 433.575 501.936 436.932L673.782 536.668C677.183 538.648 680.841 539.795 684.557 540.14C684.214 543.439 684.328 546.796 684.071 550.125C678.812 549.694 673.611 548.087 668.81 545.304L496.963 445.568C488.132 440.461 482.645 430.907 482.645 420.663V397.853C482.645 391.167 479.073 384.941 473.3 381.584L454.838 370.881C452.465 369.504 451.665 366.463 453.008 364.081H453.037Z" fill="#1263FF"/>
<path d="M656.777 565.016L671.867 546.079L674.011 523.67V469.326L673.868 183.891L713.393 190.634V172.185C713.393 169.43 715.622 167.192 718.365 167.192C721.109 167.192 723.338 169.43 723.338 172.185V513.771C723.338 526.941 716.536 538.762 705.19 545.362C703.133 546.538 701.018 547.514 698.846 548.26L656.835 565.045L656.777 565.016Z" fill="url(#paint39_linear_2377_1164)"/>
<path d="M642.488 568C648.718 568 654.949 566.365 660.636 563.065C672.01 556.466 678.783 544.673 678.783 531.474V163.692C678.783 160.937 676.554 158.699 673.811 158.699C671.067 158.699 668.838 160.937 668.838 163.692V531.474C668.838 541.058 663.894 549.637 655.634 554.428C647.375 559.22 637.487 559.22 629.227 554.428L464.526 458.824C458.753 455.467 455.18 449.241 455.18 442.556V419.745C455.18 409.502 449.693 399.976 440.862 394.84L422.4 384.137C420.028 382.76 416.998 383.564 415.627 385.974C414.255 388.355 415.084 391.397 417.456 392.774L435.918 403.476C441.691 406.833 445.263 413.06 445.263 419.745V442.556C445.263 452.799 450.75 462.325 459.581 467.461L624.283 563.065C629.97 566.365 636.201 568 642.431 568H642.488Z" fill="url(#paint40_linear_2377_1164)"/>
<path opacity="0.2" d="M390.506 394.496L397.193 398.369V384.912L390.506 381.039V394.496Z" fill="#1263FF"/>
<path opacity="0.2" d="M379.388 388.068L386.075 391.942V378.456L379.388 374.611V388.068Z" fill="#1263FF"/>
<path opacity="0.2" d="M368.271 381.613L374.958 385.486V372.029L368.271 368.156V381.613Z" fill="#1263FF"/>
<path d="M357.153 375.157L363.841 379.03V365.573L357.153 361.7V375.157Z" fill="#1263FF"/>
<path d="M346.036 368.729L352.724 372.603V359.146L346.036 355.273V368.729Z" fill="#1263FF"/>
<path d="M691.473 196.315H688.615V275.564H691.473V196.315Z" fill="#5E93FC"/>
<path d="M703.104 196.315H698.103V439.801H703.104V196.315Z" fill="#5E93FC"/>
<path d="M714.05 189.113H710.706V298.232H714.05V189.113Z" fill="#5E93FC"/>
<path d="M714.651 305.462H710.106V505.278H714.651V305.462Z" fill="#5E93FC"/>
<path d="M701.618 446.228H699.561V487.804H701.618V446.228Z" fill="#5E93FC"/>
<path d="M691.044 286.812H689.044V325.719H691.044V286.812Z" fill="#5E93FC"/>
<path d="M691.815 335.819H688.3V455.869H691.815V335.819Z" fill="#5E93FC"/>
<path d="M826.71 39.854L772.524 8.23463C764.437 3.41426 753.205 4.0168 740.744 11.2187C736.686 13.5715 732.742 16.4981 729.027 19.8552L707.192 7.20169C695.189 -1.26265 677.842 -0.889645 658.522 10.3005C634.087 24.4747 612.767 52.3353 601.507 81.86C597.763 81.9748 593.619 83.2086 589.218 85.7622C573.271 95.0013 560.324 117.496 560.324 135.974C560.324 136.376 560.353 136.749 560.381 137.122C555.837 137.438 550.807 139.045 545.52 142.115C525.115 153.936 508.567 182.715 508.567 206.358C508.567 218.064 512.626 226.328 519.227 230.259L519.399 230.373C519.399 230.373 519.399 230.373 519.427 230.373L572.899 261.534L584.588 205.124L740.802 114.57C760.778 103.007 777.669 77.9865 783.356 53.7412L826.768 39.7966L826.71 39.854Z" fill="url(#paint41_linear_2377_1164)"/>
<path d="M510.024 207.677C510.024 184.035 526.572 155.256 546.977 143.435C552.264 140.364 557.294 138.758 561.838 138.442C561.838 138.04 561.781 137.696 561.781 137.294C561.781 118.816 574.699 96.3211 590.675 87.0821C595.076 84.5284 599.248 83.2947 602.964 83.1799C614.224 53.6551 635.544 25.7945 659.979 11.6204C679.299 0.372834 696.675 -0.000171185 708.649 8.49286L730.484 21.1463C734.228 17.7893 738.143 14.8626 742.201 12.5098C754.633 5.30797 765.893 4.70543 773.981 9.5258L826.224 39.9974L826.681 39.854L772.495 8.23463C764.407 3.41426 753.176 4.0168 740.715 11.2187C736.657 13.5715 732.713 16.4981 728.998 19.8552L707.163 7.20169C695.16 -1.26265 677.812 -0.889645 658.493 10.3005C634.058 24.4747 612.738 52.3353 601.478 81.86C597.734 81.9748 593.59 83.2086 589.188 85.7622C573.241 95.0013 560.295 117.496 560.295 135.974C560.295 136.376 560.324 136.749 560.352 137.122C555.808 137.438 550.778 139.045 545.491 142.115C525.085 153.936 508.538 182.715 508.538 206.358C508.538 217.003 511.91 224.75 517.455 229.025C512.796 224.549 509.996 217.289 509.996 207.649L510.024 207.677Z" fill="#1263FF"/>
<path d="M794.416 42.4937C787.414 46.5681 780.783 52.2779 774.867 59.0207C766.694 32.6234 741.716 24.4173 712.165 41.5469C687.73 55.721 666.41 83.5816 655.149 113.106C651.405 113.221 647.262 114.455 642.86 117.009C626.913 126.248 613.967 148.743 613.967 167.221C613.967 167.622 613.995 167.995 614.024 168.368C609.48 168.684 604.45 170.291 599.163 173.361C578.757 185.182 562.21 213.961 562.21 237.604C562.21 261.247 578.757 270.83 599.163 259.009L794.416 145.816C819.051 131.556 838.999 96.8376 838.999 68.2884C838.999 39.7392 819.022 28.1761 794.416 42.4363V42.4937Z" fill="url(#paint42_linear_2377_1164)"/>
<path style="mix-blend-mode:lighten" opacity="0.7" d="M794.416 42.4937C787.414 46.5681 780.783 52.2779 774.867 59.0207C766.694 32.6234 741.716 24.4173 712.165 41.5469C687.73 55.721 666.41 83.5816 655.149 113.106C651.405 113.221 647.262 114.455 642.86 117.009C626.913 126.248 613.967 148.743 613.967 167.221C613.967 167.622 613.995 167.995 614.024 168.368C609.48 168.684 604.45 170.291 599.163 173.361C578.757 185.182 562.21 213.961 562.21 237.604C562.21 261.247 578.757 270.83 599.163 259.009L794.416 145.816C819.051 131.556 838.999 96.8376 838.999 68.2884C838.999 39.7392 819.022 28.1761 794.416 42.4363V42.4937Z" fill="url(#paint43_linear_2377_1164)"/>
<path d="M794.416 42.4937C787.414 46.5681 780.783 52.2779 774.867 59.0207C766.694 32.6234 741.716 24.4173 712.165 41.5469C687.73 55.721 666.41 83.5816 655.149 113.106C651.405 113.221 647.262 114.455 642.86 117.009C626.913 126.248 613.967 148.743 613.967 167.221C613.967 167.622 613.995 167.995 614.024 168.368C609.48 168.684 604.45 170.291 599.163 173.361C578.757 185.182 562.21 213.961 562.21 237.604C562.21 261.247 578.757 270.83 599.163 259.009L794.416 145.816C819.051 131.556 838.999 96.8376 838.999 68.2884C838.999 39.7392 819.022 28.1761 794.416 42.4363V42.4937Z" fill="#1263FF"/>
<path style="mix-blend-mode:lighten" opacity="0.7" d="M777.239 62.0336C783.126 55.2621 789.756 49.5522 796.787 45.5066C811.905 36.7553 825.251 37.7596 833.311 46.4247C825.68 35.0911 811.133 32.8531 794.415 42.5225C787.756 46.3674 781.468 51.7616 775.81 58.074C776.324 59.3651 776.838 60.6563 777.267 62.0336H777.239Z" fill="url(#paint44_linear_2377_1164)"/>
<defs>
<linearGradient id="paint0_linear_2377_1164" x1="500.563" y1="78.4741" x2="298.547" y2="139.118" gradientUnits="userSpaceOnUse">
<stop stop-color="#6C8AF4"/>
<stop offset="1" stop-color="#174DF2"/>
</linearGradient>
<linearGradient id="paint1_linear_2377_1164" x1="485.759" y1="100.883" x2="277.632" y2="134.879" gradientUnits="userSpaceOnUse">
<stop stop-color="#6C8AF4"/>
<stop offset="1" stop-color="#174DF2"/>
</linearGradient>
<linearGradient id="paint2_linear_2377_1164" x1="459.295" y1="14.1739" x2="330.219" y2="68.8094" gradientUnits="userSpaceOnUse">
<stop stop-color="#7BAEFF"/>
<stop offset="1" stop-color="#5E93FC"/>
</linearGradient>
<linearGradient id="paint3_linear_2377_1164" x1="494.791" y1="132.101" x2="381.733" y2="180.953" gradientUnits="userSpaceOnUse">
<stop stop-color="#3C73F8"/>
<stop offset="1" stop-color="#6C8AF4"/>
</linearGradient>
<linearGradient id="paint4_linear_2377_1164" x1="374.958" y1="71.8748" x2="326.888" y2="97.6539" gradientUnits="userSpaceOnUse">
<stop stop-color="#7BAEFF"/>
<stop offset="1" stop-color="#5E93FC"/>
</linearGradient>
<linearGradient id="paint5_linear_2377_1164" x1="435.917" y1="166.331" x2="342.12" y2="166.331" gradientUnits="userSpaceOnUse">
<stop stop-color="#7BAEFF"/>
<stop offset="1" stop-color="#5E93FC"/>
</linearGradient>
<linearGradient id="paint6_linear_2377_1164" x1="460.352" y1="101.744" x2="258.336" y2="162.388" gradientUnits="userSpaceOnUse">
<stop stop-color="#6C8AF4"/>
<stop offset="1" stop-color="#174DF2"/>
</linearGradient>
<linearGradient id="paint7_linear_2377_1164" x1="445.577" y1="124.153" x2="237.449" y2="158.149" gradientUnits="userSpaceOnUse">
<stop stop-color="#6C8AF4"/>
<stop offset="1" stop-color="#174DF2"/>
</linearGradient>
<linearGradient id="paint8_linear_2377_1164" x1="419.084" y1="37.4436" x2="290.008" y2="92.079" gradientUnits="userSpaceOnUse">
<stop stop-color="#7BAEFF"/>
<stop offset="1" stop-color="#5E93FC"/>
</linearGradient>
<linearGradient id="paint9_linear_2377_1164" x1="454.609" y1="155.371" x2="341.523" y2="204.222" gradientUnits="userSpaceOnUse">
<stop stop-color="#3C73F8"/>
<stop offset="1" stop-color="#6C8AF4"/>
</linearGradient>
<linearGradient id="paint10_linear_2377_1164" x1="334.747" y1="95.1447" x2="286.677" y2="120.924" gradientUnits="userSpaceOnUse">
<stop stop-color="#7BAEFF"/>
<stop offset="1" stop-color="#5E93FC"/>
</linearGradient>
<linearGradient id="paint11_linear_2377_1164" x1="395.706" y1="189.601" x2="301.909" y2="189.601" gradientUnits="userSpaceOnUse">
<stop stop-color="#7BAEFF"/>
<stop offset="1" stop-color="#5E93FC"/>
</linearGradient>
<linearGradient id="paint12_linear_2377_1164" x1="371.187" y1="234.562" x2="216.208" y2="340.983" gradientUnits="userSpaceOnUse">
<stop stop-color="#3C73F8"/>
<stop offset="1" stop-color="#6C8AF4"/>
</linearGradient>
<linearGradient id="paint13_linear_2377_1164" x1="329.489" y1="181.739" x2="155.342" y2="256.27" gradientUnits="userSpaceOnUse">
<stop stop-color="#7BAEFF"/>
<stop offset="1" stop-color="#5E93FC"/>
</linearGradient>
<linearGradient id="paint14_linear_2377_1164" x1="252.926" y1="261.275" x2="87.8013" y2="310.867" gradientUnits="userSpaceOnUse">
<stop stop-color="#6C8AF4"/>
<stop offset="1" stop-color="#174DF2"/>
</linearGradient>
<linearGradient id="paint15_linear_2377_1164" x1="371.187" y1="146.361" x2="216.208" y2="252.782" gradientUnits="userSpaceOnUse">
<stop stop-color="#3C73F8"/>
<stop offset="1" stop-color="#6C8AF4"/>
</linearGradient>
<linearGradient id="paint16_linear_2377_1164" x1="329.489" y1="93.5379" x2="155.342" y2="168.068" gradientUnits="userSpaceOnUse">
<stop stop-color="#7BAEFF"/>
<stop offset="1" stop-color="#5E93FC"/>
</linearGradient>
<linearGradient id="paint17_linear_2377_1164" x1="252.926" y1="173.074" x2="87.8013" y2="222.666" gradientUnits="userSpaceOnUse">
<stop stop-color="#6C8AF4"/>
<stop offset="1" stop-color="#174DF2"/>
</linearGradient>
<linearGradient id="paint18_linear_2377_1164" x1="363.499" y1="76.6665" x2="224.966" y2="171.786" gradientUnits="userSpaceOnUse">
<stop stop-color="#3C73F8"/>
<stop offset="1" stop-color="#6C8AF4"/>
</linearGradient>
<linearGradient id="paint19_linear_2377_1164" x1="329.489" y1="34.7465" x2="155.342" y2="109.277" gradientUnits="userSpaceOnUse">
<stop stop-color="#7BAEFF"/>
<stop offset="1" stop-color="#5E93FC"/>
</linearGradient>
<linearGradient id="paint20_linear_2377_1164" x1="246.524" y1="99.9936" x2="95.0408" y2="145.484" gradientUnits="userSpaceOnUse">
<stop stop-color="#6C8AF4"/>
<stop offset="1" stop-color="#174DF2"/>
</linearGradient>
<linearGradient id="paint21_linear_2377_1164" x1="335.063" y1="262.509" x2="260.31" y2="313.821" gradientUnits="userSpaceOnUse">
<stop stop-color="#6C8AF4"/>
<stop offset="1" stop-color="#174DF2"/>
</linearGradient>
<linearGradient id="paint22_linear_2377_1164" x1="214.544" y1="242.051" x2="12.5275" y2="302.695" gradientUnits="userSpaceOnUse">
<stop stop-color="#6C8AF4"/>
<stop offset="1" stop-color="#174DF2"/>
</linearGradient>
<linearGradient id="paint23_linear_2377_1164" x1="199.74" y1="264.46" x2="-8.38795" y2="298.456" gradientUnits="userSpaceOnUse">
<stop stop-color="#6C8AF4"/>
<stop offset="1" stop-color="#174DF2"/>
</linearGradient>
<linearGradient id="paint24_linear_2377_1164" x1="173.247" y1="177.751" x2="44.1991" y2="232.386" gradientUnits="userSpaceOnUse">
<stop stop-color="#7BAEFF"/>
<stop offset="1" stop-color="#5E93FC"/>
</linearGradient>
<linearGradient id="paint25_linear_2377_1164" x1="208.77" y1="295.678" x2="95.7126" y2="344.53" gradientUnits="userSpaceOnUse">
<stop stop-color="#3C73F8"/>
<stop offset="1" stop-color="#6C8AF4"/>
</linearGradient>
<linearGradient id="paint26_linear_2377_1164" x1="88.9087" y1="235.452" x2="40.8676" y2="261.231" gradientUnits="userSpaceOnUse">
<stop stop-color="#7BAEFF"/>
<stop offset="1" stop-color="#5E93FC"/>
</linearGradient>
<linearGradient id="paint27_linear_2377_1164" x1="149.897" y1="329.908" x2="56.0713" y2="329.908" gradientUnits="userSpaceOnUse">
<stop stop-color="#7BAEFF"/>
<stop offset="1" stop-color="#5E93FC"/>
</linearGradient>
<linearGradient id="paint28_linear_2377_1164" x1="174.333" y1="265.321" x2="-27.6827" y2="325.965" gradientUnits="userSpaceOnUse">
<stop stop-color="#6C8AF4"/>
<stop offset="1" stop-color="#174DF2"/>
</linearGradient>
<linearGradient id="paint29_linear_2377_1164" x1="159.529" y1="287.73" x2="-48.5703" y2="321.725" gradientUnits="userSpaceOnUse">
<stop stop-color="#6C8AF4"/>
<stop offset="1" stop-color="#174DF2"/>
</linearGradient>
<linearGradient id="paint30_linear_2377_1164" x1="133.065" y1="201.021" x2="3.98819" y2="255.656" gradientUnits="userSpaceOnUse">
<stop stop-color="#7BAEFF"/>
<stop offset="1" stop-color="#5E93FC"/>
</linearGradient>
<linearGradient id="paint31_linear_2377_1164" x1="168.56" y1="318.948" x2="55.5027" y2="367.8" gradientUnits="userSpaceOnUse">
<stop stop-color="#3C73F8"/>
<stop offset="1" stop-color="#6C8AF4"/>
</linearGradient>
<linearGradient id="paint32_linear_2377_1164" x1="48.7281" y1="258.722" x2="0.658357" y2="284.501" gradientUnits="userSpaceOnUse">
<stop stop-color="#7BAEFF"/>
<stop offset="1" stop-color="#5E93FC"/>
</linearGradient>
<linearGradient id="paint33_linear_2377_1164" x1="109.687" y1="353.178" x2="15.8906" y2="353.178" gradientUnits="userSpaceOnUse">
<stop stop-color="#7BAEFF"/>
<stop offset="1" stop-color="#5E93FC"/>
</linearGradient>
<linearGradient id="paint34_linear_2377_1164" x1="389.591" y1="314.672" x2="337.247" y2="350.087" gradientUnits="userSpaceOnUse">
<stop stop-color="#3C73F8"/>
<stop offset="0.31" stop-color="#366DF7"/>
<stop offset="0.69" stop-color="#275EF4"/>
<stop offset="1" stop-color="#174DF2"/>
</linearGradient>
<linearGradient id="paint35_linear_2377_1164" x1="2361.99" y1="-815.014" x2="2337.14" y2="-762.878" gradientUnits="userSpaceOnUse">
<stop stop-color="#6C8AF4"/>
<stop offset="1" stop-color="#174DF2"/>
</linearGradient>
<linearGradient id="paint36_linear_2377_1164" x1="475.499" y1="348.329" x2="393.211" y2="404.836" gradientUnits="userSpaceOnUse">
<stop stop-color="#3C73F8"/>
<stop offset="1" stop-color="#6C8AF4"/>
</linearGradient>
<linearGradient id="paint37_linear_2377_1164" x1="453.351" y1="320.296" x2="360.898" y2="359.856" gradientUnits="userSpaceOnUse">
<stop stop-color="#7BAEFF"/>
<stop offset="1" stop-color="#5E93FC"/>
</linearGradient>
<linearGradient id="paint38_linear_2377_1164" x1="412.711" y1="362.532" x2="325.03" y2="388.852" gradientUnits="userSpaceOnUse">
<stop stop-color="#6C8AF4"/>
<stop offset="1" stop-color="#174DF2"/>
</linearGradient>
<linearGradient id="paint39_linear_2377_1164" x1="758.176" y1="366.09" x2="647.089" y2="366.09" gradientUnits="userSpaceOnUse">
<stop stop-color="#3C73F8"/>
<stop offset="1" stop-color="#6C8AF4"/>
</linearGradient>
<linearGradient id="paint40_linear_2377_1164" x1="678.812" y1="363.364" x2="414.998" y2="363.364" gradientUnits="userSpaceOnUse">
<stop stop-color="#7BAEFF"/>
<stop offset="1" stop-color="#5E93FC"/>
</linearGradient>
<linearGradient id="paint41_linear_2377_1164" x1="508.539" y1="131.441" x2="826.711" y2="131.441" gradientUnits="userSpaceOnUse">
<stop stop-color="#5E93FC"/>
<stop offset="1" stop-color="#7BAEFF"/>
</linearGradient>
<linearGradient id="paint42_linear_2377_1164" x1="664.026" y1="145.484" x2="941.38" y2="-14.0131" gradientUnits="userSpaceOnUse">
<stop stop-color="#7042EA"/>
<stop offset="1" stop-color="#591ED4"/>
</linearGradient>
<linearGradient id="paint43_linear_2377_1164" x1="1178.05" y1="146.645" x2="677.584" y2="63.1007" gradientUnits="userSpaceOnUse">
<stop stop-color="#591ED4"/>
<stop offset="0.12" stop-color="#5726D5"/>
<stop offset="0.32" stop-color="#543DD7"/>
<stop offset="0.56" stop-color="#4E63DC"/>
<stop offset="0.84" stop-color="#4697E2"/>
<stop offset="1" stop-color="#42B9E7"/>
</linearGradient>
<linearGradient id="paint44_linear_2377_1164" x1="844.714" y1="86.2502" x2="788.548" y2="40.1014" gradientUnits="userSpaceOnUse">
<stop stop-color="#591ED4"/>
<stop offset="0.12" stop-color="#5726D5"/>
<stop offset="0.32" stop-color="#543DD7"/>
<stop offset="0.56" stop-color="#4E63DC"/>
<stop offset="0.84" stop-color="#4697E2"/>
<stop offset="1" stop-color="#42B9E7"/>
</linearGradient>
</defs>
</svg>
