<svg width="450" height="477" viewBox="0 0 450 477" fill="none" xmlns="http://www.w3.org/2000/svg">
<g clip-path="url(#clip0_2325_633)">
<path d="M293.947 284.768C293.346 297.733 286.037 310.566 272.584 321.971C269.484 324.658 248.778 338.712 235.419 343.334C211.2 351.752 183.467 357.651 154.25 357.651C115.638 357.651 79.676 349.121 52.9954 333.582C32.6844 321.802 20.0581 307.24 16.6572 292.021C20.6781 276.557 33.248 255.72 55.8326 243.864C110.81 214.873 200.208 214.948 254.922 243.902C276.605 255.42 289.551 269.812 293.947 284.75V284.768Z" fill="#3B80F9"/>
<path d="M154.25 358.459C115.47 358.459 79.3757 349.873 52.6012 334.296C32.0834 322.384 19.382 307.841 15.8872 292.228L15.8496 292.04L15.906 291.852C19.9644 276.257 32.4968 255.269 55.4759 243.188C110.641 214.102 200.284 214.121 255.298 243.225C276.436 254.461 290.058 268.741 294.718 284.543L294.756 284.674V284.806C294.136 298.033 286.639 311.092 273.111 322.572C270.33 324.977 249.587 339.276 235.683 344.086C208.25 353.612 180.856 358.459 154.269 358.459H154.25ZM17.4655 292.058C20.9227 307.165 33.3423 321.294 53.3903 332.944C79.9206 348.388 115.733 356.9 154.25 356.9C180.668 356.9 207.875 352.09 235.157 342.62C248.046 338.167 268.695 324.319 272.077 321.407C285.248 310.246 292.539 297.62 293.177 284.881C288.612 269.549 275.271 255.626 254.566 244.635C199.964 215.737 110.979 215.718 56.2087 244.597C33.7557 256.397 21.4864 276.82 17.4655 292.077V292.058Z" fill="#3B80F9"/>
<path d="M55.8333 222.877C110.81 193.904 200.19 193.96 254.923 222.877C287.24 240.031 300.355 263.48 294.286 285.764C290.209 270.47 277.075 255.683 254.923 243.921C200.209 214.948 110.81 214.892 55.8333 243.864C33.2299 255.758 20.66 276.576 16.6391 292.059C10.4575 269.643 23.0838 240.088 55.8333 222.877Z" fill="#83AFFA"/>
<path d="M16.6578 293.768L16.2069 292.171C10.5138 271.578 20.4345 240.971 55.6265 222.482C110.698 193.453 200.19 193.453 255.13 222.482C286.695 239.223 301.125 262.334 294.718 285.877L294.286 287.474L293.854 285.877C289.627 270.019 276.08 255.645 254.697 244.315C200.021 215.361 110.904 215.342 56.0399 244.259C33.399 256.171 21.0545 276.821 17.0712 292.171L16.6578 293.787V293.768ZM155.434 201.589C119.453 201.589 83.472 208.804 56.0587 223.271C22.2194 241.065 12.0169 270.094 16.6766 290.311C21.1485 274.979 33.5305 255.1 55.6453 243.47C110.735 214.441 200.228 214.459 255.148 243.526C276.023 254.612 289.514 268.591 294.286 284.054C299.51 261.507 285.192 239.43 254.735 223.271C227.378 208.823 191.416 201.589 155.453 201.589H155.434Z" fill="#3B80F9"/>
<path d="M309.054 283.697L309.111 305.662C309.111 318.157 304.977 332.587 300.919 339.182C296.24 346.754 290.359 353.405 275.948 364.265L272.679 340.948C272.679 340.948 305.315 302.75 309.054 283.679V283.697Z" fill="#83AFFA"/>
<path d="M275.61 365.092L272.209 340.835L272.341 340.685C272.66 340.309 304.94 302.355 308.622 283.622L309.505 283.716L309.562 305.681C309.562 318.438 305.353 332.85 301.295 339.426C296.804 346.697 291.036 353.461 276.211 364.641L275.61 365.092ZM273.148 341.098L276.286 363.457C290.547 352.635 296.146 346.04 300.543 338.937C304.545 332.474 308.679 318.251 308.679 305.662L308.622 287.117C302.497 306.301 275.572 338.242 273.148 341.079V341.098Z" fill="#3B80F9"/>
<path d="M253.1 345.025C234.893 352.165 228.354 354.326 221.684 356.28C208.663 359.981 195.417 362.687 181.983 364.058C158.459 366.463 134.54 366.031 111.223 361.841C88.4316 357.764 65.6404 350.512 45.5548 338.374C15.68 320.336 0.705078 286.14 0.705078 286.14L0.780235 302.693C0.836602 326.405 15.774 350.061 45.5923 368.136C56.847 374.937 69.1351 380.255 81.5548 384.257C92.7907 387.864 104.29 390.551 115.92 392.393C127.757 394.253 139.67 395.286 151.619 395.286C176.196 395.286 221.684 392.186 253.081 375.708V345.044L253.1 345.025Z" fill="#83AFFA"/>
<path d="M151.638 395.718C140.083 395.718 128.039 394.741 115.864 392.825C104.027 390.946 92.4337 388.203 81.442 384.67C68.1957 380.424 56.0579 374.975 45.3857 368.512C16.394 350.963 0.404454 327.589 0.329297 302.693L0.235352 283.979L1.09965 285.952C1.24997 286.29 16.3752 320.242 45.7427 337.998C63.9493 349.008 86.0078 356.881 111.26 361.409C133.507 365.393 157.275 366.125 181.908 363.626C194.816 362.311 207.78 359.775 221.534 355.866C228.599 353.8 235.4 351.489 252.912 344.631L253.513 344.386V375.971L253.269 376.102C219.505 393.821 170.916 395.718 151.601 395.718H151.638ZM1.15602 288.15L1.23118 302.693C1.28754 327.269 17.1456 350.361 45.8366 367.741C56.4713 374.167 68.5339 379.578 81.7051 383.806C92.6591 387.319 104.196 390.063 115.995 391.923C128.133 393.839 140.121 394.798 151.619 394.798C170.841 394.798 219.073 392.9 252.63 375.407V345.664C235.532 352.353 228.805 354.645 221.778 356.693C207.949 360.62 194.947 363.157 181.983 364.491C157.275 367.008 133.413 366.276 111.091 362.274C85.7072 357.727 63.5736 349.816 45.2541 338.75C19.5882 323.23 4.72596 295.478 1.11844 288.132L1.15602 288.15Z" fill="#3B80F9"/>
<path d="M253.119 375.708L316.401 410.205L316.345 389.123L253.119 354.645V375.708Z" fill="#83AFFA"/>
<path d="M316.852 410.956L252.668 375.971V353.912L316.777 388.86L316.852 410.975V410.956ZM253.57 375.426L315.95 409.434L315.893 389.367L253.57 355.397V375.426Z" fill="#3B80F9"/>
<path d="M274.952 342.15C303.099 325.917 308.735 301.246 309.055 283.96V282.852C309.055 282.683 309.017 282.514 309.017 282.345C309.017 280.39 308.904 278.418 308.623 276.464C308.566 275.768 308.491 275.054 308.322 274.359C308.096 273.006 307.796 271.616 307.458 270.244C307.345 269.793 306.481 266.712 306.086 265.603C305.917 265.077 305.691 264.551 305.522 264.025C305.128 263.029 304.752 262.052 304.32 261.075C304.038 260.474 303.756 259.854 303.493 259.234C303.155 258.501 302.76 257.768 302.385 257.036C301.802 255.927 299.904 252.676 299.585 252.169C299.078 251.342 298.552 250.534 297.969 249.745C297.932 249.67 291.769 241.891 291.243 241.271C290.153 240.107 289.044 238.942 287.861 237.777C286.639 236.518 285.324 235.278 283.934 234.075C280.289 230.881 276.268 227.762 271.815 224.831C270.311 223.798 268.733 222.802 267.117 221.806C266.197 221.242 265.276 220.716 264.374 220.171C204.38 185.317 106.545 185.317 46.157 220.171C45.1799 220.735 44.2405 221.28 43.301 221.843C41.4973 222.952 39.7499 224.098 38.0213 225.226C37.157 225.808 36.3302 226.39 35.4847 226.973C33.8125 228.138 32.2342 229.359 30.6747 230.562C27.5933 232.985 24.7561 235.484 22.1632 238.002C20.8856 239.28 19.6079 240.595 18.443 241.891C17.278 243.169 16.1695 244.484 15.0797 245.781C12.9753 248.43 11.0588 251.136 9.44298 253.898C3.29893 264.006 0.349031 274.622 0.687236 285.219C1.34486 307.484 16.2259 329.599 45.4242 346.585C98.3344 377.324 172.89 385.534 253.119 354.758L320.873 391.547L328.107 370.879L274.952 342.169V342.15ZM235.401 343.353C211.201 351.77 183.468 357.67 154.232 357.67C115.639 357.67 79.6768 349.14 52.9774 333.601C29.4722 319.96 16.2071 302.58 15.7186 284.75C15.4743 277.027 17.6914 269.267 22.4075 261.451C23.61 259.459 25.0755 257.336 26.7102 255.288C27.6309 254.142 28.6079 253.033 29.5662 251.944C30.562 250.835 31.6705 249.727 32.6852 248.712C34.9023 246.514 37.3824 244.353 39.919 242.342C41.253 241.29 42.6622 240.238 44.109 239.223C44.109 239.223 45.7812 238.058 46.2509 237.72C47.8292 236.668 49.4639 235.616 51.0046 234.658C51.8689 234.15 52.7895 233.624 53.635 233.098C80.5975 217.56 116.748 208.973 155.435 208.973C194.121 208.973 230.103 217.541 256.633 232.948L257.835 233.662C258.286 233.906 258.719 234.169 259.357 234.582C260.767 235.447 262.138 236.311 263.529 237.251C267.305 239.75 270.838 242.455 274.107 245.367C275.197 246.288 276.192 247.265 277.376 248.449C278.259 249.332 279.124 250.253 279.988 251.173C281.021 252.395 284.854 257.261 285.906 258.595C286.245 259.102 286.564 259.572 286.846 260.061C287.24 260.643 288.631 263.029 289.101 263.931C289.401 264.495 289.683 265.077 289.909 265.509C290.134 266.017 290.378 266.505 290.585 266.956C290.886 267.708 291.205 268.459 291.506 269.23C291.637 269.624 291.787 270 291.9 270.338C292.182 271.203 292.783 273.344 292.896 273.758C293.14 274.754 293.366 275.75 293.535 276.764C293.591 276.99 293.648 277.422 293.704 277.647C293.704 277.891 293.723 278.155 293.779 278.399C293.948 279.658 294.023 280.935 294.023 282.288V283.622C293.798 296.962 286.376 310.19 272.566 321.914C269.447 324.583 248.76 338.637 235.382 343.278L235.401 343.353Z" fill="white"/>
<path d="M321.135 392.167L253.1 355.228C178.939 383.637 103.181 380.612 45.2169 346.96C16.9204 330.501 0.968458 308.574 0.25447 285.219C-0.0837346 274.472 2.88495 263.856 9.06658 253.653C10.6261 251.004 12.5238 248.261 14.7409 245.499C16.0374 243.94 17.1083 242.699 18.1229 241.591C19.3442 240.219 20.6971 238.848 21.862 237.683C24.5488 235.052 27.4236 232.534 30.411 230.205L30.6177 230.036C32.1021 228.889 33.624 227.724 35.2399 226.597L35.6908 226.278C36.386 225.789 37.0624 225.319 37.7764 224.831C39.3359 223.798 41.1772 222.595 43.0749 221.43L43.7138 221.054C44.4465 220.622 45.1793 220.19 45.9497 219.758C106.432 184.848 204.53 184.848 264.618 219.758C265.087 220.04 265.557 220.322 266.008 220.585C266.459 220.848 266.91 221.111 267.361 221.393C268.883 222.351 270.518 223.365 272.077 224.436C276.342 227.255 280.438 230.393 284.234 233.718C285.511 234.827 286.808 236.048 288.179 237.438C289.232 238.472 290.302 239.58 291.58 240.952C291.655 241.027 297.593 248.449 298.325 249.464C298.889 250.215 299.434 251.023 299.96 251.906C300.298 252.413 302.196 255.683 302.779 256.791C303.173 257.524 303.568 258.276 303.906 259.008L304.733 260.85C305.146 261.827 305.54 262.804 305.935 263.818C306.029 264.1 306.123 264.363 306.217 264.608C306.311 264.871 306.424 265.152 306.499 265.415C306.893 266.543 307.758 269.643 307.87 270.075C308.265 271.691 308.547 273.006 308.735 274.228C308.885 274.81 308.979 275.505 309.035 276.388C309.298 278.23 309.43 280.165 309.43 282.307C309.43 282.382 309.43 282.457 309.43 282.514C309.43 282.608 309.43 282.701 309.43 282.795V283.904C308.979 309.269 297.367 329.374 275.797 342.075L328.595 370.578L321.06 392.111L321.135 392.167ZM253.175 354.251L320.647 390.889L327.58 371.067L274.05 342.169L274.745 341.775C302.177 325.954 308.303 301.603 308.622 283.96V282.852C308.622 282.852 308.622 282.701 308.622 282.645C308.622 282.551 308.622 282.457 308.622 282.363C308.622 280.259 308.49 278.361 308.246 276.539C308.171 275.693 308.096 275.036 307.946 274.472C307.739 273.251 307.476 271.954 307.081 270.357C306.987 269.944 306.123 266.862 305.728 265.754C305.634 265.491 305.54 265.228 305.447 264.965C305.353 264.702 305.24 264.42 305.165 264.157C304.789 263.18 304.394 262.221 303.981 261.244L303.154 259.422C302.816 258.708 302.44 257.975 302.065 257.261C301.463 256.134 299.584 252.902 299.284 252.432C298.758 251.549 298.232 250.76 297.687 250.027L297.63 249.914C297.405 249.633 291.467 242.136 290.979 241.591C289.739 240.257 288.668 239.148 287.616 238.115C286.263 236.724 284.985 235.522 283.707 234.432C279.931 231.125 275.872 228.025 271.645 225.207C270.085 224.136 268.47 223.121 266.966 222.182C266.515 221.919 266.065 221.637 265.614 221.374C265.144 221.092 264.674 220.829 264.204 220.547C204.361 185.787 106.676 185.787 46.4382 220.547C45.6866 220.979 44.9538 221.411 44.2211 221.843L43.5822 222.219C41.7033 223.365 39.862 224.568 38.3213 225.601C37.6261 226.071 36.9309 226.56 36.2545 227.029L35.8035 227.349C34.2252 228.457 32.6845 229.622 31.219 230.768L31.0123 230.919C28.0624 233.23 25.2065 235.729 22.5572 238.322C21.411 239.468 20.0582 240.839 18.8557 242.192C17.8411 243.301 16.7701 244.541 15.5113 246.063C13.3317 248.787 11.434 251.512 9.91209 254.123C3.80562 264.175 0.893301 274.622 1.21272 285.2C1.90791 308.236 17.7096 329.9 45.7242 346.19C103.501 379.747 179.071 382.716 253.025 354.326L253.213 354.251H253.175ZM154.232 358.102C115.526 358.102 79.4883 349.535 52.7513 333.977C29.077 320.242 15.7743 302.75 15.267 284.75C15.0227 276.971 17.2962 269.061 22.0311 261.226C23.2336 259.215 24.7367 257.054 26.3714 255.006C27.1605 254.01 28.0624 252.977 29.2461 251.643C30.2044 250.572 31.2753 249.501 32.2148 248.562L32.3651 248.411C34.5822 246.232 37.0248 244.071 39.6365 242.004C41.0269 240.896 42.4549 239.843 43.8453 238.885C43.8453 238.885 45.5175 237.72 45.9872 237.382C47.5843 236.311 49.2378 235.259 50.7597 234.319L50.9664 234.207C51.7743 233.737 52.601 233.248 53.3902 232.779C80.4653 217.184 116.691 208.597 155.415 208.597C194.14 208.597 230.158 217.127 256.839 232.647L258.042 233.38C258.511 233.643 258.962 233.887 259.582 234.301C261.142 235.259 262.476 236.104 263.753 236.969C267.586 239.505 271.156 242.248 274.388 245.123C275.459 246.044 276.492 247.021 277.676 248.223C278.578 249.125 279.442 250.027 280.307 250.967C281.19 252.019 284.027 255.589 285.549 257.524L286.507 258.783C286.77 259.177 287.033 259.553 287.24 259.948C287.634 260.53 289.025 262.935 289.495 263.818C289.72 264.251 289.946 264.702 290.152 265.077L290.321 265.397C290.434 265.641 290.547 265.885 290.66 266.111C290.791 266.374 290.904 266.618 290.998 266.862C291.317 267.633 291.618 268.384 291.918 269.155C292.069 269.549 292.2 269.944 292.313 270.282C292.595 271.165 293.215 273.307 293.328 273.739C293.609 274.904 293.816 275.862 293.966 276.783C293.985 276.858 294.023 277.046 294.06 277.234C294.079 277.384 294.117 277.534 294.135 277.628C294.135 277.967 294.173 278.173 294.211 278.38C294.399 279.695 294.474 280.992 294.474 282.363V283.697C294.248 297.15 286.77 310.509 272.866 322.328C270.067 324.733 249.286 339.013 235.551 343.785C208.213 353.292 180.856 358.121 154.232 358.121V358.102ZM155.434 209.461C116.86 209.461 80.7847 218.01 53.8599 233.53C53.0708 234.019 52.2252 234.507 51.4173 234.977L51.2106 235.09C49.7075 236.029 48.0728 237.081 46.4758 238.134C46.006 238.453 44.3338 239.637 44.3338 239.637C42.9434 240.595 41.5342 241.647 40.1626 242.737C37.5885 244.785 35.1647 246.908 32.9664 249.069L32.8161 249.219C31.8766 250.159 30.8244 251.211 29.885 252.263C28.7012 253.578 27.8181 254.612 27.029 255.589C25.4131 257.599 23.9476 259.722 22.7639 261.695C18.1229 269.38 15.887 277.14 16.1313 284.75C16.6198 302.43 29.791 319.66 53.1647 333.226C79.7701 348.708 115.657 357.219 154.194 357.219C180.724 357.219 207.968 352.409 235.213 342.94C248.854 338.205 269.465 324.038 272.246 321.651C285.962 310.002 293.328 296.887 293.553 283.697V282.363C293.553 281.029 293.478 279.77 293.309 278.53C293.252 278.286 293.215 278.004 293.215 277.722C293.215 277.722 293.177 277.534 293.14 277.365C293.121 277.215 293.083 277.046 293.065 276.952C292.914 276.013 292.707 275.073 292.426 273.946C292.313 273.532 291.712 271.409 291.43 270.564C291.317 270.244 291.186 269.85 291.035 269.474C290.735 268.704 290.434 267.971 290.133 267.219C290.039 266.994 289.927 266.75 289.814 266.505C289.701 266.28 289.589 266.036 289.476 265.791L289.325 265.472C289.138 265.096 288.931 264.664 288.687 264.232C288.198 263.311 286.827 260.944 286.451 260.399C286.225 259.985 285.981 259.628 285.737 259.271L285.511 258.933L284.816 258.069C283.294 256.152 280.476 252.583 279.611 251.549C278.766 250.647 277.92 249.745 277.019 248.862C275.835 247.679 274.82 246.702 273.768 245.8C270.574 242.962 267.023 240.238 263.227 237.72C261.95 236.856 260.634 236.01 259.075 235.071C258.455 234.676 258.023 234.432 257.609 234.188L256.369 233.436C229.839 218.01 193.971 209.518 155.396 209.518L155.434 209.461Z" fill="#3B80F9"/>
<path d="M316.006 374.148C309.75 381.006 305.428 390.006 304 399.175C303.756 400.81 303.605 402.426 303.605 404.079C303.624 410.994 306.067 415.86 309.994 418.134L411.869 475.084C407.923 472.791 405.499 467.925 405.48 461.01C405.443 451.203 409.839 441.263 415.795 433.616C418.745 429.82 422.296 426.307 426.374 423.752C430.207 421.328 435.129 419.43 439.714 420.445C440.86 420.689 441.95 421.083 442.927 421.666C442.927 421.666 340.808 364.585 340.676 364.528C331.902 359.775 321.568 368.079 316.006 374.186V374.148Z" fill="#C7DAFF"/>
<path d="M411.662 475.478L309.787 418.528C305.541 416.067 303.192 410.937 303.154 404.079C303.154 402.595 303.286 401.017 303.549 399.119C304.977 389.95 309.392 380.743 315.668 373.866C319.012 370.184 330.737 358.628 340.883 364.115C341.014 364.171 431.277 414.639 442.889 421.121C442.983 421.177 443.058 421.215 443.152 421.271L442.72 422.042C442.72 422.042 442.607 421.985 442.476 421.891C441.611 421.422 440.653 421.084 439.639 420.858C434.566 419.731 429.305 422.418 426.618 424.109C422.879 426.457 419.365 429.745 416.152 433.879C409.632 442.259 405.893 452.142 405.931 460.992C405.931 467.512 408.148 472.378 412.113 474.689L411.662 475.459V475.478ZM335.096 363.532C327.017 363.532 318.975 371.537 316.325 374.449C310.163 381.213 305.822 390.251 304.432 399.232C304.169 401.073 304.037 402.614 304.037 404.061C304.056 410.58 306.254 415.447 310.219 417.739L408.411 472.641C406.213 469.841 405.029 465.858 405.01 461.01C404.973 451.973 408.768 441.883 415.419 433.353C418.689 429.144 422.296 425.8 426.11 423.376C428.722 421.722 433.682 419.186 438.699 419.825C419.872 409.303 340.845 365.129 340.432 364.904C338.685 363.965 336.881 363.551 335.077 363.551L335.096 363.532Z" fill="#3B80F9"/>
<path d="M427.332 423.15C415.195 430.159 405.443 447.106 405.481 460.992C405.518 474.896 415.326 480.532 427.483 473.524C439.564 466.553 449.372 449.568 449.334 435.683C449.297 421.798 439.433 416.18 427.332 423.15Z" fill="#83AFFA"/>
<path d="M417.618 477C415.457 477 413.447 476.493 411.681 475.478C407.416 473.017 405.048 467.868 405.029 460.992C404.992 446.975 414.894 429.82 427.107 422.756C433.119 419.28 438.794 418.735 443.115 421.215C447.399 423.676 449.766 428.806 449.785 435.664C449.823 449.699 439.921 466.854 427.708 473.9C424.157 475.948 420.718 476.981 417.618 476.981V477ZM427.558 423.545C415.589 430.459 405.894 447.257 405.931 460.992C405.931 467.549 408.148 472.415 412.132 474.708C416.134 477.019 421.507 476.455 427.257 473.148C439.226 466.253 448.921 449.436 448.883 435.701C448.864 429.182 446.647 424.315 442.664 422.023C438.643 419.712 433.288 420.257 427.558 423.564V423.545Z" fill="#3B80F9"/>
<path d="M284.289 83.6493C262.419 55.0898 213.341 34.8726 156.091 34.2526C117.498 33.8392 82.4187 42.4071 56.7715 56.6305L111.053 88.6284C136.212 74.311 176.703 74.5741 201.504 89.1921C226.325 103.829 226.043 127.278 200.884 141.595L255.842 173.987C280.757 159.539 296.202 139.622 296.446 117.488V83.2547L284.289 83.6868V83.6493Z" fill="white"/>
<path d="M255.843 174.42L255.636 174.307L200.095 141.576L200.678 141.238C212.759 134.361 219.448 125.192 219.523 115.403C219.599 105.689 213.116 96.501 201.298 89.5303C176.647 75.0063 136.25 74.762 111.242 88.9854L111.035 89.0981L55.9639 56.6493L56.5651 56.3111C83.3584 41.4301 118.682 33.4635 156.091 33.8768C211.463 34.4781 261.818 53.8685 284.477 83.2735L296.841 82.8413V117.489C296.615 139.021 282.129 159.219 256.031 174.326L255.824 174.438L255.843 174.42ZM201.655 141.595L255.824 173.518C281.528 158.562 295.807 138.664 296.033 117.47V83.6493L284.083 84.0626L283.951 83.8935C261.498 54.5825 211.294 35.2484 156.054 34.6472C155.152 34.6472 154.231 34.6472 153.329 34.6472C117.367 34.6472 83.49 42.4259 57.5234 56.6681L111.016 88.1962C136.25 73.9729 176.853 74.2547 201.674 88.8726C213.755 95.9937 220.369 105.426 220.294 115.44C220.219 125.361 213.605 134.624 201.636 141.614L201.655 141.595Z" fill="#3B80F9"/>
<path d="M296.446 83.2359C296.202 105.37 280.757 125.305 255.843 139.735L200.884 107.342C226.043 93.025 226.306 69.5762 201.505 54.9395C176.684 40.3215 136.212 40.0772 111.054 54.3758L56.7529 22.3967C82.4001 8.17327 117.498 -0.413363 156.091 -2.27615e-06C234.104 0.845509 296.935 38.1044 296.446 83.2171V83.2359Z" fill="#3B80F9"/>
<path d="M56.7529 56.6305V22.3967L111.054 54.3946V88.6284L56.7529 56.6305Z" fill="white"/>
<path d="M111.448 89.3236L110.847 88.9666L56.377 56.8559V21.7202L56.9782 22.0772L111.448 54.1879V89.3424V89.3236ZM57.1473 56.405L110.64 87.9332V54.62L57.1473 23.0919V56.405Z" fill="#3B80F9"/>
<path d="M200.885 107.342V141.576L255.843 173.969V139.735L200.885 107.342Z" fill="white"/>
<path d="M256.238 174.664L255.636 174.307L200.49 141.802V106.647L201.091 107.004L256.238 139.509V174.664ZM201.279 141.351L255.448 173.274V139.96L201.279 108.038V141.351Z" fill="#3B80F9"/>
<path d="M76.4443 111.551L76.6321 117.733L56.1144 105.651C43.3566 112.904 33.3795 121.152 26.2772 129.965H13.2939V165.42H13.3503C13.7825 177.463 18.8555 189.639 28.8326 201.194L98.8597 181.033C86.1958 166.378 91.0058 149.543 111.129 138.081V103.848L76.4443 111.57V111.551Z" fill="#83AFFA"/>
<path d="M28.7011 201.608L28.532 201.42C18.7053 190.033 13.4631 178.008 12.9558 165.664L12.8994 165.382V129.532H26.0894C33.3608 120.57 43.3942 112.415 55.9266 105.276L56.1332 105.163L76.2188 117L76.0497 111.213L111.524 103.303V138.251L111.317 138.363C100.494 144.526 94.0122 152.23 92.5466 160.647C91.3817 167.43 93.6552 174.363 99.1416 180.714L99.5362 181.184L98.9537 181.353L28.7011 201.589V201.608ZM13.6886 165.175L13.7449 165.401C14.1771 177.576 19.3065 189.451 28.9829 200.706L98.1646 180.77C92.8096 174.363 90.6113 167.374 91.795 160.534C93.2794 151.929 99.8368 144.075 110.753 137.818V104.299L76.8765 111.852L77.0643 118.428L56.1332 106.084C43.7136 113.186 33.7742 121.284 26.5967 130.19L26.484 130.34H13.7073V165.175H13.6886Z" fill="#3B80F9"/>
<path d="M56.1145 71.3987L111.11 103.81C90.9871 115.253 86.1771 132.088 98.841 146.762L28.8139 166.923C0.667739 134.305 11.3588 96.8768 56.1145 71.3987Z" fill="#83AFFA"/>
<path d="M28.7006 167.374L28.5315 167.186C16.0931 152.775 10.9073 136.973 13.5753 121.509C16.8634 102.401 31.519 84.9645 55.9261 71.0606L56.1327 70.9478L111.918 103.829L111.335 104.167C100.513 110.33 94.0304 118.033 92.5649 126.451C91.4 133.234 93.6735 140.167 99.1599 146.518L99.5545 146.987L98.972 147.157L28.7194 167.392L28.7006 167.374ZM56.114 71.8497C32.0263 85.6034 17.5962 102.814 14.3457 121.641C11.734 136.804 16.7883 152.305 28.9636 166.491L98.1453 146.555C92.7904 140.148 90.592 133.159 91.7757 126.319C93.2413 117.808 99.6484 110.048 110.339 103.829L56.114 71.8685V71.8497Z" fill="#3B80F9"/>
<path d="M98.8592 146.762V180.996L28.832 201.175V166.941L98.8592 146.762Z" fill="#83AFFA"/>
<path d="M28.4375 201.683V166.622L28.7193 166.547L99.235 146.236V181.296L98.9532 181.372L28.4375 201.683ZM29.2266 167.223V200.63L98.4646 180.695V147.288L29.2266 167.223Z" fill="#3B80F9"/>
<path d="M98.6912 223.61L78.0044 229.566L54.33 217.616L28.6641 209.518V243.752C31.9334 247.547 35.616 251.136 39.7309 254.48C69.0044 279.432 113.121 295.121 150.775 295.347C150.869 295.347 151.601 295.384 151.601 295.384L151.921 244.09C129.956 243.244 109.27 235.841 98.6912 223.591V223.61Z" fill="white"/>
<path d="M152.015 295.816H151.601C151.601 295.816 150.887 295.76 150.793 295.76C112.106 295.516 68.4217 279.432 39.4864 254.8C35.4092 251.474 31.6701 247.848 28.382 244.015L28.2881 243.902V208.973L54.4614 217.24L78.0605 229.134L98.8413 223.159L99.0104 223.347C109.119 235.033 129.411 242.831 151.958 243.695H152.334V244.09L152.015 295.798V295.816ZM29.0584 243.62C32.2902 247.359 35.9728 250.91 39.9749 254.198C68.7787 278.737 112.257 294.745 150.775 294.99C150.812 294.99 151.019 294.99 151.207 294.99L151.526 244.484C129.035 243.545 108.8 235.747 98.5595 224.061L77.9666 229.979L54.1607 217.973L29.0772 210.063V243.62H29.0584Z" fill="#3B80F9"/>
<path d="M151.939 209.875L151.62 261.169C151.62 261.169 150.868 261.132 150.793 261.132C113.14 260.906 69.0229 245.198 39.7494 220.265C35.6534 216.902 31.9519 213.332 28.6826 209.537L98.7098 189.395C109.288 201.626 129.975 209.048 151.939 209.894V209.875Z" fill="white"/>
<path d="M152.014 261.582H151.601C151.601 261.582 150.887 261.526 150.793 261.526C112.106 261.282 68.4215 245.198 39.4863 220.566C35.409 217.24 31.67 213.614 28.3819 209.781L27.9873 209.311L28.5698 209.142L98.8412 188.925L99.0103 189.113C109.119 200.8 129.411 208.597 151.958 209.461H152.334V209.856L152.014 261.564V261.582ZM29.3777 209.743C32.5343 213.351 36.1042 216.789 39.9936 219.965C68.7973 244.503 112.275 260.511 150.793 260.756C150.831 260.756 151.037 260.756 151.225 260.756L151.545 210.251C129.054 209.311 108.818 201.514 98.5781 189.827L29.3777 209.743Z" fill="#3B80F9"/>
<path d="M214.619 254.443L207.479 250.234C202.444 253.09 197.54 255.138 191.227 256.942C180.761 259.967 169.563 261.132 158.628 260.718L158.346 306.113V306.15C160.6 306.207 162.893 306.207 165.185 306.15C196.356 307.447 230.74 299.424 258.285 284.919C259.694 284.186 261.085 283.415 262.494 282.626V248.393L214.638 254.424L214.619 254.443Z" fill="#C7DAFF"/>
<path d="M171.611 306.676C169.432 306.676 167.29 306.639 165.148 306.545C163.1 306.601 160.845 306.582 158.327 306.545H157.933V306.15L158.214 260.305H158.628C169.845 260.756 181.062 259.459 191.095 256.566C197.315 254.781 202.162 252.789 207.273 249.896L207.48 249.783L214.713 254.048L262.889 247.979V282.889L262.682 283.002C261.198 283.829 259.826 284.58 258.473 285.294C232.676 298.86 200.678 306.695 171.63 306.695L171.611 306.676ZM165.166 305.756C195.755 307.015 230.478 299.104 258.098 284.58C259.394 283.904 260.69 283.19 262.081 282.42V248.862L214.526 254.856L207.461 250.685C202.369 253.541 197.521 255.532 191.321 257.317C181.325 260.192 170.164 261.507 159.004 261.113L158.722 305.756C161.089 305.793 163.194 305.793 165.148 305.756H165.166Z" fill="#3B80F9"/>
<path d="M207.479 215.981L262.494 248.392C261.085 249.182 259.694 249.952 258.285 250.685C230.74 265.171 196.356 273.194 165.185 271.916C162.893 271.973 160.6 271.954 158.346 271.916V271.879L158.628 226.484C169.563 226.916 180.761 225.733 191.227 222.708C197.54 220.904 202.444 218.856 207.479 216V215.981Z" fill="#C7DAFF"/>
<path d="M171.611 272.443C169.432 272.443 167.29 272.405 165.148 272.311C163.118 272.349 160.883 272.349 158.327 272.311H157.933V271.917L158.214 226.071H158.628C169.826 226.522 181.062 225.225 191.095 222.332C197.333 220.547 202.162 218.555 207.273 215.662L207.48 215.549L263.265 248.43L262.663 248.768C261.198 249.595 259.807 250.347 258.455 251.061C232.657 264.626 200.659 272.461 171.611 272.461V272.443ZM165.166 271.522C195.736 272.762 230.478 264.871 258.098 250.347C259.262 249.727 260.446 249.088 261.686 248.392L207.461 216.451C202.369 219.307 197.54 221.299 191.321 223.084C181.325 225.958 170.146 227.273 159.004 226.879L158.722 271.522C161.108 271.56 163.212 271.56 165.148 271.522H165.166Z" fill="#3B80F9"/>
</g>
<defs>
<clipPath id="clip0_2325_633">
<rect width="449.53" height="477" fill="white" transform="translate(0.235352)"/>
</clipPath>
</defs>
</svg>
