<?xml version="1.0" encoding="UTF-8"?>
<svg id="Layer_1" xmlns="http://www.w3.org/2000/svg" version="1.1" viewBox="0 0 32 32">
  <!-- Generator: Adobe Illustrator 29.8.1, SVG Export Plug-In . SVG Version: 2.1.1 Build 2)  -->
  <path d="M25.64,11.42c.78.26,2.83-.19,3.78,0,.33-9.51-15.55-8.33-12.77,1.63,1,3.58,4.89,4.07,7.51,5.69,4.74,2.92-1.23,5.91-3.4,3.19-.54-.68-.49-1.72-.75-2.07-.37-.5-4.86-.05-5.81-.22-1.19,4.39-6.38,3.96-7.61-.2-1.06-3.6-.31-11.26,5.09-9.86,1.49.39,1.49,1.88,1.93,2.18.38.26,1.26.04,1.74.1-.46-.93.87-3.87.77-4.35-.3-1.39-3.5-2.48-4.77-2.58C-.28,4.06-1.29,23.13,7.16,26.46c3.29,1.3,7.44.62,9.63-2.27h.31c2.6,4.66,12.42,3.54,13.18-2.08,1.03-7.58-4.61-6.68-8.62-9.73-1.75-1.33-1.04-3.7,1.38-3.57,2.22.12,2.12,2.45,2.6,2.61h0Z" fill="#fff"/>
</svg>