<?xml version="1.0" encoding="UTF-8"?>
<svg id="Layer_1" xmlns="http://www.w3.org/2000/svg" version="1.1" viewBox="0 0 150 150">
  <!-- Generator: Adobe Illustrator 29.8.1, SVG Export Plug-In . SVG Version: 2.1.1 Build 2)  -->
  <path d="M123.91,50.72c-.35-4.78-2.6-9.31-6.87-11.67-2.55-1.41-6.54-1.39-9.42-1.19-3.99.28-8.13,4.08-8.29,8.17-.33,8.5,7.72,11.7,14.17,14.81,15.81,7.63,33.85,12.57,36.22,33.01,1.75,15.15-4.46,29.27-18.82,35.38-10.9,4.64-27.66,4.71-38.37-.52-5.29-2.58-9.4-6.69-12.87-11.37-3.01,3.31-6.09,6.52-9.87,8.95-8.85,5.69-17.39,6.69-27.79,6.27-7.02-.28-15.39-3.52-21.1-7.53C1.83,111.67-2.27,83.17,1.03,61.62,3.74,43.96,12.48,27.58,29.66,20.57c14.41-5.89,35.28-4.16,45.32,8.91.64.83.95,1,.65,2.11-.53,1.95-1.52,3.99-2.08,6.04-1.42,5.28-1.74,10.68-1.85,16.13-.24.05-.47.11-.72.13-1.48.1-6.86.17-8-.36-1.04-.48-.93-1.51-1.28-2.44-3-8.11-9.09-10.83-17.45-10.4-11.45.59-17.17,11.77-19.07,21.74-2.9,15.22-2.06,44.1,17.87,47.23,9.12,1.43,17.3-2.28,20.66-11.07.54-1.43.81-2.9,1.2-4.35h27.95c.65.21,3-.05,3.3.65.54,5.78,2.28,11.18,7.54,14.22,6.97,4.02,22.16,3.03,22.81-7.25.14-2.14.15-3.82-.97-5.69-3.67-6.12-16.23-10.63-22.67-13.63-14.97-6.96-25.83-14.68-25.75-32.89.05-10.89,3.55-20.31,12.6-26.75,11.42-8.14,32.03-7.01,43.32.95,8.63,6.09,12.52,16.5,12.19,26.88h-21.32Z" fill="#fff"/>
</svg>