<?xml version="1.0" encoding="UTF-8"?>
<svg id="Layer_1" xmlns="http://www.w3.org/2000/svg" version="1.1" viewBox="0 0 515 100">
  <!-- Generator: Adobe Illustrator 29.6.1, SVG Export Plug-In . SVG Version: 2.1.1 Build 9)  -->
  <defs>
    <style>
      .st0 {
        fill: #fff;
      }
    </style>
  </defs>
  <path class="st0" d="M108.27,29.39c3.53,1.15,12.75-.85,17.04,0,1.48-42.84-70.03-37.52-57.51,7.36,4.5,16.13,22.02,18.31,33.84,25.6,21.36,13.16-5.52,26.61-15.31,14.35-2.45-3.08-2.19-7.74-3.36-9.31-1.68-2.25-21.88-.24-26.17-.99-5.37,19.77-28.71,17.84-34.26-.92-4.79-16.2-1.38-50.72,22.94-44.4,6.73,1.75,6.72,8.46,8.71,9.81,1.71,1.16,5.67.17,7.83.46-2.08-4.21,3.92-17.42,3.46-19.58C64.14,5.51,49.72.59,43.98.16-8.46-3.77-13.01,82.09,25.02,97.12c14.82,5.86,33.48,2.79,43.36-10.21l1.41-.02c11.7,21,55.91,15.96,59.34-9.35,4.64-34.14-20.75-30.08-38.81-43.83-7.87-5.99-4.7-16.67,6.23-16.06,9.99.55,9.55,11.02,11.73,11.74h0ZM143.82.14h-2.92v98.45h2.92V.14ZM174.74,10.12c-16.9,2.66-23.69,23.73-12.4,36.31,7.83,8.71,24.48,9.07,32.11,0-1.24-.9-5.52-6.16-6.3-6.17-.44,0-4.45,3.56-7.81,3.79-14.08.97-17.18-19.27-5.57-24.16,8.45-3.57,11.51,2.9,13.24,2.59,1.24-.21,4.94-5.23,6.44-6.27-4.53-5.38-12.89-7.17-19.71-6.1h0ZM299.54,13.91c-.92-1.6-10.64-4.12-13.02-4.09-10.08.15-19.34,8.62-14.01,18.96,3.51,6.79,18.63,5.48,17.45,12.77-1.33,8.22-14.16-.52-15-.37-.59.11-5.33,4.83-5.43,5.4-1.06,5.91,28.99,12.46,30.17-4.96.39-5.73-.42-8.34-5.22-11.43-3.2-2.07-18.86-5.25-11.96-10.62,4.89-3.8,10.94,1.88,11.79,1.88.7,0,6.42-5.46,5.23-7.52h-.01ZM322.8,10.14c-16.34,2.33-23.15,20.68-14.21,34.18,7.18,10.84,25.4,11.69,33.9,2.12-1.51-1.03-5.2-6.05-6.45-6.27-1.33-.23-3.66,3.35-6.76,3.8-13.96,2.01-19.05-17.64-7.91-23.55,9.07-4.81,12.37,2.1,13.83,2.11.48,0,6.58-6.23,6.33-7.24-5.18-4.65-11.87-6.12-18.74-5.14h0ZM488.35,10.12c-24.32,3.81-22.52,38.91-1.95,42.42,38.35,6.53,37.26-47.95,1.95-42.42ZM218.33,10.87c-5.75-.81-13.05.59-18.99,0v40.94h9.74v-15.6c1.16.15,2.8-.38,3.74.17.73.43,6.16,13.86,7.94,14.95,2.35,1.42,8.72-.03,11.7.47l-10.7-17.06c13.51-5.12,10.79-21.86-3.42-23.87ZM264.59,10.87h-27.27v40.94h28.24v-7.8h-18.51v-8.77h16.56v-7.8h-16.56v-7.8h17.53v-8.77ZM374.65,10.87h-26.78c-.11,0-1.46,1.35-1.46,1.46v39.48h29.22v-7.8h-18.02c-2.02,0-1.46-7.14-1.46-8.77h17.53v-7.8h-17.53v-7.8h18.51v-8.77ZM381.47,12.33v39.48h9.74v-26.32l16.56,25.83,11.69.49V10.87h-9.74v26.32l-16.56-25.83c-2.24-.73-10.98-1.34-11.69.97ZM427.24,51.8h21.91c.37,0,5.95-2.39,6.86-2.89,12.84-7.18,13.76-27.61.5-34.69-1.72-.92-8.78-3.36-10.28-3.36h-17.53c-.11,0-1.46,1.35-1.46,1.46v39.48ZM177.91,64.5c-.51-.54-6.02-2.1-7.27-2.04-5.89.25-9.49,5.36-6.84,10.81,1.98,4.06,16.48,3.97,11.27,12.01-3.24,5.02-10.65-1.41-11.26-1.3-2.93.55.28,3.6,1.69,4.13,5.4,2.04,12.72,1.06,13.1-5.75.45-8.11-9.72-6.38-12.44-10.51-2.72-4.12,1.95-7.97,6.15-7.22.37.07,9.32,3.79,5.59-.15h0ZM299.52,85.78c-.43.68-4.06,1.1-5.18,1.16-18.34.96-15.52-22.87-2.03-22.52,1.64.04,9.52,4.33,9.28,1.51-.14-1.63-6.46-3.39-8.23-3.48-18.04-.96-17.59,23.48-5.67,26.18,12.5,2.83,15.59-1.47,13.92-13.45l-8.77.02c.54,3.1,6.33,1.47,6.83,1.93.31.29.11,8.24-.15,8.64h0ZM218.82,63.5h-20.45c.75,3.46,8.11,1.29,8.76,1.95.74.74-.59,17.66,0,20.96.3,1.69,1.04,2.73,2.91,2.45v-23.39c0-.44,7.67.32,8.76,0v-1.94l.02-.02ZM248.88,63.64c-.56-.34-3.26-.35-3.66-.02-.25,3.76-11.04,23.73-9.84,25.22,1.77,2.22,3.43-5.95,5.5-6.66,1.19-.41,12.21-.39,12.84,0,.93.58,1.6,7.39,5.02,6.66-1.58-3.15-8.72-24.49-9.87-25.2h.01ZM342.51,63.5h-15.58v25.34h15.58c.13-2.29.33-1.73-1.44-1.95-7.3-.94-13.63,3.6-12.23-7.36.72-5.68,6.65-2.77,11.27-3.36,1.42-.19,3.02-.74,1.44-1.95h-12.66v-8.78h13.64v-1.95h0ZM491.3,18.86c15.09-2.08,18.14,22.95,3.57,25.09-16.36,2.42-19.16-22.95-3.57-25.09ZM436.98,43.03v-23.39c25.14-4.1,25.12,27.82,0,23.39ZM209.08,28.41v-9.76c15.31-1.28,15.66,11.81,0,9.76ZM251.93,80.06h-10.71l4.88-13.64c2.56.91,6.77,12.68,5.83,13.64Z"/>
</svg>