<svg width="1343" height="972" viewBox="0 0 1343 972" fill="none" xmlns="http://www.w3.org/2000/svg">
<g clip-path="url(#clip0_2450_5)">
<path opacity="0.5" d="M215.12 551.326L109.731 490.42C107.926 489.37 108.145 487.563 110.243 486.366L214.608 426.046C216.681 424.85 219.828 424.703 221.634 425.753L327.022 486.659C328.828 487.709 328.608 489.516 326.51 490.713L222.146 551.032C220.072 552.229 216.925 552.376 215.12 551.326Z" fill="#242993"/>
<path d="M218.096 582.56C216.218 582.56 214.412 582.169 213.046 581.364L58.8908 492.276C57.3783 491.397 56.5488 490.127 56.5244 488.686C56.5244 487.05 57.6466 485.463 59.6227 484.315L212.29 396.082C215.705 394.104 220.731 393.933 223.732 395.667L377.887 484.755C379.4 485.634 380.229 486.904 380.229 488.344C380.229 489.981 379.107 491.568 377.131 492.716L224.463 580.948C222.609 582.023 220.292 582.56 218.072 582.56H218.096ZM214.193 579.385C216.462 580.704 220.658 580.509 223.341 578.97L376.009 490.738C377.228 490.029 377.96 489.15 377.96 488.369C377.96 487.636 377.302 487.099 376.765 486.782L222.609 397.694C220.341 396.375 216.145 396.571 213.461 398.109L60.7936 486.342C59.5739 487.05 58.842 487.929 58.842 488.711C58.842 489.443 59.5007 489.981 60.0374 490.298L214.193 579.385Z" fill="#42FFFF"/>
<path d="M328.218 445.388V425.046H295.113L221.658 382.602C219.853 381.552 216.706 381.698 214.632 382.895L141.495 425.168H108.536V445.583C108.561 446.218 108.951 446.829 109.732 447.268L215.12 508.174C216.926 509.224 220.073 509.078 222.146 507.881L326.51 447.562C327.584 446.927 328.169 446.145 328.218 445.388Z" fill="url(#paint0_linear_2450_5)"/>
<path d="M215.12 487.831L109.731 426.926C107.926 425.876 108.145 424.068 110.243 422.872L214.608 362.552C216.681 361.356 219.828 361.209 221.634 362.259L327.022 423.165C328.828 424.215 328.608 426.022 326.51 427.219L222.146 487.538C220.072 488.735 216.925 488.881 215.12 487.831Z" fill="url(#paint1_linear_2450_5)"/>
<path d="M215.486 480.701L122.075 426.706C120.465 425.778 120.685 424.166 122.514 423.092L215.022 369.634C216.876 368.56 219.658 368.462 221.268 369.366L314.678 423.36C316.264 424.288 316.069 425.9 314.239 426.975L221.731 480.432C219.877 481.506 217.096 481.604 215.486 480.701Z" fill="#242993"/>
<path d="M215.73 476.158L129.906 426.559C128.442 425.705 128.613 424.239 130.321 423.238L215.315 374.128C216.998 373.151 219.584 373.053 221.048 373.883L306.872 423.482C308.335 424.337 308.164 425.802 306.457 426.803L221.463 475.914C219.779 476.891 217.193 476.988 215.73 476.158Z" fill="#4553C7"/>
<path d="M216.413 421.797L206.362 416.01L211.851 412.835L221.878 418.647L216.413 421.797Z" fill="#42FFFF"/>
<path d="M235.051 420.992L225.024 426.779L219.535 423.605L229.586 417.817L235.051 420.992Z" fill="#42FFFF"/>
<path d="M214.12 423.116L208.655 426.291L203.166 423.116L208.655 419.941L214.12 423.116Z" fill="#42FFFF"/>
<path d="M233.075 434.057L227.586 437.231L211.777 428.098L217.266 424.923L233.075 434.057Z" fill="#42FFFF"/>
<path opacity="0.5" d="M1176.4 669.304L1071.01 608.398C1069.21 607.348 1069.43 605.541 1071.53 604.344L1175.89 544.024C1177.96 542.828 1181.11 542.681 1182.92 543.731L1288.3 604.637C1290.11 605.687 1289.89 607.494 1287.79 608.691L1183.43 669.011C1181.35 670.207 1178.21 670.354 1176.4 669.304Z" fill="#242993"/>
<path d="M1179.38 696.655C1177.57 696.655 1175.84 696.288 1174.5 695.507L1026.81 610.132C1025.35 609.277 1024.54 608.056 1024.54 606.664C1024.54 605.077 1025.64 603.538 1027.52 602.439L1173.79 517.894C1177.09 515.989 1181.92 515.818 1184.79 517.479L1332.49 602.854C1333.95 603.709 1334.75 604.93 1334.75 606.322C1334.75 607.909 1333.66 609.448 1331.78 610.547L1185.5 695.092C1183.72 696.118 1181.5 696.63 1179.35 696.63L1179.38 696.655ZM1179.96 518.675C1178.23 518.675 1176.35 519.091 1174.94 519.921L1028.66 604.466C1027.52 605.125 1026.83 605.956 1026.83 606.688C1026.83 607.372 1027.44 607.861 1027.96 608.154L1175.65 693.529C1177.82 694.774 1181.79 694.604 1184.36 693.114L1330.63 608.569C1331.78 607.909 1332.46 607.079 1332.46 606.346C1332.46 605.663 1331.85 605.174 1331.34 604.857L1183.65 519.506C1182.67 518.944 1181.35 518.675 1179.96 518.675Z" fill="#42FFFF"/>
<path d="M1289.5 566.101V545.758H1256.4L1182.94 503.315C1181.14 502.265 1177.99 502.411 1175.91 503.608L1102.78 545.88H1069.82V566.296C1069.84 566.931 1070.23 567.542 1071.01 567.981L1176.4 628.887C1178.21 629.937 1181.35 629.791 1183.43 628.594L1287.79 568.274C1288.87 567.639 1289.45 566.858 1289.5 566.101Z" fill="url(#paint2_linear_2450_5)"/>
<path d="M1176.4 608.544L1071.01 547.639C1069.21 546.589 1069.43 544.781 1071.53 543.585L1175.89 483.265C1177.96 482.069 1181.11 481.922 1182.92 482.972L1288.3 543.878C1290.11 544.928 1289.89 546.735 1287.79 547.932L1183.43 608.251C1181.35 609.448 1178.21 609.594 1176.4 608.544Z" fill="url(#paint3_linear_2450_5)"/>
<path d="M1176.4 608.544L1071.01 547.639C1069.21 546.589 1069.43 544.781 1071.53 543.585L1175.89 483.265C1177.96 482.069 1181.11 481.922 1182.92 482.972L1288.3 543.878C1290.11 544.928 1289.89 546.735 1287.79 547.932L1183.43 608.251C1181.35 609.448 1178.21 609.594 1176.4 608.544Z" fill="url(#paint4_linear_2450_5)"/>
<path d="M1176.77 601.414L1083.36 547.419C1081.77 546.491 1081.97 544.879 1083.8 543.805L1176.3 490.347C1178.16 489.273 1180.94 489.175 1182.55 490.079L1275.96 544.073C1277.55 545.001 1277.35 546.613 1275.52 547.688L1183.01 601.145C1181.16 602.219 1178.38 602.317 1176.77 601.414Z" fill="#242993"/>
<path d="M1177.01 596.895L1091.19 547.297C1089.72 546.442 1089.9 544.977 1091.6 543.975L1176.6 494.865C1178.28 493.888 1180.87 493.79 1182.33 494.621L1268.15 544.22C1269.62 545.074 1269.45 546.54 1267.74 547.541L1182.74 596.651C1181.06 597.628 1178.48 597.726 1177.01 596.895Z" fill="#4553C7"/>
<path d="M1177.7 542.535L1167.64 536.723L1173.13 533.572L1183.16 539.36L1177.7 542.535Z" fill="#42FFFF"/>
<path d="M1196.33 541.705L1186.31 547.517L1180.82 544.342L1190.84 538.554L1196.33 541.705Z" fill="#42FFFF"/>
<path d="M1175.4 543.853L1169.94 547.004L1164.45 543.853L1169.94 540.679L1175.4 543.853Z" fill="#42FFFF"/>
<path d="M1194.33 554.794L1188.87 557.969L1173.06 548.835L1178.55 545.661L1194.33 554.794Z" fill="#42FFFF"/>
<path opacity="0.4" d="M1289.52 518.407L1244.69 518.675L1182.92 482.972C1181.11 481.922 1177.96 482.069 1175.89 483.265L1113.27 519.457L1069.79 519.726V546.149H1069.82C1069.92 546.711 1070.31 547.248 1071.01 547.639L1176.4 608.544C1178.21 609.594 1181.35 609.448 1183.43 608.251L1287.79 547.932C1288.74 547.394 1289.28 546.711 1289.45 546.027L1289.52 545.978V518.382V518.407Z" fill="#42FFFF"/>
<path d="M1289.5 521.02V500.677H1256.4L1182.94 458.234C1181.14 457.184 1177.99 457.33 1175.91 458.527L1102.78 500.799H1069.82V521.215C1069.84 521.85 1070.23 522.461 1071.01 522.9L1176.4 583.806C1178.21 584.856 1181.35 584.71 1183.43 583.513L1287.79 523.193C1288.87 522.558 1289.45 521.777 1289.5 521.02Z" fill="url(#paint5_linear_2450_5)"/>
<path d="M1176.4 563.463L1071.01 502.558C1069.21 501.507 1069.43 499.7 1071.53 498.504L1175.89 438.184C1177.96 436.987 1181.11 436.841 1182.92 437.891L1288.3 498.797C1290.11 499.847 1289.89 501.654 1287.79 502.851L1183.43 563.17C1181.35 564.367 1178.21 564.513 1176.4 563.463Z" fill="url(#paint6_linear_2450_5)"/>
<path d="M1176.77 556.332L1083.36 502.338C1081.77 501.41 1081.97 499.798 1083.8 498.724L1176.3 445.266C1178.16 444.192 1180.94 444.094 1182.55 444.998L1275.96 498.992C1277.55 499.92 1277.35 501.532 1275.52 502.606L1183.01 556.064C1181.16 557.138 1178.38 557.236 1176.77 556.332Z" fill="#242993"/>
<path d="M1177.01 551.814L1091.19 502.215C1089.72 501.361 1089.9 499.896 1091.6 498.894L1176.6 449.784C1178.28 448.807 1180.87 448.709 1182.33 449.54L1268.15 499.138C1269.62 499.993 1269.45 501.458 1267.74 502.46L1182.74 551.57C1181.06 552.547 1178.48 552.645 1177.01 551.814Z" fill="#4553C7"/>
<path d="M1177.7 497.454L1167.64 491.642L1173.13 488.467L1183.16 494.279L1177.7 497.454Z" fill="#42FFFF"/>
<path d="M1196.33 496.623L1186.31 502.411L1180.82 499.261L1190.84 493.449L1196.33 496.623Z" fill="#42FFFF"/>
<path d="M1175.4 498.748L1169.94 501.923L1164.45 498.748L1169.94 495.598L1175.4 498.748Z" fill="#42FFFF"/>
<path d="M1194.33 509.713L1188.87 512.863L1173.06 503.73L1178.55 500.58L1194.33 509.713Z" fill="#42FFFF"/>
<path d="M949.719 937.054C948.036 937.054 946.377 936.614 944.889 935.759L858.382 885.77L859.528 883.767L946.035 933.757C948.304 935.075 951.134 935.075 953.403 933.757L1339.83 710.428C1340.37 710.11 1340.68 709.549 1340.68 708.938C1340.68 708.328 1340.37 707.766 1339.83 707.448L1251.42 656.336L1252.57 654.333L1340.97 705.446C1342.24 706.179 1342.98 707.473 1342.98 708.938C1342.98 710.403 1342.22 711.698 1340.97 712.43L954.549 935.759C953.061 936.614 951.378 937.054 949.719 937.054Z" fill="#42FFFF"/>
<path d="M218.365 746.986C216.218 746.986 214.095 746.449 212.193 745.35L1.82967 623.856C0.683076 623.197 0.0243956 622.025 0 620.706C0 619.387 0.683076 618.215 1.80527 617.556L140.445 537.431L141.592 539.433L2.95186 619.558C2.34197 619.9 2.29318 620.486 2.29318 620.706C2.29318 620.926 2.36637 621.512 2.95186 621.854L213.339 743.323C216.437 745.13 220.292 745.106 223.39 743.323L265.838 718.805L266.985 720.807L224.537 745.326C222.634 746.425 220.487 746.986 218.365 746.986Z" fill="#42FFFF"/>
<path d="M529.724 434.545L586.859 95.1928L582.272 93.2636L589.176 89.3074V89.3562C590.494 88.4527 592.397 88.5259 594.495 89.7225L1051.16 353.639C1054.91 355.813 1057.74 361.356 1057.08 365.239L999.485 707.302C999.193 709.085 998.314 710.257 997.07 710.795L990.313 714.702L989.142 708.377L989.532 708.499L535.628 446.17C531.871 443.996 529.041 438.453 529.7 434.57L529.724 434.545Z" fill="url(#paint7_linear_2450_5)"/>
<path d="M1048.59 362.894L1056.11 359.573C1056.96 361.502 1057.35 363.529 1057.08 365.239L999.486 707.302C999.193 709.085 998.315 710.257 997.071 710.794L990.313 714.702L989.142 708.377L989.532 708.499L966.576 695.214L1048.59 362.919V362.894Z" fill="url(#paint8_linear_2450_5)"/>
<path d="M528.481 450.272L985.141 714.189C988.679 716.216 991.679 715.044 992.313 711.405L1049.91 369.342C1050.57 365.459 1047.74 359.891 1043.98 357.742L587.323 93.8008C583.785 91.7739 580.785 92.9461 580.15 96.5848L522.553 438.648C521.894 442.531 524.724 448.099 528.481 450.248V450.272Z" fill="#242993"/>
<g opacity="0.51">
<path d="M593.3 115.633L1033.47 370.05L978.896 692.186L538.995 437.94L593.3 115.633Z" fill="#4553C7"/>
</g>
<path d="M705.446 972C701.518 972 697.42 971.023 694.151 969.143L208.191 688.181C204.874 686.251 202.971 683.638 202.971 680.977C202.971 678.705 204.337 676.654 206.825 675.213L513.551 497.942C518.82 494.889 527.676 495.231 533.701 498.723L1019.66 779.686C1022.98 781.615 1024.88 784.228 1024.88 786.89C1024.88 789.161 1023.52 791.212 1021.03 792.653L714.302 969.924C711.886 971.316 708.74 972 705.446 972ZM522.382 498.137C519.503 498.137 516.746 498.723 514.697 499.896L207.972 677.167C206.191 678.193 205.264 679.487 205.264 680.952C205.264 682.759 206.752 684.664 209.338 686.178L695.298 967.14C700.591 970.193 708.617 970.559 713.155 967.922L1019.88 790.651C1021.66 789.625 1022.59 788.331 1022.59 786.89C1022.59 785.058 1021.1 783.178 1018.51 781.664L532.555 500.702C529.627 499.016 525.895 498.162 522.382 498.162V498.137Z" fill="#42FFFF"/>
<path opacity="0.5" d="M245.297 684.298L697.323 945.552C702.275 948.41 709.765 948.727 714.034 946.236L983.775 790.333C988.069 787.867 987.532 783.52 982.58 780.663L530.555 519.408C525.602 516.551 518.113 516.233 513.844 518.724L244.102 674.627C239.808 677.094 240.345 681.441 245.297 684.298Z" fill="#242993"/>
<path d="M241.442 612.207L266.375 625.248L516.258 480.823C520.43 478.405 527.749 478.698 532.579 481.507L963.575 730.6C967.698 728.28 986.507 719.244 986.507 719.244L977.383 743.03C977.383 743.03 977.359 743.006 977.334 743.006C976.969 744.056 976.139 745.057 974.773 745.838L711.594 897.956C707.422 900.374 700.103 900.081 695.273 897.272L254.226 642.367C252.25 641.219 251.03 639.827 250.518 638.435H250.493L241.418 612.232L241.442 612.207Z" fill="url(#paint9_linear_2450_5)"/>
<path d="M245.297 616.31L697.323 877.565C702.275 880.422 709.765 880.739 714.034 878.248L983.775 722.345C988.069 719.879 987.532 715.532 982.58 712.675L530.555 451.42C525.602 448.563 518.113 448.245 513.844 450.736L244.102 606.639C239.808 609.106 240.345 613.453 245.297 616.31Z" fill="url(#paint10_linear_2450_5)"/>
<path d="M833.645 821.03V816.073C833.645 815.609 833.352 815.389 833.011 815.585L815.519 825.695C815.178 825.89 814.885 826.452 814.885 826.916V831.873C814.885 832.337 815.178 832.557 815.519 832.362L833.011 822.251C833.352 822.056 833.645 821.494 833.645 821.03Z" fill="#2859CB"/>
<path d="M807.493 836.147V831.189C807.493 830.725 807.2 830.505 806.858 830.701L789.367 840.811C789.025 841.006 788.732 841.568 788.732 842.032V846.989C788.732 847.453 789.025 847.673 789.367 847.478L806.858 837.368C807.2 837.172 807.493 836.611 807.493 836.147Z" fill="#2859CB"/>
<path d="M913.443 707.742L537.824 490.64C535.311 489.199 532.238 489.199 529.725 490.64L395.964 568.103C394.037 569.227 394.037 571.986 395.964 573.109L771.412 790.113C773.924 791.554 776.998 791.554 779.487 790.113L913.418 712.748C915.346 711.649 915.346 708.865 913.418 707.742H913.443Z" fill="#ADC8FF"/>
<path d="M913.443 712.748L912.101 713.53L537.824 497.209C535.311 495.769 532.238 495.769 529.725 497.209L397.306 573.891L395.964 573.109C394.037 572.011 394.037 569.227 395.964 568.103L529.725 490.64C532.238 489.199 535.311 489.199 537.824 490.64L913.443 707.742C915.37 708.865 915.37 711.625 913.443 712.748Z" fill="#91AFFF"/>
<path d="M519.625 510.274L845.916 698.852L860.407 690.476L534.116 501.898L519.625 510.274Z" fill="#242993"/>
<path d="M484.057 530.837L790.099 707.717L804.614 699.316L498.572 522.436L484.057 530.837Z" fill="#242993"/>
<path d="M460.881 544.219L821.228 752.48L835.719 744.08L475.396 535.843L460.881 544.219Z" fill="#242993"/>
<path d="M437.729 557.602L798.052 765.863L812.567 757.487L452.22 549.226L437.729 557.602Z" fill="#242993"/>
<path d="M414.554 571.009L774.876 779.246L789.391 770.87L429.069 562.608L414.554 571.009Z" fill="#242993"/>
<path d="M865.628 710.257L880.119 718.633L894.634 710.257L880.119 701.856L865.628 710.257Z" fill="#242993"/>
<path d="M814.445 721.784L844.549 739.196L859.065 730.795L828.961 713.407L814.445 721.784Z" fill="#242993"/>
<path d="M523.334 760.271L422.043 701.734C418.091 699.439 418.091 695.727 422.043 693.455L491.302 653.43C495.254 651.134 501.67 651.134 505.647 653.43L606.937 711.967C610.889 714.262 610.889 717.974 606.937 720.245L537.678 760.271C533.726 762.567 527.31 762.567 523.334 760.271Z" fill="url(#paint11_linear_2450_5)"/>
<path d="M606.937 715.361L505.647 656.824C501.695 654.529 495.279 654.529 491.302 656.824L422.043 696.85C420.823 697.558 420.018 698.413 419.555 699.292C418.506 697.29 419.311 695.043 422.043 693.455L491.302 653.43C495.254 651.134 501.67 651.134 505.647 653.43L606.937 711.967C609.669 713.554 610.474 715.801 609.425 717.803C608.962 716.9 608.157 716.069 606.937 715.361Z" fill="#91AFFF"/>
<g opacity="0.11">
<mask id="mask0_2450_5" style="mask-type:luminance" maskUnits="userSpaceOnUse" x="538" y="115" width="496" height="578">
<path d="M593.3 115.633L1033.47 370.05L978.896 692.186L538.995 437.94L593.3 115.633Z" fill="white"/>
</mask>
<g mask="url(#mask0_2450_5)">
<path d="M530.09 450.908L982.116 712.162C987.068 715.019 994.557 715.337 998.827 712.846L1268.57 556.943C1272.86 554.477 1272.33 550.13 1267.37 547.272L815.348 286.018C810.395 283.161 802.906 282.843 798.637 285.334L528.895 441.237C524.601 443.703 525.138 448.05 530.09 450.908Z" fill="url(#paint12_linear_2450_5)"/>
<path d="M983.458 497.747L882.167 439.21C878.215 436.915 878.215 433.203 882.167 430.932L951.426 390.906C955.378 388.61 961.794 388.61 965.771 390.906L1067.06 449.443C1071.01 451.738 1071.01 455.45 1067.06 457.721L997.802 497.747C993.85 500.043 987.434 500.043 983.458 497.747Z" fill="url(#paint13_linear_2450_5)"/>
<path d="M1067.06 452.813L965.771 394.276C961.819 391.98 955.403 391.98 951.426 394.276L882.167 434.302C880.947 435.01 880.142 435.865 879.679 436.744C878.63 434.741 879.435 432.495 882.167 430.907L951.426 390.881C955.378 388.586 961.794 388.586 965.771 390.881L1067.06 449.418C1069.79 451.006 1070.6 453.252 1069.55 455.255C1069.09 454.351 1068.28 453.521 1067.06 452.813Z" fill="#91AFFF"/>
<path d="M1111.58 589.228L735.965 372.126C733.452 370.685 730.378 370.685 727.865 372.126L594.105 449.589C592.177 450.712 592.177 453.472 594.105 454.595L969.552 671.599C972.065 673.04 975.139 673.04 977.627 671.599L1111.56 594.234C1113.49 593.135 1113.49 590.351 1111.56 589.228H1111.58Z" fill="#ADC8FF"/>
<path d="M1111.58 594.21L1110.24 594.991L735.965 378.671C733.452 377.23 730.378 377.23 727.865 378.671L595.446 455.352L594.105 454.571C592.177 453.472 592.177 450.688 594.105 449.565L727.865 372.102C730.378 370.661 733.452 370.661 735.965 372.102L1111.58 589.203C1113.51 590.327 1113.51 593.086 1111.58 594.21Z" fill="#91AFFF"/>
<path d="M629.112 444.314L956.33 633.454L943.376 640.927L616.134 451.812L629.112 444.314Z" fill="#242993"/>
<path d="M663.583 424.387L974.602 604.149L961.648 611.646L650.629 431.884L663.583 424.387Z" fill="#242993"/>
<path d="M997.827 617.581L1026.88 634.358L1013.93 641.855L984.873 625.078L997.827 617.581Z" fill="#242993"/>
<path d="M972.187 642.612L992.411 654.285L979.457 661.782L959.209 650.085L972.187 642.612Z" fill="#242993"/>
<path d="M685.173 411.908L1048.5 621.878L1035.52 629.376L672.219 419.405L685.173 411.908Z" fill="#242993"/>
<path d="M706.788 399.429L1070.09 609.399L1057.13 616.872L693.834 406.901L706.788 399.429Z" fill="#242993"/>
<path d="M728.402 386.925L1091.7 596.896L1078.75 604.393L715.424 394.422L728.402 386.925Z" fill="#242993"/>
</g>
</g>
<path opacity="0.42" d="M739.38 688.401L836.767 628.423L617.817 501.898L514.502 571.425L739.38 688.401Z" fill="url(#paint14_radial_2450_5)"/>
<path opacity="0.42" d="M836.767 628.423L859.065 487.368L653.605 369.391V522.29L836.767 628.423Z" fill="url(#paint15_radial_2450_5)"/>
<path opacity="0.5" d="M852.746 312.954L829.473 299.718L830.278 294.687L853.551 307.923L852.746 312.954Z" fill="#42FFFF"/>
<path opacity="0.5" d="M864.7 319.767L856.308 314.981L857.088 309.95L865.48 314.712L864.7 319.767Z" fill="#42FFFF"/>
<path opacity="0.5" d="M873.946 325.018L868.237 321.794L869.042 316.739L874.727 319.987L873.946 325.018Z" fill="#42FFFF"/>
<path opacity="0.5" d="M840.354 318.449L827.668 311.22L828.473 306.189L841.159 313.418L840.354 318.449Z" fill="#42FFFF"/>
<path opacity="0.5" d="M859.455 329.316L843.915 320.476L844.696 315.42L860.236 324.285L859.455 329.316Z" fill="#42FFFF"/>
<path opacity="0.5" d="M868.701 334.591L863.017 331.343L863.797 326.312L869.481 329.536L868.701 334.591Z" fill="#42FFFF"/>
<path opacity="0.5" d="M877.507 339.597L871.799 336.349L872.604 331.318L878.288 334.542L877.507 339.597Z" fill="#42FFFF"/>
<path d="M835.035 327.973L825.862 322.747L826.667 317.691L835.84 322.917L835.035 327.973Z" fill="#42FFFF"/>
<path d="M841.744 331.782L838.597 329.975L839.402 324.944L842.524 326.727L841.744 331.782Z" fill="#42FFFF"/>
<path opacity="0.5" d="M850.99 337.033L845.281 333.785L846.086 328.754L851.77 332.002L850.99 337.033Z" fill="#42FFFF"/>
<path opacity="0.5" d="M857.918 353.517L824.057 334.249L824.862 329.218L858.723 348.486L857.918 353.517Z" fill="#42FFFF"/>
<path opacity="0.5" d="M869.847 360.33L861.479 355.544L862.26 350.513L870.652 355.275L869.847 360.33Z" fill="#42FFFF"/>
<path opacity="0.5" d="M831.425 350.977L822.252 345.751L823.057 340.72L832.23 345.946L831.425 350.977Z" fill="#42FFFF"/>
<path opacity="0.5" d="M852.966 363.237L834.986 353.004L835.767 347.974L853.747 358.206L852.966 363.237Z" fill="#42FFFF"/>
<path opacity="0.5" d="M862.211 368.511L856.527 365.263L857.308 360.232L862.992 363.48L862.211 368.511Z" fill="#42FFFF"/>
<path opacity="0.5" d="M839.231 367.95L820.446 357.278L821.251 352.223L840.012 362.919L839.231 367.95Z" fill="#42FFFF"/>
<path d="M856.357 377.718L842.769 369.976L843.574 364.946L857.138 372.663L856.357 377.718Z" fill="#42FFFF"/>
<path opacity="0.5" d="M869.091 384.947L859.918 379.745L860.699 374.69L869.871 379.916L869.091 384.947Z" fill="#42FFFF"/>
<path opacity="0.5" d="M824.984 372.395L818.642 368.78L819.447 363.75L825.765 367.364L824.984 372.395Z" fill="#42FFFF"/>
<path opacity="0.5" d="M836.914 379.183L828.546 374.421L829.327 369.391L837.719 374.153L836.914 379.183Z" fill="#42FFFF"/>
<path opacity="0.5" d="M853.966 388.903L840.476 381.21L841.256 376.18L854.771 383.848L853.966 388.903Z" fill="#42FFFF"/>
<path opacity="0.5" d="M836.255 391.345L816.836 380.307L817.617 375.251L837.06 386.314L836.255 391.345Z" fill="#42FFFF"/>
<path opacity="0.5" d="M858.015 403.726L839.816 393.372L840.597 388.341L858.796 398.696L858.015 403.726Z" fill="#42FFFF"/>
<path d="M867.261 409.001L861.553 405.753L862.358 400.723L868.042 403.971L867.261 409.001Z" fill="#42FFFF"/>
<path opacity="0.5" d="M876.141 414.057L870.433 410.809L871.238 405.778L876.922 409.026L876.141 414.057Z" fill="#42FFFF"/>
<path opacity="0.5" d="M826.667 398.427L815.03 391.809L815.811 386.778L827.448 393.396L826.667 398.427Z" fill="#42FFFF"/>
<path d="M889.778 334.054L905.928 343.236L906.709 338.181L890.559 328.999L889.778 334.054Z" fill="#42FFFF"/>
<path opacity="0.5" d="M891.438 347.534L904.099 354.738L904.904 349.707L892.218 342.479L891.438 347.534Z" fill="#42FFFF"/>
<path opacity="0.5" d="M893.121 361.039L902.294 366.265L903.099 361.209L893.926 355.983L893.121 361.039Z" fill="#42FFFF"/>
<path opacity="0.5" d="M887.144 370.172L900.488 377.767L901.293 372.736L887.949 365.117L887.144 370.172Z" fill="#42FFFF"/>
<path opacity="0.5" d="M889.51 384.043L898.683 389.269L899.488 384.238L890.315 379.012L889.51 384.043Z" fill="#42FFFF"/>
<path opacity="0.5" d="M885.241 394.153L896.878 400.796L897.683 395.741L886.046 389.123L885.241 394.153Z" fill="#42FFFF"/>
<path opacity="0.5" d="M888.729 408.684L895.072 412.298L895.877 407.267L889.535 403.653L888.729 408.684Z" fill="#42FFFF"/>
<path opacity="0.5" d="M880.996 416.816L893.267 423.8L894.072 418.77L881.777 411.785L880.996 416.816Z" fill="#42FFFF"/>
<path opacity="0.5" d="M879.825 428.685L891.462 435.327L892.267 430.272L880.63 423.654L879.825 428.685Z" fill="#42FFFF"/>
<path opacity="0.5" d="M835.182 403.262L830.229 400.454L831.01 395.423L835.962 398.232L835.182 403.262Z" fill="#42FFFF"/>
<path opacity="0.5" d="M849.868 411.638L838.719 405.289L839.524 400.258L850.648 406.608L849.868 411.638Z" fill="#42FFFF"/>
<path opacity="0.5" d="M943.034 364.14L919.761 350.904L920.541 345.849L943.815 359.109L943.034 364.14Z" fill="#42FFFF"/>
<path opacity="0.5" d="M954.963 370.929L946.571 366.167L947.376 361.136L955.744 365.898L954.963 370.929Z" fill="#42FFFF"/>
<path d="M964.21 376.204L958.525 372.956L959.306 367.925L964.99 371.173L964.21 376.204Z" fill="#42FFFF"/>
<path opacity="0.5" d="M930.616 369.635L917.955 362.406L918.736 357.375L931.421 364.58L930.616 369.635Z" fill="#42FFFF"/>
<path opacity="0.5" d="M949.719 380.502L934.179 371.637L934.984 366.606L950.524 375.447L949.719 380.502Z" fill="#42FFFF"/>
<path d="M958.964 385.752L953.28 382.529L954.061 377.474L959.77 380.722L958.964 385.752Z" fill="#42FFFF"/>
<path opacity="0.5" d="M967.771 390.759L962.087 387.535L962.868 382.48L968.552 385.728L967.771 390.759Z" fill="#42FFFF"/>
<path opacity="0.5" d="M925.323 379.134L916.15 373.908L916.931 368.877L926.104 374.104L925.323 379.134Z" fill="#42FFFF"/>
<path opacity="0.5" d="M932.007 382.944L928.86 381.162L929.665 376.131L932.788 377.914L932.007 382.944Z" fill="#42FFFF"/>
<path opacity="0.5" d="M941.253 388.219L935.569 384.971L936.35 379.94L942.059 383.164L941.253 388.219Z" fill="#42FFFF"/>
<path opacity="0.5" d="M948.206 404.703L914.345 385.435L915.125 380.38L948.986 399.672L948.206 404.703Z" fill="#42FFFF"/>
<path opacity="0.5" d="M960.135 411.492L951.743 406.73L952.548 401.699L960.916 406.461L960.135 411.492Z" fill="#42FFFF"/>
<path opacity="0.5" d="M921.713 402.164L912.54 396.937L913.321 391.907L922.493 397.133L921.713 402.164Z" fill="#42FFFF"/>
<path opacity="0.5" d="M943.23 414.423L925.25 404.19L926.055 399.135L944.035 409.368L943.23 414.423Z" fill="#42FFFF"/>
<path opacity="0.5" d="M952.475 419.673L946.791 416.45L947.572 411.395L953.28 414.642L952.475 419.673Z" fill="#42FFFF"/>
<path d="M929.495 419.136L910.734 408.439L911.515 403.409L930.275 414.105L929.495 419.136Z" fill="#42FFFF"/>
<path opacity="0.5" d="M946.621 428.88L933.057 421.163L933.837 416.132L947.426 423.849L946.621 428.88Z" fill="#42FFFF"/>
<path opacity="0.5" d="M959.354 436.133L950.182 430.907L950.962 425.876L960.135 431.102L959.354 436.133Z" fill="#42FFFF"/>
<path opacity="0.5" d="M915.247 423.581L908.904 419.966L909.709 414.911L916.052 418.525L915.247 423.581Z" fill="#42FFFF"/>
<path opacity="0.5" d="M927.202 430.369L918.81 425.583L919.615 420.552L927.982 425.314L927.202 430.369Z" fill="#42FFFF"/>
<path d="M944.253 440.065L930.738 432.396L931.543 427.341L945.034 435.034L944.253 440.065Z" fill="#42FFFF"/>
<path opacity="0.5" d="M926.519 442.531L907.1 431.468L907.905 426.438L927.324 437.5L926.519 442.531Z" fill="#42FFFF"/>
<path opacity="0.5" d="M948.279 454.913L930.08 444.558L930.885 439.503L949.084 449.882L948.279 454.913Z" fill="#42FFFF"/>
<path opacity="0.5" d="M957.525 460.187L951.841 456.939L952.621 451.884L958.33 455.132L957.525 460.187Z" fill="#42FFFF"/>
<path opacity="0.5" d="M966.405 465.218L960.721 461.995L961.501 456.939L967.186 460.187L966.405 465.218Z" fill="#42FFFF"/>
<path opacity="0.5" d="M916.931 449.613L905.294 442.995L906.099 437.94L917.736 444.558L916.931 449.613Z" fill="#42FFFF"/>
<path d="M980.042 385.215L996.192 394.398L996.973 389.367L980.847 380.185L980.042 385.215Z" fill="#42FFFF"/>
<path opacity="0.5" d="M981.701 398.696L994.387 405.924L995.167 400.869L982.482 393.665L981.701 398.696Z" fill="#42FFFF"/>
<path opacity="0.5" d="M983.409 412.2L992.582 417.426L993.363 412.396L984.19 407.169L983.409 412.2Z" fill="#42FFFF"/>
<path opacity="0.5" d="M977.432 421.334L990.776 428.929L991.557 423.898L978.212 416.303L977.432 421.334Z" fill="#42FFFF"/>
<path opacity="0.5" d="M979.798 435.229L988.971 440.455L989.751 435.4L980.579 430.199L979.798 435.229Z" fill="#42FFFF"/>
<path opacity="0.5" d="M975.529 445.339L987.166 451.957L987.947 446.927L976.31 440.309L975.529 445.339Z" fill="#42FFFF"/>
<path opacity="0.5" d="M979.018 459.87L985.36 463.484L986.141 458.429L979.798 454.815L979.018 459.87Z" fill="#42FFFF"/>
<path opacity="0.5" d="M971.26 468.002L983.555 474.986L984.336 469.956L972.04 462.947L971.26 468.002Z" fill="#42FFFF"/>
<path opacity="0.5" d="M970.113 479.871L981.726 486.489L982.531 481.458L970.894 474.84L970.113 479.871Z" fill="#42FFFF"/>
<path d="M925.444 454.448L920.492 451.64L921.273 446.585L926.225 449.418L925.444 454.448Z" fill="#42FFFF"/>
<path opacity="0.5" d="M940.131 462.825L929.007 456.476L929.788 451.445L940.936 457.77L940.131 462.825Z" fill="#42FFFF"/>
<path opacity="0.5" d="M836.475 416.645L813.226 403.384L814.006 398.354L837.28 411.59L836.475 416.645Z" fill="#42FFFF"/>
<path opacity="0.5" d="M848.428 423.434L840.036 418.647L840.841 413.617L849.209 418.379L848.428 423.434Z" fill="#42FFFF"/>
<path opacity="0.5" d="M857.674 428.684L851.966 425.461L852.771 420.406L858.455 423.654L857.674 428.684Z" fill="#42FFFF"/>
<path opacity="0.5" d="M824.081 422.115L811.396 414.887L812.201 409.856L824.886 417.085L824.081 422.115Z" fill="#42FFFF"/>
<path opacity="0.5" d="M843.184 432.982L827.644 424.142L828.424 419.111L843.964 427.952L843.184 432.982Z" fill="#42FFFF"/>
<path opacity="0.5" d="M852.429 438.257L846.745 435.009L847.526 429.979L853.21 433.202L852.429 438.257Z" fill="#42FFFF"/>
<path opacity="0.5" d="M861.236 443.264L855.527 440.016L856.332 434.985L862.017 438.233L861.236 443.264Z" fill="#42FFFF"/>
<path opacity="0.5" d="M818.764 431.639L809.591 426.413L810.396 421.358L819.569 426.584L818.764 431.639Z" fill="#42FFFF"/>
<path opacity="0.5" d="M825.472 435.449L822.325 433.666L823.13 428.611L826.253 430.394L825.472 435.449Z" fill="#42FFFF"/>
<path opacity="0.5" d="M834.718 440.7L829.01 437.476L829.815 432.421L835.499 435.669L834.718 440.7Z" fill="#42FFFF"/>
<path opacity="0.5" d="M841.646 457.208L807.785 437.915L808.59 432.885L842.451 452.153L841.646 457.208Z" fill="#42FFFF"/>
<path opacity="0.5" d="M853.6 463.997L845.208 459.21L846.013 454.18L854.381 458.942L853.6 463.997Z" fill="#42FFFF"/>
<path opacity="0.5" d="M815.152 454.644L805.979 449.442L806.785 444.387L815.957 449.613L815.152 454.644Z" fill="#42FFFF"/>
<path opacity="0.5" d="M836.693 466.903L818.714 456.671L819.519 451.64L837.474 461.872L836.693 466.903Z" fill="#42FFFF"/>
<path opacity="0.5" d="M845.94 472.178L840.256 468.93L841.037 463.899L846.745 467.147L845.94 472.178Z" fill="#42FFFF"/>
<path opacity="0.5" d="M822.959 471.616L804.175 460.944L804.98 455.914L823.74 466.585L822.959 471.616Z" fill="#42FFFF"/>
<path opacity="0.5" d="M840.084 481.384L826.496 473.643L827.301 468.612L840.865 476.329L840.084 481.384Z" fill="#42FFFF"/>
<path opacity="0.5" d="M852.819 488.638L843.646 483.412L844.427 478.356L853.6 483.583L852.819 488.638Z" fill="#42FFFF"/>
<path opacity="0.5" d="M808.712 476.061L802.369 472.447L803.174 467.416L809.517 471.03L808.712 476.061Z" fill="#42FFFF"/>
<path opacity="0.5" d="M820.641 482.85L812.273 478.088L813.054 473.057L821.446 477.819L820.641 482.85Z" fill="#42FFFF"/>
<path opacity="0.5" d="M837.694 492.569L824.203 484.877L824.984 479.846L838.499 487.514L837.694 492.569Z" fill="#42FFFF"/>
<path opacity="0.5" d="M819.983 495.011L800.564 483.973L801.369 478.918L820.788 489.981L819.983 495.011Z" fill="#42FFFF"/>
<path opacity="0.5" d="M841.744 507.393L823.545 497.039L824.326 492.008L842.525 502.362L841.744 507.393Z" fill="#42FFFF"/>
<path opacity="0.5" d="M850.99 512.668L845.306 509.42L846.086 504.389L851.77 507.637L850.99 512.668Z" fill="#42FFFF"/>
<path opacity="0.5" d="M859.87 517.723L854.161 514.475L854.966 509.444L860.65 512.692L859.87 517.723Z" fill="#42FFFF"/>
<path opacity="0.5" d="M810.395 502.094L798.759 495.476L799.564 490.445L811.2 497.063L810.395 502.094Z" fill="#42FFFF"/>
<path opacity="0.5" d="M873.507 437.72L889.657 446.902L890.437 441.847L874.312 432.665L873.507 437.72Z" fill="#42FFFF"/>
<path opacity="0.5" d="M875.166 451.201L887.852 458.405L888.632 453.374L875.947 446.146L875.166 451.201Z" fill="#42FFFF"/>
<path opacity="0.5" d="M876.849 464.705L886.046 469.931L886.826 464.876L877.654 459.65L876.849 464.705Z" fill="#42FFFF"/>
<path opacity="0.5" d="M870.872 473.839L884.216 481.434L885.021 476.403L871.677 468.808L870.872 473.839Z" fill="#42FFFF"/>
<path opacity="0.5" d="M873.238 487.71L882.411 492.936L883.216 487.905L874.043 482.679L873.238 487.71Z" fill="#42FFFF"/>
<path opacity="0.5" d="M868.969 497.82L880.605 504.462L881.41 499.407L869.774 492.789L868.969 497.82Z" fill="#42FFFF"/>
<path opacity="0.5" d="M872.458 512.351L878.801 515.965L879.606 510.934L873.263 507.32L872.458 512.351Z" fill="#42FFFF"/>
<path opacity="0.5" d="M864.725 520.482L876.996 527.467L877.801 522.436L865.505 515.452L864.725 520.482Z" fill="#42FFFF"/>
<path opacity="0.5" d="M863.554 532.375L875.19 538.994L875.995 533.938L864.359 527.32L863.554 532.375Z" fill="#42FFFF"/>
<path opacity="0.5" d="M818.909 506.929L813.957 504.121L814.738 499.09L819.69 501.898L818.909 506.929Z" fill="#42FFFF"/>
<path opacity="0.5" d="M833.596 515.305L822.447 508.956L823.252 503.925L834.377 510.275L833.596 515.305Z" fill="#42FFFF"/>
<path opacity="0.5" d="M837.547 554.037L818.763 543.316L819.543 538.285L838.352 548.982L837.547 554.037Z" fill="#42FFFF"/>
<path opacity="0.5" d="M850.429 561.363L843.013 557.138L843.818 552.107L851.21 556.308L850.429 561.363Z" fill="#42FFFF"/>
<path opacity="0.5" d="M926.763 467.807L903.489 454.571L904.27 449.516L927.543 462.776L926.763 467.807Z" fill="#42FFFF"/>
<path opacity="0.5" d="M938.692 474.595L930.324 469.833L931.105 464.803L939.473 469.565L938.692 474.595Z" fill="#42FFFF"/>
<path opacity="0.5" d="M947.938 479.87L942.254 476.622L943.035 471.592L948.743 474.84L947.938 479.87Z" fill="#42FFFF"/>
<path opacity="0.5" d="M914.369 473.301L901.684 466.073L902.464 461.042L915.15 468.246L914.369 473.301Z" fill="#42FFFF"/>
<path opacity="0.5" d="M933.446 484.169L917.906 475.304L918.711 470.273L934.251 479.114L933.446 484.169Z" fill="#42FFFF"/>
<path opacity="0.5" d="M942.693 489.419L937.009 486.196L937.789 481.141L943.498 484.389L942.693 489.419Z" fill="#42FFFF"/>
<path opacity="0.5" d="M951.5 494.426L945.815 491.202L946.596 486.147L952.305 489.395L951.5 494.426Z" fill="#42FFFF"/>
<path opacity="0.5" d="M909.051 482.801L899.878 477.575L900.659 472.544L909.831 477.771L909.051 482.801Z" fill="#42FFFF"/>
<path opacity="0.5" d="M915.736 486.611L912.613 484.828L913.394 479.797L916.541 481.58L915.736 486.611Z" fill="#42FFFF"/>
<path opacity="0.5" d="M924.981 491.886L919.297 488.638L920.078 483.607L925.786 486.831L924.981 491.886Z" fill="#42FFFF"/>
<path opacity="0.5" d="M931.934 508.37L898.073 489.101L898.854 484.046L932.715 503.339L931.934 508.37Z" fill="#42FFFF"/>
<path opacity="0.5" d="M943.864 515.159L935.496 510.397L936.277 505.366L944.644 510.128L943.864 515.159Z" fill="#42FFFF"/>
<path opacity="0.5" d="M905.44 505.83L896.268 500.604L897.048 495.573L906.221 500.799L905.44 505.83Z" fill="#42FFFF"/>
<path opacity="0.5" d="M926.957 518.089L908.978 507.857L909.783 502.826L927.762 513.059L926.957 518.089Z" fill="#42FFFF"/>
<path opacity="0.5" d="M936.204 523.34L930.52 520.116L931.3 515.061L937.009 518.309L936.204 523.34Z" fill="#42FFFF"/>
<path opacity="0.5" d="M913.223 522.803L894.463 512.106L895.244 507.076L914.028 517.772L913.223 522.803Z" fill="#42FFFF"/>
<path opacity="0.5" d="M930.348 532.547L916.784 524.83L917.565 519.799L931.153 527.516L930.348 532.547Z" fill="#42FFFF"/>
<path opacity="0.5" d="M943.083 539.799L933.91 534.573L934.691 529.542L943.864 534.769L943.083 539.799Z" fill="#42FFFF"/>
<path opacity="0.5" d="M898.976 527.247L892.657 523.633L893.438 518.578L899.781 522.192L898.976 527.247Z" fill="#42FFFF"/>
<path opacity="0.5" d="M910.929 534.036L902.537 529.274L903.342 524.219L911.71 528.981L910.929 534.036Z" fill="#42FFFF"/>
<path opacity="0.5" d="M927.982 543.731L914.467 536.063L915.272 531.008L928.763 538.7L927.982 543.731Z" fill="#42FFFF"/>
<path opacity="0.5" d="M910.27 546.198L890.852 535.135L891.632 530.104L911.051 541.167L910.27 546.198Z" fill="#42FFFF"/>
<path opacity="0.5" d="M932.008 558.579L913.809 548.225L914.614 543.169L932.813 553.548L932.008 558.579Z" fill="#42FFFF"/>
<path opacity="0.5" d="M941.253 563.854L935.569 560.606L936.35 555.575L942.059 558.799L941.253 563.854Z" fill="#42FFFF"/>
<path opacity="0.5" d="M950.133 568.909L944.449 565.661L945.23 560.606L950.938 563.854L950.133 568.909Z" fill="#42FFFF"/>
<path opacity="0.5" d="M900.659 553.28L889.047 546.662L889.828 541.606L901.464 548.225L900.659 553.28Z" fill="#42FFFF"/>
<path opacity="0.5" d="M963.795 488.882L979.92 498.064L980.701 493.033L964.576 483.851L963.795 488.882Z" fill="#42FFFF"/>
<path opacity="0.5" d="M965.43 502.362L978.115 509.591L978.896 504.536L966.235 497.332L965.43 502.362Z" fill="#42FFFF"/>
<path opacity="0.5" d="M967.137 515.867L976.309 521.093L977.09 516.063L967.917 510.836L967.137 515.867Z" fill="#42FFFF"/>
<path opacity="0.5" d="M961.16 525L974.505 532.62L975.285 527.565L961.941 519.97L961.16 525Z" fill="#42FFFF"/>
<path opacity="0.5" d="M963.526 538.896L972.699 544.122L973.48 539.091L964.307 533.865L963.526 538.896Z" fill="#42FFFF"/>
<path opacity="0.5" d="M959.257 549.006L970.894 555.624L971.674 550.594L960.038 543.976L959.257 549.006Z" fill="#42FFFF"/>
<path opacity="0.5" d="M962.746 563.537L969.089 567.151L969.87 562.096L963.527 558.481L962.746 563.537Z" fill="#42FFFF"/>
<path opacity="0.5" d="M954.988 571.669L967.284 578.653L968.064 573.623L955.769 566.614L954.988 571.669Z" fill="#42FFFF"/>
<path opacity="0.5" d="M953.842 583.537L965.479 590.155L966.259 585.124L954.622 578.506L953.842 583.537Z" fill="#42FFFF"/>
<path opacity="0.5" d="M909.173 558.115L904.221 555.307L905.026 550.251L909.954 553.084L909.173 558.115Z" fill="#42FFFF"/>
<path opacity="0.5" d="M923.859 566.491L912.734 560.142L913.515 555.111L924.664 561.436L923.859 566.491Z" fill="#42FFFF"/>
<path opacity="0.5" d="M927.835 605.199L909.026 594.502L909.831 589.472L928.616 600.168L927.835 605.199Z" fill="#42FFFF"/>
<path opacity="0.5" d="M940.693 612.525L933.301 608.325L934.081 603.27L941.498 607.494L940.693 612.525Z" fill="#42FFFF"/>
<path opacity="0.5" d="M635.797 188.359L612.523 175.123L613.328 170.067L636.602 183.328L635.797 188.359Z" fill="#42FFFF"/>
<path opacity="0.5" d="M647.726 195.172L639.358 190.386L640.139 185.355L648.531 190.117L647.726 195.172Z" fill="#42FFFF"/>
<path opacity="0.5" d="M656.997 200.423L651.288 197.175L652.093 192.144L657.777 195.392L656.997 200.423Z" fill="#42FFFF"/>
<path opacity="0.5" d="M623.404 193.854L610.719 186.625L611.524 181.594L624.185 188.798L623.404 193.854Z" fill="#42FFFF"/>
<path opacity="0.5" d="M642.506 204.721L626.966 195.88L627.746 190.825L643.286 199.69L642.506 204.721Z" fill="#42FFFF"/>
<path opacity="0.5" d="M651.752 209.971L646.043 206.748L646.848 201.692L652.532 204.94L651.752 209.971Z" fill="#42FFFF"/>
<path opacity="0.5" d="M660.558 215.002L654.85 211.754L655.655 206.723L661.339 209.947L660.558 215.002Z" fill="#42FFFF"/>
<path d="M618.086 203.353L608.913 198.151L609.718 193.096L618.891 198.322L618.086 203.353Z" fill="#42FFFF"/>
<path d="M624.794 207.163L621.647 205.38L622.428 200.349L625.575 202.132L624.794 207.163Z" fill="#42FFFF"/>
<path opacity="0.5" d="M634.041 212.438L628.332 209.19L629.137 204.159L634.821 207.407L634.041 212.438Z" fill="#42FFFF"/>
<path opacity="0.5" d="M640.968 228.922L607.107 209.654L607.912 204.623L641.774 223.891L640.968 228.922Z" fill="#42FFFF"/>
<path opacity="0.5" d="M652.898 235.735L644.53 230.949L645.311 225.918L653.703 230.68L652.898 235.735Z" fill="#42FFFF"/>
<path opacity="0.5" d="M614.475 226.382L605.303 221.156L606.108 216.125L615.281 221.351L614.475 226.382Z" fill="#42FFFF"/>
<path opacity="0.5" d="M636.017 238.641L618.037 228.409L618.818 223.378L636.797 233.611L636.017 238.641Z" fill="#42FFFF"/>
<path opacity="0.5" d="M645.262 243.916L639.554 240.668L640.359 235.638L646.043 238.861L645.262 243.916Z" fill="#42FFFF"/>
<path opacity="0.5" d="M622.282 243.354L603.497 232.683L604.278 227.627L623.062 238.324L622.282 243.354Z" fill="#42FFFF"/>
<path d="M639.408 253.123L625.819 245.381L626.624 240.351L640.188 248.068L639.408 253.123Z" fill="#42FFFF"/>
<path opacity="0.5" d="M652.117 260.351L642.944 255.125L643.749 250.095L652.922 255.321L652.117 260.351Z" fill="#42FFFF"/>
<path opacity="0.5" d="M608.035 247.799L601.692 244.185L602.473 239.154L608.816 242.744L608.035 247.799Z" fill="#42FFFF"/>
<path opacity="0.5" d="M619.964 254.588L611.597 249.826L612.377 244.771L620.745 249.557L619.964 254.588Z" fill="#42FFFF"/>
<path opacity="0.5" d="M637.017 264.308L623.526 256.615L624.307 251.584L637.822 259.253L637.017 264.308Z" fill="#42FFFF"/>
<path opacity="0.5" d="M619.306 266.75L599.887 255.687L600.667 250.656L620.086 261.719L619.306 266.75Z" fill="#42FFFF"/>
<path opacity="0.5" d="M641.066 279.131L622.867 268.777L623.648 263.746L641.847 274.101L641.066 279.131Z" fill="#42FFFF"/>
<path d="M650.312 284.406L644.604 281.158L645.409 276.127L651.093 279.351L650.312 284.406Z" fill="#42FFFF"/>
<path opacity="0.5" d="M659.192 289.461L653.483 286.213L654.288 281.183L659.973 284.406L659.192 289.461Z" fill="#42FFFF"/>
<path opacity="0.5" d="M609.718 273.832L598.081 267.214L598.862 262.159L610.498 268.801L609.718 273.832Z" fill="#42FFFF"/>
<path d="M672.829 209.434L688.955 218.641L689.76 213.586L673.61 204.403L672.829 209.434Z" fill="#42FFFF"/>
<path opacity="0.5" d="M674.488 222.914L687.15 230.143L687.955 225.112L675.269 217.883L674.488 222.914Z" fill="#42FFFF"/>
<path opacity="0.5" d="M676.172 236.419L685.345 241.645L686.15 236.614L676.977 231.388L676.172 236.419Z" fill="#42FFFF"/>
<path opacity="0.5" d="M670.194 245.577L683.539 253.172L684.344 248.116L670.999 240.521L670.194 245.577Z" fill="#42FFFF"/>
<path opacity="0.5" d="M672.561 259.448L681.733 264.674L682.538 259.643L673.366 254.417L672.561 259.448Z" fill="#42FFFF"/>
<path opacity="0.5" d="M668.292 269.558L679.929 276.176L680.734 271.145L669.097 264.527L668.292 269.558Z" fill="#42FFFF"/>
<path opacity="0.5" d="M671.78 284.088L678.123 287.703L678.928 282.647L672.585 279.058L671.78 284.088Z" fill="#42FFFF"/>
<path opacity="0.5" d="M664.022 292.221L676.318 299.205L677.098 294.174L664.827 287.166L664.022 292.221Z" fill="#42FFFF"/>
<path opacity="0.5" d="M662.876 304.089L674.513 310.732L675.293 305.677L663.657 299.059L662.876 304.089Z" fill="#42FFFF"/>
<path opacity="0.5" d="M618.208 278.667L613.28 275.859L614.061 270.828L619.013 273.637L618.208 278.667Z" fill="#42FFFF"/>
<path opacity="0.5" d="M632.918 287.043L621.77 280.694L622.575 275.663L633.699 281.988L632.918 287.043Z" fill="#42FFFF"/>
<path opacity="0.5" d="M726.085 239.545L702.812 226.284L703.592 221.253L726.866 234.514L726.085 239.545Z" fill="#42FFFF"/>
<path opacity="0.5" d="M738.014 246.334L729.622 241.572L730.427 236.517L738.795 241.303L738.014 246.334Z" fill="#42FFFF"/>
<path d="M747.26 251.609L741.552 248.361L742.357 243.33L748.041 246.554L747.26 251.609Z" fill="#42FFFF"/>
<path opacity="0.5" d="M713.667 245.015L701.006 237.811L701.787 232.756L714.472 239.984L713.667 245.015Z" fill="#42FFFF"/>
<path opacity="0.5" d="M732.769 255.882L717.229 247.042L718.035 242.011L733.55 250.852L732.769 255.882Z" fill="#42FFFF"/>
<path d="M742.015 261.157L736.331 257.909L737.112 252.878L742.82 256.126L742.015 261.157Z" fill="#42FFFF"/>
<path opacity="0.5" d="M750.822 266.163L745.138 262.94L745.918 257.885L751.603 261.133L750.822 266.163Z" fill="#42FFFF"/>
<path opacity="0.5" d="M708.374 254.539L699.201 249.313L699.982 244.282L709.155 249.508L708.374 254.539Z" fill="#42FFFF"/>
<path opacity="0.5" d="M715.058 258.349L711.911 256.566L712.716 251.536L715.839 253.318L715.058 258.349Z" fill="#42FFFF"/>
<path opacity="0.5" d="M724.304 263.624L718.62 260.376L719.401 255.345L725.085 258.569L724.304 263.624Z" fill="#42FFFF"/>
<path opacity="0.5" d="M731.257 280.108L697.396 260.84L698.176 255.785L732.037 275.077L731.257 280.108Z" fill="#42FFFF"/>
<path opacity="0.5" d="M743.186 286.897L734.794 282.135L735.599 277.08L743.967 281.866L743.186 286.897Z" fill="#42FFFF"/>
<path opacity="0.5" d="M704.764 277.568L695.566 272.342L696.372 267.312L705.544 272.513L704.764 277.568Z" fill="#42FFFF"/>
<path opacity="0.5" d="M726.28 289.828L708.301 279.595L709.106 274.54L727.085 284.772L726.28 289.828Z" fill="#42FFFF"/>
<path opacity="0.5" d="M735.526 295.078L729.842 291.854L730.622 286.799L736.331 290.047L735.526 295.078Z" fill="#42FFFF"/>
<path d="M712.545 294.541L693.761 283.844L694.566 278.813L713.326 289.485L712.545 294.541Z" fill="#42FFFF"/>
<path opacity="0.5" d="M729.671 304.285L716.107 296.568L716.888 291.513L730.452 299.254L729.671 304.285Z" fill="#42FFFF"/>
<path opacity="0.5" d="M742.405 311.538L733.232 306.311L734.013 301.281L743.186 306.507L742.405 311.538Z" fill="#42FFFF"/>
<path opacity="0.5" d="M698.298 298.961L691.955 295.371L692.76 290.316L699.103 293.93L698.298 298.961Z" fill="#42FFFF"/>
<path opacity="0.5" d="M710.228 305.774L701.86 300.988L702.641 295.957L711.033 300.719L710.228 305.774Z" fill="#42FFFF"/>
<path d="M727.304 315.469L713.789 307.777L714.594 302.746L728.085 310.439L727.304 315.469Z" fill="#42FFFF"/>
<path opacity="0.5" d="M709.569 317.936L690.15 306.873L690.955 301.842L710.374 312.881L709.569 317.936Z" fill="#42FFFF"/>
<path opacity="0.5" d="M731.33 330.317L713.131 319.963L713.936 314.908L732.111 325.262L731.33 330.317Z" fill="#42FFFF"/>
<path opacity="0.5" d="M740.576 335.568L734.892 332.344L735.672 327.289L741.381 330.537L740.576 335.568Z" fill="#42FFFF"/>
<path opacity="0.5" d="M749.456 340.623L743.771 337.399L744.552 332.344L750.236 335.592L749.456 340.623Z" fill="#42FFFF"/>
<path opacity="0.5" d="M699.981 325.018L688.345 318.375L689.15 313.345L700.786 319.963L699.981 325.018Z" fill="#42FFFF"/>
<path d="M763.093 260.62L779.243 269.802L780.023 264.772L763.898 255.589L763.093 260.62Z" fill="#42FFFF"/>
<path opacity="0.5" d="M764.752 274.101L777.438 281.329L778.218 276.274L765.533 269.07L764.752 274.101Z" fill="#42FFFF"/>
<path opacity="0.5" d="M766.46 287.605L775.633 292.831L776.413 287.8L767.241 282.574L766.46 287.605Z" fill="#42FFFF"/>
<path opacity="0.5" d="M760.482 296.739L773.827 304.334L774.607 299.303L761.263 291.708L760.482 296.739Z" fill="#42FFFF"/>
<path opacity="0.5" d="M762.849 310.634L772.021 315.86L772.802 310.805L763.629 305.579L762.849 310.634Z" fill="#42FFFF"/>
<path opacity="0.5" d="M758.58 320.744L770.217 327.362L770.997 322.331L759.361 315.689L758.58 320.744Z" fill="#42FFFF"/>
<path opacity="0.5" d="M762.068 335.275L768.387 338.865L769.192 333.834L762.849 330.22L762.068 335.275Z" fill="#42FFFF"/>
<path opacity="0.5" d="M754.311 343.382L766.582 350.391L767.387 345.336L755.091 338.352L754.311 343.382Z" fill="#42FFFF"/>
<path opacity="0.5" d="M753.14 355.275L764.776 361.893L765.581 356.863L753.945 350.245L753.14 355.275Z" fill="#42FFFF"/>
<path d="M708.495 329.853L703.543 327.02L704.324 321.99L709.276 324.798L708.495 329.853Z" fill="#42FFFF"/>
<path opacity="0.5" d="M723.182 338.205L712.058 331.88L712.838 326.825L723.987 333.175L723.182 338.205Z" fill="#42FFFF"/>
<path opacity="0.5" d="M619.525 292.025L596.252 278.789L597.057 273.758L620.33 286.994L619.525 292.025Z" fill="#42FFFF"/>
<path opacity="0.5" d="M631.479 298.839L623.087 294.052L623.868 289.021L632.26 293.784L631.479 298.839Z" fill="#42FFFF"/>
<path opacity="0.5" d="M640.725 304.089L635.017 300.841L635.822 295.811L641.506 299.059L640.725 304.089Z" fill="#42FFFF"/>
<path opacity="0.5" d="M607.132 297.52L594.446 290.291L595.251 285.261L607.937 292.465L607.132 297.52Z" fill="#42FFFF"/>
<path opacity="0.5" d="M626.234 308.387L610.694 299.547L611.475 294.492L627.015 303.356L626.234 308.387Z" fill="#42FFFF"/>
<path opacity="0.5" d="M635.48 313.662L629.796 310.414L630.577 305.359L636.261 308.607L635.48 313.662Z" fill="#42FFFF"/>
<path opacity="0.5" d="M644.287 318.668L638.578 315.42L639.383 310.39L645.067 313.613L644.287 318.668Z" fill="#42FFFF"/>
<path opacity="0.5" d="M601.814 307.019L592.642 301.818L593.447 296.763L602.619 301.989L601.814 307.019Z" fill="#42FFFF"/>
<path opacity="0.5" d="M608.523 310.83L605.376 309.047L606.181 304.016L609.304 305.799L608.523 310.83Z" fill="#42FFFF"/>
<path opacity="0.5" d="M617.768 316.104L612.06 312.856L612.865 307.826L618.549 311.074L617.768 316.104Z" fill="#42FFFF"/>
<path opacity="0.5" d="M624.697 332.588L590.836 313.32L591.641 308.29L625.502 327.558L624.697 332.588Z" fill="#42FFFF"/>
<path opacity="0.5" d="M636.651 339.402L628.259 334.615L629.064 329.584L637.432 334.347L636.651 339.402Z" fill="#42FFFF"/>
<path opacity="0.5" d="M598.203 330.049L589.03 324.823L589.835 319.792L599.008 325.018L598.203 330.049Z" fill="#42FFFF"/>
<path opacity="0.5" d="M619.744 342.308L601.765 332.076L602.545 327.045L620.525 337.277L619.744 342.308Z" fill="#42FFFF"/>
<path opacity="0.5" d="M628.991 347.583L623.307 344.335L624.087 339.304L629.771 342.528L628.991 347.583Z" fill="#42FFFF"/>
<path opacity="0.5" d="M606.01 347.021L587.226 336.349L588.031 331.294L606.791 341.99L606.01 347.021Z" fill="#42FFFF"/>
<path opacity="0.5" d="M623.135 356.79L609.547 349.048L610.352 344.018L623.916 351.735L623.135 356.79Z" fill="#42FFFF"/>
<path opacity="0.5" d="M635.87 364.018L626.697 358.816L627.478 353.761L636.651 358.987L635.87 364.018Z" fill="#42FFFF"/>
<path opacity="0.5" d="M591.763 351.466L585.42 347.851L586.225 342.821L592.543 346.435L591.763 351.466Z" fill="#42FFFF"/>
<path opacity="0.5" d="M603.692 358.255L595.324 353.493L596.105 348.438L604.497 353.224L603.692 358.255Z" fill="#42FFFF"/>
<path opacity="0.5" d="M620.745 367.974L607.254 360.282L608.035 355.251L621.55 362.919L620.745 367.974Z" fill="#42FFFF"/>
<path opacity="0.5" d="M603.034 370.416L583.615 359.353L584.42 354.323L603.839 365.385L603.034 370.416Z" fill="#42FFFF"/>
<path opacity="0.5" d="M624.795 382.798L606.596 372.443L607.376 367.413L625.575 377.767L624.795 382.798Z" fill="#42FFFF"/>
<path opacity="0.5" d="M634.041 388.073L628.356 384.825L629.137 379.794L634.821 383.042L634.041 388.073Z" fill="#42FFFF"/>
<path opacity="0.5" d="M642.92 393.128L637.212 389.88L638.017 384.849L643.701 388.073L642.92 393.128Z" fill="#42FFFF"/>
<path opacity="0.5" d="M593.446 377.498L581.81 370.88L582.59 365.825L594.227 372.468L593.446 377.498Z" fill="#42FFFF"/>
<path opacity="0.5" d="M656.558 313.125L672.707 322.307L673.488 317.252L657.363 308.07L656.558 313.125Z" fill="#42FFFF"/>
<path opacity="0.5" d="M658.217 326.581L670.878 333.81L671.683 328.779L658.997 321.55L658.217 326.581Z" fill="#42FFFF"/>
<path opacity="0.5" d="M659.899 340.11L669.072 345.311L669.877 340.281L660.704 335.055L659.899 340.11Z" fill="#42FFFF"/>
<path opacity="0.5" d="M653.923 349.244L667.267 356.838L668.072 351.783L654.728 344.188L653.923 349.244Z" fill="#42FFFF"/>
<path opacity="0.5" d="M656.289 363.115L665.462 368.341L666.267 363.31L657.094 358.084L656.289 363.115Z" fill="#42FFFF"/>
<path opacity="0.5" d="M652.02 373.225L663.656 379.867L664.461 374.812L652.825 368.194L652.02 373.225Z" fill="#42FFFF"/>
<path opacity="0.5" d="M655.509 387.755L661.852 391.37L662.657 386.339L656.314 382.725L655.509 387.755Z" fill="#42FFFF"/>
<path opacity="0.5" d="M647.775 395.887L660.046 402.872L660.851 397.841L648.556 390.856L647.775 395.887Z" fill="#42FFFF"/>
<path opacity="0.5" d="M646.604 407.756L658.241 414.398L659.046 409.343L647.41 402.725L646.604 407.756Z" fill="#42FFFF"/>
<path opacity="0.5" d="M601.96 382.334L597.008 379.525L597.788 374.495L602.741 377.303L601.96 382.334Z" fill="#42FFFF"/>
<path opacity="0.5" d="M616.647 390.71L605.498 384.361L606.303 379.33L617.427 385.655L616.647 390.71Z" fill="#42FFFF"/>
<path opacity="0.5" d="M620.598 429.417L601.813 418.721L602.594 413.69L621.403 424.386L620.598 429.417Z" fill="#42FFFF"/>
<path opacity="0.5" d="M633.48 436.768L626.063 432.543L626.868 427.512L634.26 431.713L633.48 436.768Z" fill="#42FFFF"/>
<path opacity="0.5" d="M709.813 343.212L686.54 329.951L687.321 324.92L710.594 338.181L709.813 343.212Z" fill="#42FFFF"/>
<path opacity="0.5" d="M721.743 350L713.351 345.238L714.156 340.183L722.523 344.97L721.743 350Z" fill="#42FFFF"/>
<path opacity="0.5" d="M730.989 355.275L725.305 352.027L726.085 346.997L731.769 350.22L730.989 355.275Z" fill="#42FFFF"/>
<path opacity="0.5" d="M697.42 348.682L684.734 341.478L685.515 336.422L698.201 343.651L697.42 348.682Z" fill="#42FFFF"/>
<path opacity="0.5" d="M716.497 359.573L700.957 350.708L701.762 345.678L717.302 354.518L716.497 359.573Z" fill="#42FFFF"/>
<path opacity="0.5" d="M725.744 364.824L720.06 361.576L720.84 356.545L726.549 359.793L725.744 364.824Z" fill="#42FFFF"/>
<path opacity="0.5" d="M734.55 369.83L728.866 366.607L729.647 361.552L735.355 364.8L734.55 369.83Z" fill="#42FFFF"/>
<path opacity="0.5" d="M692.101 358.206L682.929 352.98L683.709 347.949L692.882 353.175L692.101 358.206Z" fill="#42FFFF"/>
<path opacity="0.5" d="M698.787 362.016L695.64 360.233L696.445 355.202L699.567 356.985L698.787 362.016Z" fill="#42FFFF"/>
<path opacity="0.5" d="M708.032 367.29L702.348 364.042L703.128 359.012L708.837 362.235L708.032 367.29Z" fill="#42FFFF"/>
<path opacity="0.5" d="M714.985 383.774L681.124 364.506L681.905 359.451L715.766 378.744L714.985 383.774Z" fill="#42FFFF"/>
<path opacity="0.5" d="M726.915 390.564L718.522 385.802L719.327 380.747L727.695 385.533L726.915 390.564Z" fill="#42FFFF"/>
<path opacity="0.5" d="M688.491 381.235L679.318 376.009L680.099 370.978L689.272 376.18L688.491 381.235Z" fill="#42FFFF"/>
<path opacity="0.5" d="M710.008 393.494L692.028 383.262L692.833 378.207L710.813 388.439L710.008 393.494Z" fill="#42FFFF"/>
<path opacity="0.5" d="M719.254 398.744L713.57 395.521L714.351 390.466L720.06 393.714L719.254 398.744Z" fill="#42FFFF"/>
<path opacity="0.5" d="M696.274 398.208L677.514 387.511L678.294 382.48L697.055 393.177L696.274 398.208Z" fill="#42FFFF"/>
<path opacity="0.5" d="M713.399 407.951L699.835 400.234L700.616 395.179L714.204 402.921L713.399 407.951Z" fill="#42FFFF"/>
<path opacity="0.5" d="M726.134 415.204L716.961 409.978L717.742 404.947L726.914 410.173L726.134 415.204Z" fill="#42FFFF"/>
<path opacity="0.5" d="M682.026 402.627L675.684 399.038L676.489 393.982L682.831 397.597L682.026 402.627Z" fill="#42FFFF"/>
<path opacity="0.5" d="M693.98 409.441L685.588 404.654L686.393 399.624L694.761 404.386L693.98 409.441Z" fill="#42FFFF"/>
<path opacity="0.5" d="M711.033 419.136L697.518 411.468L698.323 406.413L711.813 414.105L711.033 419.136Z" fill="#42FFFF"/>
<path opacity="0.5" d="M693.321 421.603L673.878 410.54L674.683 405.509L694.102 416.548L693.321 421.603Z" fill="#42FFFF"/>
<path opacity="0.5" d="M715.058 433.984L696.859 423.629L697.664 418.574L715.864 428.929L715.058 433.984Z" fill="#42FFFF"/>
<path opacity="0.5" d="M724.304 439.234L718.62 436.011L719.401 430.956L725.109 434.204L724.304 439.234Z" fill="#42FFFF"/>
<path opacity="0.5" d="M733.184 444.289L727.5 441.066L728.281 436.011L733.989 439.259L733.184 444.289Z" fill="#42FFFF"/>
<path opacity="0.5" d="M683.71 428.684L672.073 422.042L672.878 417.011L684.515 423.629L683.71 428.684Z" fill="#42FFFF"/>
<path opacity="0.5" d="M746.821 364.287L762.971 373.469L763.752 368.438L747.626 359.256L746.821 364.287Z" fill="#42FFFF"/>
<path opacity="0.5" d="M748.48 377.767L761.166 384.996L761.947 379.94L749.286 372.736L748.48 377.767Z" fill="#42FFFF"/>
<path opacity="0.5" d="M750.188 391.272L759.36 396.498L760.141 391.467L750.968 386.241L750.188 391.272Z" fill="#42FFFF"/>
<path opacity="0.5" d="M744.211 400.405L757.555 408L758.336 402.969L744.992 395.375L744.211 400.405Z" fill="#42FFFF"/>
<path opacity="0.5" d="M746.577 414.301L755.75 419.527L756.531 414.472L747.358 409.27L746.577 414.301Z" fill="#42FFFF"/>
<path opacity="0.5" d="M742.308 424.411L753.944 431.029L754.725 425.998L743.088 419.38L742.308 424.411Z" fill="#42FFFF"/>
<path opacity="0.5" d="M745.797 438.941L752.14 442.531L752.92 437.501L746.578 433.886L745.797 438.941Z" fill="#42FFFF"/>
<path opacity="0.5" d="M738.039 447.049L750.334 454.058L751.115 449.003L738.82 442.019L738.039 447.049Z" fill="#42FFFF"/>
<path opacity="0.5" d="M736.893 458.942L748.529 465.56L749.31 460.529L737.673 453.911L736.893 458.942Z" fill="#42FFFF"/>
<path opacity="0.5" d="M692.224 433.52L687.271 430.711L688.077 425.656L693.004 428.489L692.224 433.52Z" fill="#42FFFF"/>
<path opacity="0.5" d="M706.91 441.872L695.785 435.547L696.566 430.492L707.715 436.841L706.91 441.872Z" fill="#42FFFF"/>
<path opacity="0.5" d="M710.886 480.604L692.077 469.907L692.882 464.852L711.667 475.573L710.886 480.604Z" fill="#42FFFF"/>
<path opacity="0.5" d="M723.743 487.929L716.352 483.729L717.132 478.674L724.548 482.899L723.743 487.929Z" fill="#42FFFF"/>
<path d="M632.113 300.89L653.85 288.362C654.142 288.191 654.508 288.191 654.923 288.435L927.275 445.852C928.153 446.365 928.885 447.757 928.885 448.929V500.409C928.885 500.97 928.714 501.385 928.446 501.63C928.446 501.63 928.397 501.63 928.373 501.678L906.417 514.328L906.246 489.468L654.923 344.213C654.045 343.7 653.313 342.332 653.313 341.136V323.479L632.089 300.914L632.113 300.89Z" fill="url(#paint16_linear_2450_5)"/>
<path d="M633.089 356.765L905.441 514.182C906.319 514.695 907.051 514.157 907.051 512.961V461.481C907.051 460.285 906.319 458.917 905.441 458.404L633.089 300.987C632.21 300.475 631.479 301.012 631.479 302.208V353.688C631.479 354.884 632.21 356.252 633.089 356.765Z" fill="url(#paint17_linear_2450_5)"/>
<path opacity="0.6" d="M670.658 346.337L882.728 471.152C876.166 476.793 869.969 483.265 864.261 490.371L650.629 366.899C656.777 359.231 663.51 352.296 670.658 346.337Z" fill="#242993"/>
<path d="M640.847 341.306L897.659 489.736C898.269 490.078 898.757 489.736 898.757 488.906V475.987C898.757 475.182 898.269 474.229 897.659 473.887L640.847 325.457C640.237 325.115 639.749 325.457 639.749 326.287V339.206C639.749 340.012 640.237 340.964 640.847 341.306Z" fill="#242993"/>
<path d="M640.847 325.433L646.067 328.461V335.446C646.067 336.251 646.555 337.204 647.165 337.546L898.757 482.948V488.906C898.757 489.712 898.269 490.079 897.659 489.737L640.847 341.307C640.237 340.965 639.749 340.012 639.749 339.206V326.288C639.749 325.482 640.237 325.116 640.847 325.457V325.433Z" fill="#4553C7"/>
<path opacity="0.96" d="M496.571 898.225L282.915 774.753C310.482 758.83 333.707 723.957 340.806 690.623C343.684 677.118 351.954 665.372 363.884 658.46L525.334 565.173C570.295 539.189 599.447 492.398 602.497 440.504C605.083 396.693 638.163 353.614 663.852 338.767L877.508 462.239C852.21 476.867 824.35 517.723 821.179 560.801C817.349 612.696 789.172 659.633 744.162 685.665L577.54 781.957C565.586 788.868 557.316 800.59 554.462 814.119C547.363 847.454 524.138 882.327 496.571 898.249V898.225Z" fill="url(#paint18_linear_2450_5)"/>
<path opacity="0.8" d="M663.876 338.742L877.532 462.214C875.825 463.215 874.117 464.29 872.434 465.389L658.802 341.892C660.485 340.794 662.168 339.719 663.876 338.718V338.742Z" fill="#4553C7"/>
<g opacity="0.32">
<path d="M744.21 484.803L781.682 506.538L781.999 502.216L744.576 480.554L744.21 484.803Z" fill="#4553C7"/>
<path d="M725.328 473.839L738.575 481.531L738.941 477.306L725.718 469.638L725.328 473.839Z" fill="#4553C7"/>
<path d="M710.837 465.438L719.741 470.59L720.156 466.415L711.252 461.262L710.837 465.438Z" fill="#4553C7"/>
<path d="M760.385 504.462L780.999 516.477L781.292 512.106L760.726 500.14L760.385 504.462Z" fill="#4553C7"/>
<path d="M729.841 486.635L754.651 501.117L755.017 496.818L730.231 482.41L729.841 486.635Z" fill="#4553C7"/>
<path d="M715.253 478.136L724.206 483.362L724.621 479.138L715.668 473.912L715.253 478.136Z" fill="#4553C7"/>
<path d="M701.469 470.102L710.373 475.279L710.788 471.079L701.908 465.926L701.469 470.102Z" fill="#4553C7"/>
<path d="M765.288 517.698L780.291 526.49L780.584 522.094L765.63 513.352L765.288 517.698Z" fill="#4553C7"/>
<path d="M754.432 511.349L759.53 514.328L759.872 509.981L754.798 507.002L754.432 511.349Z" fill="#4553C7"/>
<path d="M739.575 502.631L748.699 507.979L749.065 503.656L739.941 498.308L739.575 502.631Z" fill="#4553C7"/>
<path d="M724.693 504.242L779.583 536.6L779.876 532.18L725.084 499.944L724.693 504.242Z" fill="#4553C7"/>
<path d="M705.763 493.107L719.034 500.921L719.449 496.623L706.202 488.833L705.763 493.107Z" fill="#4553C7"/>
<path d="M763.751 537.846L778.852 546.808L779.169 542.339L764.092 533.401L763.751 537.846Z" fill="#4553C7"/>
<path d="M728.816 517.137L757.92 534.403L758.286 529.982L729.207 512.79L728.816 517.137Z" fill="#4553C7"/>
<path d="M714.033 508.37L723.108 513.767L723.523 509.42L714.448 504.072L714.033 508.37Z" fill="#4553C7"/>
<path d="M747.235 538.676L778.145 557.089L778.462 552.572L747.601 534.231L747.235 538.676Z" fill="#4553C7"/>
<path d="M719.546 522.168L741.453 535.233L741.843 530.813L719.961 517.796L719.546 522.168Z" fill="#4553C7"/>
<path d="M699.249 510.079L713.838 518.773L714.277 514.426L699.713 505.757L699.249 510.079Z" fill="#4553C7"/>
<path d="M766.874 561.143L777.413 567.468L777.73 562.902L767.216 556.625L766.874 561.143Z" fill="#4553C7"/>
<path d="M747.211 549.372L760.994 557.627L761.336 553.109L747.577 544.879L747.211 549.372Z" fill="#4553C7"/>
<path d="M719.497 532.766L741.38 545.88L741.77 541.411L719.912 528.346L719.497 532.766Z" fill="#4553C7"/>
<path d="M744.454 558.506L776.681 577.92L776.998 573.329L744.844 554.012L744.454 558.506Z" fill="#4553C7"/>
<path d="M709.105 537.211L738.624 555.014L739.014 550.496L709.545 532.791L709.105 537.211Z" fill="#4553C7"/>
<path d="M694.297 528.297L703.396 533.767L703.836 529.372L694.76 523.901L694.297 528.297Z" fill="#4553C7"/>
<path d="M680.221 519.823L689.247 525.244L689.711 520.873L680.709 515.452L680.221 519.823Z" fill="#4553C7"/>
<path d="M756.481 576.699L775.949 588.495L776.266 583.855L756.847 572.108L756.481 576.699Z" fill="#4553C7"/>
<path d="M670.755 442.165L646.384 428.025L646.896 424.02L671.243 438.111L670.755 442.165Z" fill="#4553C7"/>
<path d="M664.339 448.441L645.164 437.256L645.701 433.202L664.851 444.363L664.339 448.441Z" fill="#4553C7"/>
<path d="M657.85 454.692L643.944 446.536L644.481 442.458L658.362 450.59L657.85 454.692Z" fill="#4553C7"/>
<path d="M663.046 467.904L642.7 455.914L643.237 451.811L663.558 463.753L663.046 467.904Z" fill="#4553C7"/>
<path d="M655.459 473.668L641.456 465.364L641.993 461.213L655.996 469.492L655.459 473.668Z" fill="#4553C7"/>
<path d="M658.045 485.536L640.188 474.889L640.749 470.688L658.582 481.312L658.045 485.536Z" fill="#4553C7"/>
<path d="M648.677 490.323L638.919 484.486L639.48 480.261L649.214 486.073L648.677 490.323Z" fill="#4553C7"/>
<path d="M656.655 505.61L637.65 494.157L638.211 489.908L657.191 501.312L656.655 505.61Z" fill="#4553C7"/>
<path d="M654.41 514.866L636.357 503.925L636.918 499.651L654.947 510.543L654.41 514.866Z" fill="#4553C7"/>
<path d="M742.405 568.177L750.578 573.11L750.944 568.543L742.796 563.61L742.405 568.177Z" fill="#4553C7"/>
<path d="M718.351 553.597L736.55 564.636L736.94 560.093L718.79 549.104L718.351 553.597Z" fill="#4553C7"/>
</g>
<g opacity="0.32">
<path d="M606.254 626.42L550.534 594.209L554.535 591.914L610.23 624.1L606.254 626.42Z" fill="#4553C7"/>
<path d="M638.651 645.126L618.549 633.502L622.525 631.207L642.627 642.831L638.651 645.126Z" fill="#4553C7"/>
<path d="M654.777 654.455L648.873 651.036L652.874 648.741L658.753 652.16L654.777 654.455Z" fill="#4553C7"/>
<path d="M685.124 671.99L665.022 660.365L668.999 658.07L689.101 669.694L685.124 671.99Z" fill="#4553C7"/>
<path d="M558.584 608.373L542.312 598.971L546.289 596.676L562.561 606.078L558.584 608.373Z" fill="#4553C7"/>
<path d="M630.405 649.889L570.88 615.48L574.856 613.184L634.382 647.593L630.405 649.889Z" fill="#4553C7"/>
<path d="M646.555 659.218L640.651 655.799L644.628 653.503L650.532 656.922L646.555 659.218Z" fill="#4553C7"/>
<path d="M676.878 676.752L656.776 665.128L660.753 662.832L680.855 674.456L676.878 676.752Z" fill="#4553C7"/>
<path d="M542.216 608.422L534.092 603.734L538.068 601.438L546.192 606.127L542.216 608.422Z" fill="#4553C7"/>
<path d="M564.147 621.121L554.511 615.528L558.487 613.233L568.148 618.801L564.147 621.121Z" fill="#4553C7"/>
<path d="M580.296 630.425L574.393 627.031L578.369 624.735L584.273 628.13L580.296 630.425Z" fill="#4553C7"/>
<path d="M610.621 647.959L590.519 636.359L594.495 634.064L614.621 645.664L610.621 647.959Z" fill="#4553C7"/>
<path d="M542.118 617.897L525.846 608.495L529.822 606.175L546.118 615.602L542.118 617.897Z" fill="#4553C7"/>
<path d="M574.515 636.604L554.413 625.004L558.39 622.708L578.492 634.308L574.515 636.604Z" fill="#4553C7"/>
<path d="M590.64 645.933L584.761 642.538L588.737 640.243L594.617 643.637L590.64 645.933Z" fill="#4553C7"/>
<path d="M620.989 663.467L600.887 651.842L604.863 649.547L624.965 661.171L620.989 663.467Z" fill="#4553C7"/>
<path d="M572.71 645.81L516.99 613.599L520.991 611.304L576.686 643.49L572.71 645.81Z" fill="#4553C7"/>
<path d="M605.107 664.517L585.005 652.892L588.981 650.597L609.083 662.221L605.107 664.517Z" fill="#4553C7"/>
<path d="M621.233 673.845L615.329 670.426L619.306 668.131L625.209 671.55L621.233 673.845Z" fill="#4553C7"/>
<path d="M651.58 691.38L631.479 679.756L635.455 677.46L655.557 689.084L651.58 691.38Z" fill="#4553C7"/>
<path d="M525.04 627.764L508.769 618.361L512.745 616.066L529.017 625.468L525.04 627.764Z" fill="#4553C7"/>
<path d="M596.861 669.279L537.336 634.87L541.312 632.574L600.838 666.983L596.861 669.279Z" fill="#4553C7"/>
<path d="M613.011 678.608L607.107 675.189L611.084 672.894L616.988 676.288L613.011 678.608Z" fill="#4553C7"/>
<path d="M643.334 696.142L623.232 684.518L627.209 682.222L647.311 693.847L643.334 696.142Z" fill="#4553C7"/>
<path d="M508.672 627.812L500.548 623.124L504.524 620.828L512.648 625.517L508.672 627.812Z" fill="#4553C7"/>
<path d="M530.603 640.511L520.967 634.919L524.943 632.623L534.604 638.191L530.603 640.511Z" fill="#4553C7"/>
<path d="M546.752 649.816L540.849 646.421L544.825 644.125L550.729 647.52L546.752 649.816Z" fill="#4553C7"/>
<path d="M577.077 667.35L556.975 655.75L560.951 653.43L581.053 665.054L577.077 667.35Z" fill="#4553C7"/>
<path d="M508.574 637.287L492.302 627.885L496.278 625.565L512.55 634.992L508.574 637.287Z" fill="#4553C7"/>
<path d="M540.971 655.994L520.869 644.394L524.846 642.074L544.948 653.699L540.971 655.994Z" fill="#4553C7"/>
<path d="M557.096 665.323L551.217 661.928L555.193 659.608L561.073 663.027L557.096 665.323Z" fill="#4553C7"/>
<path d="M587.445 682.857L567.343 671.233L571.319 668.937L591.421 680.561L587.445 682.857Z" fill="#4553C7"/>
<path d="M539.166 665.176L483.446 632.989L487.423 630.694L543.142 662.881L539.166 665.176Z" fill="#4553C7"/>
<path d="M571.563 683.907L551.461 672.282L555.437 669.987L575.539 681.611L571.563 683.907Z" fill="#4553C7"/>
<path d="M587.689 693.235L581.785 689.817L585.762 687.521L591.665 690.94L587.689 693.235Z" fill="#4553C7"/>
<path d="M618.036 710.77L597.935 699.146L601.911 696.85L622.013 708.474L618.036 710.77Z" fill="#4553C7"/>
<path d="M491.496 647.154L475.225 637.752L479.201 635.456L495.473 644.858L491.496 647.154Z" fill="#4553C7"/>
<path d="M563.317 688.669L503.792 654.26L507.768 651.964L567.294 686.373L563.317 688.669Z" fill="#4553C7"/>
<path d="M579.443 697.998L573.563 694.579L577.54 692.284L583.444 695.678L579.443 697.998Z" fill="#4553C7"/>
<path d="M609.79 715.532L589.688 703.908L593.665 701.612L613.767 713.212L609.79 715.532Z" fill="#4553C7"/>
<path d="M475.128 647.203L467.004 642.514L470.98 640.194L479.104 644.907L475.128 647.203Z" fill="#4553C7"/>
<path d="M497.059 659.877L487.423 654.309L491.399 652.013L501.036 657.581L497.059 659.877Z" fill="#4553C7"/>
<path d="M513.208 669.206L507.305 665.811L511.281 663.516L517.185 666.91L513.208 669.206Z" fill="#4553C7"/>
<path d="M543.533 686.74L523.431 675.115L527.407 672.82L547.509 684.444L543.533 686.74Z" fill="#4553C7"/>
<path d="M475.03 656.678L458.758 647.252L462.734 644.956L479.006 654.358L475.03 656.678Z" fill="#4553C7"/>
<path d="M507.427 675.384L487.325 663.76L491.302 661.464L511.404 673.089L507.427 675.384Z" fill="#4553C7"/>
<path d="M523.552 684.713L517.673 681.294L521.649 678.999L527.529 682.417L523.552 684.713Z" fill="#4553C7"/>
<path d="M553.901 702.247L533.799 690.623L537.775 688.327L557.877 699.952L553.901 702.247Z" fill="#4553C7"/>
</g>
<path d="M392.988 398.866L315.483 354.078L392.988 309.291L470.493 354.078L392.988 398.866ZM319.704 354.078L392.988 396.424L466.272 354.078L392.988 311.733L319.704 354.078Z" fill="#88FFF3"/>
<path d="M239.76 929.556L162.255 884.768L239.76 839.98L317.264 884.768L239.76 929.556ZM166.475 884.744L239.76 927.09L313.044 884.744L239.76 842.398L166.475 884.744Z" fill="#88FFF3"/>
<path d="M1082.29 796.707L1004.78 751.919L1082.29 707.131L1159.79 751.919L1082.29 796.707ZM1009 751.894L1082.29 794.24L1155.57 751.894L1082.29 709.549L1009 751.894Z" fill="#88FFF3"/>
</g>
<defs>
<linearGradient id="paint0_linear_2450_5" x1="281.281" y1="385.215" x2="109.958" y2="522.482" gradientUnits="userSpaceOnUse">
<stop stop-color="#BCD5FF"/>
<stop offset="0.15" stop-color="#A2BDFF"/>
<stop offset="0.39" stop-color="#819FFF"/>
<stop offset="0.61" stop-color="#6A89FF"/>
<stop offset="0.82" stop-color="#5B7CFF"/>
<stop offset="1" stop-color="#5778FF"/>
</linearGradient>
<linearGradient id="paint1_linear_2450_5" x1="1100.68" y1="881.946" x2="903.505" y2="912.172" gradientUnits="userSpaceOnUse">
<stop stop-color="#C0D6FF"/>
<stop offset="0.3" stop-color="#C4DAFF"/>
<stop offset="0.65" stop-color="#D3E9FF"/>
<stop offset="1" stop-color="#E9FFFF"/>
</linearGradient>
<linearGradient id="paint2_linear_2450_5" x1="1242.56" y1="505.952" x2="1071.22" y2="643.195" gradientUnits="userSpaceOnUse">
<stop stop-color="#BCD5FF"/>
<stop offset="0.15" stop-color="#A2BDFF"/>
<stop offset="0.39" stop-color="#819FFF"/>
<stop offset="0.61" stop-color="#6A89FF"/>
<stop offset="0.82" stop-color="#5B7CFF"/>
<stop offset="1" stop-color="#5778FF"/>
</linearGradient>
<linearGradient id="paint3_linear_2450_5" x1="1873.89" y1="893.974" x2="1676.69" y2="924.209" gradientUnits="userSpaceOnUse">
<stop stop-color="#C0D6FF"/>
<stop offset="0.3" stop-color="#C4DAFF"/>
<stop offset="0.65" stop-color="#D3E9FF"/>
<stop offset="1" stop-color="#E9FFFF"/>
</linearGradient>
<linearGradient id="paint4_linear_2450_5" x1="1873.89" y1="893.974" x2="1676.69" y2="924.209" gradientUnits="userSpaceOnUse">
<stop stop-color="#C0D6FF"/>
<stop offset="0.3" stop-color="#C4DAFF"/>
<stop offset="0.65" stop-color="#D3E9FF"/>
<stop offset="1" stop-color="#E9FFFF"/>
</linearGradient>
<linearGradient id="paint5_linear_2450_5" x1="1242.56" y1="460.871" x2="1071.22" y2="598.114" gradientUnits="userSpaceOnUse">
<stop stop-color="#BCD5FF"/>
<stop offset="0.15" stop-color="#A2BDFF"/>
<stop offset="0.39" stop-color="#819FFF"/>
<stop offset="0.61" stop-color="#6A89FF"/>
<stop offset="0.82" stop-color="#5B7CFF"/>
<stop offset="1" stop-color="#5778FF"/>
</linearGradient>
<linearGradient id="paint6_linear_2450_5" x1="1854.37" y1="837.625" x2="1657.19" y2="867.851" gradientUnits="userSpaceOnUse">
<stop stop-color="#C0D6FF"/>
<stop offset="0.3" stop-color="#C4DAFF"/>
<stop offset="0.65" stop-color="#D3E9FF"/>
<stop offset="1" stop-color="#E9FFFF"/>
</linearGradient>
<linearGradient id="paint7_linear_2450_5" x1="1057.16" y1="401.699" x2="529.627" y2="401.699" gradientUnits="userSpaceOnUse">
<stop stop-color="#C0D6FF"/>
<stop offset="0.3" stop-color="#C4DAFF"/>
<stop offset="0.65" stop-color="#D3E9FF"/>
<stop offset="1" stop-color="#E9FFFF"/>
</linearGradient>
<linearGradient id="paint8_linear_2450_5" x1="1057.16" y1="537.113" x2="966.576" y2="537.113" gradientUnits="userSpaceOnUse">
<stop stop-color="#5778FF"/>
<stop offset="0.18" stop-color="#5B7CFF"/>
<stop offset="0.39" stop-color="#6A89FF"/>
<stop offset="0.61" stop-color="#819FFF"/>
<stop offset="0.85" stop-color="#A2BDFF"/>
<stop offset="1" stop-color="#BCD5FF"/>
</linearGradient>
<linearGradient id="paint9_linear_2450_5" x1="986.483" y1="689.353" x2="241.418" y2="689.353" gradientUnits="userSpaceOnUse">
<stop stop-color="#5778FF"/>
<stop offset="0.18" stop-color="#5B7CFF"/>
<stop offset="0.39" stop-color="#6A89FF"/>
<stop offset="0.61" stop-color="#819FFF"/>
<stop offset="0.85" stop-color="#A2BDFF"/>
<stop offset="1" stop-color="#BCD5FF"/>
</linearGradient>
<linearGradient id="paint10_linear_2450_5" x1="736.136" y1="664.492" x2="-9.319" y2="664.492" gradientUnits="userSpaceOnUse">
<stop stop-color="#C0D6FF"/>
<stop offset="0.3" stop-color="#C4DAFF"/>
<stop offset="0.65" stop-color="#D3E9FF"/>
<stop offset="1" stop-color="#E9FFFF"/>
</linearGradient>
<linearGradient id="paint11_linear_2450_5" x1="609.889" y1="706.863" x2="419.091" y2="706.863" gradientUnits="userSpaceOnUse">
<stop stop-color="#C0D6FF"/>
<stop offset="0.3" stop-color="#C4DAFF"/>
<stop offset="0.65" stop-color="#D3E9FF"/>
<stop offset="1" stop-color="#E9FFFF"/>
</linearGradient>
<linearGradient id="paint12_linear_2450_5" x1="1020.95" y1="499.09" x2="275.498" y2="499.09" gradientUnits="userSpaceOnUse">
<stop stop-color="#C0D6FF"/>
<stop offset="0.3" stop-color="#C4DAFF"/>
<stop offset="0.65" stop-color="#D3E9FF"/>
<stop offset="1" stop-color="#E9FFFF"/>
</linearGradient>
<linearGradient id="paint13_linear_2450_5" x1="1070.01" y1="444.314" x2="879.191" y2="444.314" gradientUnits="userSpaceOnUse">
<stop stop-color="#C0D6FF"/>
<stop offset="0.3" stop-color="#C4DAFF"/>
<stop offset="0.65" stop-color="#D3E9FF"/>
<stop offset="1" stop-color="#E9FFFF"/>
</linearGradient>
<radialGradient id="paint14_radial_2450_5" cx="0" cy="0" r="1" gradientUnits="userSpaceOnUse" gradientTransform="translate(769.338 595.162) rotate(-180) scale(213.705 213.927)">
<stop stop-color="#2B3AA5"/>
<stop offset="1" stop-color="#182484"/>
</radialGradient>
<radialGradient id="paint15_radial_2450_5" cx="0" cy="0" r="1" gradientUnits="userSpaceOnUse" gradientTransform="translate(816.08 498.919) rotate(180) scale(163.572 163.742)">
<stop stop-color="#2B3AA5"/>
<stop offset="1" stop-color="#182484"/>
</radialGradient>
<linearGradient id="paint16_linear_2450_5" x1="874.971" y1="546.173" x2="730.662" y2="286.584" gradientUnits="userSpaceOnUse">
<stop stop-color="#5778FF"/>
<stop offset="0.04" stop-color="#5B7CFF"/>
<stop offset="0.09" stop-color="#6A89FF"/>
<stop offset="0.14" stop-color="#819FFF"/>
<stop offset="0.19" stop-color="#A2BDFF"/>
<stop offset="0.22" stop-color="#BCD5FF"/>
</linearGradient>
<linearGradient id="paint17_linear_2450_5" x1="697.956" y1="547.101" x2="794.038" y2="359.507" gradientUnits="userSpaceOnUse">
<stop stop-color="#C0D6FF"/>
<stop offset="0.3" stop-color="#C4DAFF"/>
<stop offset="0.65" stop-color="#D3E9FF"/>
<stop offset="1" stop-color="#E9FFFF"/>
</linearGradient>
<linearGradient id="paint18_linear_2450_5" x1="438.729" y1="884.476" x2="744.032" y2="344.068" gradientUnits="userSpaceOnUse">
<stop stop-color="#C0D6FF"/>
<stop offset="0.08" stop-color="#C2D8FF"/>
<stop offset="0.13" stop-color="#CCE2FF"/>
<stop offset="0.18" stop-color="#DBF1FF"/>
<stop offset="0.21" stop-color="#E9FFFF"/>
<stop offset="0.26" stop-color="#D8EEFF"/>
<stop offset="0.31" stop-color="#CAE0FF"/>
<stop offset="0.39" stop-color="#C2D8FF"/>
<stop offset="0.51" stop-color="#C0D6FF"/>
<stop offset="0.62" stop-color="#D0E6FF"/>
<stop offset="0.75" stop-color="#E9FFFF"/>
<stop offset="1" stop-color="#C0D6FF"/>
</linearGradient>
<clipPath id="clip0_2450_5">
<rect width="1343" height="972" fill="white"/>
</clipPath>
</defs>
</svg>
